%
M48
M72
T01C0.02362
T02C0.04000
T03C0.12598
%
T01
X107200Y32200
X142200Y32200
X177200Y32200
X212200Y32200
X247200Y32200
X282200Y32200
X317200Y32200
X352200Y32200
X112200Y197200
X107200Y187200
X102200Y177200
X117200Y207200
X122200Y217200
X127200Y227200
X132200Y237200
X137200Y247200
T02
X162200Y247200
X172200Y247200
X172200Y237200
X162200Y237200
X162200Y227200
X162200Y217200
X172200Y217200
X172200Y227200
X172200Y207200
X162200Y207200
X162200Y197200
X172200Y197200
X172200Y187200
X172200Y177200
X162200Y177200
X162200Y187200
X161700Y122200
X162700Y112200
X161700Y102200
X162700Y92200
X161700Y82200
X162700Y72200
X161700Y62200
X126700Y62200
X127700Y72200
X126700Y82200
X127700Y92200
X126700Y102200
X127700Y112200
X126700Y122200
X92700Y112200
X91700Y102200
X92700Y92200
X91700Y82200
X92700Y72200
X91700Y62200
X57200Y92200
X57200Y102200
X91700Y122200
X17200Y102200
X17200Y92200
X17200Y72200
X17200Y62200
X157200Y7700
X167200Y6700
X177200Y7700
X187200Y6700
X197200Y7700
X207200Y6700
X217200Y7700
X227200Y6700
X231700Y62200
X232700Y72200
X231700Y82200
X232700Y92200
X231700Y102200
X232700Y112200
X231700Y122200
X196700Y122200
X197700Y112200
X196700Y102200
X197700Y92200
X196700Y82200
X197700Y72200
X196700Y62200
X266700Y62200
X267700Y72200
X266700Y82200
X267700Y92200
X266700Y102200
X267700Y112200
X266700Y122200
X301700Y122200
X302700Y112200
X301700Y102200
X302700Y92200
X301700Y82200
X302700Y72200
X301700Y62200
X336700Y62200
X337700Y72200
X336700Y82200
X337700Y92200
X336700Y102200
X337700Y112200
X336700Y122200
T03
X12200Y14700
X12200Y252200
X354700Y252200
X354700Y14700
M30
