G75*
%MOIN*%
%OFA0B0*%
%FSLAX25Y25*%
%IPPOS*%
%LPD*%
%AMOC8*
5,1,8,0,0,1.08239X$1,22.5*
%
%ADD10C,0.00000*%
%ADD11C,0.07400*%
%ADD12R,0.06000X0.06000*%
%ADD13R,0.07400X0.07400*%
%ADD14OC8,0.07400*%
%ADD15C,0.01600*%
%ADD16C,0.03962*%
%ADD17C,0.05000*%
D10*
X0002200Y0002200D02*
X0002200Y0262161D01*
X0365901Y0262161D01*
X0365901Y0002200D01*
X0002200Y0002200D01*
X0005901Y0014700D02*
X0005903Y0014858D01*
X0005909Y0015016D01*
X0005919Y0015174D01*
X0005933Y0015332D01*
X0005951Y0015489D01*
X0005972Y0015646D01*
X0005998Y0015802D01*
X0006028Y0015958D01*
X0006061Y0016113D01*
X0006099Y0016266D01*
X0006140Y0016419D01*
X0006185Y0016571D01*
X0006234Y0016722D01*
X0006287Y0016871D01*
X0006343Y0017019D01*
X0006403Y0017165D01*
X0006467Y0017310D01*
X0006535Y0017453D01*
X0006606Y0017595D01*
X0006680Y0017735D01*
X0006758Y0017872D01*
X0006840Y0018008D01*
X0006924Y0018142D01*
X0007013Y0018273D01*
X0007104Y0018402D01*
X0007199Y0018529D01*
X0007296Y0018654D01*
X0007397Y0018776D01*
X0007501Y0018895D01*
X0007608Y0019012D01*
X0007718Y0019126D01*
X0007831Y0019237D01*
X0007946Y0019346D01*
X0008064Y0019451D01*
X0008185Y0019553D01*
X0008308Y0019653D01*
X0008434Y0019749D01*
X0008562Y0019842D01*
X0008692Y0019932D01*
X0008825Y0020018D01*
X0008960Y0020102D01*
X0009096Y0020181D01*
X0009235Y0020258D01*
X0009376Y0020330D01*
X0009518Y0020400D01*
X0009662Y0020465D01*
X0009808Y0020527D01*
X0009955Y0020585D01*
X0010104Y0020640D01*
X0010254Y0020691D01*
X0010405Y0020738D01*
X0010557Y0020781D01*
X0010710Y0020820D01*
X0010865Y0020856D01*
X0011020Y0020887D01*
X0011176Y0020915D01*
X0011332Y0020939D01*
X0011489Y0020959D01*
X0011647Y0020975D01*
X0011804Y0020987D01*
X0011963Y0020995D01*
X0012121Y0020999D01*
X0012279Y0020999D01*
X0012437Y0020995D01*
X0012596Y0020987D01*
X0012753Y0020975D01*
X0012911Y0020959D01*
X0013068Y0020939D01*
X0013224Y0020915D01*
X0013380Y0020887D01*
X0013535Y0020856D01*
X0013690Y0020820D01*
X0013843Y0020781D01*
X0013995Y0020738D01*
X0014146Y0020691D01*
X0014296Y0020640D01*
X0014445Y0020585D01*
X0014592Y0020527D01*
X0014738Y0020465D01*
X0014882Y0020400D01*
X0015024Y0020330D01*
X0015165Y0020258D01*
X0015304Y0020181D01*
X0015440Y0020102D01*
X0015575Y0020018D01*
X0015708Y0019932D01*
X0015838Y0019842D01*
X0015966Y0019749D01*
X0016092Y0019653D01*
X0016215Y0019553D01*
X0016336Y0019451D01*
X0016454Y0019346D01*
X0016569Y0019237D01*
X0016682Y0019126D01*
X0016792Y0019012D01*
X0016899Y0018895D01*
X0017003Y0018776D01*
X0017104Y0018654D01*
X0017201Y0018529D01*
X0017296Y0018402D01*
X0017387Y0018273D01*
X0017476Y0018142D01*
X0017560Y0018008D01*
X0017642Y0017872D01*
X0017720Y0017735D01*
X0017794Y0017595D01*
X0017865Y0017453D01*
X0017933Y0017310D01*
X0017997Y0017165D01*
X0018057Y0017019D01*
X0018113Y0016871D01*
X0018166Y0016722D01*
X0018215Y0016571D01*
X0018260Y0016419D01*
X0018301Y0016266D01*
X0018339Y0016113D01*
X0018372Y0015958D01*
X0018402Y0015802D01*
X0018428Y0015646D01*
X0018449Y0015489D01*
X0018467Y0015332D01*
X0018481Y0015174D01*
X0018491Y0015016D01*
X0018497Y0014858D01*
X0018499Y0014700D01*
X0018497Y0014542D01*
X0018491Y0014384D01*
X0018481Y0014226D01*
X0018467Y0014068D01*
X0018449Y0013911D01*
X0018428Y0013754D01*
X0018402Y0013598D01*
X0018372Y0013442D01*
X0018339Y0013287D01*
X0018301Y0013134D01*
X0018260Y0012981D01*
X0018215Y0012829D01*
X0018166Y0012678D01*
X0018113Y0012529D01*
X0018057Y0012381D01*
X0017997Y0012235D01*
X0017933Y0012090D01*
X0017865Y0011947D01*
X0017794Y0011805D01*
X0017720Y0011665D01*
X0017642Y0011528D01*
X0017560Y0011392D01*
X0017476Y0011258D01*
X0017387Y0011127D01*
X0017296Y0010998D01*
X0017201Y0010871D01*
X0017104Y0010746D01*
X0017003Y0010624D01*
X0016899Y0010505D01*
X0016792Y0010388D01*
X0016682Y0010274D01*
X0016569Y0010163D01*
X0016454Y0010054D01*
X0016336Y0009949D01*
X0016215Y0009847D01*
X0016092Y0009747D01*
X0015966Y0009651D01*
X0015838Y0009558D01*
X0015708Y0009468D01*
X0015575Y0009382D01*
X0015440Y0009298D01*
X0015304Y0009219D01*
X0015165Y0009142D01*
X0015024Y0009070D01*
X0014882Y0009000D01*
X0014738Y0008935D01*
X0014592Y0008873D01*
X0014445Y0008815D01*
X0014296Y0008760D01*
X0014146Y0008709D01*
X0013995Y0008662D01*
X0013843Y0008619D01*
X0013690Y0008580D01*
X0013535Y0008544D01*
X0013380Y0008513D01*
X0013224Y0008485D01*
X0013068Y0008461D01*
X0012911Y0008441D01*
X0012753Y0008425D01*
X0012596Y0008413D01*
X0012437Y0008405D01*
X0012279Y0008401D01*
X0012121Y0008401D01*
X0011963Y0008405D01*
X0011804Y0008413D01*
X0011647Y0008425D01*
X0011489Y0008441D01*
X0011332Y0008461D01*
X0011176Y0008485D01*
X0011020Y0008513D01*
X0010865Y0008544D01*
X0010710Y0008580D01*
X0010557Y0008619D01*
X0010405Y0008662D01*
X0010254Y0008709D01*
X0010104Y0008760D01*
X0009955Y0008815D01*
X0009808Y0008873D01*
X0009662Y0008935D01*
X0009518Y0009000D01*
X0009376Y0009070D01*
X0009235Y0009142D01*
X0009096Y0009219D01*
X0008960Y0009298D01*
X0008825Y0009382D01*
X0008692Y0009468D01*
X0008562Y0009558D01*
X0008434Y0009651D01*
X0008308Y0009747D01*
X0008185Y0009847D01*
X0008064Y0009949D01*
X0007946Y0010054D01*
X0007831Y0010163D01*
X0007718Y0010274D01*
X0007608Y0010388D01*
X0007501Y0010505D01*
X0007397Y0010624D01*
X0007296Y0010746D01*
X0007199Y0010871D01*
X0007104Y0010998D01*
X0007013Y0011127D01*
X0006924Y0011258D01*
X0006840Y0011392D01*
X0006758Y0011528D01*
X0006680Y0011665D01*
X0006606Y0011805D01*
X0006535Y0011947D01*
X0006467Y0012090D01*
X0006403Y0012235D01*
X0006343Y0012381D01*
X0006287Y0012529D01*
X0006234Y0012678D01*
X0006185Y0012829D01*
X0006140Y0012981D01*
X0006099Y0013134D01*
X0006061Y0013287D01*
X0006028Y0013442D01*
X0005998Y0013598D01*
X0005972Y0013754D01*
X0005951Y0013911D01*
X0005933Y0014068D01*
X0005919Y0014226D01*
X0005909Y0014384D01*
X0005903Y0014542D01*
X0005901Y0014700D01*
X0005901Y0252200D02*
X0005903Y0252358D01*
X0005909Y0252516D01*
X0005919Y0252674D01*
X0005933Y0252832D01*
X0005951Y0252989D01*
X0005972Y0253146D01*
X0005998Y0253302D01*
X0006028Y0253458D01*
X0006061Y0253613D01*
X0006099Y0253766D01*
X0006140Y0253919D01*
X0006185Y0254071D01*
X0006234Y0254222D01*
X0006287Y0254371D01*
X0006343Y0254519D01*
X0006403Y0254665D01*
X0006467Y0254810D01*
X0006535Y0254953D01*
X0006606Y0255095D01*
X0006680Y0255235D01*
X0006758Y0255372D01*
X0006840Y0255508D01*
X0006924Y0255642D01*
X0007013Y0255773D01*
X0007104Y0255902D01*
X0007199Y0256029D01*
X0007296Y0256154D01*
X0007397Y0256276D01*
X0007501Y0256395D01*
X0007608Y0256512D01*
X0007718Y0256626D01*
X0007831Y0256737D01*
X0007946Y0256846D01*
X0008064Y0256951D01*
X0008185Y0257053D01*
X0008308Y0257153D01*
X0008434Y0257249D01*
X0008562Y0257342D01*
X0008692Y0257432D01*
X0008825Y0257518D01*
X0008960Y0257602D01*
X0009096Y0257681D01*
X0009235Y0257758D01*
X0009376Y0257830D01*
X0009518Y0257900D01*
X0009662Y0257965D01*
X0009808Y0258027D01*
X0009955Y0258085D01*
X0010104Y0258140D01*
X0010254Y0258191D01*
X0010405Y0258238D01*
X0010557Y0258281D01*
X0010710Y0258320D01*
X0010865Y0258356D01*
X0011020Y0258387D01*
X0011176Y0258415D01*
X0011332Y0258439D01*
X0011489Y0258459D01*
X0011647Y0258475D01*
X0011804Y0258487D01*
X0011963Y0258495D01*
X0012121Y0258499D01*
X0012279Y0258499D01*
X0012437Y0258495D01*
X0012596Y0258487D01*
X0012753Y0258475D01*
X0012911Y0258459D01*
X0013068Y0258439D01*
X0013224Y0258415D01*
X0013380Y0258387D01*
X0013535Y0258356D01*
X0013690Y0258320D01*
X0013843Y0258281D01*
X0013995Y0258238D01*
X0014146Y0258191D01*
X0014296Y0258140D01*
X0014445Y0258085D01*
X0014592Y0258027D01*
X0014738Y0257965D01*
X0014882Y0257900D01*
X0015024Y0257830D01*
X0015165Y0257758D01*
X0015304Y0257681D01*
X0015440Y0257602D01*
X0015575Y0257518D01*
X0015708Y0257432D01*
X0015838Y0257342D01*
X0015966Y0257249D01*
X0016092Y0257153D01*
X0016215Y0257053D01*
X0016336Y0256951D01*
X0016454Y0256846D01*
X0016569Y0256737D01*
X0016682Y0256626D01*
X0016792Y0256512D01*
X0016899Y0256395D01*
X0017003Y0256276D01*
X0017104Y0256154D01*
X0017201Y0256029D01*
X0017296Y0255902D01*
X0017387Y0255773D01*
X0017476Y0255642D01*
X0017560Y0255508D01*
X0017642Y0255372D01*
X0017720Y0255235D01*
X0017794Y0255095D01*
X0017865Y0254953D01*
X0017933Y0254810D01*
X0017997Y0254665D01*
X0018057Y0254519D01*
X0018113Y0254371D01*
X0018166Y0254222D01*
X0018215Y0254071D01*
X0018260Y0253919D01*
X0018301Y0253766D01*
X0018339Y0253613D01*
X0018372Y0253458D01*
X0018402Y0253302D01*
X0018428Y0253146D01*
X0018449Y0252989D01*
X0018467Y0252832D01*
X0018481Y0252674D01*
X0018491Y0252516D01*
X0018497Y0252358D01*
X0018499Y0252200D01*
X0018497Y0252042D01*
X0018491Y0251884D01*
X0018481Y0251726D01*
X0018467Y0251568D01*
X0018449Y0251411D01*
X0018428Y0251254D01*
X0018402Y0251098D01*
X0018372Y0250942D01*
X0018339Y0250787D01*
X0018301Y0250634D01*
X0018260Y0250481D01*
X0018215Y0250329D01*
X0018166Y0250178D01*
X0018113Y0250029D01*
X0018057Y0249881D01*
X0017997Y0249735D01*
X0017933Y0249590D01*
X0017865Y0249447D01*
X0017794Y0249305D01*
X0017720Y0249165D01*
X0017642Y0249028D01*
X0017560Y0248892D01*
X0017476Y0248758D01*
X0017387Y0248627D01*
X0017296Y0248498D01*
X0017201Y0248371D01*
X0017104Y0248246D01*
X0017003Y0248124D01*
X0016899Y0248005D01*
X0016792Y0247888D01*
X0016682Y0247774D01*
X0016569Y0247663D01*
X0016454Y0247554D01*
X0016336Y0247449D01*
X0016215Y0247347D01*
X0016092Y0247247D01*
X0015966Y0247151D01*
X0015838Y0247058D01*
X0015708Y0246968D01*
X0015575Y0246882D01*
X0015440Y0246798D01*
X0015304Y0246719D01*
X0015165Y0246642D01*
X0015024Y0246570D01*
X0014882Y0246500D01*
X0014738Y0246435D01*
X0014592Y0246373D01*
X0014445Y0246315D01*
X0014296Y0246260D01*
X0014146Y0246209D01*
X0013995Y0246162D01*
X0013843Y0246119D01*
X0013690Y0246080D01*
X0013535Y0246044D01*
X0013380Y0246013D01*
X0013224Y0245985D01*
X0013068Y0245961D01*
X0012911Y0245941D01*
X0012753Y0245925D01*
X0012596Y0245913D01*
X0012437Y0245905D01*
X0012279Y0245901D01*
X0012121Y0245901D01*
X0011963Y0245905D01*
X0011804Y0245913D01*
X0011647Y0245925D01*
X0011489Y0245941D01*
X0011332Y0245961D01*
X0011176Y0245985D01*
X0011020Y0246013D01*
X0010865Y0246044D01*
X0010710Y0246080D01*
X0010557Y0246119D01*
X0010405Y0246162D01*
X0010254Y0246209D01*
X0010104Y0246260D01*
X0009955Y0246315D01*
X0009808Y0246373D01*
X0009662Y0246435D01*
X0009518Y0246500D01*
X0009376Y0246570D01*
X0009235Y0246642D01*
X0009096Y0246719D01*
X0008960Y0246798D01*
X0008825Y0246882D01*
X0008692Y0246968D01*
X0008562Y0247058D01*
X0008434Y0247151D01*
X0008308Y0247247D01*
X0008185Y0247347D01*
X0008064Y0247449D01*
X0007946Y0247554D01*
X0007831Y0247663D01*
X0007718Y0247774D01*
X0007608Y0247888D01*
X0007501Y0248005D01*
X0007397Y0248124D01*
X0007296Y0248246D01*
X0007199Y0248371D01*
X0007104Y0248498D01*
X0007013Y0248627D01*
X0006924Y0248758D01*
X0006840Y0248892D01*
X0006758Y0249028D01*
X0006680Y0249165D01*
X0006606Y0249305D01*
X0006535Y0249447D01*
X0006467Y0249590D01*
X0006403Y0249735D01*
X0006343Y0249881D01*
X0006287Y0250029D01*
X0006234Y0250178D01*
X0006185Y0250329D01*
X0006140Y0250481D01*
X0006099Y0250634D01*
X0006061Y0250787D01*
X0006028Y0250942D01*
X0005998Y0251098D01*
X0005972Y0251254D01*
X0005951Y0251411D01*
X0005933Y0251568D01*
X0005919Y0251726D01*
X0005909Y0251884D01*
X0005903Y0252042D01*
X0005901Y0252200D01*
X0348401Y0252200D02*
X0348403Y0252358D01*
X0348409Y0252516D01*
X0348419Y0252674D01*
X0348433Y0252832D01*
X0348451Y0252989D01*
X0348472Y0253146D01*
X0348498Y0253302D01*
X0348528Y0253458D01*
X0348561Y0253613D01*
X0348599Y0253766D01*
X0348640Y0253919D01*
X0348685Y0254071D01*
X0348734Y0254222D01*
X0348787Y0254371D01*
X0348843Y0254519D01*
X0348903Y0254665D01*
X0348967Y0254810D01*
X0349035Y0254953D01*
X0349106Y0255095D01*
X0349180Y0255235D01*
X0349258Y0255372D01*
X0349340Y0255508D01*
X0349424Y0255642D01*
X0349513Y0255773D01*
X0349604Y0255902D01*
X0349699Y0256029D01*
X0349796Y0256154D01*
X0349897Y0256276D01*
X0350001Y0256395D01*
X0350108Y0256512D01*
X0350218Y0256626D01*
X0350331Y0256737D01*
X0350446Y0256846D01*
X0350564Y0256951D01*
X0350685Y0257053D01*
X0350808Y0257153D01*
X0350934Y0257249D01*
X0351062Y0257342D01*
X0351192Y0257432D01*
X0351325Y0257518D01*
X0351460Y0257602D01*
X0351596Y0257681D01*
X0351735Y0257758D01*
X0351876Y0257830D01*
X0352018Y0257900D01*
X0352162Y0257965D01*
X0352308Y0258027D01*
X0352455Y0258085D01*
X0352604Y0258140D01*
X0352754Y0258191D01*
X0352905Y0258238D01*
X0353057Y0258281D01*
X0353210Y0258320D01*
X0353365Y0258356D01*
X0353520Y0258387D01*
X0353676Y0258415D01*
X0353832Y0258439D01*
X0353989Y0258459D01*
X0354147Y0258475D01*
X0354304Y0258487D01*
X0354463Y0258495D01*
X0354621Y0258499D01*
X0354779Y0258499D01*
X0354937Y0258495D01*
X0355096Y0258487D01*
X0355253Y0258475D01*
X0355411Y0258459D01*
X0355568Y0258439D01*
X0355724Y0258415D01*
X0355880Y0258387D01*
X0356035Y0258356D01*
X0356190Y0258320D01*
X0356343Y0258281D01*
X0356495Y0258238D01*
X0356646Y0258191D01*
X0356796Y0258140D01*
X0356945Y0258085D01*
X0357092Y0258027D01*
X0357238Y0257965D01*
X0357382Y0257900D01*
X0357524Y0257830D01*
X0357665Y0257758D01*
X0357804Y0257681D01*
X0357940Y0257602D01*
X0358075Y0257518D01*
X0358208Y0257432D01*
X0358338Y0257342D01*
X0358466Y0257249D01*
X0358592Y0257153D01*
X0358715Y0257053D01*
X0358836Y0256951D01*
X0358954Y0256846D01*
X0359069Y0256737D01*
X0359182Y0256626D01*
X0359292Y0256512D01*
X0359399Y0256395D01*
X0359503Y0256276D01*
X0359604Y0256154D01*
X0359701Y0256029D01*
X0359796Y0255902D01*
X0359887Y0255773D01*
X0359976Y0255642D01*
X0360060Y0255508D01*
X0360142Y0255372D01*
X0360220Y0255235D01*
X0360294Y0255095D01*
X0360365Y0254953D01*
X0360433Y0254810D01*
X0360497Y0254665D01*
X0360557Y0254519D01*
X0360613Y0254371D01*
X0360666Y0254222D01*
X0360715Y0254071D01*
X0360760Y0253919D01*
X0360801Y0253766D01*
X0360839Y0253613D01*
X0360872Y0253458D01*
X0360902Y0253302D01*
X0360928Y0253146D01*
X0360949Y0252989D01*
X0360967Y0252832D01*
X0360981Y0252674D01*
X0360991Y0252516D01*
X0360997Y0252358D01*
X0360999Y0252200D01*
X0360997Y0252042D01*
X0360991Y0251884D01*
X0360981Y0251726D01*
X0360967Y0251568D01*
X0360949Y0251411D01*
X0360928Y0251254D01*
X0360902Y0251098D01*
X0360872Y0250942D01*
X0360839Y0250787D01*
X0360801Y0250634D01*
X0360760Y0250481D01*
X0360715Y0250329D01*
X0360666Y0250178D01*
X0360613Y0250029D01*
X0360557Y0249881D01*
X0360497Y0249735D01*
X0360433Y0249590D01*
X0360365Y0249447D01*
X0360294Y0249305D01*
X0360220Y0249165D01*
X0360142Y0249028D01*
X0360060Y0248892D01*
X0359976Y0248758D01*
X0359887Y0248627D01*
X0359796Y0248498D01*
X0359701Y0248371D01*
X0359604Y0248246D01*
X0359503Y0248124D01*
X0359399Y0248005D01*
X0359292Y0247888D01*
X0359182Y0247774D01*
X0359069Y0247663D01*
X0358954Y0247554D01*
X0358836Y0247449D01*
X0358715Y0247347D01*
X0358592Y0247247D01*
X0358466Y0247151D01*
X0358338Y0247058D01*
X0358208Y0246968D01*
X0358075Y0246882D01*
X0357940Y0246798D01*
X0357804Y0246719D01*
X0357665Y0246642D01*
X0357524Y0246570D01*
X0357382Y0246500D01*
X0357238Y0246435D01*
X0357092Y0246373D01*
X0356945Y0246315D01*
X0356796Y0246260D01*
X0356646Y0246209D01*
X0356495Y0246162D01*
X0356343Y0246119D01*
X0356190Y0246080D01*
X0356035Y0246044D01*
X0355880Y0246013D01*
X0355724Y0245985D01*
X0355568Y0245961D01*
X0355411Y0245941D01*
X0355253Y0245925D01*
X0355096Y0245913D01*
X0354937Y0245905D01*
X0354779Y0245901D01*
X0354621Y0245901D01*
X0354463Y0245905D01*
X0354304Y0245913D01*
X0354147Y0245925D01*
X0353989Y0245941D01*
X0353832Y0245961D01*
X0353676Y0245985D01*
X0353520Y0246013D01*
X0353365Y0246044D01*
X0353210Y0246080D01*
X0353057Y0246119D01*
X0352905Y0246162D01*
X0352754Y0246209D01*
X0352604Y0246260D01*
X0352455Y0246315D01*
X0352308Y0246373D01*
X0352162Y0246435D01*
X0352018Y0246500D01*
X0351876Y0246570D01*
X0351735Y0246642D01*
X0351596Y0246719D01*
X0351460Y0246798D01*
X0351325Y0246882D01*
X0351192Y0246968D01*
X0351062Y0247058D01*
X0350934Y0247151D01*
X0350808Y0247247D01*
X0350685Y0247347D01*
X0350564Y0247449D01*
X0350446Y0247554D01*
X0350331Y0247663D01*
X0350218Y0247774D01*
X0350108Y0247888D01*
X0350001Y0248005D01*
X0349897Y0248124D01*
X0349796Y0248246D01*
X0349699Y0248371D01*
X0349604Y0248498D01*
X0349513Y0248627D01*
X0349424Y0248758D01*
X0349340Y0248892D01*
X0349258Y0249028D01*
X0349180Y0249165D01*
X0349106Y0249305D01*
X0349035Y0249447D01*
X0348967Y0249590D01*
X0348903Y0249735D01*
X0348843Y0249881D01*
X0348787Y0250029D01*
X0348734Y0250178D01*
X0348685Y0250329D01*
X0348640Y0250481D01*
X0348599Y0250634D01*
X0348561Y0250787D01*
X0348528Y0250942D01*
X0348498Y0251098D01*
X0348472Y0251254D01*
X0348451Y0251411D01*
X0348433Y0251568D01*
X0348419Y0251726D01*
X0348409Y0251884D01*
X0348403Y0252042D01*
X0348401Y0252200D01*
X0348401Y0014700D02*
X0348403Y0014858D01*
X0348409Y0015016D01*
X0348419Y0015174D01*
X0348433Y0015332D01*
X0348451Y0015489D01*
X0348472Y0015646D01*
X0348498Y0015802D01*
X0348528Y0015958D01*
X0348561Y0016113D01*
X0348599Y0016266D01*
X0348640Y0016419D01*
X0348685Y0016571D01*
X0348734Y0016722D01*
X0348787Y0016871D01*
X0348843Y0017019D01*
X0348903Y0017165D01*
X0348967Y0017310D01*
X0349035Y0017453D01*
X0349106Y0017595D01*
X0349180Y0017735D01*
X0349258Y0017872D01*
X0349340Y0018008D01*
X0349424Y0018142D01*
X0349513Y0018273D01*
X0349604Y0018402D01*
X0349699Y0018529D01*
X0349796Y0018654D01*
X0349897Y0018776D01*
X0350001Y0018895D01*
X0350108Y0019012D01*
X0350218Y0019126D01*
X0350331Y0019237D01*
X0350446Y0019346D01*
X0350564Y0019451D01*
X0350685Y0019553D01*
X0350808Y0019653D01*
X0350934Y0019749D01*
X0351062Y0019842D01*
X0351192Y0019932D01*
X0351325Y0020018D01*
X0351460Y0020102D01*
X0351596Y0020181D01*
X0351735Y0020258D01*
X0351876Y0020330D01*
X0352018Y0020400D01*
X0352162Y0020465D01*
X0352308Y0020527D01*
X0352455Y0020585D01*
X0352604Y0020640D01*
X0352754Y0020691D01*
X0352905Y0020738D01*
X0353057Y0020781D01*
X0353210Y0020820D01*
X0353365Y0020856D01*
X0353520Y0020887D01*
X0353676Y0020915D01*
X0353832Y0020939D01*
X0353989Y0020959D01*
X0354147Y0020975D01*
X0354304Y0020987D01*
X0354463Y0020995D01*
X0354621Y0020999D01*
X0354779Y0020999D01*
X0354937Y0020995D01*
X0355096Y0020987D01*
X0355253Y0020975D01*
X0355411Y0020959D01*
X0355568Y0020939D01*
X0355724Y0020915D01*
X0355880Y0020887D01*
X0356035Y0020856D01*
X0356190Y0020820D01*
X0356343Y0020781D01*
X0356495Y0020738D01*
X0356646Y0020691D01*
X0356796Y0020640D01*
X0356945Y0020585D01*
X0357092Y0020527D01*
X0357238Y0020465D01*
X0357382Y0020400D01*
X0357524Y0020330D01*
X0357665Y0020258D01*
X0357804Y0020181D01*
X0357940Y0020102D01*
X0358075Y0020018D01*
X0358208Y0019932D01*
X0358338Y0019842D01*
X0358466Y0019749D01*
X0358592Y0019653D01*
X0358715Y0019553D01*
X0358836Y0019451D01*
X0358954Y0019346D01*
X0359069Y0019237D01*
X0359182Y0019126D01*
X0359292Y0019012D01*
X0359399Y0018895D01*
X0359503Y0018776D01*
X0359604Y0018654D01*
X0359701Y0018529D01*
X0359796Y0018402D01*
X0359887Y0018273D01*
X0359976Y0018142D01*
X0360060Y0018008D01*
X0360142Y0017872D01*
X0360220Y0017735D01*
X0360294Y0017595D01*
X0360365Y0017453D01*
X0360433Y0017310D01*
X0360497Y0017165D01*
X0360557Y0017019D01*
X0360613Y0016871D01*
X0360666Y0016722D01*
X0360715Y0016571D01*
X0360760Y0016419D01*
X0360801Y0016266D01*
X0360839Y0016113D01*
X0360872Y0015958D01*
X0360902Y0015802D01*
X0360928Y0015646D01*
X0360949Y0015489D01*
X0360967Y0015332D01*
X0360981Y0015174D01*
X0360991Y0015016D01*
X0360997Y0014858D01*
X0360999Y0014700D01*
X0360997Y0014542D01*
X0360991Y0014384D01*
X0360981Y0014226D01*
X0360967Y0014068D01*
X0360949Y0013911D01*
X0360928Y0013754D01*
X0360902Y0013598D01*
X0360872Y0013442D01*
X0360839Y0013287D01*
X0360801Y0013134D01*
X0360760Y0012981D01*
X0360715Y0012829D01*
X0360666Y0012678D01*
X0360613Y0012529D01*
X0360557Y0012381D01*
X0360497Y0012235D01*
X0360433Y0012090D01*
X0360365Y0011947D01*
X0360294Y0011805D01*
X0360220Y0011665D01*
X0360142Y0011528D01*
X0360060Y0011392D01*
X0359976Y0011258D01*
X0359887Y0011127D01*
X0359796Y0010998D01*
X0359701Y0010871D01*
X0359604Y0010746D01*
X0359503Y0010624D01*
X0359399Y0010505D01*
X0359292Y0010388D01*
X0359182Y0010274D01*
X0359069Y0010163D01*
X0358954Y0010054D01*
X0358836Y0009949D01*
X0358715Y0009847D01*
X0358592Y0009747D01*
X0358466Y0009651D01*
X0358338Y0009558D01*
X0358208Y0009468D01*
X0358075Y0009382D01*
X0357940Y0009298D01*
X0357804Y0009219D01*
X0357665Y0009142D01*
X0357524Y0009070D01*
X0357382Y0009000D01*
X0357238Y0008935D01*
X0357092Y0008873D01*
X0356945Y0008815D01*
X0356796Y0008760D01*
X0356646Y0008709D01*
X0356495Y0008662D01*
X0356343Y0008619D01*
X0356190Y0008580D01*
X0356035Y0008544D01*
X0355880Y0008513D01*
X0355724Y0008485D01*
X0355568Y0008461D01*
X0355411Y0008441D01*
X0355253Y0008425D01*
X0355096Y0008413D01*
X0354937Y0008405D01*
X0354779Y0008401D01*
X0354621Y0008401D01*
X0354463Y0008405D01*
X0354304Y0008413D01*
X0354147Y0008425D01*
X0353989Y0008441D01*
X0353832Y0008461D01*
X0353676Y0008485D01*
X0353520Y0008513D01*
X0353365Y0008544D01*
X0353210Y0008580D01*
X0353057Y0008619D01*
X0352905Y0008662D01*
X0352754Y0008709D01*
X0352604Y0008760D01*
X0352455Y0008815D01*
X0352308Y0008873D01*
X0352162Y0008935D01*
X0352018Y0009000D01*
X0351876Y0009070D01*
X0351735Y0009142D01*
X0351596Y0009219D01*
X0351460Y0009298D01*
X0351325Y0009382D01*
X0351192Y0009468D01*
X0351062Y0009558D01*
X0350934Y0009651D01*
X0350808Y0009747D01*
X0350685Y0009847D01*
X0350564Y0009949D01*
X0350446Y0010054D01*
X0350331Y0010163D01*
X0350218Y0010274D01*
X0350108Y0010388D01*
X0350001Y0010505D01*
X0349897Y0010624D01*
X0349796Y0010746D01*
X0349699Y0010871D01*
X0349604Y0010998D01*
X0349513Y0011127D01*
X0349424Y0011258D01*
X0349340Y0011392D01*
X0349258Y0011528D01*
X0349180Y0011665D01*
X0349106Y0011805D01*
X0349035Y0011947D01*
X0348967Y0012090D01*
X0348903Y0012235D01*
X0348843Y0012381D01*
X0348787Y0012529D01*
X0348734Y0012678D01*
X0348685Y0012829D01*
X0348640Y0012981D01*
X0348599Y0013134D01*
X0348561Y0013287D01*
X0348528Y0013442D01*
X0348498Y0013598D01*
X0348472Y0013754D01*
X0348451Y0013911D01*
X0348433Y0014068D01*
X0348419Y0014226D01*
X0348409Y0014384D01*
X0348403Y0014542D01*
X0348401Y0014700D01*
D11*
X0336700Y0062200D03*
X0337700Y0072200D03*
X0336700Y0082200D03*
X0337700Y0092200D03*
X0336700Y0102200D03*
X0337700Y0112200D03*
X0336700Y0122200D03*
X0301700Y0122200D03*
X0302700Y0112200D03*
X0301700Y0102200D03*
X0302700Y0092200D03*
X0301700Y0082200D03*
X0302700Y0072200D03*
X0301700Y0062200D03*
X0266700Y0062200D03*
X0267700Y0072200D03*
X0266700Y0082200D03*
X0267700Y0092200D03*
X0266700Y0102200D03*
X0267700Y0112200D03*
X0266700Y0122200D03*
X0231700Y0122200D03*
X0232700Y0112200D03*
X0231700Y0102200D03*
X0232700Y0092200D03*
X0231700Y0082200D03*
X0232700Y0072200D03*
X0231700Y0062200D03*
X0196700Y0062200D03*
X0197700Y0072200D03*
X0196700Y0082200D03*
X0197700Y0092200D03*
X0196700Y0102200D03*
X0197700Y0112200D03*
X0196700Y0122200D03*
X0162700Y0112200D03*
X0161700Y0102200D03*
X0162700Y0092200D03*
X0161700Y0082200D03*
X0162700Y0072200D03*
X0161700Y0062200D03*
X0126700Y0062200D03*
X0127700Y0072200D03*
X0126700Y0082200D03*
X0127700Y0092200D03*
X0126700Y0102200D03*
X0127700Y0112200D03*
X0126700Y0122200D03*
X0161700Y0122200D03*
X0092700Y0112200D03*
X0091700Y0102200D03*
X0092700Y0092200D03*
X0091700Y0082200D03*
X0092700Y0072200D03*
X0091700Y0062200D03*
X0057200Y0092200D03*
X0057200Y0102200D03*
X0091700Y0122200D03*
X0167200Y0006700D03*
X0177200Y0007700D03*
X0187200Y0006700D03*
X0197200Y0007700D03*
X0207200Y0006700D03*
X0217200Y0007700D03*
X0227200Y0006700D03*
D12*
X0017200Y0062200D03*
X0017200Y0072200D03*
X0017200Y0092200D03*
X0017200Y0102200D03*
D13*
X0157200Y0007700D03*
D14*
X0162200Y0177200D03*
X0162200Y0187200D03*
X0172200Y0187200D03*
X0172200Y0177200D03*
X0172200Y0197200D03*
X0162200Y0197200D03*
X0162200Y0207200D03*
X0172200Y0207200D03*
X0172200Y0217200D03*
X0172200Y0227200D03*
X0162200Y0227200D03*
X0162200Y0217200D03*
X0162200Y0237200D03*
X0172200Y0237200D03*
X0172200Y0247200D03*
X0162200Y0247200D03*
D15*
X0137200Y0247200D02*
X0137200Y0187200D01*
X0162200Y0162200D01*
X0297200Y0162200D01*
X0336700Y0122700D01*
X0336700Y0122200D01*
X0336700Y0102200D02*
X0301700Y0102200D01*
X0266700Y0102200D01*
X0231700Y0102200D01*
X0196700Y0102200D01*
X0161700Y0102200D01*
X0126700Y0102200D01*
X0091700Y0102200D01*
X0057200Y0102200D01*
X0057200Y0092200D02*
X0092700Y0092200D01*
X0127700Y0092200D01*
X0162700Y0092200D01*
X0197700Y0092200D01*
X0232700Y0092200D01*
X0267700Y0092200D01*
X0302700Y0092200D01*
X0337700Y0092200D01*
X0301700Y0122200D02*
X0301700Y0122700D01*
X0267200Y0157200D01*
X0157200Y0157200D01*
X0132200Y0182200D01*
X0132200Y0237200D01*
X0127200Y0227200D02*
X0127200Y0177200D01*
X0152200Y0152200D01*
X0237200Y0152200D01*
X0266700Y0122700D01*
X0266700Y0122200D01*
X0231700Y0122200D02*
X0231700Y0122700D01*
X0207200Y0147200D01*
X0147200Y0147200D01*
X0122200Y0172200D01*
X0122200Y0217200D01*
X0117200Y0207200D02*
X0117200Y0167200D01*
X0142200Y0142200D01*
X0172200Y0142200D01*
X0192200Y0122200D01*
X0196700Y0122200D01*
X0161700Y0122200D02*
X0161700Y0122700D01*
X0147200Y0137200D01*
X0137200Y0137200D01*
X0112200Y0162200D01*
X0112200Y0197200D01*
X0107200Y0187200D02*
X0107200Y0142200D01*
X0126700Y0122700D01*
X0126700Y0122200D01*
X0102200Y0132200D02*
X0102200Y0177200D01*
X0102200Y0132200D02*
X0091700Y0122200D01*
X0107200Y0032200D02*
X0132200Y0032200D01*
X0137200Y0027200D01*
X0147200Y0027200D01*
X0157200Y0017200D01*
X0157200Y0007700D01*
X0156700Y0007200D01*
X0167200Y0006700D02*
X0167200Y0017200D01*
X0152200Y0032200D01*
X0142200Y0032200D01*
X0167200Y0012200D02*
X0167200Y0006700D01*
X0177200Y0007700D02*
X0177200Y0032200D01*
X0187200Y0027200D02*
X0187200Y0006700D01*
X0197200Y0007700D02*
X0197200Y0022200D01*
X0202200Y0027200D01*
X0217200Y0027200D01*
X0222200Y0032200D01*
X0247200Y0032200D01*
X0252200Y0027200D02*
X0227200Y0027200D01*
X0222200Y0022200D01*
X0212200Y0022200D01*
X0207200Y0017200D01*
X0207200Y0006700D01*
X0217200Y0007700D02*
X0217200Y0012200D01*
X0222200Y0017200D01*
X0227200Y0017200D01*
X0232200Y0022200D01*
X0257200Y0022200D01*
X0262200Y0027200D01*
X0287200Y0027200D01*
X0292200Y0032200D01*
X0317200Y0032200D01*
X0322200Y0027200D02*
X0297200Y0027200D01*
X0292200Y0022200D01*
X0267200Y0022200D01*
X0262200Y0017200D01*
X0237700Y0017200D01*
X0227200Y0006700D01*
X0252200Y0027200D02*
X0257200Y0032200D01*
X0282200Y0032200D01*
X0322200Y0027200D02*
X0327200Y0032200D01*
X0352200Y0032200D01*
X0212200Y0032200D02*
X0192200Y0032200D01*
X0187200Y0027200D01*
D16*
X0177200Y0032200D03*
X0142200Y0032200D03*
X0107200Y0032200D03*
X0212200Y0032200D03*
X0247200Y0032200D03*
X0282200Y0032200D03*
X0317200Y0032200D03*
X0352200Y0032200D03*
X0112200Y0197200D03*
X0107200Y0187200D03*
X0102200Y0177200D03*
X0117200Y0207200D03*
X0122200Y0217200D03*
X0127200Y0227200D03*
X0132200Y0237200D03*
X0137200Y0247200D03*
D17*
X0027200Y0092200D02*
X0017200Y0092200D01*
X0027200Y0092200D02*
X0037200Y0082200D01*
X0037200Y0067200D01*
X0032200Y0062200D01*
X0017200Y0062200D01*
X0091700Y0062200D01*
X0126700Y0062200D01*
X0161700Y0062200D01*
X0196700Y0062200D01*
X0231700Y0062200D01*
X0266700Y0062200D01*
X0301700Y0062200D01*
X0336700Y0062200D01*
M02*
