G75*
%MOIN*%
%OFA0B0*%
%FSLAX25Y25*%
%IPPOS*%
%LPD*%
%AMOC8*
5,1,8,0,0,1.08239X$1,22.5*
%
%ADD10R,0.03900X0.00300*%
%ADD11R,0.03000X0.00300*%
%ADD12R,0.04200X0.00300*%
%ADD13R,0.03600X0.00300*%
%ADD14R,0.00900X0.00300*%
%ADD15R,0.02700X0.00300*%
%ADD16R,0.02400X0.00300*%
%ADD17R,0.05400X0.00300*%
%ADD18R,0.01800X0.00300*%
%ADD19R,0.06000X0.00300*%
%ADD20R,0.04800X0.00300*%
%ADD21R,0.02100X0.00300*%
%ADD22R,0.06900X0.00300*%
%ADD23R,0.05700X0.00300*%
%ADD24R,0.07800X0.00300*%
%ADD25R,0.08100X0.00300*%
%ADD26R,0.06300X0.00300*%
%ADD27R,0.08400X0.00300*%
%ADD28R,0.09000X0.00300*%
%ADD29R,0.03300X0.00300*%
%ADD30R,0.01500X0.00300*%
%ADD31R,0.01200X0.00300*%
%ADD32R,0.00600X0.00300*%
%ADD33R,0.00300X0.00300*%
%ADD34R,0.04500X0.00300*%
%ADD35R,0.12600X0.00300*%
%ADD36R,0.05100X0.00300*%
%ADD37R,0.07200X0.00300*%
%ADD38R,0.07500X0.00300*%
%ADD39R,0.06600X0.00300*%
%ADD40R,0.08700X0.00300*%
%ADD41C,0.00300*%
%ADD42C,0.00500*%
%ADD43C,0.00800*%
%ADD44C,0.00600*%
D10*
X0034600Y0208000D03*
X0036400Y0221200D03*
X0034300Y0222400D03*
X0053800Y0209500D03*
X0064600Y0216700D03*
X0069400Y0214300D03*
X0082600Y0208000D03*
X0123100Y0208000D03*
X0122800Y0222400D03*
D11*
X0119650Y0209800D03*
X0126250Y0209500D03*
X0102250Y0211000D03*
X0102250Y0211300D03*
X0101350Y0220900D03*
X0094750Y0220900D03*
X0085450Y0209500D03*
X0079150Y0209800D03*
X0078850Y0210100D03*
X0069850Y0209500D03*
X0063550Y0217300D03*
X0054850Y0220600D03*
X0046750Y0219400D03*
X0046750Y0219100D03*
X0046750Y0211300D03*
X0052150Y0208000D03*
X0054550Y0209800D03*
X0079450Y0220900D03*
X0018850Y0209200D03*
X0018850Y0208900D03*
X0010450Y0209200D03*
X0014650Y0220900D03*
X0014650Y0221200D03*
X0014650Y0221500D03*
X0014650Y0221800D03*
D12*
X0052150Y0208300D03*
X0065050Y0216400D03*
X0069550Y0221200D03*
X0066850Y0208000D03*
D13*
X0064450Y0221200D03*
X0054250Y0220900D03*
X0052150Y0222400D03*
X0032050Y0221200D03*
X0018850Y0210100D03*
X0014650Y0219400D03*
X0014650Y0219700D03*
X0014650Y0220000D03*
X0014650Y0220300D03*
X0095350Y0214900D03*
X0101650Y0216700D03*
X0096550Y0208000D03*
X0120550Y0221200D03*
X0125050Y0221200D03*
D14*
X0127300Y0211300D03*
X0135100Y0210700D03*
X0135100Y0208000D03*
X0100600Y0210400D03*
X0100300Y0210100D03*
X0093700Y0219700D03*
X0070600Y0220300D03*
X0062500Y0210700D03*
X0048100Y0210700D03*
X0038800Y0211300D03*
D15*
X0037600Y0209500D03*
X0031000Y0209800D03*
X0030700Y0210100D03*
X0019000Y0208600D03*
X0010300Y0208600D03*
X0010300Y0208300D03*
X0010300Y0208900D03*
X0031300Y0220900D03*
X0037300Y0220900D03*
X0046600Y0218800D03*
X0046600Y0218500D03*
X0046600Y0212200D03*
X0046600Y0211900D03*
X0046600Y0211600D03*
X0055000Y0210100D03*
X0062800Y0209800D03*
X0070300Y0213700D03*
X0070600Y0213400D03*
X0078100Y0211000D03*
X0078700Y0220300D03*
X0079000Y0220600D03*
X0085600Y0220900D03*
X0094300Y0220600D03*
X0094600Y0214600D03*
X0094000Y0209800D03*
X0094300Y0209500D03*
X0102400Y0211600D03*
X0101800Y0220600D03*
X0119800Y0220900D03*
X0125800Y0220900D03*
X0126700Y0209800D03*
X0119200Y0210100D03*
X0135100Y0209800D03*
X0135100Y0209500D03*
X0135100Y0209200D03*
X0135100Y0208900D03*
X0070300Y0220900D03*
X0064000Y0220900D03*
X0063400Y0217600D03*
X0055600Y0219700D03*
X0055300Y0220000D03*
X0055000Y0220300D03*
D16*
X0055750Y0219400D03*
X0055750Y0219100D03*
X0056050Y0218800D03*
X0056050Y0218500D03*
X0056050Y0218200D03*
X0056350Y0217900D03*
X0056350Y0217600D03*
X0056350Y0217300D03*
X0056350Y0217000D03*
X0056350Y0216700D03*
X0056650Y0215500D03*
X0056650Y0215200D03*
X0056350Y0213700D03*
X0056350Y0213400D03*
X0056350Y0213100D03*
X0056350Y0212800D03*
X0056050Y0212200D03*
X0056050Y0211900D03*
X0055750Y0211600D03*
X0055750Y0211300D03*
X0055450Y0211000D03*
X0055450Y0210700D03*
X0055150Y0210400D03*
X0049450Y0209500D03*
X0046450Y0212500D03*
X0046450Y0212800D03*
X0046450Y0213100D03*
X0046450Y0213400D03*
X0046450Y0213700D03*
X0046450Y0217300D03*
X0046450Y0217600D03*
X0046450Y0217900D03*
X0046450Y0218200D03*
X0039250Y0217000D03*
X0037750Y0220600D03*
X0030850Y0220600D03*
X0030550Y0220300D03*
X0030250Y0220000D03*
X0029050Y0216700D03*
X0029050Y0216400D03*
X0029050Y0214300D03*
X0029050Y0214000D03*
X0029050Y0213700D03*
X0029350Y0212500D03*
X0029650Y0211600D03*
X0029950Y0211000D03*
X0030250Y0210700D03*
X0030550Y0210400D03*
X0038050Y0209800D03*
X0038350Y0210100D03*
X0022450Y0219700D03*
X0022750Y0220900D03*
X0023050Y0221800D03*
X0023050Y0222100D03*
X0014650Y0222100D03*
X0006850Y0219700D03*
X0006550Y0220600D03*
X0006550Y0220900D03*
X0006250Y0221800D03*
X0006250Y0222100D03*
X0018850Y0208300D03*
X0062650Y0210100D03*
X0070150Y0209800D03*
X0070450Y0210100D03*
X0070750Y0210400D03*
X0071050Y0211300D03*
X0071050Y0212200D03*
X0071050Y0212500D03*
X0071050Y0212800D03*
X0070750Y0213100D03*
X0077050Y0214000D03*
X0077050Y0214300D03*
X0077050Y0214600D03*
X0077050Y0214900D03*
X0077050Y0215200D03*
X0077050Y0215500D03*
X0077050Y0215800D03*
X0077050Y0216100D03*
X0077050Y0216400D03*
X0077050Y0216700D03*
X0077350Y0217600D03*
X0077350Y0217900D03*
X0077650Y0218800D03*
X0077950Y0219400D03*
X0078250Y0219700D03*
X0078550Y0220000D03*
X0086050Y0220600D03*
X0086350Y0220300D03*
X0086650Y0220000D03*
X0093850Y0220300D03*
X0094150Y0214300D03*
X0093850Y0214000D03*
X0093250Y0211900D03*
X0093550Y0210700D03*
X0093550Y0210400D03*
X0093850Y0210100D03*
X0086050Y0209800D03*
X0078550Y0210400D03*
X0078250Y0210700D03*
X0077950Y0211300D03*
X0077650Y0211600D03*
X0077650Y0211900D03*
X0077350Y0212500D03*
X0077350Y0212800D03*
X0077350Y0213100D03*
X0063250Y0217900D03*
X0062950Y0218500D03*
X0062950Y0218800D03*
X0062950Y0219100D03*
X0063250Y0220300D03*
X0063550Y0220600D03*
X0101950Y0220300D03*
X0102250Y0219700D03*
X0110350Y0219700D03*
X0110350Y0220000D03*
X0110350Y0220300D03*
X0110350Y0220600D03*
X0110350Y0220900D03*
X0110350Y0221200D03*
X0110350Y0221500D03*
X0110350Y0221800D03*
X0110350Y0222100D03*
X0110350Y0222400D03*
X0110350Y0222700D03*
X0110350Y0223000D03*
X0110350Y0223300D03*
X0110350Y0223600D03*
X0110350Y0223900D03*
X0110350Y0224200D03*
X0110350Y0224500D03*
X0110350Y0224800D03*
X0110350Y0225100D03*
X0110350Y0225400D03*
X0110350Y0225700D03*
X0110350Y0226000D03*
X0110350Y0226300D03*
X0110350Y0226600D03*
X0110350Y0226900D03*
X0110350Y0227200D03*
X0110350Y0227500D03*
X0110350Y0227800D03*
X0110350Y0228100D03*
X0110350Y0228400D03*
X0110350Y0228700D03*
X0119050Y0220300D03*
X0119350Y0220600D03*
X0117850Y0217900D03*
X0117550Y0216700D03*
X0117550Y0216400D03*
X0117550Y0216100D03*
X0117550Y0214300D03*
X0117550Y0214000D03*
X0117550Y0213700D03*
X0117850Y0212800D03*
X0117850Y0212500D03*
X0118150Y0211600D03*
X0118450Y0211000D03*
X0118750Y0210700D03*
X0119050Y0210400D03*
X0110350Y0210400D03*
X0110350Y0210700D03*
X0110350Y0211000D03*
X0110350Y0211300D03*
X0110350Y0211600D03*
X0110350Y0211900D03*
X0110350Y0212200D03*
X0110350Y0212500D03*
X0110350Y0212800D03*
X0110350Y0213100D03*
X0110350Y0213400D03*
X0110350Y0213700D03*
X0110350Y0214000D03*
X0110350Y0214300D03*
X0110350Y0214600D03*
X0110350Y0214900D03*
X0110350Y0215200D03*
X0110350Y0215500D03*
X0110350Y0215800D03*
X0110350Y0216100D03*
X0110350Y0216400D03*
X0110350Y0216700D03*
X0110350Y0217000D03*
X0110350Y0217300D03*
X0110350Y0217600D03*
X0110350Y0217900D03*
X0110350Y0218200D03*
X0110350Y0218500D03*
X0110350Y0218800D03*
X0110350Y0219100D03*
X0110350Y0219400D03*
X0102250Y0212200D03*
X0102250Y0211900D03*
X0110350Y0210100D03*
X0110350Y0209800D03*
X0110350Y0209500D03*
X0110350Y0209200D03*
X0110350Y0208900D03*
X0110350Y0208600D03*
X0110350Y0208300D03*
X0127750Y0217300D03*
X0126550Y0220300D03*
X0126250Y0220600D03*
X0135250Y0208600D03*
D17*
X0122950Y0208300D03*
X0082450Y0208300D03*
X0052150Y0208600D03*
X0034450Y0208300D03*
D18*
X0038950Y0211000D03*
X0046150Y0210400D03*
X0046150Y0210100D03*
X0046150Y0209800D03*
X0046150Y0209500D03*
X0046150Y0209200D03*
X0046150Y0208900D03*
X0046150Y0208600D03*
X0046150Y0208300D03*
X0038950Y0218500D03*
X0021850Y0217600D03*
X0021550Y0216400D03*
X0021250Y0215500D03*
X0021250Y0215200D03*
X0020950Y0214300D03*
X0020950Y0214000D03*
X0020650Y0213400D03*
X0020650Y0213100D03*
X0020650Y0212800D03*
X0020350Y0212500D03*
X0020350Y0212200D03*
X0020350Y0211900D03*
X0020350Y0211600D03*
X0020050Y0211300D03*
X0020050Y0211000D03*
X0020050Y0210700D03*
X0017650Y0211300D03*
X0017650Y0211600D03*
X0017350Y0212500D03*
X0017350Y0212800D03*
X0017050Y0213400D03*
X0017050Y0213700D03*
X0017050Y0214000D03*
X0016750Y0214600D03*
X0016750Y0214900D03*
X0016750Y0215200D03*
X0016450Y0215800D03*
X0016450Y0216100D03*
X0016450Y0216400D03*
X0016450Y0216700D03*
X0016150Y0217000D03*
X0016150Y0217300D03*
X0016150Y0217600D03*
X0016150Y0217900D03*
X0015850Y0218200D03*
X0015850Y0218500D03*
X0015850Y0218800D03*
X0015850Y0219100D03*
X0013450Y0219100D03*
X0013450Y0218800D03*
X0013450Y0218500D03*
X0013150Y0217900D03*
X0013150Y0217600D03*
X0013150Y0217300D03*
X0012850Y0216700D03*
X0012850Y0216400D03*
X0012850Y0216100D03*
X0012550Y0215500D03*
X0012550Y0215200D03*
X0012550Y0214900D03*
X0012250Y0214300D03*
X0012250Y0214000D03*
X0012250Y0213700D03*
X0011950Y0213100D03*
X0011950Y0212800D03*
X0011950Y0212500D03*
X0011650Y0211600D03*
X0011650Y0211300D03*
X0011350Y0210400D03*
X0009250Y0210400D03*
X0009250Y0210700D03*
X0009250Y0211000D03*
X0008950Y0211600D03*
X0008950Y0211900D03*
X0008950Y0212200D03*
X0008650Y0212500D03*
X0008650Y0212800D03*
X0008650Y0213100D03*
X0008650Y0213400D03*
X0008350Y0213700D03*
X0008350Y0214000D03*
X0008350Y0214300D03*
X0008050Y0214900D03*
X0008050Y0215200D03*
X0007750Y0216100D03*
X0007750Y0216400D03*
X0067150Y0222700D03*
X0070450Y0220600D03*
X0135250Y0210400D03*
D19*
X0097450Y0215500D03*
X0082450Y0222100D03*
X0066550Y0208300D03*
X0052150Y0208900D03*
X0052150Y0221800D03*
D20*
X0052150Y0222100D03*
X0067150Y0222400D03*
X0096250Y0215200D03*
X0096550Y0208300D03*
D21*
X0093400Y0211000D03*
X0093400Y0211300D03*
X0093400Y0211600D03*
X0093400Y0212200D03*
X0093400Y0212500D03*
X0093400Y0212800D03*
X0093400Y0213100D03*
X0093400Y0213400D03*
X0093700Y0213700D03*
X0087100Y0211000D03*
X0086800Y0210700D03*
X0086800Y0210400D03*
X0086500Y0210100D03*
X0077500Y0212200D03*
X0077200Y0213400D03*
X0077200Y0213700D03*
X0071200Y0211900D03*
X0071200Y0211600D03*
X0070900Y0211000D03*
X0070900Y0210700D03*
X0077200Y0217000D03*
X0077200Y0217300D03*
X0077500Y0218200D03*
X0077500Y0218500D03*
X0077800Y0219100D03*
X0086800Y0219700D03*
X0087100Y0219400D03*
X0098800Y0222700D03*
X0102100Y0220000D03*
X0102400Y0219400D03*
X0102400Y0219100D03*
X0102400Y0218800D03*
X0102400Y0218500D03*
X0102400Y0218200D03*
X0102400Y0217900D03*
X0102400Y0217600D03*
X0102400Y0217300D03*
X0102400Y0217000D03*
X0102400Y0215500D03*
X0102400Y0215200D03*
X0102400Y0214900D03*
X0102400Y0214600D03*
X0102400Y0214300D03*
X0102400Y0214000D03*
X0102400Y0213700D03*
X0102400Y0213400D03*
X0102400Y0213100D03*
X0102400Y0212800D03*
X0102400Y0212500D03*
X0102700Y0210400D03*
X0102700Y0210100D03*
X0102700Y0209800D03*
X0102700Y0209500D03*
X0102700Y0209200D03*
X0102700Y0208900D03*
X0102700Y0208600D03*
X0103000Y0208300D03*
X0118000Y0211900D03*
X0118000Y0212200D03*
X0117700Y0213100D03*
X0117700Y0213400D03*
X0117400Y0214600D03*
X0117700Y0217000D03*
X0117700Y0217300D03*
X0117700Y0217600D03*
X0118000Y0218200D03*
X0118000Y0218500D03*
X0118000Y0218800D03*
X0118300Y0219100D03*
X0118300Y0219400D03*
X0118600Y0219700D03*
X0118900Y0220000D03*
X0126700Y0220000D03*
X0127000Y0219700D03*
X0127000Y0219400D03*
X0127300Y0219100D03*
X0127300Y0218800D03*
X0127600Y0218500D03*
X0127600Y0218200D03*
X0127600Y0217900D03*
X0127600Y0217600D03*
X0127900Y0217000D03*
X0127900Y0216700D03*
X0127900Y0216400D03*
X0127900Y0216100D03*
X0127600Y0210700D03*
X0127300Y0210400D03*
X0127000Y0210100D03*
X0135100Y0210100D03*
X0135100Y0208300D03*
X0118300Y0211300D03*
X0063100Y0218200D03*
X0063100Y0219400D03*
X0063100Y0219700D03*
X0063100Y0220000D03*
X0056500Y0216400D03*
X0056500Y0216100D03*
X0056500Y0215800D03*
X0056500Y0214900D03*
X0056500Y0214600D03*
X0056500Y0214300D03*
X0056500Y0214000D03*
X0056200Y0212500D03*
X0046300Y0214000D03*
X0046300Y0214300D03*
X0046300Y0214600D03*
X0046300Y0214900D03*
X0046300Y0215200D03*
X0046300Y0215500D03*
X0046300Y0215800D03*
X0046300Y0216100D03*
X0046300Y0216400D03*
X0046300Y0216700D03*
X0046300Y0217000D03*
X0046300Y0220000D03*
X0046300Y0220300D03*
X0046300Y0220600D03*
X0046300Y0220900D03*
X0046300Y0221200D03*
X0046300Y0221500D03*
X0046300Y0221800D03*
X0046300Y0222100D03*
X0046300Y0222400D03*
X0046300Y0222700D03*
X0046300Y0223000D03*
X0046300Y0223300D03*
X0046300Y0223600D03*
X0046300Y0223900D03*
X0046300Y0224200D03*
X0046300Y0224500D03*
X0046300Y0224800D03*
X0046300Y0225100D03*
X0046300Y0225400D03*
X0046300Y0225700D03*
X0046300Y0226000D03*
X0046300Y0226300D03*
X0046300Y0226600D03*
X0046300Y0226900D03*
X0046300Y0227200D03*
X0046300Y0227500D03*
X0046300Y0227800D03*
X0046300Y0228100D03*
X0046300Y0228400D03*
X0046300Y0228700D03*
X0049300Y0220900D03*
X0039100Y0218200D03*
X0039100Y0217900D03*
X0039100Y0217600D03*
X0039100Y0217300D03*
X0039400Y0216700D03*
X0039400Y0216400D03*
X0039400Y0216100D03*
X0038800Y0218800D03*
X0038800Y0219100D03*
X0038500Y0219400D03*
X0038500Y0219700D03*
X0038200Y0220000D03*
X0037900Y0220300D03*
X0030100Y0219700D03*
X0029800Y0219400D03*
X0029800Y0219100D03*
X0029500Y0218800D03*
X0029500Y0218500D03*
X0029500Y0218200D03*
X0029200Y0217900D03*
X0029200Y0217600D03*
X0029200Y0217300D03*
X0029200Y0217000D03*
X0028900Y0216100D03*
X0028900Y0214600D03*
X0029200Y0213400D03*
X0029200Y0213100D03*
X0029200Y0212800D03*
X0029500Y0212200D03*
X0029500Y0211900D03*
X0029800Y0211300D03*
X0038800Y0210400D03*
X0039100Y0210700D03*
X0046300Y0210700D03*
X0022300Y0218800D03*
X0022300Y0219100D03*
X0022300Y0219400D03*
X0022600Y0220000D03*
X0022600Y0220300D03*
X0022600Y0220600D03*
X0022900Y0221200D03*
X0022900Y0221500D03*
X0022000Y0218500D03*
X0022000Y0218200D03*
X0022000Y0217900D03*
X0021700Y0217300D03*
X0021700Y0217000D03*
X0021700Y0216700D03*
X0021400Y0216100D03*
X0021400Y0215800D03*
X0021100Y0214900D03*
X0021100Y0214600D03*
X0020800Y0213700D03*
X0008200Y0214600D03*
X0007900Y0215500D03*
X0007900Y0215800D03*
X0007600Y0216700D03*
X0007600Y0217000D03*
X0007600Y0217300D03*
X0007300Y0217600D03*
X0007300Y0217900D03*
X0007300Y0218200D03*
X0007300Y0218500D03*
X0007000Y0218800D03*
X0007000Y0219100D03*
X0007000Y0219400D03*
X0006700Y0220000D03*
X0006700Y0220300D03*
X0006400Y0221200D03*
X0006400Y0221500D03*
D22*
X0034600Y0208600D03*
X0052000Y0209200D03*
X0066700Y0208600D03*
X0082600Y0208600D03*
X0096700Y0209200D03*
X0082600Y0221800D03*
X0122800Y0221800D03*
X0123100Y0208600D03*
D23*
X0122800Y0222100D03*
X0100600Y0216400D03*
X0096700Y0208600D03*
X0067000Y0215500D03*
X0034300Y0222100D03*
D24*
X0034450Y0208900D03*
X0082450Y0208900D03*
X0082450Y0221500D03*
X0122950Y0208900D03*
D25*
X0066700Y0208900D03*
D26*
X0067000Y0222100D03*
X0096700Y0208900D03*
D27*
X0099250Y0215800D03*
X0082450Y0221200D03*
X0082450Y0209200D03*
X0067150Y0221500D03*
X0034450Y0209200D03*
X0122950Y0209200D03*
D28*
X0098050Y0221200D03*
X0066550Y0209200D03*
D29*
X0063400Y0209500D03*
X0070000Y0214000D03*
X0064000Y0217000D03*
X0079600Y0209500D03*
X0102100Y0210700D03*
X0120100Y0209500D03*
X0046900Y0211000D03*
X0046900Y0219700D03*
X0031600Y0209500D03*
X0019000Y0209500D03*
X0019000Y0209800D03*
X0010300Y0209800D03*
X0010300Y0210100D03*
X0010300Y0209500D03*
X0014500Y0220600D03*
D30*
X0013300Y0218200D03*
X0013000Y0217000D03*
X0012700Y0215800D03*
X0012400Y0214600D03*
X0012100Y0213400D03*
X0011800Y0212200D03*
X0011800Y0211900D03*
X0011500Y0211000D03*
X0011500Y0210700D03*
X0009100Y0211300D03*
X0017200Y0213100D03*
X0017500Y0212200D03*
X0017500Y0211900D03*
X0017800Y0211000D03*
X0017800Y0210700D03*
X0017800Y0210400D03*
X0019900Y0210400D03*
X0016900Y0214300D03*
X0016600Y0215500D03*
X0034300Y0222700D03*
X0049000Y0220600D03*
X0052300Y0222700D03*
X0048700Y0210100D03*
X0049000Y0209800D03*
X0062500Y0210400D03*
X0082300Y0222700D03*
X0086800Y0219100D03*
X0093700Y0220000D03*
X0087100Y0211300D03*
X0099700Y0209500D03*
X0100000Y0209800D03*
X0122800Y0222700D03*
X0127600Y0211000D03*
D31*
X0086950Y0211600D03*
X0048250Y0210400D03*
X0048250Y0220000D03*
X0048550Y0220300D03*
D32*
X0062350Y0211000D03*
X0070750Y0220000D03*
X0086650Y0218800D03*
D33*
X0086800Y0211900D03*
X0093700Y0219400D03*
D34*
X0082600Y0222400D03*
X0068800Y0214600D03*
D35*
X0034150Y0214900D03*
X0034150Y0215200D03*
X0034150Y0215500D03*
X0034150Y0215800D03*
X0122650Y0215800D03*
X0122650Y0215500D03*
X0122650Y0215200D03*
X0122650Y0214900D03*
D36*
X0098500Y0222400D03*
X0068200Y0214900D03*
X0067600Y0215200D03*
X0066400Y0215800D03*
X0065800Y0216100D03*
D37*
X0067150Y0221800D03*
X0052150Y0221200D03*
X0099850Y0216100D03*
D38*
X0098200Y0221800D03*
X0122800Y0221500D03*
X0034300Y0221500D03*
D39*
X0034150Y0221800D03*
X0052150Y0221500D03*
X0098350Y0222100D03*
D40*
X0098200Y0221500D03*
D41*
X0082002Y0204670D02*
X0082002Y0204053D01*
X0082002Y0202819D02*
X0082002Y0200350D01*
X0082619Y0200350D02*
X0081384Y0200350D01*
X0079546Y0200350D02*
X0079546Y0203436D01*
X0080163Y0204053D01*
X0081384Y0202819D02*
X0082002Y0202819D01*
X0080163Y0202202D02*
X0078929Y0202202D01*
X0077705Y0200967D02*
X0077705Y0200350D01*
X0077087Y0200350D01*
X0077087Y0200967D01*
X0077705Y0200967D01*
X0075873Y0201584D02*
X0073404Y0201584D01*
X0073404Y0200967D02*
X0073404Y0202202D01*
X0074021Y0202819D01*
X0075256Y0202819D01*
X0075873Y0202202D01*
X0075873Y0201584D01*
X0075256Y0200350D02*
X0074021Y0200350D01*
X0073404Y0200967D01*
X0072183Y0200350D02*
X0070949Y0200350D01*
X0071566Y0200350D02*
X0071566Y0204053D01*
X0070949Y0204053D01*
X0069117Y0202819D02*
X0069734Y0202202D01*
X0069734Y0200350D01*
X0067883Y0200350D01*
X0067266Y0200967D01*
X0067883Y0201584D01*
X0069734Y0201584D01*
X0069117Y0202819D02*
X0067883Y0202819D01*
X0066051Y0202819D02*
X0064200Y0202819D01*
X0063583Y0202202D01*
X0063583Y0200967D01*
X0064200Y0200350D01*
X0066051Y0200350D01*
X0062368Y0200967D02*
X0061751Y0201584D01*
X0060517Y0201584D01*
X0059899Y0202202D01*
X0060517Y0202819D01*
X0062368Y0202819D01*
X0062368Y0200967D02*
X0061751Y0200350D01*
X0059899Y0200350D01*
X0058685Y0200967D02*
X0058685Y0202202D01*
X0058068Y0202819D01*
X0056216Y0202819D01*
X0056216Y0204053D02*
X0056216Y0200350D01*
X0058068Y0200350D01*
X0058685Y0200967D01*
X0055002Y0201584D02*
X0052533Y0201584D01*
X0052533Y0200967D02*
X0052533Y0202202D01*
X0053150Y0202819D01*
X0054385Y0202819D01*
X0055002Y0202202D01*
X0055002Y0201584D01*
X0054385Y0200350D02*
X0053150Y0200350D01*
X0052533Y0200967D01*
X0051319Y0200967D02*
X0050702Y0200350D01*
X0050084Y0200967D01*
X0049467Y0200350D01*
X0048850Y0200967D01*
X0048850Y0202819D01*
X0051319Y0202819D02*
X0051319Y0200967D01*
D42*
X0150650Y0167138D02*
X0151668Y0168155D01*
X0153703Y0168155D01*
X0154720Y0167138D01*
X0154720Y0166120D01*
X0150650Y0162050D01*
X0154720Y0162050D01*
X0179450Y0162350D02*
X0183520Y0162350D01*
X0181485Y0162350D02*
X0181485Y0168455D01*
X0179450Y0166420D01*
D43*
X0004405Y0078106D02*
X0004405Y0056452D01*
X0027043Y0056452D01*
X0027043Y0078106D01*
X0029995Y0078106D01*
X0029995Y0056452D01*
X0027043Y0056452D01*
X0027043Y0078106D02*
X0004405Y0078106D01*
X0004405Y0086452D02*
X0004405Y0108106D01*
X0027043Y0108106D01*
X0027043Y0086452D01*
X0004405Y0086452D01*
X0027043Y0086452D02*
X0029995Y0086452D01*
X0029995Y0108106D01*
X0027043Y0108106D01*
X0052200Y0104700D02*
X0052200Y0099700D01*
X0054700Y0097200D01*
X0052200Y0094700D01*
X0052200Y0089700D01*
X0054700Y0087200D01*
X0059700Y0087200D01*
X0062200Y0089700D01*
X0062200Y0094700D01*
X0059700Y0097200D01*
X0062200Y0099700D01*
X0062200Y0104700D01*
X0059700Y0107200D01*
X0054700Y0107200D01*
X0052200Y0104700D01*
X0087200Y0104700D02*
X0087200Y0099700D01*
X0089700Y0097200D01*
X0087200Y0094700D01*
X0087200Y0089700D01*
X0089700Y0087200D01*
X0087200Y0084700D01*
X0087200Y0079700D01*
X0089700Y0077200D01*
X0087200Y0074700D01*
X0087200Y0069700D01*
X0089700Y0067200D01*
X0087200Y0064700D01*
X0087200Y0059700D01*
X0089700Y0057200D01*
X0094700Y0057200D01*
X0097200Y0059700D01*
X0097200Y0064700D01*
X0094700Y0067200D01*
X0097200Y0069700D01*
X0097200Y0074700D01*
X0094700Y0077200D01*
X0097200Y0079700D01*
X0097200Y0084700D01*
X0094700Y0087200D01*
X0097200Y0089700D01*
X0097200Y0094700D01*
X0094700Y0097200D01*
X0097200Y0099700D01*
X0097200Y0104700D01*
X0094700Y0107200D01*
X0097200Y0109700D01*
X0097200Y0114700D01*
X0094700Y0117200D01*
X0097200Y0119700D01*
X0097200Y0124700D01*
X0094700Y0127200D01*
X0089700Y0127200D01*
X0087200Y0124700D01*
X0087200Y0119700D01*
X0089700Y0117200D01*
X0087200Y0114700D01*
X0087200Y0109700D01*
X0089700Y0107200D01*
X0087200Y0104700D01*
X0122200Y0104700D02*
X0122200Y0099700D01*
X0124700Y0097200D01*
X0122200Y0094700D01*
X0122200Y0089700D01*
X0124700Y0087200D01*
X0122200Y0084700D01*
X0122200Y0079700D01*
X0124700Y0077200D01*
X0122200Y0074700D01*
X0122200Y0069700D01*
X0124700Y0067200D01*
X0122200Y0064700D01*
X0122200Y0059700D01*
X0124700Y0057200D01*
X0129700Y0057200D01*
X0132200Y0059700D01*
X0132200Y0064700D01*
X0129700Y0067200D01*
X0132200Y0069700D01*
X0132200Y0074700D01*
X0129700Y0077200D01*
X0132200Y0079700D01*
X0132200Y0084700D01*
X0129700Y0087200D01*
X0132200Y0089700D01*
X0132200Y0094700D01*
X0129700Y0097200D01*
X0132200Y0099700D01*
X0132200Y0104700D01*
X0129700Y0107200D01*
X0132200Y0109700D01*
X0132200Y0114700D01*
X0129700Y0117200D01*
X0132200Y0119700D01*
X0132200Y0124700D01*
X0129700Y0127200D01*
X0124700Y0127200D01*
X0122200Y0124700D01*
X0122200Y0119700D01*
X0124700Y0117200D01*
X0122200Y0114700D01*
X0122200Y0109700D01*
X0124700Y0107200D01*
X0122200Y0104700D01*
X0157200Y0104700D02*
X0157200Y0099700D01*
X0159700Y0097200D01*
X0157200Y0094700D01*
X0157200Y0089700D01*
X0159700Y0087200D01*
X0157200Y0084700D01*
X0157200Y0079700D01*
X0159700Y0077200D01*
X0157200Y0074700D01*
X0157200Y0069700D01*
X0159700Y0067200D01*
X0157200Y0064700D01*
X0157200Y0059700D01*
X0159700Y0057200D01*
X0164700Y0057200D01*
X0167200Y0059700D01*
X0167200Y0064700D01*
X0164700Y0067200D01*
X0167200Y0069700D01*
X0167200Y0074700D01*
X0164700Y0077200D01*
X0167200Y0079700D01*
X0167200Y0084700D01*
X0164700Y0087200D01*
X0167200Y0089700D01*
X0167200Y0094700D01*
X0164700Y0097200D01*
X0167200Y0099700D01*
X0167200Y0104700D01*
X0164700Y0107200D01*
X0167200Y0109700D01*
X0167200Y0114700D01*
X0164700Y0117200D01*
X0167200Y0119700D01*
X0167200Y0124700D01*
X0164700Y0127200D01*
X0159700Y0127200D01*
X0157200Y0124700D01*
X0157200Y0119700D01*
X0159700Y0117200D01*
X0157200Y0114700D01*
X0157200Y0109700D01*
X0159700Y0107200D01*
X0157200Y0104700D01*
X0192200Y0104700D02*
X0192200Y0099700D01*
X0194700Y0097200D01*
X0192200Y0094700D01*
X0192200Y0089700D01*
X0194700Y0087200D01*
X0192200Y0084700D01*
X0192200Y0079700D01*
X0194700Y0077200D01*
X0192200Y0074700D01*
X0192200Y0069700D01*
X0194700Y0067200D01*
X0192200Y0064700D01*
X0192200Y0059700D01*
X0194700Y0057200D01*
X0199700Y0057200D01*
X0202200Y0059700D01*
X0202200Y0064700D01*
X0199700Y0067200D01*
X0202200Y0069700D01*
X0202200Y0074700D01*
X0199700Y0077200D01*
X0202200Y0079700D01*
X0202200Y0084700D01*
X0199700Y0087200D01*
X0202200Y0089700D01*
X0202200Y0094700D01*
X0199700Y0097200D01*
X0202200Y0099700D01*
X0202200Y0104700D01*
X0199700Y0107200D01*
X0202200Y0109700D01*
X0202200Y0114700D01*
X0199700Y0117200D01*
X0202200Y0119700D01*
X0202200Y0124700D01*
X0199700Y0127200D01*
X0194700Y0127200D01*
X0192200Y0124700D01*
X0192200Y0119700D01*
X0194700Y0117200D01*
X0192200Y0114700D01*
X0192200Y0109700D01*
X0194700Y0107200D01*
X0192200Y0104700D01*
X0227200Y0104700D02*
X0227200Y0099700D01*
X0229700Y0097200D01*
X0227200Y0094700D01*
X0227200Y0089700D01*
X0229700Y0087200D01*
X0227200Y0084700D01*
X0227200Y0079700D01*
X0229700Y0077200D01*
X0227200Y0074700D01*
X0227200Y0069700D01*
X0229700Y0067200D01*
X0227200Y0064700D01*
X0227200Y0059700D01*
X0229700Y0057200D01*
X0234700Y0057200D01*
X0237200Y0059700D01*
X0237200Y0064700D01*
X0234700Y0067200D01*
X0237200Y0069700D01*
X0237200Y0074700D01*
X0234700Y0077200D01*
X0237200Y0079700D01*
X0237200Y0084700D01*
X0234700Y0087200D01*
X0237200Y0089700D01*
X0237200Y0094700D01*
X0234700Y0097200D01*
X0237200Y0099700D01*
X0237200Y0104700D01*
X0234700Y0107200D01*
X0237200Y0109700D01*
X0237200Y0114700D01*
X0234700Y0117200D01*
X0237200Y0119700D01*
X0237200Y0124700D01*
X0234700Y0127200D01*
X0229700Y0127200D01*
X0227200Y0124700D01*
X0227200Y0119700D01*
X0229700Y0117200D01*
X0227200Y0114700D01*
X0227200Y0109700D01*
X0229700Y0107200D01*
X0227200Y0104700D01*
X0262200Y0104700D02*
X0262200Y0099700D01*
X0264700Y0097200D01*
X0262200Y0094700D01*
X0262200Y0089700D01*
X0264700Y0087200D01*
X0262200Y0084700D01*
X0262200Y0079700D01*
X0264700Y0077200D01*
X0262200Y0074700D01*
X0262200Y0069700D01*
X0264700Y0067200D01*
X0262200Y0064700D01*
X0262200Y0059700D01*
X0264700Y0057200D01*
X0269700Y0057200D01*
X0272200Y0059700D01*
X0272200Y0064700D01*
X0269700Y0067200D01*
X0272200Y0069700D01*
X0272200Y0074700D01*
X0269700Y0077200D01*
X0272200Y0079700D01*
X0272200Y0084700D01*
X0269700Y0087200D01*
X0272200Y0089700D01*
X0272200Y0094700D01*
X0269700Y0097200D01*
X0272200Y0099700D01*
X0272200Y0104700D01*
X0269700Y0107200D01*
X0272200Y0109700D01*
X0272200Y0114700D01*
X0269700Y0117200D01*
X0272200Y0119700D01*
X0272200Y0124700D01*
X0269700Y0127200D01*
X0264700Y0127200D01*
X0262200Y0124700D01*
X0262200Y0119700D01*
X0264700Y0117200D01*
X0262200Y0114700D01*
X0262200Y0109700D01*
X0264700Y0107200D01*
X0262200Y0104700D01*
X0297200Y0104700D02*
X0297200Y0099700D01*
X0299700Y0097200D01*
X0297200Y0094700D01*
X0297200Y0089700D01*
X0299700Y0087200D01*
X0297200Y0084700D01*
X0297200Y0079700D01*
X0299700Y0077200D01*
X0297200Y0074700D01*
X0297200Y0069700D01*
X0299700Y0067200D01*
X0297200Y0064700D01*
X0297200Y0059700D01*
X0299700Y0057200D01*
X0304700Y0057200D01*
X0307200Y0059700D01*
X0307200Y0064700D01*
X0304700Y0067200D01*
X0307200Y0069700D01*
X0307200Y0074700D01*
X0304700Y0077200D01*
X0307200Y0079700D01*
X0307200Y0084700D01*
X0304700Y0087200D01*
X0307200Y0089700D01*
X0307200Y0094700D01*
X0304700Y0097200D01*
X0307200Y0099700D01*
X0307200Y0104700D01*
X0304700Y0107200D01*
X0307200Y0109700D01*
X0307200Y0114700D01*
X0304700Y0117200D01*
X0307200Y0119700D01*
X0307200Y0124700D01*
X0304700Y0127200D01*
X0299700Y0127200D01*
X0297200Y0124700D01*
X0297200Y0119700D01*
X0299700Y0117200D01*
X0297200Y0114700D01*
X0297200Y0109700D01*
X0299700Y0107200D01*
X0297200Y0104700D01*
X0332200Y0104700D02*
X0332200Y0099700D01*
X0334700Y0097200D01*
X0332200Y0094700D01*
X0332200Y0089700D01*
X0334700Y0087200D01*
X0332200Y0084700D01*
X0332200Y0079700D01*
X0334700Y0077200D01*
X0332200Y0074700D01*
X0332200Y0069700D01*
X0334700Y0067200D01*
X0332200Y0064700D01*
X0332200Y0059700D01*
X0334700Y0057200D01*
X0339700Y0057200D01*
X0342200Y0059700D01*
X0342200Y0064700D01*
X0339700Y0067200D01*
X0342200Y0069700D01*
X0342200Y0074700D01*
X0339700Y0077200D01*
X0342200Y0079700D01*
X0342200Y0084700D01*
X0339700Y0087200D01*
X0342200Y0089700D01*
X0342200Y0094700D01*
X0339700Y0097200D01*
X0342200Y0099700D01*
X0342200Y0104700D01*
X0339700Y0107200D01*
X0342200Y0109700D01*
X0342200Y0114700D01*
X0339700Y0117200D01*
X0342200Y0119700D01*
X0342200Y0124700D01*
X0339700Y0127200D01*
X0334700Y0127200D01*
X0332200Y0124700D01*
X0332200Y0119700D01*
X0334700Y0117200D01*
X0332200Y0114700D01*
X0332200Y0109700D01*
X0334700Y0107200D01*
X0332200Y0104700D01*
X0232200Y0009700D02*
X0229700Y0012200D01*
X0224700Y0012200D01*
X0222200Y0009700D01*
X0219700Y0012200D01*
X0214700Y0012200D01*
X0212200Y0009700D01*
X0209700Y0012200D01*
X0204700Y0012200D01*
X0202200Y0009700D01*
X0199700Y0012200D01*
X0194700Y0012200D01*
X0192200Y0009700D01*
X0189700Y0012200D01*
X0184700Y0012200D01*
X0182200Y0009700D01*
X0179700Y0012200D01*
X0174700Y0012200D01*
X0172200Y0009700D01*
X0169700Y0012200D01*
X0164700Y0012200D01*
X0162200Y0009700D01*
X0159700Y0012200D01*
X0154700Y0012200D01*
X0152200Y0009700D01*
X0152200Y0004700D01*
X0154700Y0002200D01*
X0159700Y0002200D01*
X0162200Y0004700D01*
X0164700Y0002200D01*
X0169700Y0002200D01*
X0172200Y0004700D01*
X0174700Y0002200D01*
X0179700Y0002200D01*
X0182200Y0004700D01*
X0184700Y0002200D01*
X0189700Y0002200D01*
X0192200Y0004700D01*
X0194700Y0002200D01*
X0199700Y0002200D01*
X0202200Y0004700D01*
X0204700Y0002200D01*
X0209700Y0002200D01*
X0212200Y0004700D01*
X0214700Y0002200D01*
X0219700Y0002200D01*
X0222200Y0004700D01*
X0224700Y0002200D01*
X0229700Y0002200D01*
X0232200Y0004700D01*
X0232200Y0009700D01*
D44*
X0174700Y0172200D02*
X0159700Y0172200D01*
X0157200Y0174700D01*
X0157200Y0179700D01*
X0159700Y0182200D01*
X0174700Y0182200D01*
X0177200Y0184700D01*
X0177200Y0189700D01*
X0174700Y0192200D01*
X0159700Y0192200D01*
X0157200Y0194700D01*
X0157200Y0199700D01*
X0159700Y0202200D01*
X0174700Y0202200D01*
X0177200Y0204700D01*
X0177200Y0209700D01*
X0174700Y0212200D01*
X0159700Y0212200D01*
X0157200Y0214700D01*
X0157200Y0219700D01*
X0159700Y0222200D01*
X0174700Y0222200D01*
X0177200Y0224700D01*
X0177200Y0229700D01*
X0174700Y0232200D01*
X0159700Y0232200D01*
X0157200Y0234700D01*
X0157200Y0239700D01*
X0159700Y0242200D01*
X0174700Y0242200D01*
X0177200Y0239700D01*
X0177200Y0234700D01*
X0174700Y0232200D01*
X0174700Y0222200D02*
X0177200Y0219700D01*
X0177200Y0214700D01*
X0174700Y0212200D01*
X0174700Y0202200D02*
X0177200Y0199700D01*
X0177200Y0194700D01*
X0174700Y0192200D01*
X0174700Y0182200D02*
X0177200Y0179700D01*
X0177200Y0174700D01*
X0174700Y0172200D01*
X0159700Y0182200D02*
X0157200Y0184700D01*
X0157200Y0189700D01*
X0159700Y0192200D01*
X0159700Y0202200D02*
X0157200Y0204700D01*
X0157200Y0209700D01*
X0159700Y0212200D01*
X0159700Y0222200D02*
X0157200Y0224700D01*
X0157200Y0229700D01*
X0159700Y0232200D01*
X0159700Y0242200D02*
X0157200Y0244700D01*
X0157200Y0249700D01*
X0159700Y0252200D01*
X0174700Y0252200D01*
X0177200Y0249700D01*
X0177200Y0244700D01*
X0174700Y0242200D01*
M02*
