G75*
%MOIN*%
%OFA0B0*%
%FSLAX25Y25*%
%IPPOS*%
%LPD*%
%AMOC8*
5,1,8,0,0,1.08239X$1,22.5*
%
%ADD10C,0.06500*%
%ADD11OC8,0.05200*%
%ADD12C,0.05000*%
%ADD13C,0.06600*%
%ADD14C,0.07400*%
%ADD15C,0.03962*%
%ADD16C,0.01600*%
D10*
X0021800Y0096957D03*
X0036800Y0096957D03*
X0036800Y0116643D03*
X0021800Y0116643D03*
D11*
X0036800Y0136800D03*
X0046800Y0136800D03*
X0081800Y0081800D03*
X0091800Y0081800D03*
X0181800Y0081800D03*
X0191800Y0081800D03*
X0221800Y0136800D03*
X0231800Y0136800D03*
X0231800Y0206800D03*
X0221800Y0206800D03*
X0176800Y0251800D03*
X0166800Y0251800D03*
X0096800Y0251800D03*
X0086800Y0251800D03*
X0046800Y0206800D03*
X0036800Y0206800D03*
D12*
X0146957Y0211800D03*
X0166643Y0211800D03*
X0166643Y0231800D03*
X0146957Y0231800D03*
X0036800Y0081643D03*
X0021800Y0081643D03*
X0021800Y0061957D03*
X0021800Y0051643D03*
X0036800Y0051643D03*
X0036800Y0061957D03*
X0036800Y0031957D03*
X0021800Y0031957D03*
X0086800Y0026957D03*
X0096800Y0026957D03*
X0106800Y0026957D03*
X0116800Y0026957D03*
X0126800Y0026957D03*
X0136800Y0026957D03*
X0146800Y0026957D03*
X0156800Y0026957D03*
X0156800Y0046643D03*
X0146800Y0046643D03*
X0136800Y0046643D03*
X0126800Y0046643D03*
X0116800Y0046643D03*
X0106800Y0046643D03*
X0096800Y0046643D03*
X0086800Y0046643D03*
D13*
X0126957Y0132272D03*
X0136800Y0132272D03*
X0146643Y0132272D03*
X0146643Y0189359D03*
X0126957Y0189359D03*
D14*
X0136800Y0017300D03*
X0126800Y0016300D03*
X0116800Y0017300D03*
X0106800Y0016300D03*
X0096800Y0017300D03*
X0086800Y0016300D03*
X0076800Y0017300D03*
X0066800Y0016300D03*
X0056800Y0017300D03*
X0046800Y0016300D03*
X0146800Y0016300D03*
X0156800Y0017300D03*
X0166800Y0016300D03*
D15*
X0126800Y0096800D03*
X0046800Y0181800D03*
D16*
X0006600Y0251986D02*
X0006600Y0021614D01*
X0007516Y0022143D01*
X0010339Y0022899D01*
X0013261Y0022899D01*
X0016084Y0022143D01*
X0018615Y0020682D01*
X0020682Y0018615D01*
X0022143Y0016084D01*
X0022899Y0013261D01*
X0022899Y0010339D01*
X0022143Y0007516D01*
X0021614Y0006600D01*
X0251986Y0006600D01*
X0251457Y0007516D01*
X0250701Y0010339D01*
X0250701Y0013261D01*
X0251457Y0016084D01*
X0252918Y0018615D01*
X0254985Y0020682D01*
X0257516Y0022143D01*
X0260339Y0022899D01*
X0263261Y0022899D01*
X0265701Y0022246D01*
X0265701Y0251354D01*
X0263261Y0250701D01*
X0260339Y0250701D01*
X0257516Y0251457D01*
X0254985Y0252918D01*
X0252918Y0254985D01*
X0251800Y0256922D01*
X0250682Y0254985D01*
X0248615Y0252918D01*
X0246084Y0251457D01*
X0243261Y0250701D01*
X0240339Y0250701D01*
X0237516Y0251457D01*
X0234985Y0252918D01*
X0232918Y0254985D01*
X0231457Y0257516D01*
X0230701Y0260339D01*
X0230701Y0263261D01*
X0231457Y0266084D01*
X0231963Y0266961D01*
X0041637Y0266961D01*
X0042143Y0266084D01*
X0042899Y0263261D01*
X0042899Y0260339D01*
X0042143Y0257516D01*
X0040682Y0254985D01*
X0038615Y0252918D01*
X0036084Y0251457D01*
X0033261Y0250701D01*
X0030339Y0250701D01*
X0027516Y0251457D01*
X0024985Y0252918D01*
X0022918Y0254985D01*
X0021800Y0256922D01*
X0020682Y0254985D01*
X0018615Y0252918D01*
X0016084Y0251457D01*
X0013261Y0250701D01*
X0010339Y0250701D01*
X0007516Y0251457D01*
X0006600Y0251986D01*
X0006600Y0251168D02*
X0008596Y0251168D01*
X0006600Y0249569D02*
X0081000Y0249569D01*
X0081000Y0249398D02*
X0084398Y0246000D01*
X0089202Y0246000D01*
X0092600Y0249398D01*
X0092600Y0249777D01*
X0094977Y0247400D01*
X0096800Y0247400D01*
X0098623Y0247400D01*
X0101200Y0249977D01*
X0101200Y0251800D01*
X0101200Y0253623D01*
X0098623Y0256200D01*
X0096800Y0256200D01*
X0096800Y0251800D01*
X0101200Y0251800D01*
X0096800Y0251800D01*
X0096800Y0251800D01*
X0096800Y0251800D01*
X0096800Y0247400D01*
X0096800Y0251800D01*
X0096800Y0251800D01*
X0096800Y0256200D01*
X0094977Y0256200D01*
X0092600Y0253823D01*
X0092600Y0254202D01*
X0089202Y0257600D01*
X0084398Y0257600D01*
X0081000Y0254202D01*
X0081000Y0249398D01*
X0081000Y0251168D02*
X0035004Y0251168D01*
X0038352Y0252766D02*
X0081000Y0252766D01*
X0081162Y0254365D02*
X0040061Y0254365D01*
X0041246Y0255963D02*
X0082761Y0255963D01*
X0084359Y0257562D02*
X0042155Y0257562D01*
X0042583Y0259160D02*
X0231017Y0259160D01*
X0230701Y0260759D02*
X0042899Y0260759D01*
X0042899Y0262357D02*
X0230701Y0262357D01*
X0230887Y0263956D02*
X0042713Y0263956D01*
X0042285Y0265554D02*
X0231315Y0265554D01*
X0231445Y0257562D02*
X0169241Y0257562D01*
X0169202Y0257600D02*
X0164398Y0257600D01*
X0161000Y0254202D01*
X0161000Y0249398D01*
X0164398Y0246000D01*
X0169202Y0246000D01*
X0172600Y0249398D01*
X0172600Y0249777D01*
X0174977Y0247400D01*
X0176800Y0247400D01*
X0178623Y0247400D01*
X0181200Y0249977D01*
X0181200Y0251800D01*
X0181200Y0253623D01*
X0178623Y0256200D01*
X0176800Y0256200D01*
X0176800Y0251800D01*
X0181200Y0251800D01*
X0176800Y0251800D01*
X0176800Y0251800D01*
X0176800Y0251800D01*
X0176800Y0247400D01*
X0176800Y0251800D01*
X0176800Y0251800D01*
X0176800Y0256200D01*
X0174977Y0256200D01*
X0172600Y0253823D01*
X0172600Y0254202D01*
X0169202Y0257600D01*
X0170839Y0255963D02*
X0174741Y0255963D01*
X0176800Y0255963D02*
X0176800Y0255963D01*
X0176800Y0254365D02*
X0176800Y0254365D01*
X0176800Y0252766D02*
X0176800Y0252766D01*
X0176800Y0251168D02*
X0176800Y0251168D01*
X0176800Y0249569D02*
X0176800Y0249569D01*
X0176800Y0247971D02*
X0176800Y0247971D01*
X0179193Y0247971D02*
X0265701Y0247971D01*
X0265701Y0249569D02*
X0180792Y0249569D01*
X0181200Y0251168D02*
X0238596Y0251168D01*
X0235248Y0252766D02*
X0181200Y0252766D01*
X0180458Y0254365D02*
X0233539Y0254365D01*
X0232354Y0255963D02*
X0178859Y0255963D01*
X0173142Y0254365D02*
X0172438Y0254365D01*
X0172600Y0249569D02*
X0172808Y0249569D01*
X0174407Y0247971D02*
X0171173Y0247971D01*
X0169575Y0246372D02*
X0265701Y0246372D01*
X0265701Y0244774D02*
X0006600Y0244774D01*
X0006600Y0246372D02*
X0084025Y0246372D01*
X0082427Y0247971D02*
X0006600Y0247971D01*
X0006600Y0243175D02*
X0265701Y0243175D01*
X0265701Y0241577D02*
X0006600Y0241577D01*
X0006600Y0239978D02*
X0265701Y0239978D01*
X0265701Y0238380D02*
X0006600Y0238380D01*
X0006600Y0236781D02*
X0144088Y0236781D01*
X0143729Y0236632D02*
X0142125Y0235029D01*
X0141257Y0232934D01*
X0141257Y0230666D01*
X0142125Y0228571D01*
X0143729Y0226968D01*
X0145824Y0226100D01*
X0148091Y0226100D01*
X0150186Y0226968D01*
X0151790Y0228571D01*
X0152657Y0230666D01*
X0152657Y0232934D01*
X0151790Y0235029D01*
X0150186Y0236632D01*
X0148091Y0237500D01*
X0145824Y0237500D01*
X0143729Y0236632D01*
X0142279Y0235183D02*
X0006600Y0235183D01*
X0006600Y0233584D02*
X0141527Y0233584D01*
X0141257Y0231986D02*
X0006600Y0231986D01*
X0006600Y0230387D02*
X0141373Y0230387D01*
X0142035Y0228789D02*
X0006600Y0228789D01*
X0006600Y0227190D02*
X0143506Y0227190D01*
X0150409Y0227190D02*
X0163191Y0227190D01*
X0163414Y0226968D02*
X0161810Y0228571D01*
X0160943Y0230666D01*
X0160943Y0232934D01*
X0161810Y0235029D01*
X0163414Y0236632D01*
X0165509Y0237500D01*
X0167776Y0237500D01*
X0169871Y0236632D01*
X0171475Y0235029D01*
X0172343Y0232934D01*
X0172343Y0230666D01*
X0171475Y0228571D01*
X0169871Y0226968D01*
X0167776Y0226100D01*
X0165509Y0226100D01*
X0163414Y0226968D01*
X0161720Y0228789D02*
X0151880Y0228789D01*
X0152542Y0230387D02*
X0161058Y0230387D01*
X0160943Y0231986D02*
X0152657Y0231986D01*
X0152388Y0233584D02*
X0161212Y0233584D01*
X0161964Y0235183D02*
X0151636Y0235183D01*
X0149827Y0236781D02*
X0163773Y0236781D01*
X0169512Y0236781D02*
X0265701Y0236781D01*
X0265701Y0235183D02*
X0171321Y0235183D01*
X0172073Y0233584D02*
X0265701Y0233584D01*
X0265701Y0231986D02*
X0172343Y0231986D01*
X0172227Y0230387D02*
X0265701Y0230387D01*
X0265701Y0228789D02*
X0171565Y0228789D01*
X0170094Y0227190D02*
X0265701Y0227190D01*
X0265701Y0225592D02*
X0006600Y0225592D01*
X0006600Y0223993D02*
X0265701Y0223993D01*
X0265701Y0222395D02*
X0006600Y0222395D01*
X0006600Y0220796D02*
X0265701Y0220796D01*
X0265701Y0219198D02*
X0006600Y0219198D01*
X0006600Y0217599D02*
X0265701Y0217599D01*
X0265701Y0216001D02*
X0167609Y0216001D01*
X0167649Y0215994D02*
X0166981Y0216100D01*
X0166643Y0216100D01*
X0166643Y0211800D01*
X0170943Y0211800D01*
X0170943Y0212138D01*
X0170837Y0212807D01*
X0170627Y0213451D01*
X0170320Y0214054D01*
X0169922Y0214601D01*
X0169444Y0215080D01*
X0168896Y0215478D01*
X0168293Y0215785D01*
X0167649Y0215994D01*
X0166643Y0216001D02*
X0166642Y0216001D01*
X0166642Y0216100D02*
X0166304Y0216100D01*
X0165636Y0215994D01*
X0164992Y0215785D01*
X0164389Y0215478D01*
X0163841Y0215080D01*
X0163363Y0214601D01*
X0162965Y0214054D01*
X0162658Y0213451D01*
X0162448Y0212807D01*
X0162343Y0212138D01*
X0162343Y0211800D01*
X0162343Y0211462D01*
X0162448Y0210793D01*
X0162658Y0210149D01*
X0162965Y0209546D01*
X0163363Y0208999D01*
X0163841Y0208520D01*
X0164389Y0208122D01*
X0164992Y0207815D01*
X0165636Y0207606D01*
X0166304Y0207500D01*
X0166642Y0207500D01*
X0166642Y0211800D01*
X0162343Y0211800D01*
X0166642Y0211800D01*
X0166642Y0211800D01*
X0166643Y0211800D01*
X0166643Y0211800D01*
X0170943Y0211800D01*
X0170943Y0211462D01*
X0170837Y0210793D01*
X0170627Y0210149D01*
X0170320Y0209546D01*
X0169922Y0208999D01*
X0169444Y0208520D01*
X0168896Y0208122D01*
X0168293Y0207815D01*
X0167649Y0207606D01*
X0166981Y0207500D01*
X0166643Y0207500D01*
X0166643Y0211800D01*
X0166642Y0211800D01*
X0166642Y0216100D01*
X0165676Y0216001D02*
X0150818Y0216001D01*
X0150186Y0216632D02*
X0151790Y0215029D01*
X0152657Y0212934D01*
X0152657Y0210666D01*
X0151790Y0208571D01*
X0150186Y0206968D01*
X0148091Y0206100D01*
X0145824Y0206100D01*
X0143729Y0206968D01*
X0142125Y0208571D01*
X0141257Y0210666D01*
X0141257Y0212934D01*
X0142125Y0215029D01*
X0143729Y0216632D01*
X0145824Y0217500D01*
X0148091Y0217500D01*
X0150186Y0216632D01*
X0152049Y0214402D02*
X0163218Y0214402D01*
X0162448Y0212803D02*
X0152657Y0212803D01*
X0152657Y0211205D02*
X0162383Y0211205D01*
X0162934Y0209606D02*
X0152219Y0209606D01*
X0151226Y0208008D02*
X0164613Y0208008D01*
X0166642Y0208008D02*
X0166643Y0208008D01*
X0166642Y0209606D02*
X0166643Y0209606D01*
X0166642Y0211205D02*
X0166643Y0211205D01*
X0166642Y0212803D02*
X0166643Y0212803D01*
X0166642Y0214402D02*
X0166643Y0214402D01*
X0170067Y0214402D02*
X0265701Y0214402D01*
X0265701Y0212803D02*
X0170837Y0212803D01*
X0170902Y0211205D02*
X0218003Y0211205D01*
X0219398Y0212600D02*
X0216000Y0209202D01*
X0216000Y0204398D01*
X0219398Y0201000D01*
X0224202Y0201000D01*
X0227600Y0204398D01*
X0227600Y0204777D01*
X0229977Y0202400D01*
X0231800Y0202400D01*
X0233623Y0202400D01*
X0236200Y0204977D01*
X0236200Y0206800D01*
X0236200Y0208623D01*
X0233623Y0211200D01*
X0231800Y0211200D01*
X0231800Y0206800D01*
X0236200Y0206800D01*
X0231800Y0206800D01*
X0231800Y0206800D01*
X0231800Y0206800D01*
X0231800Y0202400D01*
X0231800Y0206800D01*
X0231800Y0206800D01*
X0231800Y0211200D01*
X0229977Y0211200D01*
X0227600Y0208823D01*
X0227600Y0209202D01*
X0224202Y0212600D01*
X0219398Y0212600D01*
X0216404Y0209606D02*
X0170351Y0209606D01*
X0168672Y0208008D02*
X0216000Y0208008D01*
X0216000Y0206409D02*
X0148838Y0206409D01*
X0145077Y0206409D02*
X0051200Y0206409D01*
X0051200Y0206800D02*
X0046800Y0206800D01*
X0051200Y0206800D01*
X0051200Y0208623D01*
X0048623Y0211200D01*
X0046800Y0211200D01*
X0046800Y0206800D01*
X0046800Y0206800D01*
X0046800Y0206800D01*
X0046800Y0202400D01*
X0048623Y0202400D01*
X0051200Y0204977D01*
X0051200Y0206800D01*
X0051200Y0208008D02*
X0142688Y0208008D01*
X0141696Y0209606D02*
X0050216Y0209606D01*
X0046800Y0209606D02*
X0046800Y0209606D01*
X0046800Y0211200D02*
X0044977Y0211200D01*
X0042600Y0208823D01*
X0042600Y0209202D01*
X0039202Y0212600D01*
X0034398Y0212600D01*
X0031000Y0209202D01*
X0031000Y0204398D01*
X0034398Y0201000D01*
X0039202Y0201000D01*
X0042600Y0204398D01*
X0042600Y0204777D01*
X0044977Y0202400D01*
X0046800Y0202400D01*
X0046800Y0206800D01*
X0046800Y0206800D01*
X0046800Y0211200D01*
X0046800Y0208008D02*
X0046800Y0208008D01*
X0046800Y0206409D02*
X0046800Y0206409D01*
X0046800Y0204811D02*
X0046800Y0204811D01*
X0046800Y0203212D02*
X0046800Y0203212D01*
X0049435Y0203212D02*
X0217185Y0203212D01*
X0216000Y0204811D02*
X0051033Y0204811D01*
X0044165Y0203212D02*
X0041415Y0203212D01*
X0039816Y0201614D02*
X0218784Y0201614D01*
X0224816Y0201614D02*
X0265701Y0201614D01*
X0265701Y0203212D02*
X0234435Y0203212D01*
X0236033Y0204811D02*
X0265701Y0204811D01*
X0265701Y0206409D02*
X0236200Y0206409D01*
X0236200Y0208008D02*
X0265701Y0208008D01*
X0265701Y0209606D02*
X0235216Y0209606D01*
X0231800Y0209606D02*
X0231800Y0209606D01*
X0231800Y0208008D02*
X0231800Y0208008D01*
X0231800Y0206409D02*
X0231800Y0206409D01*
X0231800Y0204811D02*
X0231800Y0204811D01*
X0231800Y0203212D02*
X0231800Y0203212D01*
X0229165Y0203212D02*
X0226415Y0203212D01*
X0227196Y0209606D02*
X0228384Y0209606D01*
X0225597Y0211205D02*
X0265701Y0211205D01*
X0265701Y0200015D02*
X0006600Y0200015D01*
X0006600Y0198417D02*
X0265701Y0198417D01*
X0265701Y0196818D02*
X0006600Y0196818D01*
X0006600Y0195220D02*
X0124121Y0195220D01*
X0123276Y0194869D02*
X0121765Y0193359D01*
X0053563Y0193359D01*
X0052093Y0192750D01*
X0046324Y0186981D01*
X0045769Y0186981D01*
X0043865Y0186192D01*
X0042408Y0184735D01*
X0041619Y0182831D01*
X0041619Y0180769D01*
X0042408Y0178865D01*
X0043865Y0177408D01*
X0045769Y0176619D01*
X0047831Y0176619D01*
X0049735Y0177408D01*
X0051192Y0178865D01*
X0051981Y0180769D01*
X0051981Y0181324D01*
X0056016Y0185359D01*
X0121765Y0185359D01*
X0123276Y0183849D01*
X0125665Y0182859D01*
X0128250Y0182859D01*
X0130639Y0183849D01*
X0132468Y0185677D01*
X0133457Y0188066D01*
X0133457Y0190652D01*
X0132468Y0193041D01*
X0130639Y0194869D01*
X0128250Y0195859D01*
X0125665Y0195859D01*
X0123276Y0194869D01*
X0122027Y0193621D02*
X0006600Y0193621D01*
X0006600Y0192023D02*
X0051366Y0192023D01*
X0049767Y0190424D02*
X0006600Y0190424D01*
X0006600Y0188826D02*
X0048169Y0188826D01*
X0046570Y0187227D02*
X0006600Y0187227D01*
X0006600Y0185629D02*
X0043302Y0185629D01*
X0042116Y0184030D02*
X0006600Y0184030D01*
X0006600Y0182432D02*
X0041619Y0182432D01*
X0041619Y0180833D02*
X0006600Y0180833D01*
X0006600Y0179235D02*
X0042255Y0179235D01*
X0043637Y0177636D02*
X0006600Y0177636D01*
X0006600Y0176038D02*
X0265701Y0176038D01*
X0265701Y0177636D02*
X0049963Y0177636D01*
X0051345Y0179235D02*
X0265701Y0179235D01*
X0265701Y0180833D02*
X0051981Y0180833D01*
X0053089Y0182432D02*
X0265701Y0182432D01*
X0265701Y0184030D02*
X0150506Y0184030D01*
X0150324Y0183849D02*
X0152153Y0185677D01*
X0153143Y0188066D01*
X0153143Y0190652D01*
X0152153Y0193041D01*
X0150324Y0194869D01*
X0147935Y0195859D01*
X0145350Y0195859D01*
X0142961Y0194869D01*
X0141132Y0193041D01*
X0140143Y0190652D01*
X0140143Y0188066D01*
X0141132Y0185677D01*
X0142961Y0183849D01*
X0145350Y0182859D01*
X0147935Y0182859D01*
X0150324Y0183849D01*
X0152105Y0185629D02*
X0265701Y0185629D01*
X0265701Y0187227D02*
X0152795Y0187227D01*
X0153143Y0188826D02*
X0265701Y0188826D01*
X0265701Y0190424D02*
X0153143Y0190424D01*
X0152575Y0192023D02*
X0265701Y0192023D01*
X0265701Y0193621D02*
X0151573Y0193621D01*
X0149479Y0195220D02*
X0265701Y0195220D01*
X0265701Y0174439D02*
X0006600Y0174439D01*
X0006600Y0172841D02*
X0108286Y0172841D01*
X0108452Y0173007D02*
X0106105Y0170660D01*
X0104835Y0167593D01*
X0104835Y0156007D01*
X0106105Y0152940D01*
X0108452Y0150593D01*
X0111518Y0149323D01*
X0114838Y0149323D01*
X0117904Y0150593D01*
X0117904Y0150593D01*
X0120251Y0152940D01*
X0120251Y0152940D01*
X0121521Y0156007D01*
X0121521Y0156711D01*
X0121521Y0167593D01*
X0120251Y0170660D01*
X0117904Y0173007D01*
X0114838Y0174277D01*
X0111518Y0174277D01*
X0108452Y0173007D01*
X0108452Y0173007D01*
X0106687Y0171242D02*
X0006600Y0171242D01*
X0006600Y0169644D02*
X0105684Y0169644D01*
X0106105Y0170660D02*
X0106105Y0170660D01*
X0105022Y0168045D02*
X0006600Y0168045D01*
X0006600Y0166447D02*
X0104835Y0166447D01*
X0104835Y0164848D02*
X0006600Y0164848D01*
X0006600Y0163250D02*
X0104835Y0163250D01*
X0104835Y0161651D02*
X0006600Y0161651D01*
X0006600Y0160053D02*
X0104835Y0160053D01*
X0104835Y0158454D02*
X0006600Y0158454D01*
X0006600Y0156856D02*
X0104835Y0156856D01*
X0105145Y0155257D02*
X0006600Y0155257D01*
X0006600Y0153659D02*
X0105807Y0153659D01*
X0106105Y0152940D02*
X0106105Y0152940D01*
X0106985Y0152060D02*
X0006600Y0152060D01*
X0006600Y0150462D02*
X0108769Y0150462D01*
X0108452Y0150593D02*
X0108452Y0150593D01*
X0117587Y0150462D02*
X0156013Y0150462D01*
X0155696Y0150593D02*
X0158762Y0149323D01*
X0162082Y0149323D01*
X0165148Y0150593D01*
X0165148Y0150593D01*
X0167495Y0152940D01*
X0168765Y0156007D01*
X0168765Y0158621D01*
X0168765Y0164979D01*
X0168765Y0167593D01*
X0167495Y0170660D01*
X0165148Y0173007D01*
X0162082Y0174277D01*
X0158762Y0174277D01*
X0155696Y0173007D01*
X0153349Y0170660D01*
X0152079Y0167593D01*
X0152079Y0156007D01*
X0153349Y0152940D01*
X0155696Y0150593D01*
X0155696Y0150593D01*
X0154229Y0152060D02*
X0119371Y0152060D01*
X0120549Y0153659D02*
X0153051Y0153659D01*
X0153349Y0152940D02*
X0153349Y0152940D01*
X0152389Y0155257D02*
X0121211Y0155257D01*
X0121521Y0156856D02*
X0152079Y0156856D01*
X0152079Y0158454D02*
X0121521Y0158454D01*
X0121521Y0160053D02*
X0152079Y0160053D01*
X0152079Y0161651D02*
X0121521Y0161651D01*
X0121521Y0163250D02*
X0152079Y0163250D01*
X0152079Y0164848D02*
X0121521Y0164848D01*
X0121521Y0166447D02*
X0152079Y0166447D01*
X0152266Y0168045D02*
X0121334Y0168045D01*
X0120672Y0169644D02*
X0152928Y0169644D01*
X0153349Y0170660D02*
X0153349Y0170660D01*
X0153931Y0171242D02*
X0119669Y0171242D01*
X0120251Y0170660D02*
X0120251Y0170660D01*
X0118070Y0172841D02*
X0155530Y0172841D01*
X0155696Y0173007D02*
X0155696Y0173007D01*
X0165148Y0173007D02*
X0165148Y0173007D01*
X0165314Y0172841D02*
X0265701Y0172841D01*
X0265701Y0171242D02*
X0166913Y0171242D01*
X0167495Y0170660D02*
X0167495Y0170660D01*
X0167916Y0169644D02*
X0265701Y0169644D01*
X0265701Y0168045D02*
X0168578Y0168045D01*
X0168765Y0166447D02*
X0265701Y0166447D01*
X0265701Y0164848D02*
X0168765Y0164848D01*
X0168765Y0163250D02*
X0265701Y0163250D01*
X0265701Y0161651D02*
X0168765Y0161651D01*
X0168765Y0160053D02*
X0265701Y0160053D01*
X0265701Y0158454D02*
X0168765Y0158454D01*
X0168765Y0156856D02*
X0265701Y0156856D01*
X0265701Y0155257D02*
X0168455Y0155257D01*
X0167793Y0153659D02*
X0265701Y0153659D01*
X0265701Y0152060D02*
X0166615Y0152060D01*
X0167495Y0152940D02*
X0167495Y0152940D01*
X0164831Y0150462D02*
X0265701Y0150462D01*
X0265701Y0148863D02*
X0006600Y0148863D01*
X0006600Y0147265D02*
X0265701Y0147265D01*
X0265701Y0145666D02*
X0006600Y0145666D01*
X0006600Y0144068D02*
X0265701Y0144068D01*
X0265701Y0142469D02*
X0224333Y0142469D01*
X0224202Y0142600D02*
X0219398Y0142600D01*
X0216000Y0139202D01*
X0216000Y0134398D01*
X0219398Y0131000D01*
X0224202Y0131000D01*
X0227600Y0134398D01*
X0227600Y0134777D01*
X0229977Y0132400D01*
X0231800Y0132400D01*
X0233623Y0132400D01*
X0236200Y0134977D01*
X0236200Y0136800D01*
X0236200Y0138623D01*
X0233623Y0141200D01*
X0231800Y0141200D01*
X0231800Y0136800D01*
X0236200Y0136800D01*
X0231800Y0136800D01*
X0231800Y0136800D01*
X0231800Y0136800D01*
X0231800Y0141200D01*
X0229977Y0141200D01*
X0227600Y0138823D01*
X0227600Y0139202D01*
X0224202Y0142600D01*
X0225932Y0140870D02*
X0229648Y0140870D01*
X0231800Y0140870D02*
X0231800Y0140870D01*
X0231800Y0139272D02*
X0231800Y0139272D01*
X0231800Y0137673D02*
X0231800Y0137673D01*
X0231800Y0136800D02*
X0231800Y0132400D01*
X0231800Y0136800D01*
X0231800Y0136800D01*
X0231800Y0136075D02*
X0231800Y0136075D01*
X0231800Y0134476D02*
X0231800Y0134476D01*
X0231800Y0132878D02*
X0231800Y0132878D01*
X0234100Y0132878D02*
X0265701Y0132878D01*
X0265701Y0134476D02*
X0235699Y0134476D01*
X0236200Y0136075D02*
X0265701Y0136075D01*
X0265701Y0137673D02*
X0236200Y0137673D01*
X0235551Y0139272D02*
X0265701Y0139272D01*
X0265701Y0140870D02*
X0233952Y0140870D01*
X0228049Y0139272D02*
X0227530Y0139272D01*
X0227600Y0134476D02*
X0227901Y0134476D01*
X0229500Y0132878D02*
X0226080Y0132878D01*
X0224482Y0131279D02*
X0265701Y0131279D01*
X0265701Y0129681D02*
X0151046Y0129681D01*
X0151004Y0129599D02*
X0151369Y0130315D01*
X0151617Y0131078D01*
X0151743Y0131871D01*
X0151742Y0132088D01*
X0146827Y0132088D01*
X0146827Y0132457D01*
X0146458Y0132457D01*
X0146458Y0137372D01*
X0146241Y0137372D01*
X0145448Y0137247D01*
X0144685Y0136999D01*
X0143970Y0136634D01*
X0143320Y0136162D01*
X0142752Y0135595D01*
X0142566Y0135338D01*
X0142310Y0135954D01*
X0140482Y0137783D01*
X0138093Y0138772D01*
X0135507Y0138772D01*
X0133118Y0137783D01*
X0131879Y0136544D01*
X0130639Y0137783D01*
X0128250Y0138772D01*
X0125665Y0138772D01*
X0123276Y0137783D01*
X0121447Y0135954D01*
X0120457Y0133565D01*
X0120457Y0131429D01*
X0104828Y0115800D01*
X0076004Y0115800D01*
X0074534Y0115191D01*
X0073409Y0114066D01*
X0073409Y0114066D01*
X0042389Y0083045D01*
X0041632Y0084871D01*
X0040029Y0086475D01*
X0037934Y0087343D01*
X0035666Y0087343D01*
X0033571Y0086475D01*
X0031968Y0084871D01*
X0031100Y0082776D01*
X0031100Y0080509D01*
X0031968Y0078414D01*
X0033571Y0076810D01*
X0035397Y0076054D01*
X0025581Y0066238D01*
X0025029Y0066790D01*
X0022934Y0067657D01*
X0020666Y0067657D01*
X0018571Y0066790D01*
X0016968Y0065186D01*
X0016100Y0063091D01*
X0016100Y0060824D01*
X0016968Y0058729D01*
X0018571Y0057125D01*
X0019356Y0056800D01*
X0018571Y0056475D01*
X0016968Y0054871D01*
X0016100Y0052776D01*
X0016100Y0050509D01*
X0016968Y0048414D01*
X0018571Y0046810D01*
X0020666Y0045943D01*
X0022934Y0045943D01*
X0025029Y0046810D01*
X0026632Y0048414D01*
X0027500Y0050509D01*
X0027500Y0052776D01*
X0026632Y0054871D01*
X0025029Y0056475D01*
X0024244Y0056800D01*
X0025029Y0057125D01*
X0025861Y0057957D01*
X0027753Y0057957D01*
X0029223Y0058566D01*
X0031211Y0060555D01*
X0031968Y0058729D01*
X0033571Y0057125D01*
X0034356Y0056800D01*
X0033571Y0056475D01*
X0031968Y0054871D01*
X0031100Y0052776D01*
X0031100Y0050509D01*
X0031968Y0048414D01*
X0033571Y0046810D01*
X0035666Y0045943D01*
X0037934Y0045943D01*
X0040029Y0046810D01*
X0041632Y0048414D01*
X0042500Y0050509D01*
X0042500Y0052776D01*
X0041632Y0054871D01*
X0040029Y0056475D01*
X0039244Y0056800D01*
X0040029Y0057125D01*
X0040861Y0057957D01*
X0047539Y0057957D01*
X0046457Y0056084D01*
X0045701Y0053261D01*
X0045701Y0050339D01*
X0046457Y0047516D01*
X0047918Y0044985D01*
X0049985Y0042918D01*
X0052516Y0041457D01*
X0055339Y0040701D01*
X0058261Y0040701D01*
X0061084Y0041457D01*
X0063615Y0042918D01*
X0065682Y0044985D01*
X0067143Y0047516D01*
X0067899Y0050339D01*
X0067899Y0053261D01*
X0067143Y0056084D01*
X0065682Y0058615D01*
X0063615Y0060682D01*
X0061084Y0062143D01*
X0058494Y0062837D01*
X0076000Y0080343D01*
X0076000Y0079398D01*
X0079398Y0076000D01*
X0084202Y0076000D01*
X0087600Y0079398D01*
X0087600Y0079777D01*
X0089977Y0077400D01*
X0091800Y0077400D01*
X0093623Y0077400D01*
X0096200Y0079977D01*
X0096200Y0081800D01*
X0096200Y0083623D01*
X0093623Y0086200D01*
X0091800Y0086200D01*
X0091800Y0081800D01*
X0091800Y0081800D01*
X0096200Y0081800D01*
X0091800Y0081800D01*
X0091800Y0081800D01*
X0091800Y0086200D01*
X0089977Y0086200D01*
X0087600Y0083823D01*
X0087600Y0084202D01*
X0084202Y0087600D01*
X0083257Y0087600D01*
X0098457Y0102800D01*
X0112123Y0102800D01*
X0113593Y0103409D01*
X0135957Y0125772D01*
X0138093Y0125772D01*
X0140482Y0126762D01*
X0142310Y0128590D01*
X0142566Y0129207D01*
X0142752Y0128950D01*
X0143320Y0128382D01*
X0143970Y0127911D01*
X0144685Y0127546D01*
X0145448Y0127298D01*
X0146241Y0127172D01*
X0146458Y0127172D01*
X0146458Y0132088D01*
X0146827Y0132088D01*
X0146827Y0127172D01*
X0147044Y0127172D01*
X0147837Y0127298D01*
X0148600Y0127546D01*
X0149316Y0127911D01*
X0149965Y0128382D01*
X0150533Y0128950D01*
X0151004Y0129599D01*
X0151649Y0131279D02*
X0219118Y0131279D01*
X0217520Y0132878D02*
X0151710Y0132878D01*
X0151743Y0132674D02*
X0151617Y0133467D01*
X0151369Y0134230D01*
X0151004Y0134945D01*
X0150533Y0135595D01*
X0149965Y0136162D01*
X0149316Y0136634D01*
X0148600Y0136999D01*
X0147837Y0137247D01*
X0147044Y0137372D01*
X0146827Y0137372D01*
X0146827Y0132457D01*
X0151743Y0132457D01*
X0151743Y0132674D01*
X0151243Y0134476D02*
X0216000Y0134476D01*
X0216000Y0136075D02*
X0150052Y0136075D01*
X0146827Y0136075D02*
X0146458Y0136075D01*
X0146458Y0134476D02*
X0146827Y0134476D01*
X0146827Y0132878D02*
X0146458Y0132878D01*
X0146458Y0131279D02*
X0146827Y0131279D01*
X0146827Y0129681D02*
X0146458Y0129681D01*
X0146458Y0128082D02*
X0146827Y0128082D01*
X0149552Y0128082D02*
X0265701Y0128082D01*
X0265701Y0126484D02*
X0139810Y0126484D01*
X0141802Y0128082D02*
X0143733Y0128082D01*
X0143233Y0136075D02*
X0142190Y0136075D01*
X0140591Y0137673D02*
X0216000Y0137673D01*
X0216070Y0139272D02*
X0050551Y0139272D01*
X0051200Y0138623D02*
X0048623Y0141200D01*
X0046800Y0141200D01*
X0046800Y0136800D01*
X0051200Y0136800D01*
X0051200Y0138623D01*
X0051200Y0137673D02*
X0123166Y0137673D01*
X0121568Y0136075D02*
X0051200Y0136075D01*
X0051200Y0136800D02*
X0046800Y0136800D01*
X0046800Y0136800D01*
X0046800Y0136800D01*
X0046800Y0141200D01*
X0044977Y0141200D01*
X0042600Y0138823D01*
X0042600Y0139202D01*
X0039202Y0142600D01*
X0034398Y0142600D01*
X0031000Y0139202D01*
X0031000Y0134398D01*
X0034398Y0131000D01*
X0039202Y0131000D01*
X0042600Y0134398D01*
X0042600Y0134777D01*
X0044977Y0132400D01*
X0046800Y0132400D01*
X0048623Y0132400D01*
X0051200Y0134977D01*
X0051200Y0136800D01*
X0050699Y0134476D02*
X0120835Y0134476D01*
X0120457Y0132878D02*
X0049100Y0132878D01*
X0046800Y0132878D02*
X0046800Y0132878D01*
X0046800Y0132400D02*
X0046800Y0136800D01*
X0046800Y0136800D01*
X0046800Y0132400D01*
X0046800Y0134476D02*
X0046800Y0134476D01*
X0046800Y0136075D02*
X0046800Y0136075D01*
X0046800Y0137673D02*
X0046800Y0137673D01*
X0046800Y0139272D02*
X0046800Y0139272D01*
X0046800Y0140870D02*
X0046800Y0140870D01*
X0048952Y0140870D02*
X0217668Y0140870D01*
X0219267Y0142469D02*
X0039333Y0142469D01*
X0040932Y0140870D02*
X0044648Y0140870D01*
X0043049Y0139272D02*
X0042530Y0139272D01*
X0042600Y0134476D02*
X0042901Y0134476D01*
X0044500Y0132878D02*
X0041080Y0132878D01*
X0039482Y0131279D02*
X0120308Y0131279D01*
X0118709Y0129681D02*
X0006600Y0129681D01*
X0006600Y0131279D02*
X0034118Y0131279D01*
X0032520Y0132878D02*
X0006600Y0132878D01*
X0006600Y0134476D02*
X0031000Y0134476D01*
X0031000Y0136075D02*
X0006600Y0136075D01*
X0006600Y0137673D02*
X0031000Y0137673D01*
X0031070Y0139272D02*
X0006600Y0139272D01*
X0006600Y0140870D02*
X0032668Y0140870D01*
X0034267Y0142469D02*
X0006600Y0142469D01*
X0006600Y0128082D02*
X0117111Y0128082D01*
X0115512Y0126484D02*
X0006600Y0126484D01*
X0006600Y0124885D02*
X0113914Y0124885D01*
X0112315Y0123287D02*
X0006600Y0123287D01*
X0006600Y0121688D02*
X0021376Y0121688D01*
X0021403Y0121693D02*
X0020617Y0121568D01*
X0019861Y0121323D01*
X0019153Y0120962D01*
X0018510Y0120494D01*
X0017948Y0119932D01*
X0017481Y0119289D01*
X0017120Y0118581D01*
X0016874Y0117825D01*
X0016750Y0117040D01*
X0016750Y0116643D01*
X0021800Y0116643D01*
X0021800Y0121693D01*
X0021403Y0121693D01*
X0021800Y0121688D02*
X0021800Y0121688D01*
X0021800Y0121693D02*
X0021800Y0116643D01*
X0021800Y0116643D01*
X0021800Y0116642D01*
X0021800Y0111593D01*
X0022197Y0111593D01*
X0022983Y0111717D01*
X0023739Y0111962D01*
X0024447Y0112323D01*
X0025090Y0112791D01*
X0025652Y0113353D01*
X0026119Y0113996D01*
X0026480Y0114704D01*
X0026726Y0115460D01*
X0026850Y0116245D01*
X0026850Y0116642D01*
X0021800Y0116642D01*
X0021800Y0116642D01*
X0021800Y0111593D01*
X0021403Y0111593D01*
X0020617Y0111717D01*
X0019861Y0111962D01*
X0019153Y0112323D01*
X0018510Y0112791D01*
X0017948Y0113353D01*
X0017481Y0113996D01*
X0017120Y0114704D01*
X0016874Y0115460D01*
X0016750Y0116245D01*
X0016750Y0116642D01*
X0021800Y0116642D01*
X0021800Y0116643D01*
X0026850Y0116643D01*
X0026850Y0117040D01*
X0026726Y0117825D01*
X0026480Y0118581D01*
X0026119Y0119289D01*
X0025652Y0119932D01*
X0025090Y0120494D01*
X0024447Y0120962D01*
X0023739Y0121323D01*
X0022983Y0121568D01*
X0022197Y0121693D01*
X0021800Y0121693D01*
X0022224Y0121688D02*
X0036376Y0121688D01*
X0036403Y0121693D02*
X0035617Y0121568D01*
X0034861Y0121323D01*
X0034153Y0120962D01*
X0033510Y0120494D01*
X0032948Y0119932D01*
X0032481Y0119289D01*
X0032120Y0118581D01*
X0031874Y0117825D01*
X0031750Y0117040D01*
X0031750Y0116643D01*
X0036800Y0116643D01*
X0036800Y0121693D01*
X0036403Y0121693D01*
X0036800Y0121688D02*
X0036800Y0121688D01*
X0036800Y0121693D02*
X0036800Y0116643D01*
X0036800Y0116643D01*
X0036800Y0116642D01*
X0036800Y0111593D01*
X0037197Y0111593D01*
X0037983Y0111717D01*
X0038739Y0111962D01*
X0039447Y0112323D01*
X0040090Y0112791D01*
X0040652Y0113353D01*
X0041119Y0113996D01*
X0041480Y0114704D01*
X0041726Y0115460D01*
X0041850Y0116245D01*
X0041850Y0116642D01*
X0036800Y0116642D01*
X0036800Y0116642D01*
X0036800Y0111593D01*
X0036403Y0111593D01*
X0035617Y0111717D01*
X0034861Y0111962D01*
X0034153Y0112323D01*
X0033510Y0112791D01*
X0032948Y0113353D01*
X0032481Y0113996D01*
X0032120Y0114704D01*
X0031874Y0115460D01*
X0031750Y0116245D01*
X0031750Y0116642D01*
X0036800Y0116642D01*
X0036800Y0116643D01*
X0041850Y0116643D01*
X0041850Y0117040D01*
X0041726Y0117825D01*
X0041480Y0118581D01*
X0041119Y0119289D01*
X0040652Y0119932D01*
X0040090Y0120494D01*
X0039447Y0120962D01*
X0038739Y0121323D01*
X0037983Y0121568D01*
X0037197Y0121693D01*
X0036800Y0121693D01*
X0037224Y0121688D02*
X0110717Y0121688D01*
X0109118Y0120090D02*
X0040494Y0120090D01*
X0041509Y0118491D02*
X0107520Y0118491D01*
X0105921Y0116893D02*
X0041850Y0116893D01*
X0041672Y0115294D02*
X0074784Y0115294D01*
X0073039Y0113696D02*
X0040901Y0113696D01*
X0039003Y0112097D02*
X0071440Y0112097D01*
X0069842Y0110499D02*
X0006600Y0110499D01*
X0006600Y0112097D02*
X0019597Y0112097D01*
X0021800Y0112097D02*
X0021800Y0112097D01*
X0021800Y0113696D02*
X0021800Y0113696D01*
X0021800Y0115294D02*
X0021800Y0115294D01*
X0021800Y0116893D02*
X0021800Y0116893D01*
X0021800Y0118491D02*
X0021800Y0118491D01*
X0021800Y0120090D02*
X0021800Y0120090D01*
X0018106Y0120090D02*
X0006600Y0120090D01*
X0006600Y0118491D02*
X0017091Y0118491D01*
X0016750Y0116893D02*
X0006600Y0116893D01*
X0006600Y0115294D02*
X0016928Y0115294D01*
X0017699Y0113696D02*
X0006600Y0113696D01*
X0006600Y0108900D02*
X0068243Y0108900D01*
X0066645Y0107302D02*
X0006600Y0107302D01*
X0006600Y0105703D02*
X0065046Y0105703D01*
X0063448Y0104105D02*
X0006600Y0104105D01*
X0006600Y0102506D02*
X0018341Y0102506D01*
X0018146Y0102426D02*
X0016332Y0100611D01*
X0015350Y0098240D01*
X0015350Y0095674D01*
X0016332Y0093304D01*
X0018146Y0091489D01*
X0020517Y0090507D01*
X0023083Y0090507D01*
X0025454Y0091489D01*
X0027268Y0093304D01*
X0028250Y0095674D01*
X0028250Y0098240D01*
X0027268Y0100611D01*
X0025454Y0102426D01*
X0023083Y0103407D01*
X0020517Y0103407D01*
X0018146Y0102426D01*
X0016629Y0100908D02*
X0006600Y0100908D01*
X0006600Y0099309D02*
X0015793Y0099309D01*
X0015350Y0097711D02*
X0006600Y0097711D01*
X0006600Y0096112D02*
X0015350Y0096112D01*
X0015831Y0094514D02*
X0006600Y0094514D01*
X0006600Y0092915D02*
X0016721Y0092915D01*
X0018564Y0091317D02*
X0006600Y0091317D01*
X0006600Y0089718D02*
X0049061Y0089718D01*
X0047463Y0088120D02*
X0006600Y0088120D01*
X0006600Y0086521D02*
X0018683Y0086521D01*
X0018571Y0086475D02*
X0016968Y0084871D01*
X0016100Y0082776D01*
X0016100Y0080509D01*
X0016968Y0078414D01*
X0018571Y0076810D01*
X0020666Y0075943D01*
X0022934Y0075943D01*
X0025029Y0076810D01*
X0026632Y0078414D01*
X0027500Y0080509D01*
X0027500Y0082776D01*
X0026632Y0084871D01*
X0025029Y0086475D01*
X0022934Y0087343D01*
X0020666Y0087343D01*
X0018571Y0086475D01*
X0017019Y0084923D02*
X0006600Y0084923D01*
X0006600Y0083324D02*
X0016327Y0083324D01*
X0016100Y0081726D02*
X0006600Y0081726D01*
X0006600Y0080127D02*
X0016258Y0080127D01*
X0016920Y0078529D02*
X0006600Y0078529D01*
X0006600Y0076930D02*
X0018451Y0076930D01*
X0025149Y0076930D02*
X0033451Y0076930D01*
X0034675Y0075332D02*
X0006600Y0075332D01*
X0006600Y0073733D02*
X0033076Y0073733D01*
X0031478Y0072134D02*
X0006600Y0072134D01*
X0006600Y0070536D02*
X0029879Y0070536D01*
X0028281Y0068937D02*
X0006600Y0068937D01*
X0006600Y0067339D02*
X0019897Y0067339D01*
X0017522Y0065740D02*
X0006600Y0065740D01*
X0006600Y0064142D02*
X0016535Y0064142D01*
X0016100Y0062543D02*
X0006600Y0062543D01*
X0006600Y0060945D02*
X0016100Y0060945D01*
X0016712Y0059346D02*
X0006600Y0059346D01*
X0006600Y0057748D02*
X0017949Y0057748D01*
X0018246Y0056149D02*
X0006600Y0056149D01*
X0006600Y0054551D02*
X0016835Y0054551D01*
X0016173Y0052952D02*
X0006600Y0052952D01*
X0006600Y0051354D02*
X0016100Y0051354D01*
X0016412Y0049755D02*
X0006600Y0049755D01*
X0006600Y0048157D02*
X0017225Y0048157D01*
X0019180Y0046558D02*
X0006600Y0046558D01*
X0006600Y0044960D02*
X0047944Y0044960D01*
X0047010Y0046558D02*
X0039420Y0046558D01*
X0041375Y0048157D02*
X0046285Y0048157D01*
X0045857Y0049755D02*
X0042188Y0049755D01*
X0042500Y0051354D02*
X0045701Y0051354D01*
X0045701Y0052952D02*
X0042427Y0052952D01*
X0041765Y0054551D02*
X0046046Y0054551D01*
X0046495Y0056149D02*
X0040354Y0056149D01*
X0040651Y0057748D02*
X0047418Y0057748D01*
X0051957Y0061957D02*
X0096800Y0106800D01*
X0111328Y0106800D01*
X0136800Y0132272D01*
X0133009Y0137673D02*
X0130749Y0137673D01*
X0126957Y0132272D02*
X0106485Y0111800D01*
X0076800Y0111800D01*
X0026957Y0061957D01*
X0021800Y0061957D01*
X0025651Y0057748D02*
X0032949Y0057748D01*
X0033246Y0056149D02*
X0025354Y0056149D01*
X0026765Y0054551D02*
X0031835Y0054551D01*
X0031173Y0052952D02*
X0027427Y0052952D01*
X0027500Y0051354D02*
X0031100Y0051354D01*
X0031412Y0049755D02*
X0027188Y0049755D01*
X0026375Y0048157D02*
X0032225Y0048157D01*
X0034180Y0046558D02*
X0024420Y0046558D01*
X0022934Y0037657D02*
X0020666Y0037657D01*
X0018571Y0036790D01*
X0016968Y0035186D01*
X0016100Y0033091D01*
X0016100Y0030824D01*
X0016968Y0028729D01*
X0018571Y0027125D01*
X0020666Y0026257D01*
X0022934Y0026257D01*
X0025029Y0027125D01*
X0026632Y0028729D01*
X0027500Y0030824D01*
X0027500Y0033091D01*
X0026632Y0035186D01*
X0025029Y0036790D01*
X0022934Y0037657D01*
X0024600Y0036967D02*
X0034000Y0036967D01*
X0033571Y0036790D02*
X0031968Y0035186D01*
X0031100Y0033091D01*
X0031100Y0030824D01*
X0031968Y0028729D01*
X0033571Y0027125D01*
X0035666Y0026257D01*
X0037934Y0026257D01*
X0040029Y0027125D01*
X0041632Y0028729D01*
X0042500Y0030824D01*
X0042500Y0033091D01*
X0041632Y0035186D01*
X0040029Y0036790D01*
X0037934Y0037657D01*
X0035666Y0037657D01*
X0033571Y0036790D01*
X0032150Y0035369D02*
X0026450Y0035369D01*
X0027219Y0033770D02*
X0031381Y0033770D01*
X0031100Y0032172D02*
X0027500Y0032172D01*
X0027396Y0030573D02*
X0031204Y0030573D01*
X0031866Y0028975D02*
X0026734Y0028975D01*
X0025280Y0027376D02*
X0033320Y0027376D01*
X0040280Y0027376D02*
X0052219Y0027376D01*
X0050621Y0025778D02*
X0006600Y0025778D01*
X0006600Y0027376D02*
X0018320Y0027376D01*
X0016866Y0028975D02*
X0006600Y0028975D01*
X0006600Y0030573D02*
X0016204Y0030573D01*
X0016100Y0032172D02*
X0006600Y0032172D01*
X0006600Y0033770D02*
X0016381Y0033770D01*
X0017150Y0035369D02*
X0006600Y0035369D01*
X0006600Y0036967D02*
X0019000Y0036967D01*
X0006600Y0038566D02*
X0063409Y0038566D01*
X0065007Y0040164D02*
X0006600Y0040164D01*
X0006600Y0041763D02*
X0051987Y0041763D01*
X0049542Y0043361D02*
X0006600Y0043361D01*
X0006600Y0024179D02*
X0049022Y0024179D01*
X0048043Y0023200D02*
X0045427Y0023200D01*
X0042891Y0022150D01*
X0040950Y0020209D01*
X0039900Y0017672D01*
X0039900Y0014927D01*
X0040950Y0012391D01*
X0042891Y0010450D01*
X0045427Y0009400D01*
X0048172Y0009400D01*
X0050709Y0010450D01*
X0052300Y0012042D01*
X0052891Y0011450D01*
X0055427Y0010400D01*
X0058172Y0010400D01*
X0060709Y0011450D01*
X0061300Y0012042D01*
X0062891Y0010450D01*
X0065427Y0009400D01*
X0068172Y0009400D01*
X0070709Y0010450D01*
X0072300Y0012042D01*
X0072891Y0011450D01*
X0075427Y0010400D01*
X0078172Y0010400D01*
X0080709Y0011450D01*
X0081300Y0012042D01*
X0082891Y0010450D01*
X0085427Y0009400D01*
X0088172Y0009400D01*
X0090709Y0010450D01*
X0092300Y0012042D01*
X0092891Y0011450D01*
X0095427Y0010400D01*
X0098172Y0010400D01*
X0100709Y0011450D01*
X0101300Y0012042D01*
X0102891Y0010450D01*
X0105427Y0009400D01*
X0108172Y0009400D01*
X0110709Y0010450D01*
X0112300Y0012042D01*
X0112891Y0011450D01*
X0115427Y0010400D01*
X0118172Y0010400D01*
X0120709Y0011450D01*
X0121300Y0012042D01*
X0122891Y0010450D01*
X0125427Y0009400D01*
X0128172Y0009400D01*
X0130709Y0010450D01*
X0132300Y0012042D01*
X0132891Y0011450D01*
X0135427Y0010400D01*
X0138172Y0010400D01*
X0140709Y0011450D01*
X0141300Y0012042D01*
X0142891Y0010450D01*
X0145427Y0009400D01*
X0148172Y0009400D01*
X0150709Y0010450D01*
X0152300Y0012042D01*
X0152891Y0011450D01*
X0155427Y0010400D01*
X0158172Y0010400D01*
X0160709Y0011450D01*
X0162340Y0013082D01*
X0162605Y0012717D01*
X0163217Y0012105D01*
X0163917Y0011596D01*
X0164689Y0011203D01*
X0165512Y0010935D01*
X0166367Y0010800D01*
X0166600Y0010800D01*
X0166600Y0016100D01*
X0167000Y0016100D01*
X0167000Y0016500D01*
X0166600Y0016500D01*
X0166600Y0021800D01*
X0166367Y0021800D01*
X0165512Y0021665D01*
X0164689Y0021397D01*
X0163917Y0021004D01*
X0163217Y0020495D01*
X0163025Y0020303D01*
X0162650Y0021209D01*
X0160881Y0022977D01*
X0161632Y0023729D01*
X0162500Y0025824D01*
X0162500Y0028091D01*
X0161632Y0030186D01*
X0160029Y0031790D01*
X0157934Y0032657D01*
X0155666Y0032657D01*
X0153571Y0031790D01*
X0151968Y0030186D01*
X0151800Y0029781D01*
X0151632Y0030186D01*
X0150029Y0031790D01*
X0147934Y0032657D01*
X0145666Y0032657D01*
X0143571Y0031790D01*
X0141968Y0030186D01*
X0141800Y0029781D01*
X0141632Y0030186D01*
X0140029Y0031790D01*
X0137934Y0032657D01*
X0135666Y0032657D01*
X0133571Y0031790D01*
X0131968Y0030186D01*
X0131800Y0029781D01*
X0131632Y0030186D01*
X0130029Y0031790D01*
X0127934Y0032657D01*
X0125666Y0032657D01*
X0123571Y0031790D01*
X0121968Y0030186D01*
X0121800Y0029781D01*
X0121632Y0030186D01*
X0120029Y0031790D01*
X0117934Y0032657D01*
X0115666Y0032657D01*
X0113571Y0031790D01*
X0111968Y0030186D01*
X0111800Y0029781D01*
X0111632Y0030186D01*
X0110029Y0031790D01*
X0107934Y0032657D01*
X0105666Y0032657D01*
X0103571Y0031790D01*
X0101968Y0030186D01*
X0101800Y0029781D01*
X0101632Y0030186D01*
X0100029Y0031790D01*
X0097934Y0032657D01*
X0095666Y0032657D01*
X0093571Y0031790D01*
X0091968Y0030186D01*
X0091800Y0029781D01*
X0091632Y0030186D01*
X0090029Y0031790D01*
X0087934Y0032657D01*
X0085666Y0032657D01*
X0083571Y0031790D01*
X0081968Y0030186D01*
X0081100Y0028091D01*
X0081100Y0025824D01*
X0081968Y0023729D01*
X0083355Y0022342D01*
X0082891Y0022150D01*
X0082300Y0021558D01*
X0080709Y0023150D01*
X0078172Y0024200D01*
X0075427Y0024200D01*
X0072891Y0023150D01*
X0071300Y0021558D01*
X0070709Y0022150D01*
X0068172Y0023200D01*
X0065427Y0023200D01*
X0062891Y0022150D01*
X0062300Y0021558D01*
X0060709Y0023150D01*
X0059717Y0023560D01*
X0081266Y0045109D01*
X0081968Y0043414D01*
X0083571Y0041810D01*
X0085666Y0040943D01*
X0087934Y0040943D01*
X0090029Y0041810D01*
X0091632Y0043414D01*
X0091800Y0043819D01*
X0091968Y0043414D01*
X0093571Y0041810D01*
X0095666Y0040943D01*
X0097934Y0040943D01*
X0100029Y0041810D01*
X0101632Y0043414D01*
X0101800Y0043819D01*
X0101968Y0043414D01*
X0103571Y0041810D01*
X0105666Y0040943D01*
X0107934Y0040943D01*
X0110029Y0041810D01*
X0111632Y0043414D01*
X0111800Y0043819D01*
X0111968Y0043414D01*
X0113571Y0041810D01*
X0115666Y0040943D01*
X0117934Y0040943D01*
X0120029Y0041810D01*
X0121632Y0043414D01*
X0121800Y0043819D01*
X0121968Y0043414D01*
X0123571Y0041810D01*
X0125666Y0040943D01*
X0127934Y0040943D01*
X0130029Y0041810D01*
X0131632Y0043414D01*
X0131800Y0043819D01*
X0131968Y0043414D01*
X0133571Y0041810D01*
X0135666Y0040943D01*
X0137934Y0040943D01*
X0140029Y0041810D01*
X0141632Y0043414D01*
X0141800Y0043819D01*
X0141968Y0043414D01*
X0143571Y0041810D01*
X0145666Y0040943D01*
X0147934Y0040943D01*
X0150029Y0041810D01*
X0151632Y0043414D01*
X0151800Y0043819D01*
X0151968Y0043414D01*
X0153571Y0041810D01*
X0155666Y0040943D01*
X0157934Y0040943D01*
X0160029Y0041810D01*
X0161632Y0043414D01*
X0162500Y0045509D01*
X0162500Y0047776D01*
X0161632Y0049871D01*
X0160029Y0051475D01*
X0157934Y0052343D01*
X0155666Y0052343D01*
X0153571Y0051475D01*
X0151968Y0049871D01*
X0151800Y0049466D01*
X0151632Y0049871D01*
X0150029Y0051475D01*
X0147934Y0052343D01*
X0145666Y0052343D01*
X0143571Y0051475D01*
X0141968Y0049871D01*
X0141800Y0049466D01*
X0141632Y0049871D01*
X0140029Y0051475D01*
X0137934Y0052343D01*
X0135666Y0052343D01*
X0133571Y0051475D01*
X0131968Y0049871D01*
X0131800Y0049466D01*
X0131632Y0049871D01*
X0130029Y0051475D01*
X0127934Y0052343D01*
X0125666Y0052343D01*
X0123571Y0051475D01*
X0121968Y0049871D01*
X0121800Y0049466D01*
X0121632Y0049871D01*
X0120029Y0051475D01*
X0117934Y0052343D01*
X0115666Y0052343D01*
X0113571Y0051475D01*
X0111968Y0049871D01*
X0111800Y0049466D01*
X0111632Y0049871D01*
X0110029Y0051475D01*
X0107934Y0052343D01*
X0105666Y0052343D01*
X0103571Y0051475D01*
X0101968Y0049871D01*
X0101800Y0049466D01*
X0101632Y0049871D01*
X0100029Y0051475D01*
X0097934Y0052343D01*
X0095666Y0052343D01*
X0093571Y0051475D01*
X0091968Y0049871D01*
X0091800Y0049466D01*
X0091632Y0049871D01*
X0090029Y0051475D01*
X0088334Y0052177D01*
X0127776Y0091619D01*
X0127831Y0091619D01*
X0129735Y0092408D01*
X0131192Y0093865D01*
X0131981Y0095769D01*
X0131981Y0097831D01*
X0131192Y0099735D01*
X0129735Y0101192D01*
X0127831Y0101981D01*
X0125769Y0101981D01*
X0123865Y0101192D01*
X0122408Y0099735D01*
X0121619Y0097831D01*
X0121619Y0096776D01*
X0048043Y0023200D01*
X0043932Y0022581D02*
X0014450Y0022581D01*
X0018094Y0020982D02*
X0041724Y0020982D01*
X0040609Y0019384D02*
X0019913Y0019384D01*
X0021161Y0017785D02*
X0039947Y0017785D01*
X0039900Y0016187D02*
X0022084Y0016187D01*
X0022544Y0014588D02*
X0040041Y0014588D01*
X0040703Y0012990D02*
X0022899Y0012990D01*
X0022899Y0011391D02*
X0041951Y0011391D01*
X0044480Y0009793D02*
X0022753Y0009793D01*
X0022325Y0008194D02*
X0251275Y0008194D01*
X0250847Y0009793D02*
X0149120Y0009793D01*
X0151649Y0011391D02*
X0153035Y0011391D01*
X0160565Y0011391D02*
X0164320Y0011391D01*
X0166600Y0011391D02*
X0167000Y0011391D01*
X0167000Y0010800D02*
X0167233Y0010800D01*
X0168088Y0010935D01*
X0168911Y0011203D01*
X0169683Y0011596D01*
X0170383Y0012105D01*
X0170995Y0012717D01*
X0171504Y0013417D01*
X0171897Y0014189D01*
X0172165Y0015012D01*
X0172300Y0015867D01*
X0172300Y0016100D01*
X0167000Y0016100D01*
X0167000Y0010800D01*
X0167000Y0012990D02*
X0166600Y0012990D01*
X0166600Y0014588D02*
X0167000Y0014588D01*
X0167000Y0016187D02*
X0251516Y0016187D01*
X0251056Y0014588D02*
X0172027Y0014588D01*
X0171193Y0012990D02*
X0250701Y0012990D01*
X0250701Y0011391D02*
X0169280Y0011391D01*
X0167000Y0016500D02*
X0172300Y0016500D01*
X0172300Y0016733D01*
X0172165Y0017588D01*
X0171897Y0018411D01*
X0171504Y0019183D01*
X0170995Y0019883D01*
X0170383Y0020495D01*
X0169683Y0021004D01*
X0168911Y0021397D01*
X0168088Y0021665D01*
X0167233Y0021800D01*
X0167000Y0021800D01*
X0167000Y0016500D01*
X0167000Y0017785D02*
X0166600Y0017785D01*
X0166600Y0019384D02*
X0167000Y0019384D01*
X0167000Y0020982D02*
X0166600Y0020982D01*
X0163887Y0020982D02*
X0162743Y0020982D01*
X0161277Y0022581D02*
X0259150Y0022581D01*
X0255506Y0020982D02*
X0169713Y0020982D01*
X0171358Y0019384D02*
X0253687Y0019384D01*
X0252439Y0017785D02*
X0172100Y0017785D01*
X0162407Y0012990D02*
X0162248Y0012990D01*
X0161819Y0024179D02*
X0265701Y0024179D01*
X0265701Y0022581D02*
X0264450Y0022581D01*
X0265701Y0025778D02*
X0162481Y0025778D01*
X0162500Y0027376D02*
X0265701Y0027376D01*
X0265701Y0028975D02*
X0162134Y0028975D01*
X0161245Y0030573D02*
X0265701Y0030573D01*
X0265701Y0032172D02*
X0159107Y0032172D01*
X0154493Y0032172D02*
X0149107Y0032172D01*
X0151245Y0030573D02*
X0152355Y0030573D01*
X0144493Y0032172D02*
X0139107Y0032172D01*
X0141245Y0030573D02*
X0142355Y0030573D01*
X0134493Y0032172D02*
X0129107Y0032172D01*
X0131245Y0030573D02*
X0132355Y0030573D01*
X0124493Y0032172D02*
X0119107Y0032172D01*
X0121245Y0030573D02*
X0122355Y0030573D01*
X0114493Y0032172D02*
X0109107Y0032172D01*
X0111245Y0030573D02*
X0112355Y0030573D01*
X0104493Y0032172D02*
X0099107Y0032172D01*
X0101245Y0030573D02*
X0102355Y0030573D01*
X0094493Y0032172D02*
X0089107Y0032172D01*
X0091245Y0030573D02*
X0092355Y0030573D01*
X0084493Y0032172D02*
X0068329Y0032172D01*
X0069927Y0033770D02*
X0265701Y0033770D01*
X0265701Y0035369D02*
X0071526Y0035369D01*
X0073124Y0036967D02*
X0265701Y0036967D01*
X0265701Y0038566D02*
X0074723Y0038566D01*
X0076321Y0040164D02*
X0265701Y0040164D01*
X0265701Y0041763D02*
X0251613Y0041763D01*
X0251084Y0041457D02*
X0253615Y0042918D01*
X0255682Y0044985D01*
X0257143Y0047516D01*
X0257899Y0050339D01*
X0257899Y0053261D01*
X0257143Y0056084D01*
X0255682Y0058615D01*
X0253615Y0060682D01*
X0251084Y0062143D01*
X0248261Y0062899D01*
X0245339Y0062899D01*
X0242516Y0062143D01*
X0239985Y0060682D01*
X0237918Y0058615D01*
X0236457Y0056084D01*
X0235701Y0053261D01*
X0235701Y0050339D01*
X0236457Y0047516D01*
X0237918Y0044985D01*
X0239985Y0042918D01*
X0242516Y0041457D01*
X0245339Y0040701D01*
X0248261Y0040701D01*
X0251084Y0041457D01*
X0254058Y0043361D02*
X0265701Y0043361D01*
X0265701Y0044960D02*
X0255656Y0044960D01*
X0256590Y0046558D02*
X0265701Y0046558D01*
X0265701Y0048157D02*
X0257315Y0048157D01*
X0257743Y0049755D02*
X0265701Y0049755D01*
X0265701Y0051354D02*
X0257899Y0051354D01*
X0257899Y0052952D02*
X0265701Y0052952D01*
X0265701Y0054551D02*
X0257554Y0054551D01*
X0257105Y0056149D02*
X0265701Y0056149D01*
X0265701Y0057748D02*
X0256182Y0057748D01*
X0254950Y0059346D02*
X0265701Y0059346D01*
X0265701Y0060945D02*
X0253159Y0060945D01*
X0249589Y0062543D02*
X0265701Y0062543D01*
X0265701Y0064142D02*
X0100299Y0064142D01*
X0101897Y0065740D02*
X0265701Y0065740D01*
X0265701Y0067339D02*
X0103496Y0067339D01*
X0105094Y0068937D02*
X0265701Y0068937D01*
X0265701Y0070536D02*
X0106693Y0070536D01*
X0108291Y0072134D02*
X0265701Y0072134D01*
X0265701Y0073733D02*
X0109890Y0073733D01*
X0111488Y0075332D02*
X0265701Y0075332D01*
X0265701Y0076930D02*
X0185132Y0076930D01*
X0184202Y0076000D02*
X0187600Y0079398D01*
X0187600Y0079777D01*
X0189977Y0077400D01*
X0191800Y0077400D01*
X0193623Y0077400D01*
X0196200Y0079977D01*
X0196200Y0081800D01*
X0196200Y0083623D01*
X0193623Y0086200D01*
X0191800Y0086200D01*
X0191800Y0081800D01*
X0196200Y0081800D01*
X0191800Y0081800D01*
X0191800Y0081800D01*
X0191800Y0081800D01*
X0191800Y0077400D01*
X0191800Y0081800D01*
X0191800Y0081800D01*
X0191800Y0086200D01*
X0189977Y0086200D01*
X0187600Y0083823D01*
X0187600Y0084202D01*
X0184202Y0087600D01*
X0179398Y0087600D01*
X0176000Y0084202D01*
X0176000Y0079398D01*
X0179398Y0076000D01*
X0184202Y0076000D01*
X0186731Y0078529D02*
X0188849Y0078529D01*
X0191800Y0078529D02*
X0191800Y0078529D01*
X0191800Y0080127D02*
X0191800Y0080127D01*
X0191800Y0081726D02*
X0191800Y0081726D01*
X0191800Y0083324D02*
X0191800Y0083324D01*
X0191800Y0084923D02*
X0191800Y0084923D01*
X0194900Y0084923D02*
X0265701Y0084923D01*
X0265701Y0086521D02*
X0185281Y0086521D01*
X0186880Y0084923D02*
X0188700Y0084923D01*
X0196200Y0083324D02*
X0265701Y0083324D01*
X0265701Y0081726D02*
X0196200Y0081726D01*
X0196200Y0080127D02*
X0265701Y0080127D01*
X0265701Y0078529D02*
X0194751Y0078529D01*
X0178468Y0076930D02*
X0113087Y0076930D01*
X0114685Y0078529D02*
X0176869Y0078529D01*
X0176000Y0080127D02*
X0116284Y0080127D01*
X0117882Y0081726D02*
X0176000Y0081726D01*
X0176000Y0083324D02*
X0119481Y0083324D01*
X0121079Y0084923D02*
X0176720Y0084923D01*
X0178319Y0086521D02*
X0122678Y0086521D01*
X0124276Y0088120D02*
X0265701Y0088120D01*
X0265701Y0089718D02*
X0125875Y0089718D01*
X0127473Y0091317D02*
X0265701Y0091317D01*
X0265701Y0092915D02*
X0130242Y0092915D01*
X0131461Y0094514D02*
X0265701Y0094514D01*
X0265701Y0096112D02*
X0131981Y0096112D01*
X0131981Y0097711D02*
X0265701Y0097711D01*
X0265701Y0099309D02*
X0131369Y0099309D01*
X0130019Y0100908D02*
X0265701Y0100908D01*
X0265701Y0102506D02*
X0098163Y0102506D01*
X0096565Y0100908D02*
X0123581Y0100908D01*
X0122231Y0099309D02*
X0094966Y0099309D01*
X0093368Y0097711D02*
X0121619Y0097711D01*
X0120955Y0096112D02*
X0091769Y0096112D01*
X0090170Y0094514D02*
X0119357Y0094514D01*
X0117758Y0092915D02*
X0088572Y0092915D01*
X0086973Y0091317D02*
X0116160Y0091317D01*
X0114561Y0089718D02*
X0085375Y0089718D01*
X0083776Y0088120D02*
X0112963Y0088120D01*
X0111364Y0086521D02*
X0085281Y0086521D01*
X0086880Y0084923D02*
X0088700Y0084923D01*
X0091800Y0084923D02*
X0091800Y0084923D01*
X0091800Y0083324D02*
X0091800Y0083324D01*
X0091800Y0081800D02*
X0091800Y0077400D01*
X0091800Y0081800D01*
X0091800Y0081800D01*
X0091800Y0081726D02*
X0091800Y0081726D01*
X0091800Y0080127D02*
X0091800Y0080127D01*
X0091800Y0078529D02*
X0091800Y0078529D01*
X0094751Y0078529D02*
X0103372Y0078529D01*
X0104970Y0080127D02*
X0096200Y0080127D01*
X0096200Y0081726D02*
X0106569Y0081726D01*
X0108167Y0083324D02*
X0096200Y0083324D01*
X0094900Y0084923D02*
X0109766Y0084923D01*
X0101773Y0076930D02*
X0085132Y0076930D01*
X0086731Y0078529D02*
X0088849Y0078529D01*
X0095379Y0070536D02*
X0066193Y0070536D01*
X0067791Y0072134D02*
X0096978Y0072134D01*
X0098576Y0073733D02*
X0069390Y0073733D01*
X0070988Y0075332D02*
X0100175Y0075332D01*
X0093781Y0068937D02*
X0064594Y0068937D01*
X0062996Y0067339D02*
X0092182Y0067339D01*
X0090584Y0065740D02*
X0061397Y0065740D01*
X0059799Y0064142D02*
X0088985Y0064142D01*
X0087387Y0062543D02*
X0059589Y0062543D01*
X0063159Y0060945D02*
X0085788Y0060945D01*
X0084190Y0059346D02*
X0064950Y0059346D01*
X0066182Y0057748D02*
X0082591Y0057748D01*
X0080993Y0056149D02*
X0067105Y0056149D01*
X0067554Y0054551D02*
X0079394Y0054551D01*
X0077796Y0052952D02*
X0067899Y0052952D01*
X0067899Y0051354D02*
X0076197Y0051354D01*
X0074598Y0049755D02*
X0067743Y0049755D01*
X0067315Y0048157D02*
X0073000Y0048157D01*
X0071401Y0046558D02*
X0066590Y0046558D01*
X0065656Y0044960D02*
X0069803Y0044960D01*
X0068204Y0043361D02*
X0064058Y0043361D01*
X0061613Y0041763D02*
X0066606Y0041763D01*
X0061810Y0036967D02*
X0039600Y0036967D01*
X0041450Y0035369D02*
X0060212Y0035369D01*
X0058613Y0033770D02*
X0042219Y0033770D01*
X0042500Y0032172D02*
X0057015Y0032172D01*
X0055416Y0030573D02*
X0042396Y0030573D01*
X0041734Y0028975D02*
X0053818Y0028975D01*
X0060336Y0024179D02*
X0075377Y0024179D01*
X0078223Y0024179D02*
X0081781Y0024179D01*
X0081277Y0022581D02*
X0083116Y0022581D01*
X0081119Y0025778D02*
X0061935Y0025778D01*
X0063533Y0027376D02*
X0081100Y0027376D01*
X0081466Y0028975D02*
X0065132Y0028975D01*
X0066730Y0030573D02*
X0082355Y0030573D01*
X0083686Y0041763D02*
X0077920Y0041763D01*
X0079518Y0043361D02*
X0082020Y0043361D01*
X0081327Y0044960D02*
X0081117Y0044960D01*
X0089914Y0041763D02*
X0093686Y0041763D01*
X0092020Y0043361D02*
X0091580Y0043361D01*
X0091680Y0049755D02*
X0091920Y0049755D01*
X0093450Y0051354D02*
X0090150Y0051354D01*
X0089109Y0052952D02*
X0235701Y0052952D01*
X0235701Y0051354D02*
X0160150Y0051354D01*
X0161680Y0049755D02*
X0235857Y0049755D01*
X0236285Y0048157D02*
X0162342Y0048157D01*
X0162500Y0046558D02*
X0237010Y0046558D01*
X0237944Y0044960D02*
X0162273Y0044960D01*
X0161580Y0043361D02*
X0239542Y0043361D01*
X0241987Y0041763D02*
X0159914Y0041763D01*
X0153686Y0041763D02*
X0149914Y0041763D01*
X0151580Y0043361D02*
X0152020Y0043361D01*
X0151920Y0049755D02*
X0151680Y0049755D01*
X0150150Y0051354D02*
X0153450Y0051354D01*
X0143450Y0051354D02*
X0140150Y0051354D01*
X0141680Y0049755D02*
X0141920Y0049755D01*
X0142020Y0043361D02*
X0141580Y0043361D01*
X0139914Y0041763D02*
X0143686Y0041763D01*
X0133686Y0041763D02*
X0129914Y0041763D01*
X0131580Y0043361D02*
X0132020Y0043361D01*
X0131920Y0049755D02*
X0131680Y0049755D01*
X0130150Y0051354D02*
X0133450Y0051354D01*
X0123450Y0051354D02*
X0120150Y0051354D01*
X0121680Y0049755D02*
X0121920Y0049755D01*
X0122020Y0043361D02*
X0121580Y0043361D01*
X0119914Y0041763D02*
X0123686Y0041763D01*
X0113686Y0041763D02*
X0109914Y0041763D01*
X0111580Y0043361D02*
X0112020Y0043361D01*
X0111920Y0049755D02*
X0111680Y0049755D01*
X0110150Y0051354D02*
X0113450Y0051354D01*
X0103450Y0051354D02*
X0100150Y0051354D01*
X0101680Y0049755D02*
X0101920Y0049755D01*
X0102020Y0043361D02*
X0101580Y0043361D01*
X0099914Y0041763D02*
X0103686Y0041763D01*
X0090708Y0054551D02*
X0236046Y0054551D01*
X0236495Y0056149D02*
X0092306Y0056149D01*
X0093905Y0057748D02*
X0237418Y0057748D01*
X0238650Y0059346D02*
X0095503Y0059346D01*
X0097102Y0060945D02*
X0240441Y0060945D01*
X0244011Y0062543D02*
X0098700Y0062543D01*
X0078468Y0076930D02*
X0072587Y0076930D01*
X0074185Y0078529D02*
X0076869Y0078529D01*
X0076000Y0080127D02*
X0075784Y0080127D01*
X0057054Y0097711D02*
X0043250Y0097711D01*
X0043250Y0098240D02*
X0042268Y0100611D01*
X0040454Y0102426D01*
X0038083Y0103407D01*
X0035517Y0103407D01*
X0033146Y0102426D01*
X0031332Y0100611D01*
X0030350Y0098240D01*
X0030350Y0095674D01*
X0031332Y0093304D01*
X0033146Y0091489D01*
X0035517Y0090507D01*
X0038083Y0090507D01*
X0040454Y0091489D01*
X0042268Y0093304D01*
X0043250Y0095674D01*
X0043250Y0098240D01*
X0042807Y0099309D02*
X0058652Y0099309D01*
X0060251Y0100908D02*
X0041971Y0100908D01*
X0040259Y0102506D02*
X0061849Y0102506D01*
X0055455Y0096112D02*
X0043250Y0096112D01*
X0042769Y0094514D02*
X0053857Y0094514D01*
X0052258Y0092915D02*
X0041879Y0092915D01*
X0040036Y0091317D02*
X0050660Y0091317D01*
X0045864Y0086521D02*
X0039917Y0086521D01*
X0041581Y0084923D02*
X0044266Y0084923D01*
X0042667Y0083324D02*
X0042273Y0083324D01*
X0033683Y0086521D02*
X0024917Y0086521D01*
X0026581Y0084923D02*
X0032019Y0084923D01*
X0031327Y0083324D02*
X0027273Y0083324D01*
X0027500Y0081726D02*
X0031100Y0081726D01*
X0031258Y0080127D02*
X0027342Y0080127D01*
X0026680Y0078529D02*
X0031920Y0078529D01*
X0026682Y0067339D02*
X0023703Y0067339D01*
X0030003Y0059346D02*
X0031712Y0059346D01*
X0036800Y0061957D02*
X0051957Y0061957D01*
X0033564Y0091317D02*
X0025036Y0091317D01*
X0026879Y0092915D02*
X0031721Y0092915D01*
X0030831Y0094514D02*
X0027769Y0094514D01*
X0028250Y0096112D02*
X0030350Y0096112D01*
X0030350Y0097711D02*
X0028250Y0097711D01*
X0027807Y0099309D02*
X0030793Y0099309D01*
X0031629Y0100908D02*
X0026971Y0100908D01*
X0025259Y0102506D02*
X0033341Y0102506D01*
X0034597Y0112097D02*
X0024003Y0112097D01*
X0025901Y0113696D02*
X0032699Y0113696D01*
X0031928Y0115294D02*
X0026672Y0115294D01*
X0026850Y0116893D02*
X0031750Y0116893D01*
X0032091Y0118491D02*
X0026509Y0118491D01*
X0025494Y0120090D02*
X0033106Y0120090D01*
X0036800Y0120090D02*
X0036800Y0120090D01*
X0036800Y0118491D02*
X0036800Y0118491D01*
X0036800Y0116893D02*
X0036800Y0116893D01*
X0036800Y0115294D02*
X0036800Y0115294D01*
X0036800Y0113696D02*
X0036800Y0113696D01*
X0036800Y0112097D02*
X0036800Y0112097D01*
X0046800Y0181800D02*
X0054359Y0189359D01*
X0126957Y0189359D01*
X0132890Y0192023D02*
X0140710Y0192023D01*
X0140143Y0190424D02*
X0133457Y0190424D01*
X0133457Y0188826D02*
X0140143Y0188826D01*
X0140490Y0187227D02*
X0133110Y0187227D01*
X0132420Y0185629D02*
X0141180Y0185629D01*
X0142779Y0184030D02*
X0130821Y0184030D01*
X0123094Y0184030D02*
X0054687Y0184030D01*
X0033784Y0201614D02*
X0006600Y0201614D01*
X0006600Y0203212D02*
X0032185Y0203212D01*
X0031000Y0204811D02*
X0006600Y0204811D01*
X0006600Y0206409D02*
X0031000Y0206409D01*
X0031000Y0208008D02*
X0006600Y0208008D01*
X0006600Y0209606D02*
X0031404Y0209606D01*
X0033003Y0211205D02*
X0006600Y0211205D01*
X0006600Y0212803D02*
X0141257Y0212803D01*
X0141257Y0211205D02*
X0040597Y0211205D01*
X0042196Y0209606D02*
X0043384Y0209606D01*
X0006600Y0214402D02*
X0141866Y0214402D01*
X0143097Y0216001D02*
X0006600Y0216001D01*
X0015004Y0251168D02*
X0028596Y0251168D01*
X0025248Y0252766D02*
X0018352Y0252766D01*
X0020061Y0254365D02*
X0023539Y0254365D01*
X0022354Y0255963D02*
X0021246Y0255963D01*
X0089241Y0257562D02*
X0164359Y0257562D01*
X0162761Y0255963D02*
X0098859Y0255963D01*
X0096800Y0255963D02*
X0096800Y0255963D01*
X0096800Y0254365D02*
X0096800Y0254365D01*
X0096800Y0252766D02*
X0096800Y0252766D01*
X0096800Y0251168D02*
X0096800Y0251168D01*
X0096800Y0249569D02*
X0096800Y0249569D01*
X0096800Y0247971D02*
X0096800Y0247971D01*
X0099193Y0247971D02*
X0162427Y0247971D01*
X0161000Y0249569D02*
X0100792Y0249569D01*
X0101200Y0251168D02*
X0161000Y0251168D01*
X0161000Y0252766D02*
X0101200Y0252766D01*
X0100458Y0254365D02*
X0161162Y0254365D01*
X0164025Y0246372D02*
X0089575Y0246372D01*
X0091173Y0247971D02*
X0094407Y0247971D01*
X0092808Y0249569D02*
X0092600Y0249569D01*
X0092438Y0254365D02*
X0093142Y0254365D01*
X0094741Y0255963D02*
X0090839Y0255963D01*
X0129794Y0195220D02*
X0143806Y0195220D01*
X0141712Y0193621D02*
X0131888Y0193621D01*
X0117904Y0173007D02*
X0117904Y0173007D01*
X0117904Y0173007D01*
X0135070Y0124885D02*
X0265701Y0124885D01*
X0265701Y0123287D02*
X0133471Y0123287D01*
X0131873Y0121688D02*
X0265701Y0121688D01*
X0265701Y0120090D02*
X0130274Y0120090D01*
X0128676Y0118491D02*
X0265701Y0118491D01*
X0265701Y0116893D02*
X0127077Y0116893D01*
X0125479Y0115294D02*
X0265701Y0115294D01*
X0265701Y0113696D02*
X0123880Y0113696D01*
X0122282Y0112097D02*
X0265701Y0112097D01*
X0265701Y0110499D02*
X0120683Y0110499D01*
X0119085Y0108900D02*
X0265701Y0108900D01*
X0265701Y0107302D02*
X0117486Y0107302D01*
X0115888Y0105703D02*
X0265701Y0105703D01*
X0265701Y0104105D02*
X0114289Y0104105D01*
X0126800Y0096800D02*
X0126800Y0096300D01*
X0046800Y0016300D01*
X0051649Y0011391D02*
X0053035Y0011391D01*
X0049120Y0009793D02*
X0064480Y0009793D01*
X0061951Y0011391D02*
X0060565Y0011391D01*
X0069120Y0009793D02*
X0084480Y0009793D01*
X0081951Y0011391D02*
X0080565Y0011391D01*
X0073035Y0011391D02*
X0071649Y0011391D01*
X0072323Y0022581D02*
X0069668Y0022581D01*
X0063932Y0022581D02*
X0061277Y0022581D01*
X0089120Y0009793D02*
X0104480Y0009793D01*
X0101951Y0011391D02*
X0100565Y0011391D01*
X0093035Y0011391D02*
X0091649Y0011391D01*
X0109120Y0009793D02*
X0124480Y0009793D01*
X0121951Y0011391D02*
X0120565Y0011391D01*
X0113035Y0011391D02*
X0111649Y0011391D01*
X0129120Y0009793D02*
X0144480Y0009793D01*
X0141951Y0011391D02*
X0140565Y0011391D01*
X0133035Y0011391D02*
X0131649Y0011391D01*
X0009150Y0022581D02*
X0006600Y0022581D01*
X0245004Y0251168D02*
X0258596Y0251168D01*
X0255248Y0252766D02*
X0248352Y0252766D01*
X0250061Y0254365D02*
X0253539Y0254365D01*
X0252354Y0255963D02*
X0251246Y0255963D01*
X0265004Y0251168D02*
X0265701Y0251168D01*
M02*
