G75*
%MOIN*%
%OFA0B0*%
%FSLAX25Y25*%
%IPPOS*%
%LPD*%
%AMOC8*
5,1,8,0,0,1.08239X$1,22.5*
%
%ADD10C,0.00000*%
%ADD11C,0.06500*%
%ADD12OC8,0.05200*%
%ADD13C,0.05000*%
%ADD14C,0.06600*%
%ADD15C,0.07400*%
%ADD16C,0.01600*%
%ADD17C,0.03962*%
D10*
X0001800Y0001800D02*
X0001800Y0271761D01*
X0270501Y0271761D01*
X0270501Y0001800D01*
X0001800Y0001800D01*
X0005501Y0011800D02*
X0005503Y0011958D01*
X0005509Y0012116D01*
X0005519Y0012274D01*
X0005533Y0012432D01*
X0005551Y0012589D01*
X0005572Y0012746D01*
X0005598Y0012902D01*
X0005628Y0013058D01*
X0005661Y0013213D01*
X0005699Y0013366D01*
X0005740Y0013519D01*
X0005785Y0013671D01*
X0005834Y0013822D01*
X0005887Y0013971D01*
X0005943Y0014119D01*
X0006003Y0014265D01*
X0006067Y0014410D01*
X0006135Y0014553D01*
X0006206Y0014695D01*
X0006280Y0014835D01*
X0006358Y0014972D01*
X0006440Y0015108D01*
X0006524Y0015242D01*
X0006613Y0015373D01*
X0006704Y0015502D01*
X0006799Y0015629D01*
X0006896Y0015754D01*
X0006997Y0015876D01*
X0007101Y0015995D01*
X0007208Y0016112D01*
X0007318Y0016226D01*
X0007431Y0016337D01*
X0007546Y0016446D01*
X0007664Y0016551D01*
X0007785Y0016653D01*
X0007908Y0016753D01*
X0008034Y0016849D01*
X0008162Y0016942D01*
X0008292Y0017032D01*
X0008425Y0017118D01*
X0008560Y0017202D01*
X0008696Y0017281D01*
X0008835Y0017358D01*
X0008976Y0017430D01*
X0009118Y0017500D01*
X0009262Y0017565D01*
X0009408Y0017627D01*
X0009555Y0017685D01*
X0009704Y0017740D01*
X0009854Y0017791D01*
X0010005Y0017838D01*
X0010157Y0017881D01*
X0010310Y0017920D01*
X0010465Y0017956D01*
X0010620Y0017987D01*
X0010776Y0018015D01*
X0010932Y0018039D01*
X0011089Y0018059D01*
X0011247Y0018075D01*
X0011404Y0018087D01*
X0011563Y0018095D01*
X0011721Y0018099D01*
X0011879Y0018099D01*
X0012037Y0018095D01*
X0012196Y0018087D01*
X0012353Y0018075D01*
X0012511Y0018059D01*
X0012668Y0018039D01*
X0012824Y0018015D01*
X0012980Y0017987D01*
X0013135Y0017956D01*
X0013290Y0017920D01*
X0013443Y0017881D01*
X0013595Y0017838D01*
X0013746Y0017791D01*
X0013896Y0017740D01*
X0014045Y0017685D01*
X0014192Y0017627D01*
X0014338Y0017565D01*
X0014482Y0017500D01*
X0014624Y0017430D01*
X0014765Y0017358D01*
X0014904Y0017281D01*
X0015040Y0017202D01*
X0015175Y0017118D01*
X0015308Y0017032D01*
X0015438Y0016942D01*
X0015566Y0016849D01*
X0015692Y0016753D01*
X0015815Y0016653D01*
X0015936Y0016551D01*
X0016054Y0016446D01*
X0016169Y0016337D01*
X0016282Y0016226D01*
X0016392Y0016112D01*
X0016499Y0015995D01*
X0016603Y0015876D01*
X0016704Y0015754D01*
X0016801Y0015629D01*
X0016896Y0015502D01*
X0016987Y0015373D01*
X0017076Y0015242D01*
X0017160Y0015108D01*
X0017242Y0014972D01*
X0017320Y0014835D01*
X0017394Y0014695D01*
X0017465Y0014553D01*
X0017533Y0014410D01*
X0017597Y0014265D01*
X0017657Y0014119D01*
X0017713Y0013971D01*
X0017766Y0013822D01*
X0017815Y0013671D01*
X0017860Y0013519D01*
X0017901Y0013366D01*
X0017939Y0013213D01*
X0017972Y0013058D01*
X0018002Y0012902D01*
X0018028Y0012746D01*
X0018049Y0012589D01*
X0018067Y0012432D01*
X0018081Y0012274D01*
X0018091Y0012116D01*
X0018097Y0011958D01*
X0018099Y0011800D01*
X0018097Y0011642D01*
X0018091Y0011484D01*
X0018081Y0011326D01*
X0018067Y0011168D01*
X0018049Y0011011D01*
X0018028Y0010854D01*
X0018002Y0010698D01*
X0017972Y0010542D01*
X0017939Y0010387D01*
X0017901Y0010234D01*
X0017860Y0010081D01*
X0017815Y0009929D01*
X0017766Y0009778D01*
X0017713Y0009629D01*
X0017657Y0009481D01*
X0017597Y0009335D01*
X0017533Y0009190D01*
X0017465Y0009047D01*
X0017394Y0008905D01*
X0017320Y0008765D01*
X0017242Y0008628D01*
X0017160Y0008492D01*
X0017076Y0008358D01*
X0016987Y0008227D01*
X0016896Y0008098D01*
X0016801Y0007971D01*
X0016704Y0007846D01*
X0016603Y0007724D01*
X0016499Y0007605D01*
X0016392Y0007488D01*
X0016282Y0007374D01*
X0016169Y0007263D01*
X0016054Y0007154D01*
X0015936Y0007049D01*
X0015815Y0006947D01*
X0015692Y0006847D01*
X0015566Y0006751D01*
X0015438Y0006658D01*
X0015308Y0006568D01*
X0015175Y0006482D01*
X0015040Y0006398D01*
X0014904Y0006319D01*
X0014765Y0006242D01*
X0014624Y0006170D01*
X0014482Y0006100D01*
X0014338Y0006035D01*
X0014192Y0005973D01*
X0014045Y0005915D01*
X0013896Y0005860D01*
X0013746Y0005809D01*
X0013595Y0005762D01*
X0013443Y0005719D01*
X0013290Y0005680D01*
X0013135Y0005644D01*
X0012980Y0005613D01*
X0012824Y0005585D01*
X0012668Y0005561D01*
X0012511Y0005541D01*
X0012353Y0005525D01*
X0012196Y0005513D01*
X0012037Y0005505D01*
X0011879Y0005501D01*
X0011721Y0005501D01*
X0011563Y0005505D01*
X0011404Y0005513D01*
X0011247Y0005525D01*
X0011089Y0005541D01*
X0010932Y0005561D01*
X0010776Y0005585D01*
X0010620Y0005613D01*
X0010465Y0005644D01*
X0010310Y0005680D01*
X0010157Y0005719D01*
X0010005Y0005762D01*
X0009854Y0005809D01*
X0009704Y0005860D01*
X0009555Y0005915D01*
X0009408Y0005973D01*
X0009262Y0006035D01*
X0009118Y0006100D01*
X0008976Y0006170D01*
X0008835Y0006242D01*
X0008696Y0006319D01*
X0008560Y0006398D01*
X0008425Y0006482D01*
X0008292Y0006568D01*
X0008162Y0006658D01*
X0008034Y0006751D01*
X0007908Y0006847D01*
X0007785Y0006947D01*
X0007664Y0007049D01*
X0007546Y0007154D01*
X0007431Y0007263D01*
X0007318Y0007374D01*
X0007208Y0007488D01*
X0007101Y0007605D01*
X0006997Y0007724D01*
X0006896Y0007846D01*
X0006799Y0007971D01*
X0006704Y0008098D01*
X0006613Y0008227D01*
X0006524Y0008358D01*
X0006440Y0008492D01*
X0006358Y0008628D01*
X0006280Y0008765D01*
X0006206Y0008905D01*
X0006135Y0009047D01*
X0006067Y0009190D01*
X0006003Y0009335D01*
X0005943Y0009481D01*
X0005887Y0009629D01*
X0005834Y0009778D01*
X0005785Y0009929D01*
X0005740Y0010081D01*
X0005699Y0010234D01*
X0005661Y0010387D01*
X0005628Y0010542D01*
X0005598Y0010698D01*
X0005572Y0010854D01*
X0005551Y0011011D01*
X0005533Y0011168D01*
X0005519Y0011326D01*
X0005509Y0011484D01*
X0005503Y0011642D01*
X0005501Y0011800D01*
X0050501Y0051800D02*
X0050503Y0051958D01*
X0050509Y0052116D01*
X0050519Y0052274D01*
X0050533Y0052432D01*
X0050551Y0052589D01*
X0050572Y0052746D01*
X0050598Y0052902D01*
X0050628Y0053058D01*
X0050661Y0053213D01*
X0050699Y0053366D01*
X0050740Y0053519D01*
X0050785Y0053671D01*
X0050834Y0053822D01*
X0050887Y0053971D01*
X0050943Y0054119D01*
X0051003Y0054265D01*
X0051067Y0054410D01*
X0051135Y0054553D01*
X0051206Y0054695D01*
X0051280Y0054835D01*
X0051358Y0054972D01*
X0051440Y0055108D01*
X0051524Y0055242D01*
X0051613Y0055373D01*
X0051704Y0055502D01*
X0051799Y0055629D01*
X0051896Y0055754D01*
X0051997Y0055876D01*
X0052101Y0055995D01*
X0052208Y0056112D01*
X0052318Y0056226D01*
X0052431Y0056337D01*
X0052546Y0056446D01*
X0052664Y0056551D01*
X0052785Y0056653D01*
X0052908Y0056753D01*
X0053034Y0056849D01*
X0053162Y0056942D01*
X0053292Y0057032D01*
X0053425Y0057118D01*
X0053560Y0057202D01*
X0053696Y0057281D01*
X0053835Y0057358D01*
X0053976Y0057430D01*
X0054118Y0057500D01*
X0054262Y0057565D01*
X0054408Y0057627D01*
X0054555Y0057685D01*
X0054704Y0057740D01*
X0054854Y0057791D01*
X0055005Y0057838D01*
X0055157Y0057881D01*
X0055310Y0057920D01*
X0055465Y0057956D01*
X0055620Y0057987D01*
X0055776Y0058015D01*
X0055932Y0058039D01*
X0056089Y0058059D01*
X0056247Y0058075D01*
X0056404Y0058087D01*
X0056563Y0058095D01*
X0056721Y0058099D01*
X0056879Y0058099D01*
X0057037Y0058095D01*
X0057196Y0058087D01*
X0057353Y0058075D01*
X0057511Y0058059D01*
X0057668Y0058039D01*
X0057824Y0058015D01*
X0057980Y0057987D01*
X0058135Y0057956D01*
X0058290Y0057920D01*
X0058443Y0057881D01*
X0058595Y0057838D01*
X0058746Y0057791D01*
X0058896Y0057740D01*
X0059045Y0057685D01*
X0059192Y0057627D01*
X0059338Y0057565D01*
X0059482Y0057500D01*
X0059624Y0057430D01*
X0059765Y0057358D01*
X0059904Y0057281D01*
X0060040Y0057202D01*
X0060175Y0057118D01*
X0060308Y0057032D01*
X0060438Y0056942D01*
X0060566Y0056849D01*
X0060692Y0056753D01*
X0060815Y0056653D01*
X0060936Y0056551D01*
X0061054Y0056446D01*
X0061169Y0056337D01*
X0061282Y0056226D01*
X0061392Y0056112D01*
X0061499Y0055995D01*
X0061603Y0055876D01*
X0061704Y0055754D01*
X0061801Y0055629D01*
X0061896Y0055502D01*
X0061987Y0055373D01*
X0062076Y0055242D01*
X0062160Y0055108D01*
X0062242Y0054972D01*
X0062320Y0054835D01*
X0062394Y0054695D01*
X0062465Y0054553D01*
X0062533Y0054410D01*
X0062597Y0054265D01*
X0062657Y0054119D01*
X0062713Y0053971D01*
X0062766Y0053822D01*
X0062815Y0053671D01*
X0062860Y0053519D01*
X0062901Y0053366D01*
X0062939Y0053213D01*
X0062972Y0053058D01*
X0063002Y0052902D01*
X0063028Y0052746D01*
X0063049Y0052589D01*
X0063067Y0052432D01*
X0063081Y0052274D01*
X0063091Y0052116D01*
X0063097Y0051958D01*
X0063099Y0051800D01*
X0063097Y0051642D01*
X0063091Y0051484D01*
X0063081Y0051326D01*
X0063067Y0051168D01*
X0063049Y0051011D01*
X0063028Y0050854D01*
X0063002Y0050698D01*
X0062972Y0050542D01*
X0062939Y0050387D01*
X0062901Y0050234D01*
X0062860Y0050081D01*
X0062815Y0049929D01*
X0062766Y0049778D01*
X0062713Y0049629D01*
X0062657Y0049481D01*
X0062597Y0049335D01*
X0062533Y0049190D01*
X0062465Y0049047D01*
X0062394Y0048905D01*
X0062320Y0048765D01*
X0062242Y0048628D01*
X0062160Y0048492D01*
X0062076Y0048358D01*
X0061987Y0048227D01*
X0061896Y0048098D01*
X0061801Y0047971D01*
X0061704Y0047846D01*
X0061603Y0047724D01*
X0061499Y0047605D01*
X0061392Y0047488D01*
X0061282Y0047374D01*
X0061169Y0047263D01*
X0061054Y0047154D01*
X0060936Y0047049D01*
X0060815Y0046947D01*
X0060692Y0046847D01*
X0060566Y0046751D01*
X0060438Y0046658D01*
X0060308Y0046568D01*
X0060175Y0046482D01*
X0060040Y0046398D01*
X0059904Y0046319D01*
X0059765Y0046242D01*
X0059624Y0046170D01*
X0059482Y0046100D01*
X0059338Y0046035D01*
X0059192Y0045973D01*
X0059045Y0045915D01*
X0058896Y0045860D01*
X0058746Y0045809D01*
X0058595Y0045762D01*
X0058443Y0045719D01*
X0058290Y0045680D01*
X0058135Y0045644D01*
X0057980Y0045613D01*
X0057824Y0045585D01*
X0057668Y0045561D01*
X0057511Y0045541D01*
X0057353Y0045525D01*
X0057196Y0045513D01*
X0057037Y0045505D01*
X0056879Y0045501D01*
X0056721Y0045501D01*
X0056563Y0045505D01*
X0056404Y0045513D01*
X0056247Y0045525D01*
X0056089Y0045541D01*
X0055932Y0045561D01*
X0055776Y0045585D01*
X0055620Y0045613D01*
X0055465Y0045644D01*
X0055310Y0045680D01*
X0055157Y0045719D01*
X0055005Y0045762D01*
X0054854Y0045809D01*
X0054704Y0045860D01*
X0054555Y0045915D01*
X0054408Y0045973D01*
X0054262Y0046035D01*
X0054118Y0046100D01*
X0053976Y0046170D01*
X0053835Y0046242D01*
X0053696Y0046319D01*
X0053560Y0046398D01*
X0053425Y0046482D01*
X0053292Y0046568D01*
X0053162Y0046658D01*
X0053034Y0046751D01*
X0052908Y0046847D01*
X0052785Y0046947D01*
X0052664Y0047049D01*
X0052546Y0047154D01*
X0052431Y0047263D01*
X0052318Y0047374D01*
X0052208Y0047488D01*
X0052101Y0047605D01*
X0051997Y0047724D01*
X0051896Y0047846D01*
X0051799Y0047971D01*
X0051704Y0048098D01*
X0051613Y0048227D01*
X0051524Y0048358D01*
X0051440Y0048492D01*
X0051358Y0048628D01*
X0051280Y0048765D01*
X0051206Y0048905D01*
X0051135Y0049047D01*
X0051067Y0049190D01*
X0051003Y0049335D01*
X0050943Y0049481D01*
X0050887Y0049629D01*
X0050834Y0049778D01*
X0050785Y0049929D01*
X0050740Y0050081D01*
X0050699Y0050234D01*
X0050661Y0050387D01*
X0050628Y0050542D01*
X0050598Y0050698D01*
X0050572Y0050854D01*
X0050551Y0051011D01*
X0050533Y0051168D01*
X0050519Y0051326D01*
X0050509Y0051484D01*
X0050503Y0051642D01*
X0050501Y0051800D01*
X0109635Y0157666D02*
X0109635Y0165934D01*
X0109637Y0166051D01*
X0109643Y0166168D01*
X0109652Y0166285D01*
X0109666Y0166401D01*
X0109683Y0166517D01*
X0109705Y0166632D01*
X0109730Y0166747D01*
X0109758Y0166860D01*
X0109791Y0166973D01*
X0109827Y0167084D01*
X0109867Y0167195D01*
X0109910Y0167303D01*
X0109957Y0167411D01*
X0110008Y0167516D01*
X0110062Y0167620D01*
X0110119Y0167722D01*
X0110180Y0167823D01*
X0110244Y0167921D01*
X0110312Y0168017D01*
X0110382Y0168110D01*
X0110456Y0168201D01*
X0110532Y0168290D01*
X0110611Y0168376D01*
X0110694Y0168460D01*
X0110778Y0168541D01*
X0110866Y0168619D01*
X0110956Y0168694D01*
X0111048Y0168766D01*
X0111143Y0168834D01*
X0111240Y0168900D01*
X0111339Y0168963D01*
X0111440Y0169022D01*
X0111543Y0169077D01*
X0111648Y0169130D01*
X0111755Y0169179D01*
X0111863Y0169224D01*
X0111972Y0169266D01*
X0112083Y0169304D01*
X0112195Y0169338D01*
X0112308Y0169369D01*
X0112422Y0169395D01*
X0112537Y0169419D01*
X0112653Y0169438D01*
X0112769Y0169453D01*
X0112885Y0169465D01*
X0113002Y0169473D01*
X0113119Y0169477D01*
X0113237Y0169477D01*
X0113354Y0169473D01*
X0113471Y0169465D01*
X0113587Y0169453D01*
X0113703Y0169438D01*
X0113819Y0169419D01*
X0113934Y0169395D01*
X0114048Y0169369D01*
X0114161Y0169338D01*
X0114273Y0169304D01*
X0114384Y0169266D01*
X0114493Y0169224D01*
X0114601Y0169179D01*
X0114708Y0169130D01*
X0114813Y0169077D01*
X0114916Y0169022D01*
X0115017Y0168963D01*
X0115116Y0168900D01*
X0115213Y0168834D01*
X0115308Y0168766D01*
X0115400Y0168694D01*
X0115490Y0168619D01*
X0115578Y0168541D01*
X0115662Y0168460D01*
X0115745Y0168376D01*
X0115824Y0168290D01*
X0115900Y0168201D01*
X0115974Y0168110D01*
X0116044Y0168017D01*
X0116112Y0167921D01*
X0116176Y0167823D01*
X0116237Y0167722D01*
X0116294Y0167620D01*
X0116348Y0167516D01*
X0116399Y0167411D01*
X0116446Y0167303D01*
X0116489Y0167195D01*
X0116529Y0167084D01*
X0116565Y0166973D01*
X0116598Y0166860D01*
X0116626Y0166747D01*
X0116651Y0166632D01*
X0116673Y0166517D01*
X0116690Y0166401D01*
X0116704Y0166285D01*
X0116713Y0166168D01*
X0116719Y0166051D01*
X0116721Y0165934D01*
X0116721Y0157666D01*
X0116719Y0157549D01*
X0116713Y0157432D01*
X0116704Y0157315D01*
X0116690Y0157199D01*
X0116673Y0157083D01*
X0116651Y0156968D01*
X0116626Y0156853D01*
X0116598Y0156740D01*
X0116565Y0156627D01*
X0116529Y0156516D01*
X0116489Y0156405D01*
X0116446Y0156297D01*
X0116399Y0156189D01*
X0116348Y0156084D01*
X0116294Y0155980D01*
X0116237Y0155878D01*
X0116176Y0155777D01*
X0116112Y0155679D01*
X0116044Y0155583D01*
X0115974Y0155490D01*
X0115900Y0155399D01*
X0115824Y0155310D01*
X0115745Y0155224D01*
X0115662Y0155140D01*
X0115578Y0155059D01*
X0115490Y0154981D01*
X0115400Y0154906D01*
X0115308Y0154834D01*
X0115213Y0154766D01*
X0115116Y0154700D01*
X0115017Y0154637D01*
X0114916Y0154578D01*
X0114813Y0154523D01*
X0114708Y0154470D01*
X0114601Y0154421D01*
X0114493Y0154376D01*
X0114384Y0154334D01*
X0114273Y0154296D01*
X0114161Y0154262D01*
X0114048Y0154231D01*
X0113934Y0154205D01*
X0113819Y0154181D01*
X0113703Y0154162D01*
X0113587Y0154147D01*
X0113471Y0154135D01*
X0113354Y0154127D01*
X0113237Y0154123D01*
X0113119Y0154123D01*
X0113002Y0154127D01*
X0112885Y0154135D01*
X0112769Y0154147D01*
X0112653Y0154162D01*
X0112537Y0154181D01*
X0112422Y0154205D01*
X0112308Y0154231D01*
X0112195Y0154262D01*
X0112083Y0154296D01*
X0111972Y0154334D01*
X0111863Y0154376D01*
X0111755Y0154421D01*
X0111648Y0154470D01*
X0111543Y0154523D01*
X0111440Y0154578D01*
X0111339Y0154637D01*
X0111240Y0154700D01*
X0111143Y0154766D01*
X0111048Y0154834D01*
X0110956Y0154906D01*
X0110866Y0154981D01*
X0110778Y0155059D01*
X0110694Y0155140D01*
X0110611Y0155224D01*
X0110532Y0155310D01*
X0110456Y0155399D01*
X0110382Y0155490D01*
X0110312Y0155583D01*
X0110244Y0155679D01*
X0110180Y0155777D01*
X0110119Y0155878D01*
X0110062Y0155980D01*
X0110008Y0156084D01*
X0109957Y0156189D01*
X0109910Y0156297D01*
X0109867Y0156405D01*
X0109827Y0156516D01*
X0109791Y0156627D01*
X0109758Y0156740D01*
X0109730Y0156853D01*
X0109705Y0156968D01*
X0109683Y0157083D01*
X0109666Y0157199D01*
X0109652Y0157315D01*
X0109643Y0157432D01*
X0109637Y0157549D01*
X0109635Y0157666D01*
X0156879Y0157666D02*
X0156879Y0165934D01*
X0156881Y0166051D01*
X0156887Y0166168D01*
X0156896Y0166285D01*
X0156910Y0166401D01*
X0156927Y0166517D01*
X0156949Y0166632D01*
X0156974Y0166747D01*
X0157002Y0166860D01*
X0157035Y0166973D01*
X0157071Y0167084D01*
X0157111Y0167195D01*
X0157154Y0167303D01*
X0157201Y0167411D01*
X0157252Y0167516D01*
X0157306Y0167620D01*
X0157363Y0167722D01*
X0157424Y0167823D01*
X0157488Y0167921D01*
X0157556Y0168017D01*
X0157626Y0168110D01*
X0157700Y0168201D01*
X0157776Y0168290D01*
X0157855Y0168376D01*
X0157938Y0168460D01*
X0158022Y0168541D01*
X0158110Y0168619D01*
X0158200Y0168694D01*
X0158292Y0168766D01*
X0158387Y0168834D01*
X0158484Y0168900D01*
X0158583Y0168963D01*
X0158684Y0169022D01*
X0158787Y0169077D01*
X0158892Y0169130D01*
X0158999Y0169179D01*
X0159107Y0169224D01*
X0159216Y0169266D01*
X0159327Y0169304D01*
X0159439Y0169338D01*
X0159552Y0169369D01*
X0159666Y0169395D01*
X0159781Y0169419D01*
X0159897Y0169438D01*
X0160013Y0169453D01*
X0160129Y0169465D01*
X0160246Y0169473D01*
X0160363Y0169477D01*
X0160481Y0169477D01*
X0160598Y0169473D01*
X0160715Y0169465D01*
X0160831Y0169453D01*
X0160947Y0169438D01*
X0161063Y0169419D01*
X0161178Y0169395D01*
X0161292Y0169369D01*
X0161405Y0169338D01*
X0161517Y0169304D01*
X0161628Y0169266D01*
X0161737Y0169224D01*
X0161845Y0169179D01*
X0161952Y0169130D01*
X0162057Y0169077D01*
X0162160Y0169022D01*
X0162261Y0168963D01*
X0162360Y0168900D01*
X0162457Y0168834D01*
X0162552Y0168766D01*
X0162644Y0168694D01*
X0162734Y0168619D01*
X0162822Y0168541D01*
X0162906Y0168460D01*
X0162989Y0168376D01*
X0163068Y0168290D01*
X0163144Y0168201D01*
X0163218Y0168110D01*
X0163288Y0168017D01*
X0163356Y0167921D01*
X0163420Y0167823D01*
X0163481Y0167722D01*
X0163538Y0167620D01*
X0163592Y0167516D01*
X0163643Y0167411D01*
X0163690Y0167303D01*
X0163733Y0167195D01*
X0163773Y0167084D01*
X0163809Y0166973D01*
X0163842Y0166860D01*
X0163870Y0166747D01*
X0163895Y0166632D01*
X0163917Y0166517D01*
X0163934Y0166401D01*
X0163948Y0166285D01*
X0163957Y0166168D01*
X0163963Y0166051D01*
X0163965Y0165934D01*
X0163965Y0157666D01*
X0163963Y0157549D01*
X0163957Y0157432D01*
X0163948Y0157315D01*
X0163934Y0157199D01*
X0163917Y0157083D01*
X0163895Y0156968D01*
X0163870Y0156853D01*
X0163842Y0156740D01*
X0163809Y0156627D01*
X0163773Y0156516D01*
X0163733Y0156405D01*
X0163690Y0156297D01*
X0163643Y0156189D01*
X0163592Y0156084D01*
X0163538Y0155980D01*
X0163481Y0155878D01*
X0163420Y0155777D01*
X0163356Y0155679D01*
X0163288Y0155583D01*
X0163218Y0155490D01*
X0163144Y0155399D01*
X0163068Y0155310D01*
X0162989Y0155224D01*
X0162906Y0155140D01*
X0162822Y0155059D01*
X0162734Y0154981D01*
X0162644Y0154906D01*
X0162552Y0154834D01*
X0162457Y0154766D01*
X0162360Y0154700D01*
X0162261Y0154637D01*
X0162160Y0154578D01*
X0162057Y0154523D01*
X0161952Y0154470D01*
X0161845Y0154421D01*
X0161737Y0154376D01*
X0161628Y0154334D01*
X0161517Y0154296D01*
X0161405Y0154262D01*
X0161292Y0154231D01*
X0161178Y0154205D01*
X0161063Y0154181D01*
X0160947Y0154162D01*
X0160831Y0154147D01*
X0160715Y0154135D01*
X0160598Y0154127D01*
X0160481Y0154123D01*
X0160363Y0154123D01*
X0160246Y0154127D01*
X0160129Y0154135D01*
X0160013Y0154147D01*
X0159897Y0154162D01*
X0159781Y0154181D01*
X0159666Y0154205D01*
X0159552Y0154231D01*
X0159439Y0154262D01*
X0159327Y0154296D01*
X0159216Y0154334D01*
X0159107Y0154376D01*
X0158999Y0154421D01*
X0158892Y0154470D01*
X0158787Y0154523D01*
X0158684Y0154578D01*
X0158583Y0154637D01*
X0158484Y0154700D01*
X0158387Y0154766D01*
X0158292Y0154834D01*
X0158200Y0154906D01*
X0158110Y0154981D01*
X0158022Y0155059D01*
X0157938Y0155140D01*
X0157855Y0155224D01*
X0157776Y0155310D01*
X0157700Y0155399D01*
X0157626Y0155490D01*
X0157556Y0155583D01*
X0157488Y0155679D01*
X0157424Y0155777D01*
X0157363Y0155878D01*
X0157306Y0155980D01*
X0157252Y0156084D01*
X0157201Y0156189D01*
X0157154Y0156297D01*
X0157111Y0156405D01*
X0157071Y0156516D01*
X0157035Y0156627D01*
X0157002Y0156740D01*
X0156974Y0156853D01*
X0156949Y0156968D01*
X0156927Y0157083D01*
X0156910Y0157199D01*
X0156896Y0157315D01*
X0156887Y0157432D01*
X0156881Y0157549D01*
X0156879Y0157666D01*
X0235501Y0261800D02*
X0235503Y0261958D01*
X0235509Y0262116D01*
X0235519Y0262274D01*
X0235533Y0262432D01*
X0235551Y0262589D01*
X0235572Y0262746D01*
X0235598Y0262902D01*
X0235628Y0263058D01*
X0235661Y0263213D01*
X0235699Y0263366D01*
X0235740Y0263519D01*
X0235785Y0263671D01*
X0235834Y0263822D01*
X0235887Y0263971D01*
X0235943Y0264119D01*
X0236003Y0264265D01*
X0236067Y0264410D01*
X0236135Y0264553D01*
X0236206Y0264695D01*
X0236280Y0264835D01*
X0236358Y0264972D01*
X0236440Y0265108D01*
X0236524Y0265242D01*
X0236613Y0265373D01*
X0236704Y0265502D01*
X0236799Y0265629D01*
X0236896Y0265754D01*
X0236997Y0265876D01*
X0237101Y0265995D01*
X0237208Y0266112D01*
X0237318Y0266226D01*
X0237431Y0266337D01*
X0237546Y0266446D01*
X0237664Y0266551D01*
X0237785Y0266653D01*
X0237908Y0266753D01*
X0238034Y0266849D01*
X0238162Y0266942D01*
X0238292Y0267032D01*
X0238425Y0267118D01*
X0238560Y0267202D01*
X0238696Y0267281D01*
X0238835Y0267358D01*
X0238976Y0267430D01*
X0239118Y0267500D01*
X0239262Y0267565D01*
X0239408Y0267627D01*
X0239555Y0267685D01*
X0239704Y0267740D01*
X0239854Y0267791D01*
X0240005Y0267838D01*
X0240157Y0267881D01*
X0240310Y0267920D01*
X0240465Y0267956D01*
X0240620Y0267987D01*
X0240776Y0268015D01*
X0240932Y0268039D01*
X0241089Y0268059D01*
X0241247Y0268075D01*
X0241404Y0268087D01*
X0241563Y0268095D01*
X0241721Y0268099D01*
X0241879Y0268099D01*
X0242037Y0268095D01*
X0242196Y0268087D01*
X0242353Y0268075D01*
X0242511Y0268059D01*
X0242668Y0268039D01*
X0242824Y0268015D01*
X0242980Y0267987D01*
X0243135Y0267956D01*
X0243290Y0267920D01*
X0243443Y0267881D01*
X0243595Y0267838D01*
X0243746Y0267791D01*
X0243896Y0267740D01*
X0244045Y0267685D01*
X0244192Y0267627D01*
X0244338Y0267565D01*
X0244482Y0267500D01*
X0244624Y0267430D01*
X0244765Y0267358D01*
X0244904Y0267281D01*
X0245040Y0267202D01*
X0245175Y0267118D01*
X0245308Y0267032D01*
X0245438Y0266942D01*
X0245566Y0266849D01*
X0245692Y0266753D01*
X0245815Y0266653D01*
X0245936Y0266551D01*
X0246054Y0266446D01*
X0246169Y0266337D01*
X0246282Y0266226D01*
X0246392Y0266112D01*
X0246499Y0265995D01*
X0246603Y0265876D01*
X0246704Y0265754D01*
X0246801Y0265629D01*
X0246896Y0265502D01*
X0246987Y0265373D01*
X0247076Y0265242D01*
X0247160Y0265108D01*
X0247242Y0264972D01*
X0247320Y0264835D01*
X0247394Y0264695D01*
X0247465Y0264553D01*
X0247533Y0264410D01*
X0247597Y0264265D01*
X0247657Y0264119D01*
X0247713Y0263971D01*
X0247766Y0263822D01*
X0247815Y0263671D01*
X0247860Y0263519D01*
X0247901Y0263366D01*
X0247939Y0263213D01*
X0247972Y0263058D01*
X0248002Y0262902D01*
X0248028Y0262746D01*
X0248049Y0262589D01*
X0248067Y0262432D01*
X0248081Y0262274D01*
X0248091Y0262116D01*
X0248097Y0261958D01*
X0248099Y0261800D01*
X0248097Y0261642D01*
X0248091Y0261484D01*
X0248081Y0261326D01*
X0248067Y0261168D01*
X0248049Y0261011D01*
X0248028Y0260854D01*
X0248002Y0260698D01*
X0247972Y0260542D01*
X0247939Y0260387D01*
X0247901Y0260234D01*
X0247860Y0260081D01*
X0247815Y0259929D01*
X0247766Y0259778D01*
X0247713Y0259629D01*
X0247657Y0259481D01*
X0247597Y0259335D01*
X0247533Y0259190D01*
X0247465Y0259047D01*
X0247394Y0258905D01*
X0247320Y0258765D01*
X0247242Y0258628D01*
X0247160Y0258492D01*
X0247076Y0258358D01*
X0246987Y0258227D01*
X0246896Y0258098D01*
X0246801Y0257971D01*
X0246704Y0257846D01*
X0246603Y0257724D01*
X0246499Y0257605D01*
X0246392Y0257488D01*
X0246282Y0257374D01*
X0246169Y0257263D01*
X0246054Y0257154D01*
X0245936Y0257049D01*
X0245815Y0256947D01*
X0245692Y0256847D01*
X0245566Y0256751D01*
X0245438Y0256658D01*
X0245308Y0256568D01*
X0245175Y0256482D01*
X0245040Y0256398D01*
X0244904Y0256319D01*
X0244765Y0256242D01*
X0244624Y0256170D01*
X0244482Y0256100D01*
X0244338Y0256035D01*
X0244192Y0255973D01*
X0244045Y0255915D01*
X0243896Y0255860D01*
X0243746Y0255809D01*
X0243595Y0255762D01*
X0243443Y0255719D01*
X0243290Y0255680D01*
X0243135Y0255644D01*
X0242980Y0255613D01*
X0242824Y0255585D01*
X0242668Y0255561D01*
X0242511Y0255541D01*
X0242353Y0255525D01*
X0242196Y0255513D01*
X0242037Y0255505D01*
X0241879Y0255501D01*
X0241721Y0255501D01*
X0241563Y0255505D01*
X0241404Y0255513D01*
X0241247Y0255525D01*
X0241089Y0255541D01*
X0240932Y0255561D01*
X0240776Y0255585D01*
X0240620Y0255613D01*
X0240465Y0255644D01*
X0240310Y0255680D01*
X0240157Y0255719D01*
X0240005Y0255762D01*
X0239854Y0255809D01*
X0239704Y0255860D01*
X0239555Y0255915D01*
X0239408Y0255973D01*
X0239262Y0256035D01*
X0239118Y0256100D01*
X0238976Y0256170D01*
X0238835Y0256242D01*
X0238696Y0256319D01*
X0238560Y0256398D01*
X0238425Y0256482D01*
X0238292Y0256568D01*
X0238162Y0256658D01*
X0238034Y0256751D01*
X0237908Y0256847D01*
X0237785Y0256947D01*
X0237664Y0257049D01*
X0237546Y0257154D01*
X0237431Y0257263D01*
X0237318Y0257374D01*
X0237208Y0257488D01*
X0237101Y0257605D01*
X0236997Y0257724D01*
X0236896Y0257846D01*
X0236799Y0257971D01*
X0236704Y0258098D01*
X0236613Y0258227D01*
X0236524Y0258358D01*
X0236440Y0258492D01*
X0236358Y0258628D01*
X0236280Y0258765D01*
X0236206Y0258905D01*
X0236135Y0259047D01*
X0236067Y0259190D01*
X0236003Y0259335D01*
X0235943Y0259481D01*
X0235887Y0259629D01*
X0235834Y0259778D01*
X0235785Y0259929D01*
X0235740Y0260081D01*
X0235699Y0260234D01*
X0235661Y0260387D01*
X0235628Y0260542D01*
X0235598Y0260698D01*
X0235572Y0260854D01*
X0235551Y0261011D01*
X0235533Y0261168D01*
X0235519Y0261326D01*
X0235509Y0261484D01*
X0235503Y0261642D01*
X0235501Y0261800D01*
X0255501Y0261800D02*
X0255503Y0261958D01*
X0255509Y0262116D01*
X0255519Y0262274D01*
X0255533Y0262432D01*
X0255551Y0262589D01*
X0255572Y0262746D01*
X0255598Y0262902D01*
X0255628Y0263058D01*
X0255661Y0263213D01*
X0255699Y0263366D01*
X0255740Y0263519D01*
X0255785Y0263671D01*
X0255834Y0263822D01*
X0255887Y0263971D01*
X0255943Y0264119D01*
X0256003Y0264265D01*
X0256067Y0264410D01*
X0256135Y0264553D01*
X0256206Y0264695D01*
X0256280Y0264835D01*
X0256358Y0264972D01*
X0256440Y0265108D01*
X0256524Y0265242D01*
X0256613Y0265373D01*
X0256704Y0265502D01*
X0256799Y0265629D01*
X0256896Y0265754D01*
X0256997Y0265876D01*
X0257101Y0265995D01*
X0257208Y0266112D01*
X0257318Y0266226D01*
X0257431Y0266337D01*
X0257546Y0266446D01*
X0257664Y0266551D01*
X0257785Y0266653D01*
X0257908Y0266753D01*
X0258034Y0266849D01*
X0258162Y0266942D01*
X0258292Y0267032D01*
X0258425Y0267118D01*
X0258560Y0267202D01*
X0258696Y0267281D01*
X0258835Y0267358D01*
X0258976Y0267430D01*
X0259118Y0267500D01*
X0259262Y0267565D01*
X0259408Y0267627D01*
X0259555Y0267685D01*
X0259704Y0267740D01*
X0259854Y0267791D01*
X0260005Y0267838D01*
X0260157Y0267881D01*
X0260310Y0267920D01*
X0260465Y0267956D01*
X0260620Y0267987D01*
X0260776Y0268015D01*
X0260932Y0268039D01*
X0261089Y0268059D01*
X0261247Y0268075D01*
X0261404Y0268087D01*
X0261563Y0268095D01*
X0261721Y0268099D01*
X0261879Y0268099D01*
X0262037Y0268095D01*
X0262196Y0268087D01*
X0262353Y0268075D01*
X0262511Y0268059D01*
X0262668Y0268039D01*
X0262824Y0268015D01*
X0262980Y0267987D01*
X0263135Y0267956D01*
X0263290Y0267920D01*
X0263443Y0267881D01*
X0263595Y0267838D01*
X0263746Y0267791D01*
X0263896Y0267740D01*
X0264045Y0267685D01*
X0264192Y0267627D01*
X0264338Y0267565D01*
X0264482Y0267500D01*
X0264624Y0267430D01*
X0264765Y0267358D01*
X0264904Y0267281D01*
X0265040Y0267202D01*
X0265175Y0267118D01*
X0265308Y0267032D01*
X0265438Y0266942D01*
X0265566Y0266849D01*
X0265692Y0266753D01*
X0265815Y0266653D01*
X0265936Y0266551D01*
X0266054Y0266446D01*
X0266169Y0266337D01*
X0266282Y0266226D01*
X0266392Y0266112D01*
X0266499Y0265995D01*
X0266603Y0265876D01*
X0266704Y0265754D01*
X0266801Y0265629D01*
X0266896Y0265502D01*
X0266987Y0265373D01*
X0267076Y0265242D01*
X0267160Y0265108D01*
X0267242Y0264972D01*
X0267320Y0264835D01*
X0267394Y0264695D01*
X0267465Y0264553D01*
X0267533Y0264410D01*
X0267597Y0264265D01*
X0267657Y0264119D01*
X0267713Y0263971D01*
X0267766Y0263822D01*
X0267815Y0263671D01*
X0267860Y0263519D01*
X0267901Y0263366D01*
X0267939Y0263213D01*
X0267972Y0263058D01*
X0268002Y0262902D01*
X0268028Y0262746D01*
X0268049Y0262589D01*
X0268067Y0262432D01*
X0268081Y0262274D01*
X0268091Y0262116D01*
X0268097Y0261958D01*
X0268099Y0261800D01*
X0268097Y0261642D01*
X0268091Y0261484D01*
X0268081Y0261326D01*
X0268067Y0261168D01*
X0268049Y0261011D01*
X0268028Y0260854D01*
X0268002Y0260698D01*
X0267972Y0260542D01*
X0267939Y0260387D01*
X0267901Y0260234D01*
X0267860Y0260081D01*
X0267815Y0259929D01*
X0267766Y0259778D01*
X0267713Y0259629D01*
X0267657Y0259481D01*
X0267597Y0259335D01*
X0267533Y0259190D01*
X0267465Y0259047D01*
X0267394Y0258905D01*
X0267320Y0258765D01*
X0267242Y0258628D01*
X0267160Y0258492D01*
X0267076Y0258358D01*
X0266987Y0258227D01*
X0266896Y0258098D01*
X0266801Y0257971D01*
X0266704Y0257846D01*
X0266603Y0257724D01*
X0266499Y0257605D01*
X0266392Y0257488D01*
X0266282Y0257374D01*
X0266169Y0257263D01*
X0266054Y0257154D01*
X0265936Y0257049D01*
X0265815Y0256947D01*
X0265692Y0256847D01*
X0265566Y0256751D01*
X0265438Y0256658D01*
X0265308Y0256568D01*
X0265175Y0256482D01*
X0265040Y0256398D01*
X0264904Y0256319D01*
X0264765Y0256242D01*
X0264624Y0256170D01*
X0264482Y0256100D01*
X0264338Y0256035D01*
X0264192Y0255973D01*
X0264045Y0255915D01*
X0263896Y0255860D01*
X0263746Y0255809D01*
X0263595Y0255762D01*
X0263443Y0255719D01*
X0263290Y0255680D01*
X0263135Y0255644D01*
X0262980Y0255613D01*
X0262824Y0255585D01*
X0262668Y0255561D01*
X0262511Y0255541D01*
X0262353Y0255525D01*
X0262196Y0255513D01*
X0262037Y0255505D01*
X0261879Y0255501D01*
X0261721Y0255501D01*
X0261563Y0255505D01*
X0261404Y0255513D01*
X0261247Y0255525D01*
X0261089Y0255541D01*
X0260932Y0255561D01*
X0260776Y0255585D01*
X0260620Y0255613D01*
X0260465Y0255644D01*
X0260310Y0255680D01*
X0260157Y0255719D01*
X0260005Y0255762D01*
X0259854Y0255809D01*
X0259704Y0255860D01*
X0259555Y0255915D01*
X0259408Y0255973D01*
X0259262Y0256035D01*
X0259118Y0256100D01*
X0258976Y0256170D01*
X0258835Y0256242D01*
X0258696Y0256319D01*
X0258560Y0256398D01*
X0258425Y0256482D01*
X0258292Y0256568D01*
X0258162Y0256658D01*
X0258034Y0256751D01*
X0257908Y0256847D01*
X0257785Y0256947D01*
X0257664Y0257049D01*
X0257546Y0257154D01*
X0257431Y0257263D01*
X0257318Y0257374D01*
X0257208Y0257488D01*
X0257101Y0257605D01*
X0256997Y0257724D01*
X0256896Y0257846D01*
X0256799Y0257971D01*
X0256704Y0258098D01*
X0256613Y0258227D01*
X0256524Y0258358D01*
X0256440Y0258492D01*
X0256358Y0258628D01*
X0256280Y0258765D01*
X0256206Y0258905D01*
X0256135Y0259047D01*
X0256067Y0259190D01*
X0256003Y0259335D01*
X0255943Y0259481D01*
X0255887Y0259629D01*
X0255834Y0259778D01*
X0255785Y0259929D01*
X0255740Y0260081D01*
X0255699Y0260234D01*
X0255661Y0260387D01*
X0255628Y0260542D01*
X0255598Y0260698D01*
X0255572Y0260854D01*
X0255551Y0261011D01*
X0255533Y0261168D01*
X0255519Y0261326D01*
X0255509Y0261484D01*
X0255503Y0261642D01*
X0255501Y0261800D01*
X0240501Y0051800D02*
X0240503Y0051958D01*
X0240509Y0052116D01*
X0240519Y0052274D01*
X0240533Y0052432D01*
X0240551Y0052589D01*
X0240572Y0052746D01*
X0240598Y0052902D01*
X0240628Y0053058D01*
X0240661Y0053213D01*
X0240699Y0053366D01*
X0240740Y0053519D01*
X0240785Y0053671D01*
X0240834Y0053822D01*
X0240887Y0053971D01*
X0240943Y0054119D01*
X0241003Y0054265D01*
X0241067Y0054410D01*
X0241135Y0054553D01*
X0241206Y0054695D01*
X0241280Y0054835D01*
X0241358Y0054972D01*
X0241440Y0055108D01*
X0241524Y0055242D01*
X0241613Y0055373D01*
X0241704Y0055502D01*
X0241799Y0055629D01*
X0241896Y0055754D01*
X0241997Y0055876D01*
X0242101Y0055995D01*
X0242208Y0056112D01*
X0242318Y0056226D01*
X0242431Y0056337D01*
X0242546Y0056446D01*
X0242664Y0056551D01*
X0242785Y0056653D01*
X0242908Y0056753D01*
X0243034Y0056849D01*
X0243162Y0056942D01*
X0243292Y0057032D01*
X0243425Y0057118D01*
X0243560Y0057202D01*
X0243696Y0057281D01*
X0243835Y0057358D01*
X0243976Y0057430D01*
X0244118Y0057500D01*
X0244262Y0057565D01*
X0244408Y0057627D01*
X0244555Y0057685D01*
X0244704Y0057740D01*
X0244854Y0057791D01*
X0245005Y0057838D01*
X0245157Y0057881D01*
X0245310Y0057920D01*
X0245465Y0057956D01*
X0245620Y0057987D01*
X0245776Y0058015D01*
X0245932Y0058039D01*
X0246089Y0058059D01*
X0246247Y0058075D01*
X0246404Y0058087D01*
X0246563Y0058095D01*
X0246721Y0058099D01*
X0246879Y0058099D01*
X0247037Y0058095D01*
X0247196Y0058087D01*
X0247353Y0058075D01*
X0247511Y0058059D01*
X0247668Y0058039D01*
X0247824Y0058015D01*
X0247980Y0057987D01*
X0248135Y0057956D01*
X0248290Y0057920D01*
X0248443Y0057881D01*
X0248595Y0057838D01*
X0248746Y0057791D01*
X0248896Y0057740D01*
X0249045Y0057685D01*
X0249192Y0057627D01*
X0249338Y0057565D01*
X0249482Y0057500D01*
X0249624Y0057430D01*
X0249765Y0057358D01*
X0249904Y0057281D01*
X0250040Y0057202D01*
X0250175Y0057118D01*
X0250308Y0057032D01*
X0250438Y0056942D01*
X0250566Y0056849D01*
X0250692Y0056753D01*
X0250815Y0056653D01*
X0250936Y0056551D01*
X0251054Y0056446D01*
X0251169Y0056337D01*
X0251282Y0056226D01*
X0251392Y0056112D01*
X0251499Y0055995D01*
X0251603Y0055876D01*
X0251704Y0055754D01*
X0251801Y0055629D01*
X0251896Y0055502D01*
X0251987Y0055373D01*
X0252076Y0055242D01*
X0252160Y0055108D01*
X0252242Y0054972D01*
X0252320Y0054835D01*
X0252394Y0054695D01*
X0252465Y0054553D01*
X0252533Y0054410D01*
X0252597Y0054265D01*
X0252657Y0054119D01*
X0252713Y0053971D01*
X0252766Y0053822D01*
X0252815Y0053671D01*
X0252860Y0053519D01*
X0252901Y0053366D01*
X0252939Y0053213D01*
X0252972Y0053058D01*
X0253002Y0052902D01*
X0253028Y0052746D01*
X0253049Y0052589D01*
X0253067Y0052432D01*
X0253081Y0052274D01*
X0253091Y0052116D01*
X0253097Y0051958D01*
X0253099Y0051800D01*
X0253097Y0051642D01*
X0253091Y0051484D01*
X0253081Y0051326D01*
X0253067Y0051168D01*
X0253049Y0051011D01*
X0253028Y0050854D01*
X0253002Y0050698D01*
X0252972Y0050542D01*
X0252939Y0050387D01*
X0252901Y0050234D01*
X0252860Y0050081D01*
X0252815Y0049929D01*
X0252766Y0049778D01*
X0252713Y0049629D01*
X0252657Y0049481D01*
X0252597Y0049335D01*
X0252533Y0049190D01*
X0252465Y0049047D01*
X0252394Y0048905D01*
X0252320Y0048765D01*
X0252242Y0048628D01*
X0252160Y0048492D01*
X0252076Y0048358D01*
X0251987Y0048227D01*
X0251896Y0048098D01*
X0251801Y0047971D01*
X0251704Y0047846D01*
X0251603Y0047724D01*
X0251499Y0047605D01*
X0251392Y0047488D01*
X0251282Y0047374D01*
X0251169Y0047263D01*
X0251054Y0047154D01*
X0250936Y0047049D01*
X0250815Y0046947D01*
X0250692Y0046847D01*
X0250566Y0046751D01*
X0250438Y0046658D01*
X0250308Y0046568D01*
X0250175Y0046482D01*
X0250040Y0046398D01*
X0249904Y0046319D01*
X0249765Y0046242D01*
X0249624Y0046170D01*
X0249482Y0046100D01*
X0249338Y0046035D01*
X0249192Y0045973D01*
X0249045Y0045915D01*
X0248896Y0045860D01*
X0248746Y0045809D01*
X0248595Y0045762D01*
X0248443Y0045719D01*
X0248290Y0045680D01*
X0248135Y0045644D01*
X0247980Y0045613D01*
X0247824Y0045585D01*
X0247668Y0045561D01*
X0247511Y0045541D01*
X0247353Y0045525D01*
X0247196Y0045513D01*
X0247037Y0045505D01*
X0246879Y0045501D01*
X0246721Y0045501D01*
X0246563Y0045505D01*
X0246404Y0045513D01*
X0246247Y0045525D01*
X0246089Y0045541D01*
X0245932Y0045561D01*
X0245776Y0045585D01*
X0245620Y0045613D01*
X0245465Y0045644D01*
X0245310Y0045680D01*
X0245157Y0045719D01*
X0245005Y0045762D01*
X0244854Y0045809D01*
X0244704Y0045860D01*
X0244555Y0045915D01*
X0244408Y0045973D01*
X0244262Y0046035D01*
X0244118Y0046100D01*
X0243976Y0046170D01*
X0243835Y0046242D01*
X0243696Y0046319D01*
X0243560Y0046398D01*
X0243425Y0046482D01*
X0243292Y0046568D01*
X0243162Y0046658D01*
X0243034Y0046751D01*
X0242908Y0046847D01*
X0242785Y0046947D01*
X0242664Y0047049D01*
X0242546Y0047154D01*
X0242431Y0047263D01*
X0242318Y0047374D01*
X0242208Y0047488D01*
X0242101Y0047605D01*
X0241997Y0047724D01*
X0241896Y0047846D01*
X0241799Y0047971D01*
X0241704Y0048098D01*
X0241613Y0048227D01*
X0241524Y0048358D01*
X0241440Y0048492D01*
X0241358Y0048628D01*
X0241280Y0048765D01*
X0241206Y0048905D01*
X0241135Y0049047D01*
X0241067Y0049190D01*
X0241003Y0049335D01*
X0240943Y0049481D01*
X0240887Y0049629D01*
X0240834Y0049778D01*
X0240785Y0049929D01*
X0240740Y0050081D01*
X0240699Y0050234D01*
X0240661Y0050387D01*
X0240628Y0050542D01*
X0240598Y0050698D01*
X0240572Y0050854D01*
X0240551Y0051011D01*
X0240533Y0051168D01*
X0240519Y0051326D01*
X0240509Y0051484D01*
X0240503Y0051642D01*
X0240501Y0051800D01*
X0255501Y0011800D02*
X0255503Y0011958D01*
X0255509Y0012116D01*
X0255519Y0012274D01*
X0255533Y0012432D01*
X0255551Y0012589D01*
X0255572Y0012746D01*
X0255598Y0012902D01*
X0255628Y0013058D01*
X0255661Y0013213D01*
X0255699Y0013366D01*
X0255740Y0013519D01*
X0255785Y0013671D01*
X0255834Y0013822D01*
X0255887Y0013971D01*
X0255943Y0014119D01*
X0256003Y0014265D01*
X0256067Y0014410D01*
X0256135Y0014553D01*
X0256206Y0014695D01*
X0256280Y0014835D01*
X0256358Y0014972D01*
X0256440Y0015108D01*
X0256524Y0015242D01*
X0256613Y0015373D01*
X0256704Y0015502D01*
X0256799Y0015629D01*
X0256896Y0015754D01*
X0256997Y0015876D01*
X0257101Y0015995D01*
X0257208Y0016112D01*
X0257318Y0016226D01*
X0257431Y0016337D01*
X0257546Y0016446D01*
X0257664Y0016551D01*
X0257785Y0016653D01*
X0257908Y0016753D01*
X0258034Y0016849D01*
X0258162Y0016942D01*
X0258292Y0017032D01*
X0258425Y0017118D01*
X0258560Y0017202D01*
X0258696Y0017281D01*
X0258835Y0017358D01*
X0258976Y0017430D01*
X0259118Y0017500D01*
X0259262Y0017565D01*
X0259408Y0017627D01*
X0259555Y0017685D01*
X0259704Y0017740D01*
X0259854Y0017791D01*
X0260005Y0017838D01*
X0260157Y0017881D01*
X0260310Y0017920D01*
X0260465Y0017956D01*
X0260620Y0017987D01*
X0260776Y0018015D01*
X0260932Y0018039D01*
X0261089Y0018059D01*
X0261247Y0018075D01*
X0261404Y0018087D01*
X0261563Y0018095D01*
X0261721Y0018099D01*
X0261879Y0018099D01*
X0262037Y0018095D01*
X0262196Y0018087D01*
X0262353Y0018075D01*
X0262511Y0018059D01*
X0262668Y0018039D01*
X0262824Y0018015D01*
X0262980Y0017987D01*
X0263135Y0017956D01*
X0263290Y0017920D01*
X0263443Y0017881D01*
X0263595Y0017838D01*
X0263746Y0017791D01*
X0263896Y0017740D01*
X0264045Y0017685D01*
X0264192Y0017627D01*
X0264338Y0017565D01*
X0264482Y0017500D01*
X0264624Y0017430D01*
X0264765Y0017358D01*
X0264904Y0017281D01*
X0265040Y0017202D01*
X0265175Y0017118D01*
X0265308Y0017032D01*
X0265438Y0016942D01*
X0265566Y0016849D01*
X0265692Y0016753D01*
X0265815Y0016653D01*
X0265936Y0016551D01*
X0266054Y0016446D01*
X0266169Y0016337D01*
X0266282Y0016226D01*
X0266392Y0016112D01*
X0266499Y0015995D01*
X0266603Y0015876D01*
X0266704Y0015754D01*
X0266801Y0015629D01*
X0266896Y0015502D01*
X0266987Y0015373D01*
X0267076Y0015242D01*
X0267160Y0015108D01*
X0267242Y0014972D01*
X0267320Y0014835D01*
X0267394Y0014695D01*
X0267465Y0014553D01*
X0267533Y0014410D01*
X0267597Y0014265D01*
X0267657Y0014119D01*
X0267713Y0013971D01*
X0267766Y0013822D01*
X0267815Y0013671D01*
X0267860Y0013519D01*
X0267901Y0013366D01*
X0267939Y0013213D01*
X0267972Y0013058D01*
X0268002Y0012902D01*
X0268028Y0012746D01*
X0268049Y0012589D01*
X0268067Y0012432D01*
X0268081Y0012274D01*
X0268091Y0012116D01*
X0268097Y0011958D01*
X0268099Y0011800D01*
X0268097Y0011642D01*
X0268091Y0011484D01*
X0268081Y0011326D01*
X0268067Y0011168D01*
X0268049Y0011011D01*
X0268028Y0010854D01*
X0268002Y0010698D01*
X0267972Y0010542D01*
X0267939Y0010387D01*
X0267901Y0010234D01*
X0267860Y0010081D01*
X0267815Y0009929D01*
X0267766Y0009778D01*
X0267713Y0009629D01*
X0267657Y0009481D01*
X0267597Y0009335D01*
X0267533Y0009190D01*
X0267465Y0009047D01*
X0267394Y0008905D01*
X0267320Y0008765D01*
X0267242Y0008628D01*
X0267160Y0008492D01*
X0267076Y0008358D01*
X0266987Y0008227D01*
X0266896Y0008098D01*
X0266801Y0007971D01*
X0266704Y0007846D01*
X0266603Y0007724D01*
X0266499Y0007605D01*
X0266392Y0007488D01*
X0266282Y0007374D01*
X0266169Y0007263D01*
X0266054Y0007154D01*
X0265936Y0007049D01*
X0265815Y0006947D01*
X0265692Y0006847D01*
X0265566Y0006751D01*
X0265438Y0006658D01*
X0265308Y0006568D01*
X0265175Y0006482D01*
X0265040Y0006398D01*
X0264904Y0006319D01*
X0264765Y0006242D01*
X0264624Y0006170D01*
X0264482Y0006100D01*
X0264338Y0006035D01*
X0264192Y0005973D01*
X0264045Y0005915D01*
X0263896Y0005860D01*
X0263746Y0005809D01*
X0263595Y0005762D01*
X0263443Y0005719D01*
X0263290Y0005680D01*
X0263135Y0005644D01*
X0262980Y0005613D01*
X0262824Y0005585D01*
X0262668Y0005561D01*
X0262511Y0005541D01*
X0262353Y0005525D01*
X0262196Y0005513D01*
X0262037Y0005505D01*
X0261879Y0005501D01*
X0261721Y0005501D01*
X0261563Y0005505D01*
X0261404Y0005513D01*
X0261247Y0005525D01*
X0261089Y0005541D01*
X0260932Y0005561D01*
X0260776Y0005585D01*
X0260620Y0005613D01*
X0260465Y0005644D01*
X0260310Y0005680D01*
X0260157Y0005719D01*
X0260005Y0005762D01*
X0259854Y0005809D01*
X0259704Y0005860D01*
X0259555Y0005915D01*
X0259408Y0005973D01*
X0259262Y0006035D01*
X0259118Y0006100D01*
X0258976Y0006170D01*
X0258835Y0006242D01*
X0258696Y0006319D01*
X0258560Y0006398D01*
X0258425Y0006482D01*
X0258292Y0006568D01*
X0258162Y0006658D01*
X0258034Y0006751D01*
X0257908Y0006847D01*
X0257785Y0006947D01*
X0257664Y0007049D01*
X0257546Y0007154D01*
X0257431Y0007263D01*
X0257318Y0007374D01*
X0257208Y0007488D01*
X0257101Y0007605D01*
X0256997Y0007724D01*
X0256896Y0007846D01*
X0256799Y0007971D01*
X0256704Y0008098D01*
X0256613Y0008227D01*
X0256524Y0008358D01*
X0256440Y0008492D01*
X0256358Y0008628D01*
X0256280Y0008765D01*
X0256206Y0008905D01*
X0256135Y0009047D01*
X0256067Y0009190D01*
X0256003Y0009335D01*
X0255943Y0009481D01*
X0255887Y0009629D01*
X0255834Y0009778D01*
X0255785Y0009929D01*
X0255740Y0010081D01*
X0255699Y0010234D01*
X0255661Y0010387D01*
X0255628Y0010542D01*
X0255598Y0010698D01*
X0255572Y0010854D01*
X0255551Y0011011D01*
X0255533Y0011168D01*
X0255519Y0011326D01*
X0255509Y0011484D01*
X0255503Y0011642D01*
X0255501Y0011800D01*
X0025501Y0261800D02*
X0025503Y0261958D01*
X0025509Y0262116D01*
X0025519Y0262274D01*
X0025533Y0262432D01*
X0025551Y0262589D01*
X0025572Y0262746D01*
X0025598Y0262902D01*
X0025628Y0263058D01*
X0025661Y0263213D01*
X0025699Y0263366D01*
X0025740Y0263519D01*
X0025785Y0263671D01*
X0025834Y0263822D01*
X0025887Y0263971D01*
X0025943Y0264119D01*
X0026003Y0264265D01*
X0026067Y0264410D01*
X0026135Y0264553D01*
X0026206Y0264695D01*
X0026280Y0264835D01*
X0026358Y0264972D01*
X0026440Y0265108D01*
X0026524Y0265242D01*
X0026613Y0265373D01*
X0026704Y0265502D01*
X0026799Y0265629D01*
X0026896Y0265754D01*
X0026997Y0265876D01*
X0027101Y0265995D01*
X0027208Y0266112D01*
X0027318Y0266226D01*
X0027431Y0266337D01*
X0027546Y0266446D01*
X0027664Y0266551D01*
X0027785Y0266653D01*
X0027908Y0266753D01*
X0028034Y0266849D01*
X0028162Y0266942D01*
X0028292Y0267032D01*
X0028425Y0267118D01*
X0028560Y0267202D01*
X0028696Y0267281D01*
X0028835Y0267358D01*
X0028976Y0267430D01*
X0029118Y0267500D01*
X0029262Y0267565D01*
X0029408Y0267627D01*
X0029555Y0267685D01*
X0029704Y0267740D01*
X0029854Y0267791D01*
X0030005Y0267838D01*
X0030157Y0267881D01*
X0030310Y0267920D01*
X0030465Y0267956D01*
X0030620Y0267987D01*
X0030776Y0268015D01*
X0030932Y0268039D01*
X0031089Y0268059D01*
X0031247Y0268075D01*
X0031404Y0268087D01*
X0031563Y0268095D01*
X0031721Y0268099D01*
X0031879Y0268099D01*
X0032037Y0268095D01*
X0032196Y0268087D01*
X0032353Y0268075D01*
X0032511Y0268059D01*
X0032668Y0268039D01*
X0032824Y0268015D01*
X0032980Y0267987D01*
X0033135Y0267956D01*
X0033290Y0267920D01*
X0033443Y0267881D01*
X0033595Y0267838D01*
X0033746Y0267791D01*
X0033896Y0267740D01*
X0034045Y0267685D01*
X0034192Y0267627D01*
X0034338Y0267565D01*
X0034482Y0267500D01*
X0034624Y0267430D01*
X0034765Y0267358D01*
X0034904Y0267281D01*
X0035040Y0267202D01*
X0035175Y0267118D01*
X0035308Y0267032D01*
X0035438Y0266942D01*
X0035566Y0266849D01*
X0035692Y0266753D01*
X0035815Y0266653D01*
X0035936Y0266551D01*
X0036054Y0266446D01*
X0036169Y0266337D01*
X0036282Y0266226D01*
X0036392Y0266112D01*
X0036499Y0265995D01*
X0036603Y0265876D01*
X0036704Y0265754D01*
X0036801Y0265629D01*
X0036896Y0265502D01*
X0036987Y0265373D01*
X0037076Y0265242D01*
X0037160Y0265108D01*
X0037242Y0264972D01*
X0037320Y0264835D01*
X0037394Y0264695D01*
X0037465Y0264553D01*
X0037533Y0264410D01*
X0037597Y0264265D01*
X0037657Y0264119D01*
X0037713Y0263971D01*
X0037766Y0263822D01*
X0037815Y0263671D01*
X0037860Y0263519D01*
X0037901Y0263366D01*
X0037939Y0263213D01*
X0037972Y0263058D01*
X0038002Y0262902D01*
X0038028Y0262746D01*
X0038049Y0262589D01*
X0038067Y0262432D01*
X0038081Y0262274D01*
X0038091Y0262116D01*
X0038097Y0261958D01*
X0038099Y0261800D01*
X0038097Y0261642D01*
X0038091Y0261484D01*
X0038081Y0261326D01*
X0038067Y0261168D01*
X0038049Y0261011D01*
X0038028Y0260854D01*
X0038002Y0260698D01*
X0037972Y0260542D01*
X0037939Y0260387D01*
X0037901Y0260234D01*
X0037860Y0260081D01*
X0037815Y0259929D01*
X0037766Y0259778D01*
X0037713Y0259629D01*
X0037657Y0259481D01*
X0037597Y0259335D01*
X0037533Y0259190D01*
X0037465Y0259047D01*
X0037394Y0258905D01*
X0037320Y0258765D01*
X0037242Y0258628D01*
X0037160Y0258492D01*
X0037076Y0258358D01*
X0036987Y0258227D01*
X0036896Y0258098D01*
X0036801Y0257971D01*
X0036704Y0257846D01*
X0036603Y0257724D01*
X0036499Y0257605D01*
X0036392Y0257488D01*
X0036282Y0257374D01*
X0036169Y0257263D01*
X0036054Y0257154D01*
X0035936Y0257049D01*
X0035815Y0256947D01*
X0035692Y0256847D01*
X0035566Y0256751D01*
X0035438Y0256658D01*
X0035308Y0256568D01*
X0035175Y0256482D01*
X0035040Y0256398D01*
X0034904Y0256319D01*
X0034765Y0256242D01*
X0034624Y0256170D01*
X0034482Y0256100D01*
X0034338Y0256035D01*
X0034192Y0255973D01*
X0034045Y0255915D01*
X0033896Y0255860D01*
X0033746Y0255809D01*
X0033595Y0255762D01*
X0033443Y0255719D01*
X0033290Y0255680D01*
X0033135Y0255644D01*
X0032980Y0255613D01*
X0032824Y0255585D01*
X0032668Y0255561D01*
X0032511Y0255541D01*
X0032353Y0255525D01*
X0032196Y0255513D01*
X0032037Y0255505D01*
X0031879Y0255501D01*
X0031721Y0255501D01*
X0031563Y0255505D01*
X0031404Y0255513D01*
X0031247Y0255525D01*
X0031089Y0255541D01*
X0030932Y0255561D01*
X0030776Y0255585D01*
X0030620Y0255613D01*
X0030465Y0255644D01*
X0030310Y0255680D01*
X0030157Y0255719D01*
X0030005Y0255762D01*
X0029854Y0255809D01*
X0029704Y0255860D01*
X0029555Y0255915D01*
X0029408Y0255973D01*
X0029262Y0256035D01*
X0029118Y0256100D01*
X0028976Y0256170D01*
X0028835Y0256242D01*
X0028696Y0256319D01*
X0028560Y0256398D01*
X0028425Y0256482D01*
X0028292Y0256568D01*
X0028162Y0256658D01*
X0028034Y0256751D01*
X0027908Y0256847D01*
X0027785Y0256947D01*
X0027664Y0257049D01*
X0027546Y0257154D01*
X0027431Y0257263D01*
X0027318Y0257374D01*
X0027208Y0257488D01*
X0027101Y0257605D01*
X0026997Y0257724D01*
X0026896Y0257846D01*
X0026799Y0257971D01*
X0026704Y0258098D01*
X0026613Y0258227D01*
X0026524Y0258358D01*
X0026440Y0258492D01*
X0026358Y0258628D01*
X0026280Y0258765D01*
X0026206Y0258905D01*
X0026135Y0259047D01*
X0026067Y0259190D01*
X0026003Y0259335D01*
X0025943Y0259481D01*
X0025887Y0259629D01*
X0025834Y0259778D01*
X0025785Y0259929D01*
X0025740Y0260081D01*
X0025699Y0260234D01*
X0025661Y0260387D01*
X0025628Y0260542D01*
X0025598Y0260698D01*
X0025572Y0260854D01*
X0025551Y0261011D01*
X0025533Y0261168D01*
X0025519Y0261326D01*
X0025509Y0261484D01*
X0025503Y0261642D01*
X0025501Y0261800D01*
X0005501Y0261800D02*
X0005503Y0261958D01*
X0005509Y0262116D01*
X0005519Y0262274D01*
X0005533Y0262432D01*
X0005551Y0262589D01*
X0005572Y0262746D01*
X0005598Y0262902D01*
X0005628Y0263058D01*
X0005661Y0263213D01*
X0005699Y0263366D01*
X0005740Y0263519D01*
X0005785Y0263671D01*
X0005834Y0263822D01*
X0005887Y0263971D01*
X0005943Y0264119D01*
X0006003Y0264265D01*
X0006067Y0264410D01*
X0006135Y0264553D01*
X0006206Y0264695D01*
X0006280Y0264835D01*
X0006358Y0264972D01*
X0006440Y0265108D01*
X0006524Y0265242D01*
X0006613Y0265373D01*
X0006704Y0265502D01*
X0006799Y0265629D01*
X0006896Y0265754D01*
X0006997Y0265876D01*
X0007101Y0265995D01*
X0007208Y0266112D01*
X0007318Y0266226D01*
X0007431Y0266337D01*
X0007546Y0266446D01*
X0007664Y0266551D01*
X0007785Y0266653D01*
X0007908Y0266753D01*
X0008034Y0266849D01*
X0008162Y0266942D01*
X0008292Y0267032D01*
X0008425Y0267118D01*
X0008560Y0267202D01*
X0008696Y0267281D01*
X0008835Y0267358D01*
X0008976Y0267430D01*
X0009118Y0267500D01*
X0009262Y0267565D01*
X0009408Y0267627D01*
X0009555Y0267685D01*
X0009704Y0267740D01*
X0009854Y0267791D01*
X0010005Y0267838D01*
X0010157Y0267881D01*
X0010310Y0267920D01*
X0010465Y0267956D01*
X0010620Y0267987D01*
X0010776Y0268015D01*
X0010932Y0268039D01*
X0011089Y0268059D01*
X0011247Y0268075D01*
X0011404Y0268087D01*
X0011563Y0268095D01*
X0011721Y0268099D01*
X0011879Y0268099D01*
X0012037Y0268095D01*
X0012196Y0268087D01*
X0012353Y0268075D01*
X0012511Y0268059D01*
X0012668Y0268039D01*
X0012824Y0268015D01*
X0012980Y0267987D01*
X0013135Y0267956D01*
X0013290Y0267920D01*
X0013443Y0267881D01*
X0013595Y0267838D01*
X0013746Y0267791D01*
X0013896Y0267740D01*
X0014045Y0267685D01*
X0014192Y0267627D01*
X0014338Y0267565D01*
X0014482Y0267500D01*
X0014624Y0267430D01*
X0014765Y0267358D01*
X0014904Y0267281D01*
X0015040Y0267202D01*
X0015175Y0267118D01*
X0015308Y0267032D01*
X0015438Y0266942D01*
X0015566Y0266849D01*
X0015692Y0266753D01*
X0015815Y0266653D01*
X0015936Y0266551D01*
X0016054Y0266446D01*
X0016169Y0266337D01*
X0016282Y0266226D01*
X0016392Y0266112D01*
X0016499Y0265995D01*
X0016603Y0265876D01*
X0016704Y0265754D01*
X0016801Y0265629D01*
X0016896Y0265502D01*
X0016987Y0265373D01*
X0017076Y0265242D01*
X0017160Y0265108D01*
X0017242Y0264972D01*
X0017320Y0264835D01*
X0017394Y0264695D01*
X0017465Y0264553D01*
X0017533Y0264410D01*
X0017597Y0264265D01*
X0017657Y0264119D01*
X0017713Y0263971D01*
X0017766Y0263822D01*
X0017815Y0263671D01*
X0017860Y0263519D01*
X0017901Y0263366D01*
X0017939Y0263213D01*
X0017972Y0263058D01*
X0018002Y0262902D01*
X0018028Y0262746D01*
X0018049Y0262589D01*
X0018067Y0262432D01*
X0018081Y0262274D01*
X0018091Y0262116D01*
X0018097Y0261958D01*
X0018099Y0261800D01*
X0018097Y0261642D01*
X0018091Y0261484D01*
X0018081Y0261326D01*
X0018067Y0261168D01*
X0018049Y0261011D01*
X0018028Y0260854D01*
X0018002Y0260698D01*
X0017972Y0260542D01*
X0017939Y0260387D01*
X0017901Y0260234D01*
X0017860Y0260081D01*
X0017815Y0259929D01*
X0017766Y0259778D01*
X0017713Y0259629D01*
X0017657Y0259481D01*
X0017597Y0259335D01*
X0017533Y0259190D01*
X0017465Y0259047D01*
X0017394Y0258905D01*
X0017320Y0258765D01*
X0017242Y0258628D01*
X0017160Y0258492D01*
X0017076Y0258358D01*
X0016987Y0258227D01*
X0016896Y0258098D01*
X0016801Y0257971D01*
X0016704Y0257846D01*
X0016603Y0257724D01*
X0016499Y0257605D01*
X0016392Y0257488D01*
X0016282Y0257374D01*
X0016169Y0257263D01*
X0016054Y0257154D01*
X0015936Y0257049D01*
X0015815Y0256947D01*
X0015692Y0256847D01*
X0015566Y0256751D01*
X0015438Y0256658D01*
X0015308Y0256568D01*
X0015175Y0256482D01*
X0015040Y0256398D01*
X0014904Y0256319D01*
X0014765Y0256242D01*
X0014624Y0256170D01*
X0014482Y0256100D01*
X0014338Y0256035D01*
X0014192Y0255973D01*
X0014045Y0255915D01*
X0013896Y0255860D01*
X0013746Y0255809D01*
X0013595Y0255762D01*
X0013443Y0255719D01*
X0013290Y0255680D01*
X0013135Y0255644D01*
X0012980Y0255613D01*
X0012824Y0255585D01*
X0012668Y0255561D01*
X0012511Y0255541D01*
X0012353Y0255525D01*
X0012196Y0255513D01*
X0012037Y0255505D01*
X0011879Y0255501D01*
X0011721Y0255501D01*
X0011563Y0255505D01*
X0011404Y0255513D01*
X0011247Y0255525D01*
X0011089Y0255541D01*
X0010932Y0255561D01*
X0010776Y0255585D01*
X0010620Y0255613D01*
X0010465Y0255644D01*
X0010310Y0255680D01*
X0010157Y0255719D01*
X0010005Y0255762D01*
X0009854Y0255809D01*
X0009704Y0255860D01*
X0009555Y0255915D01*
X0009408Y0255973D01*
X0009262Y0256035D01*
X0009118Y0256100D01*
X0008976Y0256170D01*
X0008835Y0256242D01*
X0008696Y0256319D01*
X0008560Y0256398D01*
X0008425Y0256482D01*
X0008292Y0256568D01*
X0008162Y0256658D01*
X0008034Y0256751D01*
X0007908Y0256847D01*
X0007785Y0256947D01*
X0007664Y0257049D01*
X0007546Y0257154D01*
X0007431Y0257263D01*
X0007318Y0257374D01*
X0007208Y0257488D01*
X0007101Y0257605D01*
X0006997Y0257724D01*
X0006896Y0257846D01*
X0006799Y0257971D01*
X0006704Y0258098D01*
X0006613Y0258227D01*
X0006524Y0258358D01*
X0006440Y0258492D01*
X0006358Y0258628D01*
X0006280Y0258765D01*
X0006206Y0258905D01*
X0006135Y0259047D01*
X0006067Y0259190D01*
X0006003Y0259335D01*
X0005943Y0259481D01*
X0005887Y0259629D01*
X0005834Y0259778D01*
X0005785Y0259929D01*
X0005740Y0260081D01*
X0005699Y0260234D01*
X0005661Y0260387D01*
X0005628Y0260542D01*
X0005598Y0260698D01*
X0005572Y0260854D01*
X0005551Y0261011D01*
X0005533Y0261168D01*
X0005519Y0261326D01*
X0005509Y0261484D01*
X0005503Y0261642D01*
X0005501Y0261800D01*
D11*
X0021800Y0116643D03*
X0036800Y0116643D03*
X0036800Y0096957D03*
X0021800Y0096957D03*
D12*
X0036800Y0136800D03*
X0046800Y0136800D03*
X0081800Y0081800D03*
X0091800Y0081800D03*
X0181800Y0081800D03*
X0191800Y0081800D03*
X0221800Y0136800D03*
X0231800Y0136800D03*
X0231800Y0206800D03*
X0221800Y0206800D03*
X0176800Y0251800D03*
X0166800Y0251800D03*
X0096800Y0251800D03*
X0086800Y0251800D03*
X0046800Y0206800D03*
X0036800Y0206800D03*
D13*
X0146957Y0211800D03*
X0166643Y0211800D03*
X0166643Y0231800D03*
X0146957Y0231800D03*
X0036800Y0081643D03*
X0021800Y0081643D03*
X0021800Y0061957D03*
X0021800Y0051643D03*
X0036800Y0051643D03*
X0036800Y0061957D03*
X0036800Y0031957D03*
X0021800Y0031957D03*
X0086800Y0026957D03*
X0096800Y0026957D03*
X0106800Y0026957D03*
X0116800Y0026957D03*
X0126800Y0026957D03*
X0136800Y0026957D03*
X0146800Y0026957D03*
X0156800Y0026957D03*
X0156800Y0046643D03*
X0146800Y0046643D03*
X0136800Y0046643D03*
X0126800Y0046643D03*
X0116800Y0046643D03*
X0106800Y0046643D03*
X0096800Y0046643D03*
X0086800Y0046643D03*
D14*
X0126957Y0132272D03*
X0136800Y0132272D03*
X0146643Y0132272D03*
X0146643Y0189359D03*
X0126957Y0189359D03*
D15*
X0136800Y0017300D03*
X0126800Y0016300D03*
X0116800Y0017300D03*
X0106800Y0016300D03*
X0096800Y0017300D03*
X0086800Y0016300D03*
X0076800Y0017300D03*
X0066800Y0016300D03*
X0056800Y0017300D03*
X0046800Y0016300D03*
X0146800Y0016300D03*
X0156800Y0017300D03*
X0166800Y0016300D03*
D16*
X0156800Y0017300D02*
X0156800Y0026957D01*
X0146800Y0026957D02*
X0146800Y0016300D01*
X0136800Y0017300D02*
X0136800Y0026957D01*
X0126800Y0026957D02*
X0126800Y0016300D01*
X0116800Y0016800D02*
X0116800Y0017300D01*
X0116800Y0026957D01*
X0106800Y0026957D02*
X0106800Y0016300D01*
X0096800Y0017300D02*
X0096800Y0026957D01*
X0086800Y0026957D02*
X0086800Y0016300D01*
X0076800Y0017300D02*
X0076800Y0046800D01*
X0041957Y0081643D01*
X0036800Y0081643D01*
X0036800Y0096957D01*
X0021800Y0096957D02*
X0021800Y0081643D01*
X0016800Y0076643D01*
X0016800Y0046800D01*
X0021800Y0041800D01*
X0046800Y0041800D01*
X0066800Y0021800D01*
X0066800Y0016300D01*
X0056800Y0017300D02*
X0041800Y0032300D01*
X0041457Y0032300D01*
X0036800Y0031957D01*
X0021800Y0031957D01*
X0016643Y0031957D01*
X0006800Y0041800D01*
X0006800Y0141800D01*
X0046800Y0181800D01*
X0051800Y0191800D02*
X0036800Y0206800D01*
X0051800Y0191800D02*
X0051800Y0131800D01*
X0081800Y0101800D01*
X0096800Y0101800D01*
X0106800Y0091800D01*
X0106800Y0046643D01*
X0116800Y0046643D02*
X0116800Y0091800D01*
X0096800Y0111800D01*
X0081800Y0111800D01*
X0056800Y0136800D01*
X0056800Y0201800D01*
X0086800Y0231800D01*
X0086800Y0251800D01*
X0146957Y0231800D02*
X0146957Y0211800D01*
X0146643Y0196485D01*
X0146643Y0189359D01*
X0176800Y0221800D02*
X0176800Y0146800D01*
X0126800Y0096800D01*
X0101800Y0086800D02*
X0101800Y0076800D01*
X0096800Y0071800D01*
X0096800Y0046643D01*
X0086800Y0046643D02*
X0086800Y0076800D01*
X0081800Y0081800D01*
X0081800Y0091800D02*
X0036800Y0136800D01*
X0081800Y0091800D02*
X0096800Y0091800D01*
X0101800Y0086800D01*
X0126800Y0051800D02*
X0206800Y0131800D01*
X0206800Y0211800D01*
X0166800Y0251800D01*
X0166643Y0231800D02*
X0176800Y0221800D01*
X0211800Y0196800D02*
X0221800Y0206800D01*
X0211800Y0196800D02*
X0211800Y0126800D01*
X0136800Y0051800D01*
X0136800Y0046643D01*
X0126800Y0046643D02*
X0126800Y0051800D01*
X0146800Y0051800D02*
X0146800Y0046643D01*
X0146800Y0051800D02*
X0221800Y0126800D01*
X0221800Y0136800D01*
X0181800Y0081800D02*
X0181800Y0076800D01*
X0156800Y0051800D01*
X0156800Y0046643D01*
X0036800Y0051643D02*
X0036800Y0061957D01*
X0021800Y0061957D02*
X0021800Y0051643D01*
D17*
X0126800Y0096800D03*
X0046800Y0181800D03*
M02*
