%
M48
M72
T01C0.02362
T02C0.02756
T03C0.03000
T04C0.03200
T05C0.03937
T06C0.04000
T07C0.12598
%
T01
X126800Y96800
X46800Y181800
T02
X36800Y116643
X21800Y116643
X21800Y96957
X36800Y96957
T03
X36800Y81643
X21800Y81643
X21800Y61957
X21800Y51643
X36800Y51643
X36800Y61957
X36800Y31957
X21800Y31957
X86800Y26957
X96800Y26957
X106800Y26957
X116800Y26957
X126800Y26957
X136800Y26957
X146800Y26957
X156800Y26957
X156800Y46643
X146800Y46643
X136800Y46643
X126800Y46643
X116800Y46643
X106800Y46643
X96800Y46643
X86800Y46643
X146957Y211800
X166643Y211800
X166643Y231800
X146957Y231800
T04
X166800Y251800
X176800Y251800
X221800Y206800
X231800Y206800
X231800Y136800
X221800Y136800
X191800Y81800
X181800Y81800
X91800Y81800
X81800Y81800
X46800Y136800
X36800Y136800
X36800Y206800
X46800Y206800
X86800Y251800
X96800Y251800
T05
X126957Y189359
X146643Y189359
X146643Y132272
X136800Y132272
X126957Y132272
T06
X136800Y17300
X126800Y16300
X116800Y17300
X106800Y16300
X96800Y17300
X86800Y16300
X76800Y17300
X66800Y16300
X56800Y17300
X46800Y16300
X146800Y16300
X156800Y17300
X166800Y16300
T07
X11800Y11800
X56800Y51800
X246800Y51800
X261800Y11800
X261800Y261800
X241800Y261800
X31800Y261800
X11800Y261800
M30
