G75*
%MOIN*%
%OFA0B0*%
%FSLAX25Y25*%
%IPPOS*%
%LPD*%
%AMOC8*
5,1,8,0,0,1.08239X$1,22.5*
%
%ADD10C,0.13398*%
%ADD11C,0.06000*%
%ADD12C,0.08200*%
%ADD13OC8,0.06000*%
%ADD14C,0.06800*%
%ADD15C,0.07300*%
%ADD16C,0.09658*%
%ADD17C,0.04762*%
D10*
X0012600Y0012600D03*
X0012600Y0152600D03*
X0012600Y0187600D03*
X0042600Y0262600D03*
X0012600Y0307600D03*
X0212600Y0307600D03*
X0212600Y0217600D03*
X0367600Y0152600D03*
X0382600Y0187600D03*
X0382600Y0262600D03*
X0382600Y0307600D03*
X0387600Y0012600D03*
D11*
X0262600Y0085000D02*
X0262600Y0090200D01*
X0252600Y0090200D02*
X0252600Y0085000D01*
X0242600Y0085000D02*
X0242600Y0090200D01*
X0232600Y0090200D02*
X0232600Y0085000D01*
X0222600Y0085000D02*
X0222600Y0090200D01*
X0212600Y0090200D02*
X0212600Y0085000D01*
X0202600Y0085000D02*
X0202600Y0090200D01*
X0192600Y0090200D02*
X0192600Y0085000D01*
X0182600Y0085000D02*
X0182600Y0090200D01*
X0172600Y0090200D02*
X0172600Y0085000D01*
X0162600Y0085000D02*
X0162600Y0090200D01*
X0152600Y0090200D02*
X0152600Y0085000D01*
X0142600Y0085000D02*
X0142600Y0090200D01*
X0132600Y0090200D02*
X0132600Y0085000D01*
X0132600Y0115000D02*
X0132600Y0120200D01*
X0142600Y0120200D02*
X0142600Y0115000D01*
X0152600Y0115000D02*
X0152600Y0120200D01*
X0162600Y0120200D02*
X0162600Y0115000D01*
X0172600Y0115000D02*
X0172600Y0120200D01*
X0182600Y0120200D02*
X0182600Y0115000D01*
X0192600Y0115000D02*
X0192600Y0120200D01*
X0202600Y0120200D02*
X0202600Y0115000D01*
X0212600Y0115000D02*
X0212600Y0120200D01*
X0222600Y0120200D02*
X0222600Y0115000D01*
X0232600Y0115000D02*
X0232600Y0120200D01*
X0242600Y0120200D02*
X0242600Y0115000D01*
X0252600Y0115000D02*
X0252600Y0120200D01*
X0262600Y0120200D02*
X0262600Y0115000D01*
D12*
X0202600Y0153100D03*
X0192600Y0152100D03*
X0182600Y0153100D03*
X0172600Y0152100D03*
X0162600Y0153100D03*
X0152600Y0152100D03*
X0142600Y0153100D03*
X0132600Y0152100D03*
X0122600Y0153100D03*
X0122600Y0178100D03*
X0132600Y0177100D03*
X0142600Y0178100D03*
X0152600Y0177100D03*
X0162600Y0178100D03*
X0172600Y0177100D03*
X0182600Y0178100D03*
X0192600Y0177100D03*
X0202600Y0178100D03*
X0388100Y0142600D03*
X0387100Y0132600D03*
X0388100Y0122600D03*
X0387100Y0112600D03*
X0388100Y0102600D03*
X0387100Y0092600D03*
X0388100Y0082600D03*
X0387100Y0072600D03*
X0388100Y0062600D03*
X0387100Y0052600D03*
X0388100Y0042600D03*
X0387100Y0032600D03*
X0018100Y0067600D03*
X0017100Y0077600D03*
X0018100Y0087600D03*
X0017100Y0097600D03*
X0018100Y0107600D03*
X0017100Y0117600D03*
X0017100Y0057600D03*
D13*
X0057600Y0087600D03*
X0062600Y0097600D03*
X0087600Y0087600D03*
X0092600Y0097600D03*
X0072600Y0207600D03*
X0072600Y0237600D03*
X0072600Y0257600D03*
X0072600Y0267600D03*
X0112600Y0267600D03*
X0112600Y0257600D03*
X0112600Y0237600D03*
X0112600Y0207600D03*
X0152600Y0207600D03*
X0152600Y0237600D03*
X0152600Y0257600D03*
X0152600Y0267600D03*
X0192600Y0267600D03*
X0192600Y0257600D03*
X0192600Y0237600D03*
X0192600Y0207600D03*
X0232600Y0207600D03*
X0232600Y0237600D03*
X0232600Y0257600D03*
X0232600Y0267600D03*
X0272600Y0267600D03*
X0272600Y0257600D03*
X0272600Y0237600D03*
X0272600Y0207600D03*
X0312600Y0207600D03*
X0312600Y0237600D03*
X0312600Y0257600D03*
X0312600Y0267600D03*
X0352600Y0267600D03*
X0352600Y0257600D03*
X0352600Y0237600D03*
X0352600Y0207600D03*
X0262600Y0142600D03*
X0232600Y0142600D03*
X0272600Y0117600D03*
X0272600Y0107600D03*
X0272600Y0097600D03*
X0302600Y0097600D03*
X0302600Y0107600D03*
X0302600Y0117600D03*
D14*
X0314600Y0117600D02*
X0320600Y0117600D01*
X0320600Y0107600D02*
X0314600Y0107600D01*
X0314600Y0097600D02*
X0320600Y0097600D01*
X0334600Y0097600D02*
X0340600Y0097600D01*
X0340600Y0107600D02*
X0334600Y0107600D01*
X0334600Y0117600D02*
X0340600Y0117600D01*
X0354600Y0117600D02*
X0360600Y0117600D01*
X0360600Y0107600D02*
X0354600Y0107600D01*
X0354600Y0097600D02*
X0360600Y0097600D01*
D15*
X0222600Y0077600D03*
X0212600Y0077600D03*
D16*
X0193545Y0019726D03*
X0061655Y0019726D03*
X0061655Y0035474D03*
D17*
X0122600Y0052600D03*
X0127600Y0062600D03*
X0117600Y0127600D03*
X0107600Y0127600D03*
X0232600Y0067600D03*
X0272600Y0067600D03*
M02*
