G75*
%MOIN*%
%OFA0B0*%
%FSLAX25Y25*%
%IPPOS*%
%LPD*%
%AMOC8*
5,1,8,0,0,1.08239X$1,22.5*
%
%ADD10C,0.00000*%
%ADD11C,0.05200*%
%ADD12C,0.07400*%
%ADD13OC8,0.05200*%
%ADD14C,0.06000*%
%ADD15C,0.06500*%
%ADD16C,0.08858*%
%ADD17C,0.01000*%
%ADD18C,0.03200*%
%ADD19C,0.03962*%
%ADD20C,0.02400*%
%ADD21C,0.01600*%
D10*
X0002600Y0002600D02*
X0002600Y0317561D01*
X0396301Y0317561D01*
X0396301Y0002600D01*
X0002600Y0002600D01*
X0006301Y0012600D02*
X0006303Y0012758D01*
X0006309Y0012916D01*
X0006319Y0013074D01*
X0006333Y0013232D01*
X0006351Y0013389D01*
X0006372Y0013546D01*
X0006398Y0013702D01*
X0006428Y0013858D01*
X0006461Y0014013D01*
X0006499Y0014166D01*
X0006540Y0014319D01*
X0006585Y0014471D01*
X0006634Y0014622D01*
X0006687Y0014771D01*
X0006743Y0014919D01*
X0006803Y0015065D01*
X0006867Y0015210D01*
X0006935Y0015353D01*
X0007006Y0015495D01*
X0007080Y0015635D01*
X0007158Y0015772D01*
X0007240Y0015908D01*
X0007324Y0016042D01*
X0007413Y0016173D01*
X0007504Y0016302D01*
X0007599Y0016429D01*
X0007696Y0016554D01*
X0007797Y0016676D01*
X0007901Y0016795D01*
X0008008Y0016912D01*
X0008118Y0017026D01*
X0008231Y0017137D01*
X0008346Y0017246D01*
X0008464Y0017351D01*
X0008585Y0017453D01*
X0008708Y0017553D01*
X0008834Y0017649D01*
X0008962Y0017742D01*
X0009092Y0017832D01*
X0009225Y0017918D01*
X0009360Y0018002D01*
X0009496Y0018081D01*
X0009635Y0018158D01*
X0009776Y0018230D01*
X0009918Y0018300D01*
X0010062Y0018365D01*
X0010208Y0018427D01*
X0010355Y0018485D01*
X0010504Y0018540D01*
X0010654Y0018591D01*
X0010805Y0018638D01*
X0010957Y0018681D01*
X0011110Y0018720D01*
X0011265Y0018756D01*
X0011420Y0018787D01*
X0011576Y0018815D01*
X0011732Y0018839D01*
X0011889Y0018859D01*
X0012047Y0018875D01*
X0012204Y0018887D01*
X0012363Y0018895D01*
X0012521Y0018899D01*
X0012679Y0018899D01*
X0012837Y0018895D01*
X0012996Y0018887D01*
X0013153Y0018875D01*
X0013311Y0018859D01*
X0013468Y0018839D01*
X0013624Y0018815D01*
X0013780Y0018787D01*
X0013935Y0018756D01*
X0014090Y0018720D01*
X0014243Y0018681D01*
X0014395Y0018638D01*
X0014546Y0018591D01*
X0014696Y0018540D01*
X0014845Y0018485D01*
X0014992Y0018427D01*
X0015138Y0018365D01*
X0015282Y0018300D01*
X0015424Y0018230D01*
X0015565Y0018158D01*
X0015704Y0018081D01*
X0015840Y0018002D01*
X0015975Y0017918D01*
X0016108Y0017832D01*
X0016238Y0017742D01*
X0016366Y0017649D01*
X0016492Y0017553D01*
X0016615Y0017453D01*
X0016736Y0017351D01*
X0016854Y0017246D01*
X0016969Y0017137D01*
X0017082Y0017026D01*
X0017192Y0016912D01*
X0017299Y0016795D01*
X0017403Y0016676D01*
X0017504Y0016554D01*
X0017601Y0016429D01*
X0017696Y0016302D01*
X0017787Y0016173D01*
X0017876Y0016042D01*
X0017960Y0015908D01*
X0018042Y0015772D01*
X0018120Y0015635D01*
X0018194Y0015495D01*
X0018265Y0015353D01*
X0018333Y0015210D01*
X0018397Y0015065D01*
X0018457Y0014919D01*
X0018513Y0014771D01*
X0018566Y0014622D01*
X0018615Y0014471D01*
X0018660Y0014319D01*
X0018701Y0014166D01*
X0018739Y0014013D01*
X0018772Y0013858D01*
X0018802Y0013702D01*
X0018828Y0013546D01*
X0018849Y0013389D01*
X0018867Y0013232D01*
X0018881Y0013074D01*
X0018891Y0012916D01*
X0018897Y0012758D01*
X0018899Y0012600D01*
X0018897Y0012442D01*
X0018891Y0012284D01*
X0018881Y0012126D01*
X0018867Y0011968D01*
X0018849Y0011811D01*
X0018828Y0011654D01*
X0018802Y0011498D01*
X0018772Y0011342D01*
X0018739Y0011187D01*
X0018701Y0011034D01*
X0018660Y0010881D01*
X0018615Y0010729D01*
X0018566Y0010578D01*
X0018513Y0010429D01*
X0018457Y0010281D01*
X0018397Y0010135D01*
X0018333Y0009990D01*
X0018265Y0009847D01*
X0018194Y0009705D01*
X0018120Y0009565D01*
X0018042Y0009428D01*
X0017960Y0009292D01*
X0017876Y0009158D01*
X0017787Y0009027D01*
X0017696Y0008898D01*
X0017601Y0008771D01*
X0017504Y0008646D01*
X0017403Y0008524D01*
X0017299Y0008405D01*
X0017192Y0008288D01*
X0017082Y0008174D01*
X0016969Y0008063D01*
X0016854Y0007954D01*
X0016736Y0007849D01*
X0016615Y0007747D01*
X0016492Y0007647D01*
X0016366Y0007551D01*
X0016238Y0007458D01*
X0016108Y0007368D01*
X0015975Y0007282D01*
X0015840Y0007198D01*
X0015704Y0007119D01*
X0015565Y0007042D01*
X0015424Y0006970D01*
X0015282Y0006900D01*
X0015138Y0006835D01*
X0014992Y0006773D01*
X0014845Y0006715D01*
X0014696Y0006660D01*
X0014546Y0006609D01*
X0014395Y0006562D01*
X0014243Y0006519D01*
X0014090Y0006480D01*
X0013935Y0006444D01*
X0013780Y0006413D01*
X0013624Y0006385D01*
X0013468Y0006361D01*
X0013311Y0006341D01*
X0013153Y0006325D01*
X0012996Y0006313D01*
X0012837Y0006305D01*
X0012679Y0006301D01*
X0012521Y0006301D01*
X0012363Y0006305D01*
X0012204Y0006313D01*
X0012047Y0006325D01*
X0011889Y0006341D01*
X0011732Y0006361D01*
X0011576Y0006385D01*
X0011420Y0006413D01*
X0011265Y0006444D01*
X0011110Y0006480D01*
X0010957Y0006519D01*
X0010805Y0006562D01*
X0010654Y0006609D01*
X0010504Y0006660D01*
X0010355Y0006715D01*
X0010208Y0006773D01*
X0010062Y0006835D01*
X0009918Y0006900D01*
X0009776Y0006970D01*
X0009635Y0007042D01*
X0009496Y0007119D01*
X0009360Y0007198D01*
X0009225Y0007282D01*
X0009092Y0007368D01*
X0008962Y0007458D01*
X0008834Y0007551D01*
X0008708Y0007647D01*
X0008585Y0007747D01*
X0008464Y0007849D01*
X0008346Y0007954D01*
X0008231Y0008063D01*
X0008118Y0008174D01*
X0008008Y0008288D01*
X0007901Y0008405D01*
X0007797Y0008524D01*
X0007696Y0008646D01*
X0007599Y0008771D01*
X0007504Y0008898D01*
X0007413Y0009027D01*
X0007324Y0009158D01*
X0007240Y0009292D01*
X0007158Y0009428D01*
X0007080Y0009565D01*
X0007006Y0009705D01*
X0006935Y0009847D01*
X0006867Y0009990D01*
X0006803Y0010135D01*
X0006743Y0010281D01*
X0006687Y0010429D01*
X0006634Y0010578D01*
X0006585Y0010729D01*
X0006540Y0010881D01*
X0006499Y0011034D01*
X0006461Y0011187D01*
X0006428Y0011342D01*
X0006398Y0011498D01*
X0006372Y0011654D01*
X0006351Y0011811D01*
X0006333Y0011968D01*
X0006319Y0012126D01*
X0006309Y0012284D01*
X0006303Y0012442D01*
X0006301Y0012600D01*
X0006301Y0152600D02*
X0006303Y0152758D01*
X0006309Y0152916D01*
X0006319Y0153074D01*
X0006333Y0153232D01*
X0006351Y0153389D01*
X0006372Y0153546D01*
X0006398Y0153702D01*
X0006428Y0153858D01*
X0006461Y0154013D01*
X0006499Y0154166D01*
X0006540Y0154319D01*
X0006585Y0154471D01*
X0006634Y0154622D01*
X0006687Y0154771D01*
X0006743Y0154919D01*
X0006803Y0155065D01*
X0006867Y0155210D01*
X0006935Y0155353D01*
X0007006Y0155495D01*
X0007080Y0155635D01*
X0007158Y0155772D01*
X0007240Y0155908D01*
X0007324Y0156042D01*
X0007413Y0156173D01*
X0007504Y0156302D01*
X0007599Y0156429D01*
X0007696Y0156554D01*
X0007797Y0156676D01*
X0007901Y0156795D01*
X0008008Y0156912D01*
X0008118Y0157026D01*
X0008231Y0157137D01*
X0008346Y0157246D01*
X0008464Y0157351D01*
X0008585Y0157453D01*
X0008708Y0157553D01*
X0008834Y0157649D01*
X0008962Y0157742D01*
X0009092Y0157832D01*
X0009225Y0157918D01*
X0009360Y0158002D01*
X0009496Y0158081D01*
X0009635Y0158158D01*
X0009776Y0158230D01*
X0009918Y0158300D01*
X0010062Y0158365D01*
X0010208Y0158427D01*
X0010355Y0158485D01*
X0010504Y0158540D01*
X0010654Y0158591D01*
X0010805Y0158638D01*
X0010957Y0158681D01*
X0011110Y0158720D01*
X0011265Y0158756D01*
X0011420Y0158787D01*
X0011576Y0158815D01*
X0011732Y0158839D01*
X0011889Y0158859D01*
X0012047Y0158875D01*
X0012204Y0158887D01*
X0012363Y0158895D01*
X0012521Y0158899D01*
X0012679Y0158899D01*
X0012837Y0158895D01*
X0012996Y0158887D01*
X0013153Y0158875D01*
X0013311Y0158859D01*
X0013468Y0158839D01*
X0013624Y0158815D01*
X0013780Y0158787D01*
X0013935Y0158756D01*
X0014090Y0158720D01*
X0014243Y0158681D01*
X0014395Y0158638D01*
X0014546Y0158591D01*
X0014696Y0158540D01*
X0014845Y0158485D01*
X0014992Y0158427D01*
X0015138Y0158365D01*
X0015282Y0158300D01*
X0015424Y0158230D01*
X0015565Y0158158D01*
X0015704Y0158081D01*
X0015840Y0158002D01*
X0015975Y0157918D01*
X0016108Y0157832D01*
X0016238Y0157742D01*
X0016366Y0157649D01*
X0016492Y0157553D01*
X0016615Y0157453D01*
X0016736Y0157351D01*
X0016854Y0157246D01*
X0016969Y0157137D01*
X0017082Y0157026D01*
X0017192Y0156912D01*
X0017299Y0156795D01*
X0017403Y0156676D01*
X0017504Y0156554D01*
X0017601Y0156429D01*
X0017696Y0156302D01*
X0017787Y0156173D01*
X0017876Y0156042D01*
X0017960Y0155908D01*
X0018042Y0155772D01*
X0018120Y0155635D01*
X0018194Y0155495D01*
X0018265Y0155353D01*
X0018333Y0155210D01*
X0018397Y0155065D01*
X0018457Y0154919D01*
X0018513Y0154771D01*
X0018566Y0154622D01*
X0018615Y0154471D01*
X0018660Y0154319D01*
X0018701Y0154166D01*
X0018739Y0154013D01*
X0018772Y0153858D01*
X0018802Y0153702D01*
X0018828Y0153546D01*
X0018849Y0153389D01*
X0018867Y0153232D01*
X0018881Y0153074D01*
X0018891Y0152916D01*
X0018897Y0152758D01*
X0018899Y0152600D01*
X0018897Y0152442D01*
X0018891Y0152284D01*
X0018881Y0152126D01*
X0018867Y0151968D01*
X0018849Y0151811D01*
X0018828Y0151654D01*
X0018802Y0151498D01*
X0018772Y0151342D01*
X0018739Y0151187D01*
X0018701Y0151034D01*
X0018660Y0150881D01*
X0018615Y0150729D01*
X0018566Y0150578D01*
X0018513Y0150429D01*
X0018457Y0150281D01*
X0018397Y0150135D01*
X0018333Y0149990D01*
X0018265Y0149847D01*
X0018194Y0149705D01*
X0018120Y0149565D01*
X0018042Y0149428D01*
X0017960Y0149292D01*
X0017876Y0149158D01*
X0017787Y0149027D01*
X0017696Y0148898D01*
X0017601Y0148771D01*
X0017504Y0148646D01*
X0017403Y0148524D01*
X0017299Y0148405D01*
X0017192Y0148288D01*
X0017082Y0148174D01*
X0016969Y0148063D01*
X0016854Y0147954D01*
X0016736Y0147849D01*
X0016615Y0147747D01*
X0016492Y0147647D01*
X0016366Y0147551D01*
X0016238Y0147458D01*
X0016108Y0147368D01*
X0015975Y0147282D01*
X0015840Y0147198D01*
X0015704Y0147119D01*
X0015565Y0147042D01*
X0015424Y0146970D01*
X0015282Y0146900D01*
X0015138Y0146835D01*
X0014992Y0146773D01*
X0014845Y0146715D01*
X0014696Y0146660D01*
X0014546Y0146609D01*
X0014395Y0146562D01*
X0014243Y0146519D01*
X0014090Y0146480D01*
X0013935Y0146444D01*
X0013780Y0146413D01*
X0013624Y0146385D01*
X0013468Y0146361D01*
X0013311Y0146341D01*
X0013153Y0146325D01*
X0012996Y0146313D01*
X0012837Y0146305D01*
X0012679Y0146301D01*
X0012521Y0146301D01*
X0012363Y0146305D01*
X0012204Y0146313D01*
X0012047Y0146325D01*
X0011889Y0146341D01*
X0011732Y0146361D01*
X0011576Y0146385D01*
X0011420Y0146413D01*
X0011265Y0146444D01*
X0011110Y0146480D01*
X0010957Y0146519D01*
X0010805Y0146562D01*
X0010654Y0146609D01*
X0010504Y0146660D01*
X0010355Y0146715D01*
X0010208Y0146773D01*
X0010062Y0146835D01*
X0009918Y0146900D01*
X0009776Y0146970D01*
X0009635Y0147042D01*
X0009496Y0147119D01*
X0009360Y0147198D01*
X0009225Y0147282D01*
X0009092Y0147368D01*
X0008962Y0147458D01*
X0008834Y0147551D01*
X0008708Y0147647D01*
X0008585Y0147747D01*
X0008464Y0147849D01*
X0008346Y0147954D01*
X0008231Y0148063D01*
X0008118Y0148174D01*
X0008008Y0148288D01*
X0007901Y0148405D01*
X0007797Y0148524D01*
X0007696Y0148646D01*
X0007599Y0148771D01*
X0007504Y0148898D01*
X0007413Y0149027D01*
X0007324Y0149158D01*
X0007240Y0149292D01*
X0007158Y0149428D01*
X0007080Y0149565D01*
X0007006Y0149705D01*
X0006935Y0149847D01*
X0006867Y0149990D01*
X0006803Y0150135D01*
X0006743Y0150281D01*
X0006687Y0150429D01*
X0006634Y0150578D01*
X0006585Y0150729D01*
X0006540Y0150881D01*
X0006499Y0151034D01*
X0006461Y0151187D01*
X0006428Y0151342D01*
X0006398Y0151498D01*
X0006372Y0151654D01*
X0006351Y0151811D01*
X0006333Y0151968D01*
X0006319Y0152126D01*
X0006309Y0152284D01*
X0006303Y0152442D01*
X0006301Y0152600D01*
X0006301Y0187600D02*
X0006303Y0187758D01*
X0006309Y0187916D01*
X0006319Y0188074D01*
X0006333Y0188232D01*
X0006351Y0188389D01*
X0006372Y0188546D01*
X0006398Y0188702D01*
X0006428Y0188858D01*
X0006461Y0189013D01*
X0006499Y0189166D01*
X0006540Y0189319D01*
X0006585Y0189471D01*
X0006634Y0189622D01*
X0006687Y0189771D01*
X0006743Y0189919D01*
X0006803Y0190065D01*
X0006867Y0190210D01*
X0006935Y0190353D01*
X0007006Y0190495D01*
X0007080Y0190635D01*
X0007158Y0190772D01*
X0007240Y0190908D01*
X0007324Y0191042D01*
X0007413Y0191173D01*
X0007504Y0191302D01*
X0007599Y0191429D01*
X0007696Y0191554D01*
X0007797Y0191676D01*
X0007901Y0191795D01*
X0008008Y0191912D01*
X0008118Y0192026D01*
X0008231Y0192137D01*
X0008346Y0192246D01*
X0008464Y0192351D01*
X0008585Y0192453D01*
X0008708Y0192553D01*
X0008834Y0192649D01*
X0008962Y0192742D01*
X0009092Y0192832D01*
X0009225Y0192918D01*
X0009360Y0193002D01*
X0009496Y0193081D01*
X0009635Y0193158D01*
X0009776Y0193230D01*
X0009918Y0193300D01*
X0010062Y0193365D01*
X0010208Y0193427D01*
X0010355Y0193485D01*
X0010504Y0193540D01*
X0010654Y0193591D01*
X0010805Y0193638D01*
X0010957Y0193681D01*
X0011110Y0193720D01*
X0011265Y0193756D01*
X0011420Y0193787D01*
X0011576Y0193815D01*
X0011732Y0193839D01*
X0011889Y0193859D01*
X0012047Y0193875D01*
X0012204Y0193887D01*
X0012363Y0193895D01*
X0012521Y0193899D01*
X0012679Y0193899D01*
X0012837Y0193895D01*
X0012996Y0193887D01*
X0013153Y0193875D01*
X0013311Y0193859D01*
X0013468Y0193839D01*
X0013624Y0193815D01*
X0013780Y0193787D01*
X0013935Y0193756D01*
X0014090Y0193720D01*
X0014243Y0193681D01*
X0014395Y0193638D01*
X0014546Y0193591D01*
X0014696Y0193540D01*
X0014845Y0193485D01*
X0014992Y0193427D01*
X0015138Y0193365D01*
X0015282Y0193300D01*
X0015424Y0193230D01*
X0015565Y0193158D01*
X0015704Y0193081D01*
X0015840Y0193002D01*
X0015975Y0192918D01*
X0016108Y0192832D01*
X0016238Y0192742D01*
X0016366Y0192649D01*
X0016492Y0192553D01*
X0016615Y0192453D01*
X0016736Y0192351D01*
X0016854Y0192246D01*
X0016969Y0192137D01*
X0017082Y0192026D01*
X0017192Y0191912D01*
X0017299Y0191795D01*
X0017403Y0191676D01*
X0017504Y0191554D01*
X0017601Y0191429D01*
X0017696Y0191302D01*
X0017787Y0191173D01*
X0017876Y0191042D01*
X0017960Y0190908D01*
X0018042Y0190772D01*
X0018120Y0190635D01*
X0018194Y0190495D01*
X0018265Y0190353D01*
X0018333Y0190210D01*
X0018397Y0190065D01*
X0018457Y0189919D01*
X0018513Y0189771D01*
X0018566Y0189622D01*
X0018615Y0189471D01*
X0018660Y0189319D01*
X0018701Y0189166D01*
X0018739Y0189013D01*
X0018772Y0188858D01*
X0018802Y0188702D01*
X0018828Y0188546D01*
X0018849Y0188389D01*
X0018867Y0188232D01*
X0018881Y0188074D01*
X0018891Y0187916D01*
X0018897Y0187758D01*
X0018899Y0187600D01*
X0018897Y0187442D01*
X0018891Y0187284D01*
X0018881Y0187126D01*
X0018867Y0186968D01*
X0018849Y0186811D01*
X0018828Y0186654D01*
X0018802Y0186498D01*
X0018772Y0186342D01*
X0018739Y0186187D01*
X0018701Y0186034D01*
X0018660Y0185881D01*
X0018615Y0185729D01*
X0018566Y0185578D01*
X0018513Y0185429D01*
X0018457Y0185281D01*
X0018397Y0185135D01*
X0018333Y0184990D01*
X0018265Y0184847D01*
X0018194Y0184705D01*
X0018120Y0184565D01*
X0018042Y0184428D01*
X0017960Y0184292D01*
X0017876Y0184158D01*
X0017787Y0184027D01*
X0017696Y0183898D01*
X0017601Y0183771D01*
X0017504Y0183646D01*
X0017403Y0183524D01*
X0017299Y0183405D01*
X0017192Y0183288D01*
X0017082Y0183174D01*
X0016969Y0183063D01*
X0016854Y0182954D01*
X0016736Y0182849D01*
X0016615Y0182747D01*
X0016492Y0182647D01*
X0016366Y0182551D01*
X0016238Y0182458D01*
X0016108Y0182368D01*
X0015975Y0182282D01*
X0015840Y0182198D01*
X0015704Y0182119D01*
X0015565Y0182042D01*
X0015424Y0181970D01*
X0015282Y0181900D01*
X0015138Y0181835D01*
X0014992Y0181773D01*
X0014845Y0181715D01*
X0014696Y0181660D01*
X0014546Y0181609D01*
X0014395Y0181562D01*
X0014243Y0181519D01*
X0014090Y0181480D01*
X0013935Y0181444D01*
X0013780Y0181413D01*
X0013624Y0181385D01*
X0013468Y0181361D01*
X0013311Y0181341D01*
X0013153Y0181325D01*
X0012996Y0181313D01*
X0012837Y0181305D01*
X0012679Y0181301D01*
X0012521Y0181301D01*
X0012363Y0181305D01*
X0012204Y0181313D01*
X0012047Y0181325D01*
X0011889Y0181341D01*
X0011732Y0181361D01*
X0011576Y0181385D01*
X0011420Y0181413D01*
X0011265Y0181444D01*
X0011110Y0181480D01*
X0010957Y0181519D01*
X0010805Y0181562D01*
X0010654Y0181609D01*
X0010504Y0181660D01*
X0010355Y0181715D01*
X0010208Y0181773D01*
X0010062Y0181835D01*
X0009918Y0181900D01*
X0009776Y0181970D01*
X0009635Y0182042D01*
X0009496Y0182119D01*
X0009360Y0182198D01*
X0009225Y0182282D01*
X0009092Y0182368D01*
X0008962Y0182458D01*
X0008834Y0182551D01*
X0008708Y0182647D01*
X0008585Y0182747D01*
X0008464Y0182849D01*
X0008346Y0182954D01*
X0008231Y0183063D01*
X0008118Y0183174D01*
X0008008Y0183288D01*
X0007901Y0183405D01*
X0007797Y0183524D01*
X0007696Y0183646D01*
X0007599Y0183771D01*
X0007504Y0183898D01*
X0007413Y0184027D01*
X0007324Y0184158D01*
X0007240Y0184292D01*
X0007158Y0184428D01*
X0007080Y0184565D01*
X0007006Y0184705D01*
X0006935Y0184847D01*
X0006867Y0184990D01*
X0006803Y0185135D01*
X0006743Y0185281D01*
X0006687Y0185429D01*
X0006634Y0185578D01*
X0006585Y0185729D01*
X0006540Y0185881D01*
X0006499Y0186034D01*
X0006461Y0186187D01*
X0006428Y0186342D01*
X0006398Y0186498D01*
X0006372Y0186654D01*
X0006351Y0186811D01*
X0006333Y0186968D01*
X0006319Y0187126D01*
X0006309Y0187284D01*
X0006303Y0187442D01*
X0006301Y0187600D01*
X0036301Y0262600D02*
X0036303Y0262758D01*
X0036309Y0262916D01*
X0036319Y0263074D01*
X0036333Y0263232D01*
X0036351Y0263389D01*
X0036372Y0263546D01*
X0036398Y0263702D01*
X0036428Y0263858D01*
X0036461Y0264013D01*
X0036499Y0264166D01*
X0036540Y0264319D01*
X0036585Y0264471D01*
X0036634Y0264622D01*
X0036687Y0264771D01*
X0036743Y0264919D01*
X0036803Y0265065D01*
X0036867Y0265210D01*
X0036935Y0265353D01*
X0037006Y0265495D01*
X0037080Y0265635D01*
X0037158Y0265772D01*
X0037240Y0265908D01*
X0037324Y0266042D01*
X0037413Y0266173D01*
X0037504Y0266302D01*
X0037599Y0266429D01*
X0037696Y0266554D01*
X0037797Y0266676D01*
X0037901Y0266795D01*
X0038008Y0266912D01*
X0038118Y0267026D01*
X0038231Y0267137D01*
X0038346Y0267246D01*
X0038464Y0267351D01*
X0038585Y0267453D01*
X0038708Y0267553D01*
X0038834Y0267649D01*
X0038962Y0267742D01*
X0039092Y0267832D01*
X0039225Y0267918D01*
X0039360Y0268002D01*
X0039496Y0268081D01*
X0039635Y0268158D01*
X0039776Y0268230D01*
X0039918Y0268300D01*
X0040062Y0268365D01*
X0040208Y0268427D01*
X0040355Y0268485D01*
X0040504Y0268540D01*
X0040654Y0268591D01*
X0040805Y0268638D01*
X0040957Y0268681D01*
X0041110Y0268720D01*
X0041265Y0268756D01*
X0041420Y0268787D01*
X0041576Y0268815D01*
X0041732Y0268839D01*
X0041889Y0268859D01*
X0042047Y0268875D01*
X0042204Y0268887D01*
X0042363Y0268895D01*
X0042521Y0268899D01*
X0042679Y0268899D01*
X0042837Y0268895D01*
X0042996Y0268887D01*
X0043153Y0268875D01*
X0043311Y0268859D01*
X0043468Y0268839D01*
X0043624Y0268815D01*
X0043780Y0268787D01*
X0043935Y0268756D01*
X0044090Y0268720D01*
X0044243Y0268681D01*
X0044395Y0268638D01*
X0044546Y0268591D01*
X0044696Y0268540D01*
X0044845Y0268485D01*
X0044992Y0268427D01*
X0045138Y0268365D01*
X0045282Y0268300D01*
X0045424Y0268230D01*
X0045565Y0268158D01*
X0045704Y0268081D01*
X0045840Y0268002D01*
X0045975Y0267918D01*
X0046108Y0267832D01*
X0046238Y0267742D01*
X0046366Y0267649D01*
X0046492Y0267553D01*
X0046615Y0267453D01*
X0046736Y0267351D01*
X0046854Y0267246D01*
X0046969Y0267137D01*
X0047082Y0267026D01*
X0047192Y0266912D01*
X0047299Y0266795D01*
X0047403Y0266676D01*
X0047504Y0266554D01*
X0047601Y0266429D01*
X0047696Y0266302D01*
X0047787Y0266173D01*
X0047876Y0266042D01*
X0047960Y0265908D01*
X0048042Y0265772D01*
X0048120Y0265635D01*
X0048194Y0265495D01*
X0048265Y0265353D01*
X0048333Y0265210D01*
X0048397Y0265065D01*
X0048457Y0264919D01*
X0048513Y0264771D01*
X0048566Y0264622D01*
X0048615Y0264471D01*
X0048660Y0264319D01*
X0048701Y0264166D01*
X0048739Y0264013D01*
X0048772Y0263858D01*
X0048802Y0263702D01*
X0048828Y0263546D01*
X0048849Y0263389D01*
X0048867Y0263232D01*
X0048881Y0263074D01*
X0048891Y0262916D01*
X0048897Y0262758D01*
X0048899Y0262600D01*
X0048897Y0262442D01*
X0048891Y0262284D01*
X0048881Y0262126D01*
X0048867Y0261968D01*
X0048849Y0261811D01*
X0048828Y0261654D01*
X0048802Y0261498D01*
X0048772Y0261342D01*
X0048739Y0261187D01*
X0048701Y0261034D01*
X0048660Y0260881D01*
X0048615Y0260729D01*
X0048566Y0260578D01*
X0048513Y0260429D01*
X0048457Y0260281D01*
X0048397Y0260135D01*
X0048333Y0259990D01*
X0048265Y0259847D01*
X0048194Y0259705D01*
X0048120Y0259565D01*
X0048042Y0259428D01*
X0047960Y0259292D01*
X0047876Y0259158D01*
X0047787Y0259027D01*
X0047696Y0258898D01*
X0047601Y0258771D01*
X0047504Y0258646D01*
X0047403Y0258524D01*
X0047299Y0258405D01*
X0047192Y0258288D01*
X0047082Y0258174D01*
X0046969Y0258063D01*
X0046854Y0257954D01*
X0046736Y0257849D01*
X0046615Y0257747D01*
X0046492Y0257647D01*
X0046366Y0257551D01*
X0046238Y0257458D01*
X0046108Y0257368D01*
X0045975Y0257282D01*
X0045840Y0257198D01*
X0045704Y0257119D01*
X0045565Y0257042D01*
X0045424Y0256970D01*
X0045282Y0256900D01*
X0045138Y0256835D01*
X0044992Y0256773D01*
X0044845Y0256715D01*
X0044696Y0256660D01*
X0044546Y0256609D01*
X0044395Y0256562D01*
X0044243Y0256519D01*
X0044090Y0256480D01*
X0043935Y0256444D01*
X0043780Y0256413D01*
X0043624Y0256385D01*
X0043468Y0256361D01*
X0043311Y0256341D01*
X0043153Y0256325D01*
X0042996Y0256313D01*
X0042837Y0256305D01*
X0042679Y0256301D01*
X0042521Y0256301D01*
X0042363Y0256305D01*
X0042204Y0256313D01*
X0042047Y0256325D01*
X0041889Y0256341D01*
X0041732Y0256361D01*
X0041576Y0256385D01*
X0041420Y0256413D01*
X0041265Y0256444D01*
X0041110Y0256480D01*
X0040957Y0256519D01*
X0040805Y0256562D01*
X0040654Y0256609D01*
X0040504Y0256660D01*
X0040355Y0256715D01*
X0040208Y0256773D01*
X0040062Y0256835D01*
X0039918Y0256900D01*
X0039776Y0256970D01*
X0039635Y0257042D01*
X0039496Y0257119D01*
X0039360Y0257198D01*
X0039225Y0257282D01*
X0039092Y0257368D01*
X0038962Y0257458D01*
X0038834Y0257551D01*
X0038708Y0257647D01*
X0038585Y0257747D01*
X0038464Y0257849D01*
X0038346Y0257954D01*
X0038231Y0258063D01*
X0038118Y0258174D01*
X0038008Y0258288D01*
X0037901Y0258405D01*
X0037797Y0258524D01*
X0037696Y0258646D01*
X0037599Y0258771D01*
X0037504Y0258898D01*
X0037413Y0259027D01*
X0037324Y0259158D01*
X0037240Y0259292D01*
X0037158Y0259428D01*
X0037080Y0259565D01*
X0037006Y0259705D01*
X0036935Y0259847D01*
X0036867Y0259990D01*
X0036803Y0260135D01*
X0036743Y0260281D01*
X0036687Y0260429D01*
X0036634Y0260578D01*
X0036585Y0260729D01*
X0036540Y0260881D01*
X0036499Y0261034D01*
X0036461Y0261187D01*
X0036428Y0261342D01*
X0036398Y0261498D01*
X0036372Y0261654D01*
X0036351Y0261811D01*
X0036333Y0261968D01*
X0036319Y0262126D01*
X0036309Y0262284D01*
X0036303Y0262442D01*
X0036301Y0262600D01*
X0006301Y0307600D02*
X0006303Y0307758D01*
X0006309Y0307916D01*
X0006319Y0308074D01*
X0006333Y0308232D01*
X0006351Y0308389D01*
X0006372Y0308546D01*
X0006398Y0308702D01*
X0006428Y0308858D01*
X0006461Y0309013D01*
X0006499Y0309166D01*
X0006540Y0309319D01*
X0006585Y0309471D01*
X0006634Y0309622D01*
X0006687Y0309771D01*
X0006743Y0309919D01*
X0006803Y0310065D01*
X0006867Y0310210D01*
X0006935Y0310353D01*
X0007006Y0310495D01*
X0007080Y0310635D01*
X0007158Y0310772D01*
X0007240Y0310908D01*
X0007324Y0311042D01*
X0007413Y0311173D01*
X0007504Y0311302D01*
X0007599Y0311429D01*
X0007696Y0311554D01*
X0007797Y0311676D01*
X0007901Y0311795D01*
X0008008Y0311912D01*
X0008118Y0312026D01*
X0008231Y0312137D01*
X0008346Y0312246D01*
X0008464Y0312351D01*
X0008585Y0312453D01*
X0008708Y0312553D01*
X0008834Y0312649D01*
X0008962Y0312742D01*
X0009092Y0312832D01*
X0009225Y0312918D01*
X0009360Y0313002D01*
X0009496Y0313081D01*
X0009635Y0313158D01*
X0009776Y0313230D01*
X0009918Y0313300D01*
X0010062Y0313365D01*
X0010208Y0313427D01*
X0010355Y0313485D01*
X0010504Y0313540D01*
X0010654Y0313591D01*
X0010805Y0313638D01*
X0010957Y0313681D01*
X0011110Y0313720D01*
X0011265Y0313756D01*
X0011420Y0313787D01*
X0011576Y0313815D01*
X0011732Y0313839D01*
X0011889Y0313859D01*
X0012047Y0313875D01*
X0012204Y0313887D01*
X0012363Y0313895D01*
X0012521Y0313899D01*
X0012679Y0313899D01*
X0012837Y0313895D01*
X0012996Y0313887D01*
X0013153Y0313875D01*
X0013311Y0313859D01*
X0013468Y0313839D01*
X0013624Y0313815D01*
X0013780Y0313787D01*
X0013935Y0313756D01*
X0014090Y0313720D01*
X0014243Y0313681D01*
X0014395Y0313638D01*
X0014546Y0313591D01*
X0014696Y0313540D01*
X0014845Y0313485D01*
X0014992Y0313427D01*
X0015138Y0313365D01*
X0015282Y0313300D01*
X0015424Y0313230D01*
X0015565Y0313158D01*
X0015704Y0313081D01*
X0015840Y0313002D01*
X0015975Y0312918D01*
X0016108Y0312832D01*
X0016238Y0312742D01*
X0016366Y0312649D01*
X0016492Y0312553D01*
X0016615Y0312453D01*
X0016736Y0312351D01*
X0016854Y0312246D01*
X0016969Y0312137D01*
X0017082Y0312026D01*
X0017192Y0311912D01*
X0017299Y0311795D01*
X0017403Y0311676D01*
X0017504Y0311554D01*
X0017601Y0311429D01*
X0017696Y0311302D01*
X0017787Y0311173D01*
X0017876Y0311042D01*
X0017960Y0310908D01*
X0018042Y0310772D01*
X0018120Y0310635D01*
X0018194Y0310495D01*
X0018265Y0310353D01*
X0018333Y0310210D01*
X0018397Y0310065D01*
X0018457Y0309919D01*
X0018513Y0309771D01*
X0018566Y0309622D01*
X0018615Y0309471D01*
X0018660Y0309319D01*
X0018701Y0309166D01*
X0018739Y0309013D01*
X0018772Y0308858D01*
X0018802Y0308702D01*
X0018828Y0308546D01*
X0018849Y0308389D01*
X0018867Y0308232D01*
X0018881Y0308074D01*
X0018891Y0307916D01*
X0018897Y0307758D01*
X0018899Y0307600D01*
X0018897Y0307442D01*
X0018891Y0307284D01*
X0018881Y0307126D01*
X0018867Y0306968D01*
X0018849Y0306811D01*
X0018828Y0306654D01*
X0018802Y0306498D01*
X0018772Y0306342D01*
X0018739Y0306187D01*
X0018701Y0306034D01*
X0018660Y0305881D01*
X0018615Y0305729D01*
X0018566Y0305578D01*
X0018513Y0305429D01*
X0018457Y0305281D01*
X0018397Y0305135D01*
X0018333Y0304990D01*
X0018265Y0304847D01*
X0018194Y0304705D01*
X0018120Y0304565D01*
X0018042Y0304428D01*
X0017960Y0304292D01*
X0017876Y0304158D01*
X0017787Y0304027D01*
X0017696Y0303898D01*
X0017601Y0303771D01*
X0017504Y0303646D01*
X0017403Y0303524D01*
X0017299Y0303405D01*
X0017192Y0303288D01*
X0017082Y0303174D01*
X0016969Y0303063D01*
X0016854Y0302954D01*
X0016736Y0302849D01*
X0016615Y0302747D01*
X0016492Y0302647D01*
X0016366Y0302551D01*
X0016238Y0302458D01*
X0016108Y0302368D01*
X0015975Y0302282D01*
X0015840Y0302198D01*
X0015704Y0302119D01*
X0015565Y0302042D01*
X0015424Y0301970D01*
X0015282Y0301900D01*
X0015138Y0301835D01*
X0014992Y0301773D01*
X0014845Y0301715D01*
X0014696Y0301660D01*
X0014546Y0301609D01*
X0014395Y0301562D01*
X0014243Y0301519D01*
X0014090Y0301480D01*
X0013935Y0301444D01*
X0013780Y0301413D01*
X0013624Y0301385D01*
X0013468Y0301361D01*
X0013311Y0301341D01*
X0013153Y0301325D01*
X0012996Y0301313D01*
X0012837Y0301305D01*
X0012679Y0301301D01*
X0012521Y0301301D01*
X0012363Y0301305D01*
X0012204Y0301313D01*
X0012047Y0301325D01*
X0011889Y0301341D01*
X0011732Y0301361D01*
X0011576Y0301385D01*
X0011420Y0301413D01*
X0011265Y0301444D01*
X0011110Y0301480D01*
X0010957Y0301519D01*
X0010805Y0301562D01*
X0010654Y0301609D01*
X0010504Y0301660D01*
X0010355Y0301715D01*
X0010208Y0301773D01*
X0010062Y0301835D01*
X0009918Y0301900D01*
X0009776Y0301970D01*
X0009635Y0302042D01*
X0009496Y0302119D01*
X0009360Y0302198D01*
X0009225Y0302282D01*
X0009092Y0302368D01*
X0008962Y0302458D01*
X0008834Y0302551D01*
X0008708Y0302647D01*
X0008585Y0302747D01*
X0008464Y0302849D01*
X0008346Y0302954D01*
X0008231Y0303063D01*
X0008118Y0303174D01*
X0008008Y0303288D01*
X0007901Y0303405D01*
X0007797Y0303524D01*
X0007696Y0303646D01*
X0007599Y0303771D01*
X0007504Y0303898D01*
X0007413Y0304027D01*
X0007324Y0304158D01*
X0007240Y0304292D01*
X0007158Y0304428D01*
X0007080Y0304565D01*
X0007006Y0304705D01*
X0006935Y0304847D01*
X0006867Y0304990D01*
X0006803Y0305135D01*
X0006743Y0305281D01*
X0006687Y0305429D01*
X0006634Y0305578D01*
X0006585Y0305729D01*
X0006540Y0305881D01*
X0006499Y0306034D01*
X0006461Y0306187D01*
X0006428Y0306342D01*
X0006398Y0306498D01*
X0006372Y0306654D01*
X0006351Y0306811D01*
X0006333Y0306968D01*
X0006319Y0307126D01*
X0006309Y0307284D01*
X0006303Y0307442D01*
X0006301Y0307600D01*
X0206301Y0307600D02*
X0206303Y0307758D01*
X0206309Y0307916D01*
X0206319Y0308074D01*
X0206333Y0308232D01*
X0206351Y0308389D01*
X0206372Y0308546D01*
X0206398Y0308702D01*
X0206428Y0308858D01*
X0206461Y0309013D01*
X0206499Y0309166D01*
X0206540Y0309319D01*
X0206585Y0309471D01*
X0206634Y0309622D01*
X0206687Y0309771D01*
X0206743Y0309919D01*
X0206803Y0310065D01*
X0206867Y0310210D01*
X0206935Y0310353D01*
X0207006Y0310495D01*
X0207080Y0310635D01*
X0207158Y0310772D01*
X0207240Y0310908D01*
X0207324Y0311042D01*
X0207413Y0311173D01*
X0207504Y0311302D01*
X0207599Y0311429D01*
X0207696Y0311554D01*
X0207797Y0311676D01*
X0207901Y0311795D01*
X0208008Y0311912D01*
X0208118Y0312026D01*
X0208231Y0312137D01*
X0208346Y0312246D01*
X0208464Y0312351D01*
X0208585Y0312453D01*
X0208708Y0312553D01*
X0208834Y0312649D01*
X0208962Y0312742D01*
X0209092Y0312832D01*
X0209225Y0312918D01*
X0209360Y0313002D01*
X0209496Y0313081D01*
X0209635Y0313158D01*
X0209776Y0313230D01*
X0209918Y0313300D01*
X0210062Y0313365D01*
X0210208Y0313427D01*
X0210355Y0313485D01*
X0210504Y0313540D01*
X0210654Y0313591D01*
X0210805Y0313638D01*
X0210957Y0313681D01*
X0211110Y0313720D01*
X0211265Y0313756D01*
X0211420Y0313787D01*
X0211576Y0313815D01*
X0211732Y0313839D01*
X0211889Y0313859D01*
X0212047Y0313875D01*
X0212204Y0313887D01*
X0212363Y0313895D01*
X0212521Y0313899D01*
X0212679Y0313899D01*
X0212837Y0313895D01*
X0212996Y0313887D01*
X0213153Y0313875D01*
X0213311Y0313859D01*
X0213468Y0313839D01*
X0213624Y0313815D01*
X0213780Y0313787D01*
X0213935Y0313756D01*
X0214090Y0313720D01*
X0214243Y0313681D01*
X0214395Y0313638D01*
X0214546Y0313591D01*
X0214696Y0313540D01*
X0214845Y0313485D01*
X0214992Y0313427D01*
X0215138Y0313365D01*
X0215282Y0313300D01*
X0215424Y0313230D01*
X0215565Y0313158D01*
X0215704Y0313081D01*
X0215840Y0313002D01*
X0215975Y0312918D01*
X0216108Y0312832D01*
X0216238Y0312742D01*
X0216366Y0312649D01*
X0216492Y0312553D01*
X0216615Y0312453D01*
X0216736Y0312351D01*
X0216854Y0312246D01*
X0216969Y0312137D01*
X0217082Y0312026D01*
X0217192Y0311912D01*
X0217299Y0311795D01*
X0217403Y0311676D01*
X0217504Y0311554D01*
X0217601Y0311429D01*
X0217696Y0311302D01*
X0217787Y0311173D01*
X0217876Y0311042D01*
X0217960Y0310908D01*
X0218042Y0310772D01*
X0218120Y0310635D01*
X0218194Y0310495D01*
X0218265Y0310353D01*
X0218333Y0310210D01*
X0218397Y0310065D01*
X0218457Y0309919D01*
X0218513Y0309771D01*
X0218566Y0309622D01*
X0218615Y0309471D01*
X0218660Y0309319D01*
X0218701Y0309166D01*
X0218739Y0309013D01*
X0218772Y0308858D01*
X0218802Y0308702D01*
X0218828Y0308546D01*
X0218849Y0308389D01*
X0218867Y0308232D01*
X0218881Y0308074D01*
X0218891Y0307916D01*
X0218897Y0307758D01*
X0218899Y0307600D01*
X0218897Y0307442D01*
X0218891Y0307284D01*
X0218881Y0307126D01*
X0218867Y0306968D01*
X0218849Y0306811D01*
X0218828Y0306654D01*
X0218802Y0306498D01*
X0218772Y0306342D01*
X0218739Y0306187D01*
X0218701Y0306034D01*
X0218660Y0305881D01*
X0218615Y0305729D01*
X0218566Y0305578D01*
X0218513Y0305429D01*
X0218457Y0305281D01*
X0218397Y0305135D01*
X0218333Y0304990D01*
X0218265Y0304847D01*
X0218194Y0304705D01*
X0218120Y0304565D01*
X0218042Y0304428D01*
X0217960Y0304292D01*
X0217876Y0304158D01*
X0217787Y0304027D01*
X0217696Y0303898D01*
X0217601Y0303771D01*
X0217504Y0303646D01*
X0217403Y0303524D01*
X0217299Y0303405D01*
X0217192Y0303288D01*
X0217082Y0303174D01*
X0216969Y0303063D01*
X0216854Y0302954D01*
X0216736Y0302849D01*
X0216615Y0302747D01*
X0216492Y0302647D01*
X0216366Y0302551D01*
X0216238Y0302458D01*
X0216108Y0302368D01*
X0215975Y0302282D01*
X0215840Y0302198D01*
X0215704Y0302119D01*
X0215565Y0302042D01*
X0215424Y0301970D01*
X0215282Y0301900D01*
X0215138Y0301835D01*
X0214992Y0301773D01*
X0214845Y0301715D01*
X0214696Y0301660D01*
X0214546Y0301609D01*
X0214395Y0301562D01*
X0214243Y0301519D01*
X0214090Y0301480D01*
X0213935Y0301444D01*
X0213780Y0301413D01*
X0213624Y0301385D01*
X0213468Y0301361D01*
X0213311Y0301341D01*
X0213153Y0301325D01*
X0212996Y0301313D01*
X0212837Y0301305D01*
X0212679Y0301301D01*
X0212521Y0301301D01*
X0212363Y0301305D01*
X0212204Y0301313D01*
X0212047Y0301325D01*
X0211889Y0301341D01*
X0211732Y0301361D01*
X0211576Y0301385D01*
X0211420Y0301413D01*
X0211265Y0301444D01*
X0211110Y0301480D01*
X0210957Y0301519D01*
X0210805Y0301562D01*
X0210654Y0301609D01*
X0210504Y0301660D01*
X0210355Y0301715D01*
X0210208Y0301773D01*
X0210062Y0301835D01*
X0209918Y0301900D01*
X0209776Y0301970D01*
X0209635Y0302042D01*
X0209496Y0302119D01*
X0209360Y0302198D01*
X0209225Y0302282D01*
X0209092Y0302368D01*
X0208962Y0302458D01*
X0208834Y0302551D01*
X0208708Y0302647D01*
X0208585Y0302747D01*
X0208464Y0302849D01*
X0208346Y0302954D01*
X0208231Y0303063D01*
X0208118Y0303174D01*
X0208008Y0303288D01*
X0207901Y0303405D01*
X0207797Y0303524D01*
X0207696Y0303646D01*
X0207599Y0303771D01*
X0207504Y0303898D01*
X0207413Y0304027D01*
X0207324Y0304158D01*
X0207240Y0304292D01*
X0207158Y0304428D01*
X0207080Y0304565D01*
X0207006Y0304705D01*
X0206935Y0304847D01*
X0206867Y0304990D01*
X0206803Y0305135D01*
X0206743Y0305281D01*
X0206687Y0305429D01*
X0206634Y0305578D01*
X0206585Y0305729D01*
X0206540Y0305881D01*
X0206499Y0306034D01*
X0206461Y0306187D01*
X0206428Y0306342D01*
X0206398Y0306498D01*
X0206372Y0306654D01*
X0206351Y0306811D01*
X0206333Y0306968D01*
X0206319Y0307126D01*
X0206309Y0307284D01*
X0206303Y0307442D01*
X0206301Y0307600D01*
X0206301Y0217600D02*
X0206303Y0217758D01*
X0206309Y0217916D01*
X0206319Y0218074D01*
X0206333Y0218232D01*
X0206351Y0218389D01*
X0206372Y0218546D01*
X0206398Y0218702D01*
X0206428Y0218858D01*
X0206461Y0219013D01*
X0206499Y0219166D01*
X0206540Y0219319D01*
X0206585Y0219471D01*
X0206634Y0219622D01*
X0206687Y0219771D01*
X0206743Y0219919D01*
X0206803Y0220065D01*
X0206867Y0220210D01*
X0206935Y0220353D01*
X0207006Y0220495D01*
X0207080Y0220635D01*
X0207158Y0220772D01*
X0207240Y0220908D01*
X0207324Y0221042D01*
X0207413Y0221173D01*
X0207504Y0221302D01*
X0207599Y0221429D01*
X0207696Y0221554D01*
X0207797Y0221676D01*
X0207901Y0221795D01*
X0208008Y0221912D01*
X0208118Y0222026D01*
X0208231Y0222137D01*
X0208346Y0222246D01*
X0208464Y0222351D01*
X0208585Y0222453D01*
X0208708Y0222553D01*
X0208834Y0222649D01*
X0208962Y0222742D01*
X0209092Y0222832D01*
X0209225Y0222918D01*
X0209360Y0223002D01*
X0209496Y0223081D01*
X0209635Y0223158D01*
X0209776Y0223230D01*
X0209918Y0223300D01*
X0210062Y0223365D01*
X0210208Y0223427D01*
X0210355Y0223485D01*
X0210504Y0223540D01*
X0210654Y0223591D01*
X0210805Y0223638D01*
X0210957Y0223681D01*
X0211110Y0223720D01*
X0211265Y0223756D01*
X0211420Y0223787D01*
X0211576Y0223815D01*
X0211732Y0223839D01*
X0211889Y0223859D01*
X0212047Y0223875D01*
X0212204Y0223887D01*
X0212363Y0223895D01*
X0212521Y0223899D01*
X0212679Y0223899D01*
X0212837Y0223895D01*
X0212996Y0223887D01*
X0213153Y0223875D01*
X0213311Y0223859D01*
X0213468Y0223839D01*
X0213624Y0223815D01*
X0213780Y0223787D01*
X0213935Y0223756D01*
X0214090Y0223720D01*
X0214243Y0223681D01*
X0214395Y0223638D01*
X0214546Y0223591D01*
X0214696Y0223540D01*
X0214845Y0223485D01*
X0214992Y0223427D01*
X0215138Y0223365D01*
X0215282Y0223300D01*
X0215424Y0223230D01*
X0215565Y0223158D01*
X0215704Y0223081D01*
X0215840Y0223002D01*
X0215975Y0222918D01*
X0216108Y0222832D01*
X0216238Y0222742D01*
X0216366Y0222649D01*
X0216492Y0222553D01*
X0216615Y0222453D01*
X0216736Y0222351D01*
X0216854Y0222246D01*
X0216969Y0222137D01*
X0217082Y0222026D01*
X0217192Y0221912D01*
X0217299Y0221795D01*
X0217403Y0221676D01*
X0217504Y0221554D01*
X0217601Y0221429D01*
X0217696Y0221302D01*
X0217787Y0221173D01*
X0217876Y0221042D01*
X0217960Y0220908D01*
X0218042Y0220772D01*
X0218120Y0220635D01*
X0218194Y0220495D01*
X0218265Y0220353D01*
X0218333Y0220210D01*
X0218397Y0220065D01*
X0218457Y0219919D01*
X0218513Y0219771D01*
X0218566Y0219622D01*
X0218615Y0219471D01*
X0218660Y0219319D01*
X0218701Y0219166D01*
X0218739Y0219013D01*
X0218772Y0218858D01*
X0218802Y0218702D01*
X0218828Y0218546D01*
X0218849Y0218389D01*
X0218867Y0218232D01*
X0218881Y0218074D01*
X0218891Y0217916D01*
X0218897Y0217758D01*
X0218899Y0217600D01*
X0218897Y0217442D01*
X0218891Y0217284D01*
X0218881Y0217126D01*
X0218867Y0216968D01*
X0218849Y0216811D01*
X0218828Y0216654D01*
X0218802Y0216498D01*
X0218772Y0216342D01*
X0218739Y0216187D01*
X0218701Y0216034D01*
X0218660Y0215881D01*
X0218615Y0215729D01*
X0218566Y0215578D01*
X0218513Y0215429D01*
X0218457Y0215281D01*
X0218397Y0215135D01*
X0218333Y0214990D01*
X0218265Y0214847D01*
X0218194Y0214705D01*
X0218120Y0214565D01*
X0218042Y0214428D01*
X0217960Y0214292D01*
X0217876Y0214158D01*
X0217787Y0214027D01*
X0217696Y0213898D01*
X0217601Y0213771D01*
X0217504Y0213646D01*
X0217403Y0213524D01*
X0217299Y0213405D01*
X0217192Y0213288D01*
X0217082Y0213174D01*
X0216969Y0213063D01*
X0216854Y0212954D01*
X0216736Y0212849D01*
X0216615Y0212747D01*
X0216492Y0212647D01*
X0216366Y0212551D01*
X0216238Y0212458D01*
X0216108Y0212368D01*
X0215975Y0212282D01*
X0215840Y0212198D01*
X0215704Y0212119D01*
X0215565Y0212042D01*
X0215424Y0211970D01*
X0215282Y0211900D01*
X0215138Y0211835D01*
X0214992Y0211773D01*
X0214845Y0211715D01*
X0214696Y0211660D01*
X0214546Y0211609D01*
X0214395Y0211562D01*
X0214243Y0211519D01*
X0214090Y0211480D01*
X0213935Y0211444D01*
X0213780Y0211413D01*
X0213624Y0211385D01*
X0213468Y0211361D01*
X0213311Y0211341D01*
X0213153Y0211325D01*
X0212996Y0211313D01*
X0212837Y0211305D01*
X0212679Y0211301D01*
X0212521Y0211301D01*
X0212363Y0211305D01*
X0212204Y0211313D01*
X0212047Y0211325D01*
X0211889Y0211341D01*
X0211732Y0211361D01*
X0211576Y0211385D01*
X0211420Y0211413D01*
X0211265Y0211444D01*
X0211110Y0211480D01*
X0210957Y0211519D01*
X0210805Y0211562D01*
X0210654Y0211609D01*
X0210504Y0211660D01*
X0210355Y0211715D01*
X0210208Y0211773D01*
X0210062Y0211835D01*
X0209918Y0211900D01*
X0209776Y0211970D01*
X0209635Y0212042D01*
X0209496Y0212119D01*
X0209360Y0212198D01*
X0209225Y0212282D01*
X0209092Y0212368D01*
X0208962Y0212458D01*
X0208834Y0212551D01*
X0208708Y0212647D01*
X0208585Y0212747D01*
X0208464Y0212849D01*
X0208346Y0212954D01*
X0208231Y0213063D01*
X0208118Y0213174D01*
X0208008Y0213288D01*
X0207901Y0213405D01*
X0207797Y0213524D01*
X0207696Y0213646D01*
X0207599Y0213771D01*
X0207504Y0213898D01*
X0207413Y0214027D01*
X0207324Y0214158D01*
X0207240Y0214292D01*
X0207158Y0214428D01*
X0207080Y0214565D01*
X0207006Y0214705D01*
X0206935Y0214847D01*
X0206867Y0214990D01*
X0206803Y0215135D01*
X0206743Y0215281D01*
X0206687Y0215429D01*
X0206634Y0215578D01*
X0206585Y0215729D01*
X0206540Y0215881D01*
X0206499Y0216034D01*
X0206461Y0216187D01*
X0206428Y0216342D01*
X0206398Y0216498D01*
X0206372Y0216654D01*
X0206351Y0216811D01*
X0206333Y0216968D01*
X0206319Y0217126D01*
X0206309Y0217284D01*
X0206303Y0217442D01*
X0206301Y0217600D01*
X0361301Y0152600D02*
X0361303Y0152758D01*
X0361309Y0152916D01*
X0361319Y0153074D01*
X0361333Y0153232D01*
X0361351Y0153389D01*
X0361372Y0153546D01*
X0361398Y0153702D01*
X0361428Y0153858D01*
X0361461Y0154013D01*
X0361499Y0154166D01*
X0361540Y0154319D01*
X0361585Y0154471D01*
X0361634Y0154622D01*
X0361687Y0154771D01*
X0361743Y0154919D01*
X0361803Y0155065D01*
X0361867Y0155210D01*
X0361935Y0155353D01*
X0362006Y0155495D01*
X0362080Y0155635D01*
X0362158Y0155772D01*
X0362240Y0155908D01*
X0362324Y0156042D01*
X0362413Y0156173D01*
X0362504Y0156302D01*
X0362599Y0156429D01*
X0362696Y0156554D01*
X0362797Y0156676D01*
X0362901Y0156795D01*
X0363008Y0156912D01*
X0363118Y0157026D01*
X0363231Y0157137D01*
X0363346Y0157246D01*
X0363464Y0157351D01*
X0363585Y0157453D01*
X0363708Y0157553D01*
X0363834Y0157649D01*
X0363962Y0157742D01*
X0364092Y0157832D01*
X0364225Y0157918D01*
X0364360Y0158002D01*
X0364496Y0158081D01*
X0364635Y0158158D01*
X0364776Y0158230D01*
X0364918Y0158300D01*
X0365062Y0158365D01*
X0365208Y0158427D01*
X0365355Y0158485D01*
X0365504Y0158540D01*
X0365654Y0158591D01*
X0365805Y0158638D01*
X0365957Y0158681D01*
X0366110Y0158720D01*
X0366265Y0158756D01*
X0366420Y0158787D01*
X0366576Y0158815D01*
X0366732Y0158839D01*
X0366889Y0158859D01*
X0367047Y0158875D01*
X0367204Y0158887D01*
X0367363Y0158895D01*
X0367521Y0158899D01*
X0367679Y0158899D01*
X0367837Y0158895D01*
X0367996Y0158887D01*
X0368153Y0158875D01*
X0368311Y0158859D01*
X0368468Y0158839D01*
X0368624Y0158815D01*
X0368780Y0158787D01*
X0368935Y0158756D01*
X0369090Y0158720D01*
X0369243Y0158681D01*
X0369395Y0158638D01*
X0369546Y0158591D01*
X0369696Y0158540D01*
X0369845Y0158485D01*
X0369992Y0158427D01*
X0370138Y0158365D01*
X0370282Y0158300D01*
X0370424Y0158230D01*
X0370565Y0158158D01*
X0370704Y0158081D01*
X0370840Y0158002D01*
X0370975Y0157918D01*
X0371108Y0157832D01*
X0371238Y0157742D01*
X0371366Y0157649D01*
X0371492Y0157553D01*
X0371615Y0157453D01*
X0371736Y0157351D01*
X0371854Y0157246D01*
X0371969Y0157137D01*
X0372082Y0157026D01*
X0372192Y0156912D01*
X0372299Y0156795D01*
X0372403Y0156676D01*
X0372504Y0156554D01*
X0372601Y0156429D01*
X0372696Y0156302D01*
X0372787Y0156173D01*
X0372876Y0156042D01*
X0372960Y0155908D01*
X0373042Y0155772D01*
X0373120Y0155635D01*
X0373194Y0155495D01*
X0373265Y0155353D01*
X0373333Y0155210D01*
X0373397Y0155065D01*
X0373457Y0154919D01*
X0373513Y0154771D01*
X0373566Y0154622D01*
X0373615Y0154471D01*
X0373660Y0154319D01*
X0373701Y0154166D01*
X0373739Y0154013D01*
X0373772Y0153858D01*
X0373802Y0153702D01*
X0373828Y0153546D01*
X0373849Y0153389D01*
X0373867Y0153232D01*
X0373881Y0153074D01*
X0373891Y0152916D01*
X0373897Y0152758D01*
X0373899Y0152600D01*
X0373897Y0152442D01*
X0373891Y0152284D01*
X0373881Y0152126D01*
X0373867Y0151968D01*
X0373849Y0151811D01*
X0373828Y0151654D01*
X0373802Y0151498D01*
X0373772Y0151342D01*
X0373739Y0151187D01*
X0373701Y0151034D01*
X0373660Y0150881D01*
X0373615Y0150729D01*
X0373566Y0150578D01*
X0373513Y0150429D01*
X0373457Y0150281D01*
X0373397Y0150135D01*
X0373333Y0149990D01*
X0373265Y0149847D01*
X0373194Y0149705D01*
X0373120Y0149565D01*
X0373042Y0149428D01*
X0372960Y0149292D01*
X0372876Y0149158D01*
X0372787Y0149027D01*
X0372696Y0148898D01*
X0372601Y0148771D01*
X0372504Y0148646D01*
X0372403Y0148524D01*
X0372299Y0148405D01*
X0372192Y0148288D01*
X0372082Y0148174D01*
X0371969Y0148063D01*
X0371854Y0147954D01*
X0371736Y0147849D01*
X0371615Y0147747D01*
X0371492Y0147647D01*
X0371366Y0147551D01*
X0371238Y0147458D01*
X0371108Y0147368D01*
X0370975Y0147282D01*
X0370840Y0147198D01*
X0370704Y0147119D01*
X0370565Y0147042D01*
X0370424Y0146970D01*
X0370282Y0146900D01*
X0370138Y0146835D01*
X0369992Y0146773D01*
X0369845Y0146715D01*
X0369696Y0146660D01*
X0369546Y0146609D01*
X0369395Y0146562D01*
X0369243Y0146519D01*
X0369090Y0146480D01*
X0368935Y0146444D01*
X0368780Y0146413D01*
X0368624Y0146385D01*
X0368468Y0146361D01*
X0368311Y0146341D01*
X0368153Y0146325D01*
X0367996Y0146313D01*
X0367837Y0146305D01*
X0367679Y0146301D01*
X0367521Y0146301D01*
X0367363Y0146305D01*
X0367204Y0146313D01*
X0367047Y0146325D01*
X0366889Y0146341D01*
X0366732Y0146361D01*
X0366576Y0146385D01*
X0366420Y0146413D01*
X0366265Y0146444D01*
X0366110Y0146480D01*
X0365957Y0146519D01*
X0365805Y0146562D01*
X0365654Y0146609D01*
X0365504Y0146660D01*
X0365355Y0146715D01*
X0365208Y0146773D01*
X0365062Y0146835D01*
X0364918Y0146900D01*
X0364776Y0146970D01*
X0364635Y0147042D01*
X0364496Y0147119D01*
X0364360Y0147198D01*
X0364225Y0147282D01*
X0364092Y0147368D01*
X0363962Y0147458D01*
X0363834Y0147551D01*
X0363708Y0147647D01*
X0363585Y0147747D01*
X0363464Y0147849D01*
X0363346Y0147954D01*
X0363231Y0148063D01*
X0363118Y0148174D01*
X0363008Y0148288D01*
X0362901Y0148405D01*
X0362797Y0148524D01*
X0362696Y0148646D01*
X0362599Y0148771D01*
X0362504Y0148898D01*
X0362413Y0149027D01*
X0362324Y0149158D01*
X0362240Y0149292D01*
X0362158Y0149428D01*
X0362080Y0149565D01*
X0362006Y0149705D01*
X0361935Y0149847D01*
X0361867Y0149990D01*
X0361803Y0150135D01*
X0361743Y0150281D01*
X0361687Y0150429D01*
X0361634Y0150578D01*
X0361585Y0150729D01*
X0361540Y0150881D01*
X0361499Y0151034D01*
X0361461Y0151187D01*
X0361428Y0151342D01*
X0361398Y0151498D01*
X0361372Y0151654D01*
X0361351Y0151811D01*
X0361333Y0151968D01*
X0361319Y0152126D01*
X0361309Y0152284D01*
X0361303Y0152442D01*
X0361301Y0152600D01*
X0376301Y0187600D02*
X0376303Y0187758D01*
X0376309Y0187916D01*
X0376319Y0188074D01*
X0376333Y0188232D01*
X0376351Y0188389D01*
X0376372Y0188546D01*
X0376398Y0188702D01*
X0376428Y0188858D01*
X0376461Y0189013D01*
X0376499Y0189166D01*
X0376540Y0189319D01*
X0376585Y0189471D01*
X0376634Y0189622D01*
X0376687Y0189771D01*
X0376743Y0189919D01*
X0376803Y0190065D01*
X0376867Y0190210D01*
X0376935Y0190353D01*
X0377006Y0190495D01*
X0377080Y0190635D01*
X0377158Y0190772D01*
X0377240Y0190908D01*
X0377324Y0191042D01*
X0377413Y0191173D01*
X0377504Y0191302D01*
X0377599Y0191429D01*
X0377696Y0191554D01*
X0377797Y0191676D01*
X0377901Y0191795D01*
X0378008Y0191912D01*
X0378118Y0192026D01*
X0378231Y0192137D01*
X0378346Y0192246D01*
X0378464Y0192351D01*
X0378585Y0192453D01*
X0378708Y0192553D01*
X0378834Y0192649D01*
X0378962Y0192742D01*
X0379092Y0192832D01*
X0379225Y0192918D01*
X0379360Y0193002D01*
X0379496Y0193081D01*
X0379635Y0193158D01*
X0379776Y0193230D01*
X0379918Y0193300D01*
X0380062Y0193365D01*
X0380208Y0193427D01*
X0380355Y0193485D01*
X0380504Y0193540D01*
X0380654Y0193591D01*
X0380805Y0193638D01*
X0380957Y0193681D01*
X0381110Y0193720D01*
X0381265Y0193756D01*
X0381420Y0193787D01*
X0381576Y0193815D01*
X0381732Y0193839D01*
X0381889Y0193859D01*
X0382047Y0193875D01*
X0382204Y0193887D01*
X0382363Y0193895D01*
X0382521Y0193899D01*
X0382679Y0193899D01*
X0382837Y0193895D01*
X0382996Y0193887D01*
X0383153Y0193875D01*
X0383311Y0193859D01*
X0383468Y0193839D01*
X0383624Y0193815D01*
X0383780Y0193787D01*
X0383935Y0193756D01*
X0384090Y0193720D01*
X0384243Y0193681D01*
X0384395Y0193638D01*
X0384546Y0193591D01*
X0384696Y0193540D01*
X0384845Y0193485D01*
X0384992Y0193427D01*
X0385138Y0193365D01*
X0385282Y0193300D01*
X0385424Y0193230D01*
X0385565Y0193158D01*
X0385704Y0193081D01*
X0385840Y0193002D01*
X0385975Y0192918D01*
X0386108Y0192832D01*
X0386238Y0192742D01*
X0386366Y0192649D01*
X0386492Y0192553D01*
X0386615Y0192453D01*
X0386736Y0192351D01*
X0386854Y0192246D01*
X0386969Y0192137D01*
X0387082Y0192026D01*
X0387192Y0191912D01*
X0387299Y0191795D01*
X0387403Y0191676D01*
X0387504Y0191554D01*
X0387601Y0191429D01*
X0387696Y0191302D01*
X0387787Y0191173D01*
X0387876Y0191042D01*
X0387960Y0190908D01*
X0388042Y0190772D01*
X0388120Y0190635D01*
X0388194Y0190495D01*
X0388265Y0190353D01*
X0388333Y0190210D01*
X0388397Y0190065D01*
X0388457Y0189919D01*
X0388513Y0189771D01*
X0388566Y0189622D01*
X0388615Y0189471D01*
X0388660Y0189319D01*
X0388701Y0189166D01*
X0388739Y0189013D01*
X0388772Y0188858D01*
X0388802Y0188702D01*
X0388828Y0188546D01*
X0388849Y0188389D01*
X0388867Y0188232D01*
X0388881Y0188074D01*
X0388891Y0187916D01*
X0388897Y0187758D01*
X0388899Y0187600D01*
X0388897Y0187442D01*
X0388891Y0187284D01*
X0388881Y0187126D01*
X0388867Y0186968D01*
X0388849Y0186811D01*
X0388828Y0186654D01*
X0388802Y0186498D01*
X0388772Y0186342D01*
X0388739Y0186187D01*
X0388701Y0186034D01*
X0388660Y0185881D01*
X0388615Y0185729D01*
X0388566Y0185578D01*
X0388513Y0185429D01*
X0388457Y0185281D01*
X0388397Y0185135D01*
X0388333Y0184990D01*
X0388265Y0184847D01*
X0388194Y0184705D01*
X0388120Y0184565D01*
X0388042Y0184428D01*
X0387960Y0184292D01*
X0387876Y0184158D01*
X0387787Y0184027D01*
X0387696Y0183898D01*
X0387601Y0183771D01*
X0387504Y0183646D01*
X0387403Y0183524D01*
X0387299Y0183405D01*
X0387192Y0183288D01*
X0387082Y0183174D01*
X0386969Y0183063D01*
X0386854Y0182954D01*
X0386736Y0182849D01*
X0386615Y0182747D01*
X0386492Y0182647D01*
X0386366Y0182551D01*
X0386238Y0182458D01*
X0386108Y0182368D01*
X0385975Y0182282D01*
X0385840Y0182198D01*
X0385704Y0182119D01*
X0385565Y0182042D01*
X0385424Y0181970D01*
X0385282Y0181900D01*
X0385138Y0181835D01*
X0384992Y0181773D01*
X0384845Y0181715D01*
X0384696Y0181660D01*
X0384546Y0181609D01*
X0384395Y0181562D01*
X0384243Y0181519D01*
X0384090Y0181480D01*
X0383935Y0181444D01*
X0383780Y0181413D01*
X0383624Y0181385D01*
X0383468Y0181361D01*
X0383311Y0181341D01*
X0383153Y0181325D01*
X0382996Y0181313D01*
X0382837Y0181305D01*
X0382679Y0181301D01*
X0382521Y0181301D01*
X0382363Y0181305D01*
X0382204Y0181313D01*
X0382047Y0181325D01*
X0381889Y0181341D01*
X0381732Y0181361D01*
X0381576Y0181385D01*
X0381420Y0181413D01*
X0381265Y0181444D01*
X0381110Y0181480D01*
X0380957Y0181519D01*
X0380805Y0181562D01*
X0380654Y0181609D01*
X0380504Y0181660D01*
X0380355Y0181715D01*
X0380208Y0181773D01*
X0380062Y0181835D01*
X0379918Y0181900D01*
X0379776Y0181970D01*
X0379635Y0182042D01*
X0379496Y0182119D01*
X0379360Y0182198D01*
X0379225Y0182282D01*
X0379092Y0182368D01*
X0378962Y0182458D01*
X0378834Y0182551D01*
X0378708Y0182647D01*
X0378585Y0182747D01*
X0378464Y0182849D01*
X0378346Y0182954D01*
X0378231Y0183063D01*
X0378118Y0183174D01*
X0378008Y0183288D01*
X0377901Y0183405D01*
X0377797Y0183524D01*
X0377696Y0183646D01*
X0377599Y0183771D01*
X0377504Y0183898D01*
X0377413Y0184027D01*
X0377324Y0184158D01*
X0377240Y0184292D01*
X0377158Y0184428D01*
X0377080Y0184565D01*
X0377006Y0184705D01*
X0376935Y0184847D01*
X0376867Y0184990D01*
X0376803Y0185135D01*
X0376743Y0185281D01*
X0376687Y0185429D01*
X0376634Y0185578D01*
X0376585Y0185729D01*
X0376540Y0185881D01*
X0376499Y0186034D01*
X0376461Y0186187D01*
X0376428Y0186342D01*
X0376398Y0186498D01*
X0376372Y0186654D01*
X0376351Y0186811D01*
X0376333Y0186968D01*
X0376319Y0187126D01*
X0376309Y0187284D01*
X0376303Y0187442D01*
X0376301Y0187600D01*
X0376301Y0262600D02*
X0376303Y0262758D01*
X0376309Y0262916D01*
X0376319Y0263074D01*
X0376333Y0263232D01*
X0376351Y0263389D01*
X0376372Y0263546D01*
X0376398Y0263702D01*
X0376428Y0263858D01*
X0376461Y0264013D01*
X0376499Y0264166D01*
X0376540Y0264319D01*
X0376585Y0264471D01*
X0376634Y0264622D01*
X0376687Y0264771D01*
X0376743Y0264919D01*
X0376803Y0265065D01*
X0376867Y0265210D01*
X0376935Y0265353D01*
X0377006Y0265495D01*
X0377080Y0265635D01*
X0377158Y0265772D01*
X0377240Y0265908D01*
X0377324Y0266042D01*
X0377413Y0266173D01*
X0377504Y0266302D01*
X0377599Y0266429D01*
X0377696Y0266554D01*
X0377797Y0266676D01*
X0377901Y0266795D01*
X0378008Y0266912D01*
X0378118Y0267026D01*
X0378231Y0267137D01*
X0378346Y0267246D01*
X0378464Y0267351D01*
X0378585Y0267453D01*
X0378708Y0267553D01*
X0378834Y0267649D01*
X0378962Y0267742D01*
X0379092Y0267832D01*
X0379225Y0267918D01*
X0379360Y0268002D01*
X0379496Y0268081D01*
X0379635Y0268158D01*
X0379776Y0268230D01*
X0379918Y0268300D01*
X0380062Y0268365D01*
X0380208Y0268427D01*
X0380355Y0268485D01*
X0380504Y0268540D01*
X0380654Y0268591D01*
X0380805Y0268638D01*
X0380957Y0268681D01*
X0381110Y0268720D01*
X0381265Y0268756D01*
X0381420Y0268787D01*
X0381576Y0268815D01*
X0381732Y0268839D01*
X0381889Y0268859D01*
X0382047Y0268875D01*
X0382204Y0268887D01*
X0382363Y0268895D01*
X0382521Y0268899D01*
X0382679Y0268899D01*
X0382837Y0268895D01*
X0382996Y0268887D01*
X0383153Y0268875D01*
X0383311Y0268859D01*
X0383468Y0268839D01*
X0383624Y0268815D01*
X0383780Y0268787D01*
X0383935Y0268756D01*
X0384090Y0268720D01*
X0384243Y0268681D01*
X0384395Y0268638D01*
X0384546Y0268591D01*
X0384696Y0268540D01*
X0384845Y0268485D01*
X0384992Y0268427D01*
X0385138Y0268365D01*
X0385282Y0268300D01*
X0385424Y0268230D01*
X0385565Y0268158D01*
X0385704Y0268081D01*
X0385840Y0268002D01*
X0385975Y0267918D01*
X0386108Y0267832D01*
X0386238Y0267742D01*
X0386366Y0267649D01*
X0386492Y0267553D01*
X0386615Y0267453D01*
X0386736Y0267351D01*
X0386854Y0267246D01*
X0386969Y0267137D01*
X0387082Y0267026D01*
X0387192Y0266912D01*
X0387299Y0266795D01*
X0387403Y0266676D01*
X0387504Y0266554D01*
X0387601Y0266429D01*
X0387696Y0266302D01*
X0387787Y0266173D01*
X0387876Y0266042D01*
X0387960Y0265908D01*
X0388042Y0265772D01*
X0388120Y0265635D01*
X0388194Y0265495D01*
X0388265Y0265353D01*
X0388333Y0265210D01*
X0388397Y0265065D01*
X0388457Y0264919D01*
X0388513Y0264771D01*
X0388566Y0264622D01*
X0388615Y0264471D01*
X0388660Y0264319D01*
X0388701Y0264166D01*
X0388739Y0264013D01*
X0388772Y0263858D01*
X0388802Y0263702D01*
X0388828Y0263546D01*
X0388849Y0263389D01*
X0388867Y0263232D01*
X0388881Y0263074D01*
X0388891Y0262916D01*
X0388897Y0262758D01*
X0388899Y0262600D01*
X0388897Y0262442D01*
X0388891Y0262284D01*
X0388881Y0262126D01*
X0388867Y0261968D01*
X0388849Y0261811D01*
X0388828Y0261654D01*
X0388802Y0261498D01*
X0388772Y0261342D01*
X0388739Y0261187D01*
X0388701Y0261034D01*
X0388660Y0260881D01*
X0388615Y0260729D01*
X0388566Y0260578D01*
X0388513Y0260429D01*
X0388457Y0260281D01*
X0388397Y0260135D01*
X0388333Y0259990D01*
X0388265Y0259847D01*
X0388194Y0259705D01*
X0388120Y0259565D01*
X0388042Y0259428D01*
X0387960Y0259292D01*
X0387876Y0259158D01*
X0387787Y0259027D01*
X0387696Y0258898D01*
X0387601Y0258771D01*
X0387504Y0258646D01*
X0387403Y0258524D01*
X0387299Y0258405D01*
X0387192Y0258288D01*
X0387082Y0258174D01*
X0386969Y0258063D01*
X0386854Y0257954D01*
X0386736Y0257849D01*
X0386615Y0257747D01*
X0386492Y0257647D01*
X0386366Y0257551D01*
X0386238Y0257458D01*
X0386108Y0257368D01*
X0385975Y0257282D01*
X0385840Y0257198D01*
X0385704Y0257119D01*
X0385565Y0257042D01*
X0385424Y0256970D01*
X0385282Y0256900D01*
X0385138Y0256835D01*
X0384992Y0256773D01*
X0384845Y0256715D01*
X0384696Y0256660D01*
X0384546Y0256609D01*
X0384395Y0256562D01*
X0384243Y0256519D01*
X0384090Y0256480D01*
X0383935Y0256444D01*
X0383780Y0256413D01*
X0383624Y0256385D01*
X0383468Y0256361D01*
X0383311Y0256341D01*
X0383153Y0256325D01*
X0382996Y0256313D01*
X0382837Y0256305D01*
X0382679Y0256301D01*
X0382521Y0256301D01*
X0382363Y0256305D01*
X0382204Y0256313D01*
X0382047Y0256325D01*
X0381889Y0256341D01*
X0381732Y0256361D01*
X0381576Y0256385D01*
X0381420Y0256413D01*
X0381265Y0256444D01*
X0381110Y0256480D01*
X0380957Y0256519D01*
X0380805Y0256562D01*
X0380654Y0256609D01*
X0380504Y0256660D01*
X0380355Y0256715D01*
X0380208Y0256773D01*
X0380062Y0256835D01*
X0379918Y0256900D01*
X0379776Y0256970D01*
X0379635Y0257042D01*
X0379496Y0257119D01*
X0379360Y0257198D01*
X0379225Y0257282D01*
X0379092Y0257368D01*
X0378962Y0257458D01*
X0378834Y0257551D01*
X0378708Y0257647D01*
X0378585Y0257747D01*
X0378464Y0257849D01*
X0378346Y0257954D01*
X0378231Y0258063D01*
X0378118Y0258174D01*
X0378008Y0258288D01*
X0377901Y0258405D01*
X0377797Y0258524D01*
X0377696Y0258646D01*
X0377599Y0258771D01*
X0377504Y0258898D01*
X0377413Y0259027D01*
X0377324Y0259158D01*
X0377240Y0259292D01*
X0377158Y0259428D01*
X0377080Y0259565D01*
X0377006Y0259705D01*
X0376935Y0259847D01*
X0376867Y0259990D01*
X0376803Y0260135D01*
X0376743Y0260281D01*
X0376687Y0260429D01*
X0376634Y0260578D01*
X0376585Y0260729D01*
X0376540Y0260881D01*
X0376499Y0261034D01*
X0376461Y0261187D01*
X0376428Y0261342D01*
X0376398Y0261498D01*
X0376372Y0261654D01*
X0376351Y0261811D01*
X0376333Y0261968D01*
X0376319Y0262126D01*
X0376309Y0262284D01*
X0376303Y0262442D01*
X0376301Y0262600D01*
X0376301Y0307600D02*
X0376303Y0307758D01*
X0376309Y0307916D01*
X0376319Y0308074D01*
X0376333Y0308232D01*
X0376351Y0308389D01*
X0376372Y0308546D01*
X0376398Y0308702D01*
X0376428Y0308858D01*
X0376461Y0309013D01*
X0376499Y0309166D01*
X0376540Y0309319D01*
X0376585Y0309471D01*
X0376634Y0309622D01*
X0376687Y0309771D01*
X0376743Y0309919D01*
X0376803Y0310065D01*
X0376867Y0310210D01*
X0376935Y0310353D01*
X0377006Y0310495D01*
X0377080Y0310635D01*
X0377158Y0310772D01*
X0377240Y0310908D01*
X0377324Y0311042D01*
X0377413Y0311173D01*
X0377504Y0311302D01*
X0377599Y0311429D01*
X0377696Y0311554D01*
X0377797Y0311676D01*
X0377901Y0311795D01*
X0378008Y0311912D01*
X0378118Y0312026D01*
X0378231Y0312137D01*
X0378346Y0312246D01*
X0378464Y0312351D01*
X0378585Y0312453D01*
X0378708Y0312553D01*
X0378834Y0312649D01*
X0378962Y0312742D01*
X0379092Y0312832D01*
X0379225Y0312918D01*
X0379360Y0313002D01*
X0379496Y0313081D01*
X0379635Y0313158D01*
X0379776Y0313230D01*
X0379918Y0313300D01*
X0380062Y0313365D01*
X0380208Y0313427D01*
X0380355Y0313485D01*
X0380504Y0313540D01*
X0380654Y0313591D01*
X0380805Y0313638D01*
X0380957Y0313681D01*
X0381110Y0313720D01*
X0381265Y0313756D01*
X0381420Y0313787D01*
X0381576Y0313815D01*
X0381732Y0313839D01*
X0381889Y0313859D01*
X0382047Y0313875D01*
X0382204Y0313887D01*
X0382363Y0313895D01*
X0382521Y0313899D01*
X0382679Y0313899D01*
X0382837Y0313895D01*
X0382996Y0313887D01*
X0383153Y0313875D01*
X0383311Y0313859D01*
X0383468Y0313839D01*
X0383624Y0313815D01*
X0383780Y0313787D01*
X0383935Y0313756D01*
X0384090Y0313720D01*
X0384243Y0313681D01*
X0384395Y0313638D01*
X0384546Y0313591D01*
X0384696Y0313540D01*
X0384845Y0313485D01*
X0384992Y0313427D01*
X0385138Y0313365D01*
X0385282Y0313300D01*
X0385424Y0313230D01*
X0385565Y0313158D01*
X0385704Y0313081D01*
X0385840Y0313002D01*
X0385975Y0312918D01*
X0386108Y0312832D01*
X0386238Y0312742D01*
X0386366Y0312649D01*
X0386492Y0312553D01*
X0386615Y0312453D01*
X0386736Y0312351D01*
X0386854Y0312246D01*
X0386969Y0312137D01*
X0387082Y0312026D01*
X0387192Y0311912D01*
X0387299Y0311795D01*
X0387403Y0311676D01*
X0387504Y0311554D01*
X0387601Y0311429D01*
X0387696Y0311302D01*
X0387787Y0311173D01*
X0387876Y0311042D01*
X0387960Y0310908D01*
X0388042Y0310772D01*
X0388120Y0310635D01*
X0388194Y0310495D01*
X0388265Y0310353D01*
X0388333Y0310210D01*
X0388397Y0310065D01*
X0388457Y0309919D01*
X0388513Y0309771D01*
X0388566Y0309622D01*
X0388615Y0309471D01*
X0388660Y0309319D01*
X0388701Y0309166D01*
X0388739Y0309013D01*
X0388772Y0308858D01*
X0388802Y0308702D01*
X0388828Y0308546D01*
X0388849Y0308389D01*
X0388867Y0308232D01*
X0388881Y0308074D01*
X0388891Y0307916D01*
X0388897Y0307758D01*
X0388899Y0307600D01*
X0388897Y0307442D01*
X0388891Y0307284D01*
X0388881Y0307126D01*
X0388867Y0306968D01*
X0388849Y0306811D01*
X0388828Y0306654D01*
X0388802Y0306498D01*
X0388772Y0306342D01*
X0388739Y0306187D01*
X0388701Y0306034D01*
X0388660Y0305881D01*
X0388615Y0305729D01*
X0388566Y0305578D01*
X0388513Y0305429D01*
X0388457Y0305281D01*
X0388397Y0305135D01*
X0388333Y0304990D01*
X0388265Y0304847D01*
X0388194Y0304705D01*
X0388120Y0304565D01*
X0388042Y0304428D01*
X0387960Y0304292D01*
X0387876Y0304158D01*
X0387787Y0304027D01*
X0387696Y0303898D01*
X0387601Y0303771D01*
X0387504Y0303646D01*
X0387403Y0303524D01*
X0387299Y0303405D01*
X0387192Y0303288D01*
X0387082Y0303174D01*
X0386969Y0303063D01*
X0386854Y0302954D01*
X0386736Y0302849D01*
X0386615Y0302747D01*
X0386492Y0302647D01*
X0386366Y0302551D01*
X0386238Y0302458D01*
X0386108Y0302368D01*
X0385975Y0302282D01*
X0385840Y0302198D01*
X0385704Y0302119D01*
X0385565Y0302042D01*
X0385424Y0301970D01*
X0385282Y0301900D01*
X0385138Y0301835D01*
X0384992Y0301773D01*
X0384845Y0301715D01*
X0384696Y0301660D01*
X0384546Y0301609D01*
X0384395Y0301562D01*
X0384243Y0301519D01*
X0384090Y0301480D01*
X0383935Y0301444D01*
X0383780Y0301413D01*
X0383624Y0301385D01*
X0383468Y0301361D01*
X0383311Y0301341D01*
X0383153Y0301325D01*
X0382996Y0301313D01*
X0382837Y0301305D01*
X0382679Y0301301D01*
X0382521Y0301301D01*
X0382363Y0301305D01*
X0382204Y0301313D01*
X0382047Y0301325D01*
X0381889Y0301341D01*
X0381732Y0301361D01*
X0381576Y0301385D01*
X0381420Y0301413D01*
X0381265Y0301444D01*
X0381110Y0301480D01*
X0380957Y0301519D01*
X0380805Y0301562D01*
X0380654Y0301609D01*
X0380504Y0301660D01*
X0380355Y0301715D01*
X0380208Y0301773D01*
X0380062Y0301835D01*
X0379918Y0301900D01*
X0379776Y0301970D01*
X0379635Y0302042D01*
X0379496Y0302119D01*
X0379360Y0302198D01*
X0379225Y0302282D01*
X0379092Y0302368D01*
X0378962Y0302458D01*
X0378834Y0302551D01*
X0378708Y0302647D01*
X0378585Y0302747D01*
X0378464Y0302849D01*
X0378346Y0302954D01*
X0378231Y0303063D01*
X0378118Y0303174D01*
X0378008Y0303288D01*
X0377901Y0303405D01*
X0377797Y0303524D01*
X0377696Y0303646D01*
X0377599Y0303771D01*
X0377504Y0303898D01*
X0377413Y0304027D01*
X0377324Y0304158D01*
X0377240Y0304292D01*
X0377158Y0304428D01*
X0377080Y0304565D01*
X0377006Y0304705D01*
X0376935Y0304847D01*
X0376867Y0304990D01*
X0376803Y0305135D01*
X0376743Y0305281D01*
X0376687Y0305429D01*
X0376634Y0305578D01*
X0376585Y0305729D01*
X0376540Y0305881D01*
X0376499Y0306034D01*
X0376461Y0306187D01*
X0376428Y0306342D01*
X0376398Y0306498D01*
X0376372Y0306654D01*
X0376351Y0306811D01*
X0376333Y0306968D01*
X0376319Y0307126D01*
X0376309Y0307284D01*
X0376303Y0307442D01*
X0376301Y0307600D01*
X0381301Y0012600D02*
X0381303Y0012758D01*
X0381309Y0012916D01*
X0381319Y0013074D01*
X0381333Y0013232D01*
X0381351Y0013389D01*
X0381372Y0013546D01*
X0381398Y0013702D01*
X0381428Y0013858D01*
X0381461Y0014013D01*
X0381499Y0014166D01*
X0381540Y0014319D01*
X0381585Y0014471D01*
X0381634Y0014622D01*
X0381687Y0014771D01*
X0381743Y0014919D01*
X0381803Y0015065D01*
X0381867Y0015210D01*
X0381935Y0015353D01*
X0382006Y0015495D01*
X0382080Y0015635D01*
X0382158Y0015772D01*
X0382240Y0015908D01*
X0382324Y0016042D01*
X0382413Y0016173D01*
X0382504Y0016302D01*
X0382599Y0016429D01*
X0382696Y0016554D01*
X0382797Y0016676D01*
X0382901Y0016795D01*
X0383008Y0016912D01*
X0383118Y0017026D01*
X0383231Y0017137D01*
X0383346Y0017246D01*
X0383464Y0017351D01*
X0383585Y0017453D01*
X0383708Y0017553D01*
X0383834Y0017649D01*
X0383962Y0017742D01*
X0384092Y0017832D01*
X0384225Y0017918D01*
X0384360Y0018002D01*
X0384496Y0018081D01*
X0384635Y0018158D01*
X0384776Y0018230D01*
X0384918Y0018300D01*
X0385062Y0018365D01*
X0385208Y0018427D01*
X0385355Y0018485D01*
X0385504Y0018540D01*
X0385654Y0018591D01*
X0385805Y0018638D01*
X0385957Y0018681D01*
X0386110Y0018720D01*
X0386265Y0018756D01*
X0386420Y0018787D01*
X0386576Y0018815D01*
X0386732Y0018839D01*
X0386889Y0018859D01*
X0387047Y0018875D01*
X0387204Y0018887D01*
X0387363Y0018895D01*
X0387521Y0018899D01*
X0387679Y0018899D01*
X0387837Y0018895D01*
X0387996Y0018887D01*
X0388153Y0018875D01*
X0388311Y0018859D01*
X0388468Y0018839D01*
X0388624Y0018815D01*
X0388780Y0018787D01*
X0388935Y0018756D01*
X0389090Y0018720D01*
X0389243Y0018681D01*
X0389395Y0018638D01*
X0389546Y0018591D01*
X0389696Y0018540D01*
X0389845Y0018485D01*
X0389992Y0018427D01*
X0390138Y0018365D01*
X0390282Y0018300D01*
X0390424Y0018230D01*
X0390565Y0018158D01*
X0390704Y0018081D01*
X0390840Y0018002D01*
X0390975Y0017918D01*
X0391108Y0017832D01*
X0391238Y0017742D01*
X0391366Y0017649D01*
X0391492Y0017553D01*
X0391615Y0017453D01*
X0391736Y0017351D01*
X0391854Y0017246D01*
X0391969Y0017137D01*
X0392082Y0017026D01*
X0392192Y0016912D01*
X0392299Y0016795D01*
X0392403Y0016676D01*
X0392504Y0016554D01*
X0392601Y0016429D01*
X0392696Y0016302D01*
X0392787Y0016173D01*
X0392876Y0016042D01*
X0392960Y0015908D01*
X0393042Y0015772D01*
X0393120Y0015635D01*
X0393194Y0015495D01*
X0393265Y0015353D01*
X0393333Y0015210D01*
X0393397Y0015065D01*
X0393457Y0014919D01*
X0393513Y0014771D01*
X0393566Y0014622D01*
X0393615Y0014471D01*
X0393660Y0014319D01*
X0393701Y0014166D01*
X0393739Y0014013D01*
X0393772Y0013858D01*
X0393802Y0013702D01*
X0393828Y0013546D01*
X0393849Y0013389D01*
X0393867Y0013232D01*
X0393881Y0013074D01*
X0393891Y0012916D01*
X0393897Y0012758D01*
X0393899Y0012600D01*
X0393897Y0012442D01*
X0393891Y0012284D01*
X0393881Y0012126D01*
X0393867Y0011968D01*
X0393849Y0011811D01*
X0393828Y0011654D01*
X0393802Y0011498D01*
X0393772Y0011342D01*
X0393739Y0011187D01*
X0393701Y0011034D01*
X0393660Y0010881D01*
X0393615Y0010729D01*
X0393566Y0010578D01*
X0393513Y0010429D01*
X0393457Y0010281D01*
X0393397Y0010135D01*
X0393333Y0009990D01*
X0393265Y0009847D01*
X0393194Y0009705D01*
X0393120Y0009565D01*
X0393042Y0009428D01*
X0392960Y0009292D01*
X0392876Y0009158D01*
X0392787Y0009027D01*
X0392696Y0008898D01*
X0392601Y0008771D01*
X0392504Y0008646D01*
X0392403Y0008524D01*
X0392299Y0008405D01*
X0392192Y0008288D01*
X0392082Y0008174D01*
X0391969Y0008063D01*
X0391854Y0007954D01*
X0391736Y0007849D01*
X0391615Y0007747D01*
X0391492Y0007647D01*
X0391366Y0007551D01*
X0391238Y0007458D01*
X0391108Y0007368D01*
X0390975Y0007282D01*
X0390840Y0007198D01*
X0390704Y0007119D01*
X0390565Y0007042D01*
X0390424Y0006970D01*
X0390282Y0006900D01*
X0390138Y0006835D01*
X0389992Y0006773D01*
X0389845Y0006715D01*
X0389696Y0006660D01*
X0389546Y0006609D01*
X0389395Y0006562D01*
X0389243Y0006519D01*
X0389090Y0006480D01*
X0388935Y0006444D01*
X0388780Y0006413D01*
X0388624Y0006385D01*
X0388468Y0006361D01*
X0388311Y0006341D01*
X0388153Y0006325D01*
X0387996Y0006313D01*
X0387837Y0006305D01*
X0387679Y0006301D01*
X0387521Y0006301D01*
X0387363Y0006305D01*
X0387204Y0006313D01*
X0387047Y0006325D01*
X0386889Y0006341D01*
X0386732Y0006361D01*
X0386576Y0006385D01*
X0386420Y0006413D01*
X0386265Y0006444D01*
X0386110Y0006480D01*
X0385957Y0006519D01*
X0385805Y0006562D01*
X0385654Y0006609D01*
X0385504Y0006660D01*
X0385355Y0006715D01*
X0385208Y0006773D01*
X0385062Y0006835D01*
X0384918Y0006900D01*
X0384776Y0006970D01*
X0384635Y0007042D01*
X0384496Y0007119D01*
X0384360Y0007198D01*
X0384225Y0007282D01*
X0384092Y0007368D01*
X0383962Y0007458D01*
X0383834Y0007551D01*
X0383708Y0007647D01*
X0383585Y0007747D01*
X0383464Y0007849D01*
X0383346Y0007954D01*
X0383231Y0008063D01*
X0383118Y0008174D01*
X0383008Y0008288D01*
X0382901Y0008405D01*
X0382797Y0008524D01*
X0382696Y0008646D01*
X0382599Y0008771D01*
X0382504Y0008898D01*
X0382413Y0009027D01*
X0382324Y0009158D01*
X0382240Y0009292D01*
X0382158Y0009428D01*
X0382080Y0009565D01*
X0382006Y0009705D01*
X0381935Y0009847D01*
X0381867Y0009990D01*
X0381803Y0010135D01*
X0381743Y0010281D01*
X0381687Y0010429D01*
X0381634Y0010578D01*
X0381585Y0010729D01*
X0381540Y0010881D01*
X0381499Y0011034D01*
X0381461Y0011187D01*
X0381428Y0011342D01*
X0381398Y0011498D01*
X0381372Y0011654D01*
X0381351Y0011811D01*
X0381333Y0011968D01*
X0381319Y0012126D01*
X0381309Y0012284D01*
X0381303Y0012442D01*
X0381301Y0012600D01*
D11*
X0262600Y0085000D02*
X0262600Y0090200D01*
X0252600Y0090200D02*
X0252600Y0085000D01*
X0242600Y0085000D02*
X0242600Y0090200D01*
X0232600Y0090200D02*
X0232600Y0085000D01*
X0222600Y0085000D02*
X0222600Y0090200D01*
X0212600Y0090200D02*
X0212600Y0085000D01*
X0202600Y0085000D02*
X0202600Y0090200D01*
X0192600Y0090200D02*
X0192600Y0085000D01*
X0182600Y0085000D02*
X0182600Y0090200D01*
X0172600Y0090200D02*
X0172600Y0085000D01*
X0162600Y0085000D02*
X0162600Y0090200D01*
X0152600Y0090200D02*
X0152600Y0085000D01*
X0142600Y0085000D02*
X0142600Y0090200D01*
X0132600Y0090200D02*
X0132600Y0085000D01*
X0132600Y0115000D02*
X0132600Y0120200D01*
X0142600Y0120200D02*
X0142600Y0115000D01*
X0152600Y0115000D02*
X0152600Y0120200D01*
X0162600Y0120200D02*
X0162600Y0115000D01*
X0172600Y0115000D02*
X0172600Y0120200D01*
X0182600Y0120200D02*
X0182600Y0115000D01*
X0192600Y0115000D02*
X0192600Y0120200D01*
X0202600Y0120200D02*
X0202600Y0115000D01*
X0212600Y0115000D02*
X0212600Y0120200D01*
X0222600Y0120200D02*
X0222600Y0115000D01*
X0232600Y0115000D02*
X0232600Y0120200D01*
X0242600Y0120200D02*
X0242600Y0115000D01*
X0252600Y0115000D02*
X0252600Y0120200D01*
X0262600Y0120200D02*
X0262600Y0115000D01*
D12*
X0202600Y0153100D03*
X0192600Y0152100D03*
X0182600Y0153100D03*
X0172600Y0152100D03*
X0162600Y0153100D03*
X0152600Y0152100D03*
X0142600Y0153100D03*
X0132600Y0152100D03*
X0122600Y0153100D03*
X0122600Y0178100D03*
X0132600Y0177100D03*
X0142600Y0178100D03*
X0152600Y0177100D03*
X0162600Y0178100D03*
X0172600Y0177100D03*
X0182600Y0178100D03*
X0192600Y0177100D03*
X0202600Y0178100D03*
X0388100Y0142600D03*
X0387100Y0132600D03*
X0388100Y0122600D03*
X0387100Y0112600D03*
X0388100Y0102600D03*
X0387100Y0092600D03*
X0388100Y0082600D03*
X0387100Y0072600D03*
X0388100Y0062600D03*
X0387100Y0052600D03*
X0388100Y0042600D03*
X0387100Y0032600D03*
X0018100Y0067600D03*
X0017100Y0077600D03*
X0018100Y0087600D03*
X0017100Y0097600D03*
X0018100Y0107600D03*
X0017100Y0117600D03*
X0017100Y0057600D03*
D13*
X0057600Y0087600D03*
X0062600Y0097600D03*
X0087600Y0087600D03*
X0092600Y0097600D03*
X0072600Y0207600D03*
X0072600Y0237600D03*
X0072600Y0257600D03*
X0072600Y0267600D03*
X0112600Y0267600D03*
X0112600Y0257600D03*
X0112600Y0237600D03*
X0112600Y0207600D03*
X0152600Y0207600D03*
X0152600Y0237600D03*
X0152600Y0257600D03*
X0152600Y0267600D03*
X0192600Y0267600D03*
X0192600Y0257600D03*
X0192600Y0237600D03*
X0192600Y0207600D03*
X0232600Y0207600D03*
X0232600Y0237600D03*
X0232600Y0257600D03*
X0232600Y0267600D03*
X0272600Y0267600D03*
X0272600Y0257600D03*
X0272600Y0237600D03*
X0272600Y0207600D03*
X0312600Y0207600D03*
X0312600Y0237600D03*
X0312600Y0257600D03*
X0312600Y0267600D03*
X0352600Y0267600D03*
X0352600Y0257600D03*
X0352600Y0237600D03*
X0352600Y0207600D03*
X0262600Y0142600D03*
X0232600Y0142600D03*
X0272600Y0117600D03*
X0272600Y0107600D03*
X0272600Y0097600D03*
X0302600Y0097600D03*
X0302600Y0107600D03*
X0302600Y0117600D03*
D14*
X0314600Y0117600D02*
X0320600Y0117600D01*
X0320600Y0107600D02*
X0314600Y0107600D01*
X0314600Y0097600D02*
X0320600Y0097600D01*
X0334600Y0097600D02*
X0340600Y0097600D01*
X0340600Y0107600D02*
X0334600Y0107600D01*
X0334600Y0117600D02*
X0340600Y0117600D01*
X0354600Y0117600D02*
X0360600Y0117600D01*
X0360600Y0107600D02*
X0354600Y0107600D01*
X0354600Y0097600D02*
X0360600Y0097600D01*
D15*
X0222600Y0077600D03*
X0212600Y0077600D03*
D16*
X0193545Y0019726D03*
X0061655Y0019726D03*
X0061655Y0035474D03*
D17*
X0132600Y0117600D02*
X0132600Y0152100D01*
X0142600Y0153100D02*
X0142600Y0117600D01*
X0152600Y0117600D02*
X0152600Y0152100D01*
X0162600Y0153100D02*
X0162600Y0117600D01*
X0172600Y0117600D02*
X0172600Y0152100D01*
X0182600Y0153100D02*
X0182600Y0117600D01*
X0192600Y0117600D02*
X0192600Y0152100D01*
X0202600Y0153100D02*
X0202600Y0117600D01*
X0202069Y0167600D02*
X0206110Y0167600D01*
X0210047Y0167600D02*
X0214089Y0167600D01*
X0218026Y0167600D02*
X0222068Y0167600D01*
X0226005Y0167600D02*
X0230046Y0167600D01*
X0233983Y0167600D02*
X0238025Y0167600D01*
X0241962Y0167600D02*
X0246004Y0167600D01*
X0249941Y0167600D02*
X0253983Y0167600D01*
X0257920Y0167600D02*
X0261961Y0167600D01*
X0265898Y0167600D02*
X0269940Y0167600D01*
X0273877Y0167600D02*
X0277919Y0167600D01*
X0281856Y0167600D02*
X0285898Y0167600D01*
X0289835Y0167600D02*
X0293876Y0167600D01*
X0297813Y0167600D02*
X0301855Y0167600D01*
X0305792Y0167600D02*
X0309834Y0167600D01*
X0313771Y0167600D02*
X0317813Y0167600D01*
X0321750Y0167600D02*
X0325791Y0167600D01*
X0329728Y0167600D02*
X0333770Y0167600D01*
X0337707Y0167600D02*
X0341749Y0167600D01*
X0345686Y0167600D02*
X0349728Y0167600D01*
X0353665Y0167600D02*
X0357706Y0167600D01*
X0361643Y0167600D02*
X0365685Y0167600D01*
X0369622Y0167600D02*
X0373664Y0167600D01*
X0377601Y0167600D02*
X0381643Y0167600D01*
X0385580Y0167600D02*
X0389621Y0167600D01*
X0393558Y0167600D02*
X0397600Y0167600D01*
X0352600Y0237600D02*
X0352700Y0248300D01*
X0352700Y0257300D01*
X0352600Y0257600D01*
X0352600Y0267600D02*
X0351800Y0268100D01*
X0312600Y0267600D02*
X0312200Y0268100D01*
X0312600Y0257600D02*
X0313100Y0257300D01*
X0313100Y0248300D01*
X0312600Y0237600D01*
X0272600Y0237600D02*
X0272600Y0257600D01*
X0272600Y0267600D02*
X0272600Y0268100D01*
X0233000Y0257300D02*
X0233000Y0248300D01*
X0232600Y0237600D01*
X0233000Y0257300D02*
X0232600Y0257600D01*
X0192600Y0257600D02*
X0192500Y0257300D01*
X0192500Y0248300D01*
X0192600Y0237600D01*
X0152600Y0237600D02*
X0152900Y0248300D01*
X0152900Y0257300D01*
X0152600Y0257600D01*
X0152600Y0267600D02*
X0152000Y0268100D01*
X0112600Y0267600D02*
X0112400Y0268100D01*
X0112600Y0257600D02*
X0113300Y0257300D01*
X0113300Y0248300D01*
X0112600Y0237600D01*
X0072600Y0237600D02*
X0072800Y0248300D01*
X0072800Y0257300D01*
X0072600Y0257600D01*
X0074409Y0167600D02*
X0078450Y0167600D01*
X0082387Y0167600D02*
X0086429Y0167600D01*
X0090366Y0167600D02*
X0094408Y0167600D01*
X0098345Y0167600D02*
X0102387Y0167600D01*
X0106324Y0167600D02*
X0110365Y0167600D01*
X0114302Y0167600D02*
X0118344Y0167600D01*
X0122281Y0167600D02*
X0126323Y0167600D01*
X0130260Y0167600D02*
X0134302Y0167600D01*
X0138239Y0167600D02*
X0142280Y0167600D01*
X0146217Y0167600D02*
X0150259Y0167600D01*
X0154196Y0167600D02*
X0158238Y0167600D01*
X0162175Y0167600D02*
X0166217Y0167600D01*
X0170154Y0167600D02*
X0174195Y0167600D01*
X0178132Y0167600D02*
X0182174Y0167600D01*
X0186111Y0167600D02*
X0190153Y0167600D01*
X0194090Y0167600D02*
X0198131Y0167600D01*
X0070472Y0167600D02*
X0066430Y0167600D01*
X0062493Y0167600D02*
X0058451Y0167600D01*
X0054514Y0167600D02*
X0050472Y0167600D01*
X0046535Y0167600D02*
X0042494Y0167600D01*
X0038557Y0167600D02*
X0034515Y0167600D01*
X0030578Y0167600D02*
X0026536Y0167600D01*
X0022599Y0167600D02*
X0018557Y0167600D01*
X0014620Y0167600D02*
X0010579Y0167600D01*
X0006642Y0167600D02*
X0002600Y0167600D01*
X0337600Y0097600D02*
X0338269Y0097600D01*
D18*
X0337600Y0097600D02*
X0307600Y0067600D01*
X0272600Y0067600D01*
X0232600Y0067600D02*
X0222600Y0067600D01*
X0212600Y0077600D01*
X0212600Y0087600D01*
X0202600Y0077600D01*
X0087600Y0077600D01*
X0147600Y0017600D01*
X0191419Y0017600D01*
X0193545Y0019726D01*
X0087600Y0077600D02*
X0047600Y0077600D01*
X0057600Y0087600D01*
X0062600Y0092600D01*
X0062600Y0097600D01*
X0047600Y0077600D02*
X0042600Y0077600D01*
X0022600Y0057600D01*
X0017100Y0057600D01*
X0232600Y0117600D02*
X0232600Y0142600D01*
X0262600Y0142600D02*
X0317600Y0142600D01*
X0337600Y0122600D01*
X0357600Y0142600D01*
X0388100Y0142600D01*
X0337600Y0122600D02*
X0337600Y0117600D01*
X0337600Y0107600D01*
X0337600Y0097600D01*
D19*
X0272600Y0067600D03*
X0232600Y0067600D03*
X0127600Y0062600D03*
X0122600Y0052600D03*
X0117600Y0127600D03*
X0107600Y0127600D03*
D20*
X0052600Y0127600D01*
X0032600Y0107600D01*
X0018100Y0107600D01*
X0017100Y0117600D02*
X0032600Y0117600D01*
X0052600Y0137600D01*
X0107600Y0137600D01*
X0117600Y0127600D01*
D21*
X0132600Y0177100D02*
X0132600Y0177600D01*
X0122600Y0187600D01*
X0082600Y0187600D01*
X0072600Y0207600D01*
X0112600Y0207600D02*
X0122600Y0197600D01*
X0142100Y0178100D01*
X0142600Y0178100D01*
X0152600Y0177100D02*
X0152600Y0207600D01*
X0172600Y0197600D02*
X0192600Y0207600D01*
X0202600Y0197600D02*
X0232600Y0207600D01*
X0242600Y0197600D02*
X0272600Y0207600D01*
X0242600Y0197600D02*
X0237600Y0192600D01*
X0207600Y0192600D01*
X0202600Y0187600D01*
X0187600Y0187600D01*
X0182600Y0182600D01*
X0182600Y0178100D01*
X0172600Y0177100D02*
X0172600Y0187600D01*
X0177600Y0192600D01*
X0197600Y0192600D01*
X0202600Y0197600D01*
X0202600Y0178100D02*
X0333100Y0178100D01*
X0352600Y0207600D01*
X0317600Y0117600D02*
X0302600Y0117600D01*
X0302600Y0107600D02*
X0317600Y0107600D01*
X0317600Y0097600D02*
X0302600Y0097600D01*
X0272600Y0097600D02*
X0252600Y0097600D01*
X0242600Y0107600D01*
X0242600Y0117600D01*
X0252600Y0117600D02*
X0252600Y0112600D01*
X0257600Y0107600D01*
X0272600Y0107600D01*
X0272600Y0117600D02*
X0262600Y0117600D01*
X0252600Y0087600D02*
X0252600Y0067600D01*
X0237600Y0052600D01*
X0122600Y0052600D01*
X0127600Y0062600D02*
X0237600Y0062600D01*
X0242600Y0067600D01*
X0242600Y0087600D01*
X0162600Y0178100D02*
X0162600Y0187600D01*
X0172600Y0197600D01*
M02*
