G75*
%MOIN*%
%OFA0B0*%
%FSLAX25Y25*%
%IPPOS*%
%LPD*%
%AMOC8*
5,1,8,0,0,1.08239X$1,22.5*
%
%ADD10C,0.00600*%
%ADD11C,0.00800*%
%ADD12C,0.01000*%
%ADD13R,0.02000X0.01500*%
%ADD14C,0.00500*%
%ADD15C,0.01969*%
%ADD16R,0.01500X0.02000*%
D10*
X0063600Y0083600D02*
X0065100Y0083600D01*
X0065600Y0084100D01*
X0079600Y0084100D01*
X0080100Y0083600D01*
X0081600Y0083600D01*
X0081660Y0083602D01*
X0081721Y0083607D01*
X0081780Y0083616D01*
X0081839Y0083629D01*
X0081898Y0083645D01*
X0081955Y0083665D01*
X0082010Y0083688D01*
X0082065Y0083715D01*
X0082117Y0083744D01*
X0082168Y0083777D01*
X0082217Y0083813D01*
X0082263Y0083851D01*
X0082307Y0083893D01*
X0082349Y0083937D01*
X0082387Y0083983D01*
X0082423Y0084032D01*
X0082456Y0084083D01*
X0082485Y0084135D01*
X0082512Y0084190D01*
X0082535Y0084245D01*
X0082555Y0084302D01*
X0082571Y0084361D01*
X0082584Y0084420D01*
X0082593Y0084479D01*
X0082598Y0084540D01*
X0082600Y0084600D01*
X0082600Y0090600D01*
X0082598Y0090660D01*
X0082593Y0090721D01*
X0082584Y0090780D01*
X0082571Y0090839D01*
X0082555Y0090898D01*
X0082535Y0090955D01*
X0082512Y0091010D01*
X0082485Y0091065D01*
X0082456Y0091117D01*
X0082423Y0091168D01*
X0082387Y0091217D01*
X0082349Y0091263D01*
X0082307Y0091307D01*
X0082263Y0091349D01*
X0082217Y0091387D01*
X0082168Y0091423D01*
X0082117Y0091456D01*
X0082065Y0091485D01*
X0082010Y0091512D01*
X0081955Y0091535D01*
X0081898Y0091555D01*
X0081839Y0091571D01*
X0081780Y0091584D01*
X0081721Y0091593D01*
X0081660Y0091598D01*
X0081600Y0091600D01*
X0080100Y0091600D01*
X0079600Y0091100D01*
X0065600Y0091100D01*
X0065100Y0091600D01*
X0063600Y0091600D01*
X0063540Y0091598D01*
X0063479Y0091593D01*
X0063420Y0091584D01*
X0063361Y0091571D01*
X0063302Y0091555D01*
X0063245Y0091535D01*
X0063190Y0091512D01*
X0063135Y0091485D01*
X0063083Y0091456D01*
X0063032Y0091423D01*
X0062983Y0091387D01*
X0062937Y0091349D01*
X0062893Y0091307D01*
X0062851Y0091263D01*
X0062813Y0091217D01*
X0062777Y0091168D01*
X0062744Y0091117D01*
X0062715Y0091065D01*
X0062688Y0091010D01*
X0062665Y0090955D01*
X0062645Y0090898D01*
X0062629Y0090839D01*
X0062616Y0090780D01*
X0062607Y0090721D01*
X0062602Y0090660D01*
X0062600Y0090600D01*
X0062600Y0084600D01*
X0062602Y0084540D01*
X0062607Y0084479D01*
X0062616Y0084420D01*
X0062629Y0084361D01*
X0062645Y0084302D01*
X0062665Y0084245D01*
X0062688Y0084190D01*
X0062715Y0084135D01*
X0062744Y0084083D01*
X0062777Y0084032D01*
X0062813Y0083983D01*
X0062851Y0083937D01*
X0062893Y0083893D01*
X0062937Y0083851D01*
X0062983Y0083813D01*
X0063032Y0083777D01*
X0063083Y0083744D01*
X0063135Y0083715D01*
X0063190Y0083688D01*
X0063245Y0083665D01*
X0063302Y0083645D01*
X0063361Y0083629D01*
X0063420Y0083616D01*
X0063479Y0083607D01*
X0063540Y0083602D01*
X0063600Y0083600D01*
X0068600Y0093600D02*
X0070100Y0093600D01*
X0070600Y0094100D01*
X0084600Y0094100D01*
X0085100Y0093600D01*
X0086600Y0093600D01*
X0086660Y0093602D01*
X0086721Y0093607D01*
X0086780Y0093616D01*
X0086839Y0093629D01*
X0086898Y0093645D01*
X0086955Y0093665D01*
X0087010Y0093688D01*
X0087065Y0093715D01*
X0087117Y0093744D01*
X0087168Y0093777D01*
X0087217Y0093813D01*
X0087263Y0093851D01*
X0087307Y0093893D01*
X0087349Y0093937D01*
X0087387Y0093983D01*
X0087423Y0094032D01*
X0087456Y0094083D01*
X0087485Y0094135D01*
X0087512Y0094190D01*
X0087535Y0094245D01*
X0087555Y0094302D01*
X0087571Y0094361D01*
X0087584Y0094420D01*
X0087593Y0094479D01*
X0087598Y0094540D01*
X0087600Y0094600D01*
X0087600Y0100600D01*
X0087598Y0100660D01*
X0087593Y0100721D01*
X0087584Y0100780D01*
X0087571Y0100839D01*
X0087555Y0100898D01*
X0087535Y0100955D01*
X0087512Y0101010D01*
X0087485Y0101065D01*
X0087456Y0101117D01*
X0087423Y0101168D01*
X0087387Y0101217D01*
X0087349Y0101263D01*
X0087307Y0101307D01*
X0087263Y0101349D01*
X0087217Y0101387D01*
X0087168Y0101423D01*
X0087117Y0101456D01*
X0087065Y0101485D01*
X0087010Y0101512D01*
X0086955Y0101535D01*
X0086898Y0101555D01*
X0086839Y0101571D01*
X0086780Y0101584D01*
X0086721Y0101593D01*
X0086660Y0101598D01*
X0086600Y0101600D01*
X0085100Y0101600D01*
X0084600Y0101100D01*
X0070600Y0101100D01*
X0070100Y0101600D01*
X0068600Y0101600D01*
X0068540Y0101598D01*
X0068479Y0101593D01*
X0068420Y0101584D01*
X0068361Y0101571D01*
X0068302Y0101555D01*
X0068245Y0101535D01*
X0068190Y0101512D01*
X0068135Y0101485D01*
X0068083Y0101456D01*
X0068032Y0101423D01*
X0067983Y0101387D01*
X0067937Y0101349D01*
X0067893Y0101307D01*
X0067851Y0101263D01*
X0067813Y0101217D01*
X0067777Y0101168D01*
X0067744Y0101117D01*
X0067715Y0101065D01*
X0067688Y0101010D01*
X0067665Y0100955D01*
X0067645Y0100898D01*
X0067629Y0100839D01*
X0067616Y0100780D01*
X0067607Y0100721D01*
X0067602Y0100660D01*
X0067600Y0100600D01*
X0067600Y0094600D01*
X0067602Y0094540D01*
X0067607Y0094479D01*
X0067616Y0094420D01*
X0067629Y0094361D01*
X0067645Y0094302D01*
X0067665Y0094245D01*
X0067688Y0094190D01*
X0067715Y0094135D01*
X0067744Y0094083D01*
X0067777Y0094032D01*
X0067813Y0093983D01*
X0067851Y0093937D01*
X0067893Y0093893D01*
X0067937Y0093851D01*
X0067983Y0093813D01*
X0068032Y0093777D01*
X0068083Y0093744D01*
X0068135Y0093715D01*
X0068190Y0093688D01*
X0068245Y0093665D01*
X0068302Y0093645D01*
X0068361Y0093629D01*
X0068420Y0093616D01*
X0068479Y0093607D01*
X0068540Y0093602D01*
X0068600Y0093600D01*
X0127600Y0092600D02*
X0127600Y0097600D01*
X0127740Y0097602D01*
X0127880Y0097608D01*
X0128020Y0097618D01*
X0128160Y0097631D01*
X0128299Y0097649D01*
X0128438Y0097671D01*
X0128575Y0097696D01*
X0128713Y0097725D01*
X0128849Y0097758D01*
X0128984Y0097795D01*
X0129118Y0097836D01*
X0129251Y0097881D01*
X0129383Y0097929D01*
X0129513Y0097981D01*
X0129642Y0098036D01*
X0129769Y0098095D01*
X0129895Y0098158D01*
X0130019Y0098224D01*
X0130140Y0098293D01*
X0130260Y0098366D01*
X0130378Y0098443D01*
X0130493Y0098522D01*
X0130607Y0098605D01*
X0130717Y0098691D01*
X0130826Y0098780D01*
X0130932Y0098872D01*
X0131035Y0098967D01*
X0131136Y0099064D01*
X0131233Y0099165D01*
X0131328Y0099268D01*
X0131420Y0099374D01*
X0131509Y0099483D01*
X0131595Y0099593D01*
X0131678Y0099707D01*
X0131757Y0099822D01*
X0131834Y0099940D01*
X0131907Y0100060D01*
X0131976Y0100181D01*
X0132042Y0100305D01*
X0132105Y0100431D01*
X0132164Y0100558D01*
X0132219Y0100687D01*
X0132271Y0100817D01*
X0132319Y0100949D01*
X0132364Y0101082D01*
X0132405Y0101216D01*
X0132442Y0101351D01*
X0132475Y0101487D01*
X0132504Y0101625D01*
X0132529Y0101762D01*
X0132551Y0101901D01*
X0132569Y0102040D01*
X0132582Y0102180D01*
X0132592Y0102320D01*
X0132598Y0102460D01*
X0132600Y0102600D01*
X0132598Y0102740D01*
X0132592Y0102880D01*
X0132582Y0103020D01*
X0132569Y0103160D01*
X0132551Y0103299D01*
X0132529Y0103438D01*
X0132504Y0103575D01*
X0132475Y0103713D01*
X0132442Y0103849D01*
X0132405Y0103984D01*
X0132364Y0104118D01*
X0132319Y0104251D01*
X0132271Y0104383D01*
X0132219Y0104513D01*
X0132164Y0104642D01*
X0132105Y0104769D01*
X0132042Y0104895D01*
X0131976Y0105019D01*
X0131907Y0105140D01*
X0131834Y0105260D01*
X0131757Y0105378D01*
X0131678Y0105493D01*
X0131595Y0105607D01*
X0131509Y0105717D01*
X0131420Y0105826D01*
X0131328Y0105932D01*
X0131233Y0106035D01*
X0131136Y0106136D01*
X0131035Y0106233D01*
X0130932Y0106328D01*
X0130826Y0106420D01*
X0130717Y0106509D01*
X0130607Y0106595D01*
X0130493Y0106678D01*
X0130378Y0106757D01*
X0130260Y0106834D01*
X0130140Y0106907D01*
X0130019Y0106976D01*
X0129895Y0107042D01*
X0129769Y0107105D01*
X0129642Y0107164D01*
X0129513Y0107219D01*
X0129383Y0107271D01*
X0129251Y0107319D01*
X0129118Y0107364D01*
X0128984Y0107405D01*
X0128849Y0107442D01*
X0128713Y0107475D01*
X0128575Y0107504D01*
X0128438Y0107529D01*
X0128299Y0107551D01*
X0128160Y0107569D01*
X0128020Y0107582D01*
X0127880Y0107592D01*
X0127740Y0107598D01*
X0127600Y0107600D01*
X0127600Y0112600D01*
X0267600Y0112600D01*
X0267600Y0092600D01*
X0128100Y0092600D01*
X0237600Y0139600D02*
X0237600Y0145600D01*
X0237602Y0145660D01*
X0237607Y0145721D01*
X0237616Y0145780D01*
X0237629Y0145839D01*
X0237645Y0145898D01*
X0237665Y0145955D01*
X0237688Y0146010D01*
X0237715Y0146065D01*
X0237744Y0146117D01*
X0237777Y0146168D01*
X0237813Y0146217D01*
X0237851Y0146263D01*
X0237893Y0146307D01*
X0237937Y0146349D01*
X0237983Y0146387D01*
X0238032Y0146423D01*
X0238083Y0146456D01*
X0238135Y0146485D01*
X0238190Y0146512D01*
X0238245Y0146535D01*
X0238302Y0146555D01*
X0238361Y0146571D01*
X0238420Y0146584D01*
X0238479Y0146593D01*
X0238540Y0146598D01*
X0238600Y0146600D01*
X0240100Y0146600D01*
X0240600Y0146100D01*
X0254600Y0146100D01*
X0255100Y0146600D01*
X0256600Y0146600D01*
X0256660Y0146598D01*
X0256721Y0146593D01*
X0256780Y0146584D01*
X0256839Y0146571D01*
X0256898Y0146555D01*
X0256955Y0146535D01*
X0257010Y0146512D01*
X0257065Y0146485D01*
X0257117Y0146456D01*
X0257168Y0146423D01*
X0257217Y0146387D01*
X0257263Y0146349D01*
X0257307Y0146307D01*
X0257349Y0146263D01*
X0257387Y0146217D01*
X0257423Y0146168D01*
X0257456Y0146117D01*
X0257485Y0146065D01*
X0257512Y0146010D01*
X0257535Y0145955D01*
X0257555Y0145898D01*
X0257571Y0145839D01*
X0257584Y0145780D01*
X0257593Y0145721D01*
X0257598Y0145660D01*
X0257600Y0145600D01*
X0257600Y0139600D01*
X0257598Y0139540D01*
X0257593Y0139479D01*
X0257584Y0139420D01*
X0257571Y0139361D01*
X0257555Y0139302D01*
X0257535Y0139245D01*
X0257512Y0139190D01*
X0257485Y0139135D01*
X0257456Y0139083D01*
X0257423Y0139032D01*
X0257387Y0138983D01*
X0257349Y0138937D01*
X0257307Y0138893D01*
X0257263Y0138851D01*
X0257217Y0138813D01*
X0257168Y0138777D01*
X0257117Y0138744D01*
X0257065Y0138715D01*
X0257010Y0138688D01*
X0256955Y0138665D01*
X0256898Y0138645D01*
X0256839Y0138629D01*
X0256780Y0138616D01*
X0256721Y0138607D01*
X0256660Y0138602D01*
X0256600Y0138600D01*
X0255100Y0138600D01*
X0254600Y0139100D01*
X0240600Y0139100D01*
X0240100Y0138600D01*
X0238600Y0138600D01*
X0238540Y0138602D01*
X0238479Y0138607D01*
X0238420Y0138616D01*
X0238361Y0138629D01*
X0238302Y0138645D01*
X0238245Y0138665D01*
X0238190Y0138688D01*
X0238135Y0138715D01*
X0238083Y0138744D01*
X0238032Y0138777D01*
X0237983Y0138813D01*
X0237937Y0138851D01*
X0237893Y0138893D01*
X0237851Y0138937D01*
X0237813Y0138983D01*
X0237777Y0139032D01*
X0237744Y0139083D01*
X0237715Y0139135D01*
X0237688Y0139190D01*
X0237665Y0139245D01*
X0237645Y0139302D01*
X0237629Y0139361D01*
X0237616Y0139420D01*
X0237607Y0139479D01*
X0237602Y0139540D01*
X0237600Y0139600D01*
X0277600Y0120600D02*
X0277600Y0114600D01*
X0277602Y0114540D01*
X0277607Y0114479D01*
X0277616Y0114420D01*
X0277629Y0114361D01*
X0277645Y0114302D01*
X0277665Y0114245D01*
X0277688Y0114190D01*
X0277715Y0114135D01*
X0277744Y0114083D01*
X0277777Y0114032D01*
X0277813Y0113983D01*
X0277851Y0113937D01*
X0277893Y0113893D01*
X0277937Y0113851D01*
X0277983Y0113813D01*
X0278032Y0113777D01*
X0278083Y0113744D01*
X0278135Y0113715D01*
X0278190Y0113688D01*
X0278245Y0113665D01*
X0278302Y0113645D01*
X0278361Y0113629D01*
X0278420Y0113616D01*
X0278479Y0113607D01*
X0278540Y0113602D01*
X0278600Y0113600D01*
X0280100Y0113600D01*
X0280600Y0114100D01*
X0294600Y0114100D01*
X0295100Y0113600D01*
X0296600Y0113600D01*
X0296660Y0113602D01*
X0296721Y0113607D01*
X0296780Y0113616D01*
X0296839Y0113629D01*
X0296898Y0113645D01*
X0296955Y0113665D01*
X0297010Y0113688D01*
X0297065Y0113715D01*
X0297117Y0113744D01*
X0297168Y0113777D01*
X0297217Y0113813D01*
X0297263Y0113851D01*
X0297307Y0113893D01*
X0297349Y0113937D01*
X0297387Y0113983D01*
X0297423Y0114032D01*
X0297456Y0114083D01*
X0297485Y0114135D01*
X0297512Y0114190D01*
X0297535Y0114245D01*
X0297555Y0114302D01*
X0297571Y0114361D01*
X0297584Y0114420D01*
X0297593Y0114479D01*
X0297598Y0114540D01*
X0297600Y0114600D01*
X0297600Y0120600D01*
X0297598Y0120660D01*
X0297593Y0120721D01*
X0297584Y0120780D01*
X0297571Y0120839D01*
X0297555Y0120898D01*
X0297535Y0120955D01*
X0297512Y0121010D01*
X0297485Y0121065D01*
X0297456Y0121117D01*
X0297423Y0121168D01*
X0297387Y0121217D01*
X0297349Y0121263D01*
X0297307Y0121307D01*
X0297263Y0121349D01*
X0297217Y0121387D01*
X0297168Y0121423D01*
X0297117Y0121456D01*
X0297065Y0121485D01*
X0297010Y0121512D01*
X0296955Y0121535D01*
X0296898Y0121555D01*
X0296839Y0121571D01*
X0296780Y0121584D01*
X0296721Y0121593D01*
X0296660Y0121598D01*
X0296600Y0121600D01*
X0295100Y0121600D01*
X0294600Y0121100D01*
X0280600Y0121100D01*
X0280100Y0121600D01*
X0278600Y0121600D01*
X0278540Y0121598D01*
X0278479Y0121593D01*
X0278420Y0121584D01*
X0278361Y0121571D01*
X0278302Y0121555D01*
X0278245Y0121535D01*
X0278190Y0121512D01*
X0278135Y0121485D01*
X0278083Y0121456D01*
X0278032Y0121423D01*
X0277983Y0121387D01*
X0277937Y0121349D01*
X0277893Y0121307D01*
X0277851Y0121263D01*
X0277813Y0121217D01*
X0277777Y0121168D01*
X0277744Y0121117D01*
X0277715Y0121065D01*
X0277688Y0121010D01*
X0277665Y0120955D01*
X0277645Y0120898D01*
X0277629Y0120839D01*
X0277616Y0120780D01*
X0277607Y0120721D01*
X0277602Y0120660D01*
X0277600Y0120600D01*
X0278600Y0111600D02*
X0280100Y0111600D01*
X0280600Y0111100D01*
X0294600Y0111100D01*
X0295100Y0111600D01*
X0296600Y0111600D01*
X0296660Y0111598D01*
X0296721Y0111593D01*
X0296780Y0111584D01*
X0296839Y0111571D01*
X0296898Y0111555D01*
X0296955Y0111535D01*
X0297010Y0111512D01*
X0297065Y0111485D01*
X0297117Y0111456D01*
X0297168Y0111423D01*
X0297217Y0111387D01*
X0297263Y0111349D01*
X0297307Y0111307D01*
X0297349Y0111263D01*
X0297387Y0111217D01*
X0297423Y0111168D01*
X0297456Y0111117D01*
X0297485Y0111065D01*
X0297512Y0111010D01*
X0297535Y0110955D01*
X0297555Y0110898D01*
X0297571Y0110839D01*
X0297584Y0110780D01*
X0297593Y0110721D01*
X0297598Y0110660D01*
X0297600Y0110600D01*
X0297600Y0104600D01*
X0297598Y0104540D01*
X0297593Y0104479D01*
X0297584Y0104420D01*
X0297571Y0104361D01*
X0297555Y0104302D01*
X0297535Y0104245D01*
X0297512Y0104190D01*
X0297485Y0104135D01*
X0297456Y0104083D01*
X0297423Y0104032D01*
X0297387Y0103983D01*
X0297349Y0103937D01*
X0297307Y0103893D01*
X0297263Y0103851D01*
X0297217Y0103813D01*
X0297168Y0103777D01*
X0297117Y0103744D01*
X0297065Y0103715D01*
X0297010Y0103688D01*
X0296955Y0103665D01*
X0296898Y0103645D01*
X0296839Y0103629D01*
X0296780Y0103616D01*
X0296721Y0103607D01*
X0296660Y0103602D01*
X0296600Y0103600D01*
X0295100Y0103600D01*
X0294600Y0104100D01*
X0280600Y0104100D01*
X0280100Y0103600D01*
X0278600Y0103600D01*
X0278540Y0103602D01*
X0278479Y0103607D01*
X0278420Y0103616D01*
X0278361Y0103629D01*
X0278302Y0103645D01*
X0278245Y0103665D01*
X0278190Y0103688D01*
X0278135Y0103715D01*
X0278083Y0103744D01*
X0278032Y0103777D01*
X0277983Y0103813D01*
X0277937Y0103851D01*
X0277893Y0103893D01*
X0277851Y0103937D01*
X0277813Y0103983D01*
X0277777Y0104032D01*
X0277744Y0104083D01*
X0277715Y0104135D01*
X0277688Y0104190D01*
X0277665Y0104245D01*
X0277645Y0104302D01*
X0277629Y0104361D01*
X0277616Y0104420D01*
X0277607Y0104479D01*
X0277602Y0104540D01*
X0277600Y0104600D01*
X0277600Y0110600D01*
X0277602Y0110660D01*
X0277607Y0110721D01*
X0277616Y0110780D01*
X0277629Y0110839D01*
X0277645Y0110898D01*
X0277665Y0110955D01*
X0277688Y0111010D01*
X0277715Y0111065D01*
X0277744Y0111117D01*
X0277777Y0111168D01*
X0277813Y0111217D01*
X0277851Y0111263D01*
X0277893Y0111307D01*
X0277937Y0111349D01*
X0277983Y0111387D01*
X0278032Y0111423D01*
X0278083Y0111456D01*
X0278135Y0111485D01*
X0278190Y0111512D01*
X0278245Y0111535D01*
X0278302Y0111555D01*
X0278361Y0111571D01*
X0278420Y0111584D01*
X0278479Y0111593D01*
X0278540Y0111598D01*
X0278600Y0111600D01*
X0278600Y0101600D02*
X0280100Y0101600D01*
X0280600Y0101100D01*
X0294600Y0101100D01*
X0295100Y0101600D01*
X0296600Y0101600D01*
X0296660Y0101598D01*
X0296721Y0101593D01*
X0296780Y0101584D01*
X0296839Y0101571D01*
X0296898Y0101555D01*
X0296955Y0101535D01*
X0297010Y0101512D01*
X0297065Y0101485D01*
X0297117Y0101456D01*
X0297168Y0101423D01*
X0297217Y0101387D01*
X0297263Y0101349D01*
X0297307Y0101307D01*
X0297349Y0101263D01*
X0297387Y0101217D01*
X0297423Y0101168D01*
X0297456Y0101117D01*
X0297485Y0101065D01*
X0297512Y0101010D01*
X0297535Y0100955D01*
X0297555Y0100898D01*
X0297571Y0100839D01*
X0297584Y0100780D01*
X0297593Y0100721D01*
X0297598Y0100660D01*
X0297600Y0100600D01*
X0297600Y0094600D01*
X0297598Y0094540D01*
X0297593Y0094479D01*
X0297584Y0094420D01*
X0297571Y0094361D01*
X0297555Y0094302D01*
X0297535Y0094245D01*
X0297512Y0094190D01*
X0297485Y0094135D01*
X0297456Y0094083D01*
X0297423Y0094032D01*
X0297387Y0093983D01*
X0297349Y0093937D01*
X0297307Y0093893D01*
X0297263Y0093851D01*
X0297217Y0093813D01*
X0297168Y0093777D01*
X0297117Y0093744D01*
X0297065Y0093715D01*
X0297010Y0093688D01*
X0296955Y0093665D01*
X0296898Y0093645D01*
X0296839Y0093629D01*
X0296780Y0093616D01*
X0296721Y0093607D01*
X0296660Y0093602D01*
X0296600Y0093600D01*
X0295100Y0093600D01*
X0294600Y0094100D01*
X0280600Y0094100D01*
X0280100Y0093600D01*
X0278600Y0093600D01*
X0278540Y0093602D01*
X0278479Y0093607D01*
X0278420Y0093616D01*
X0278361Y0093629D01*
X0278302Y0093645D01*
X0278245Y0093665D01*
X0278190Y0093688D01*
X0278135Y0093715D01*
X0278083Y0093744D01*
X0278032Y0093777D01*
X0277983Y0093813D01*
X0277937Y0093851D01*
X0277893Y0093893D01*
X0277851Y0093937D01*
X0277813Y0093983D01*
X0277777Y0094032D01*
X0277744Y0094083D01*
X0277715Y0094135D01*
X0277688Y0094190D01*
X0277665Y0094245D01*
X0277645Y0094302D01*
X0277629Y0094361D01*
X0277616Y0094420D01*
X0277607Y0094479D01*
X0277602Y0094540D01*
X0277600Y0094600D01*
X0277600Y0100600D01*
X0277602Y0100660D01*
X0277607Y0100721D01*
X0277616Y0100780D01*
X0277629Y0100839D01*
X0277645Y0100898D01*
X0277665Y0100955D01*
X0277688Y0101010D01*
X0277715Y0101065D01*
X0277744Y0101117D01*
X0277777Y0101168D01*
X0277813Y0101217D01*
X0277851Y0101263D01*
X0277893Y0101307D01*
X0277937Y0101349D01*
X0277983Y0101387D01*
X0278032Y0101423D01*
X0278083Y0101456D01*
X0278135Y0101485D01*
X0278190Y0101512D01*
X0278245Y0101535D01*
X0278302Y0101555D01*
X0278361Y0101571D01*
X0278420Y0101584D01*
X0278479Y0101593D01*
X0278540Y0101598D01*
X0278600Y0101600D01*
X0312600Y0100100D02*
X0312600Y0095100D01*
X0315100Y0092600D01*
X0320100Y0092600D01*
X0322600Y0095100D01*
X0322600Y0100100D01*
X0320100Y0102600D01*
X0322600Y0105100D01*
X0322600Y0110100D01*
X0320100Y0112600D01*
X0322600Y0115100D01*
X0322600Y0120100D01*
X0320100Y0122600D01*
X0315100Y0122600D01*
X0312600Y0120100D01*
X0312600Y0115100D01*
X0315100Y0112600D01*
X0312600Y0110100D01*
X0312600Y0105100D01*
X0315100Y0102600D01*
X0312600Y0100100D01*
X0332600Y0100100D02*
X0332600Y0095100D01*
X0335100Y0092600D01*
X0340100Y0092600D01*
X0342600Y0095100D01*
X0342600Y0100100D01*
X0340100Y0102600D01*
X0342600Y0105100D01*
X0342600Y0110100D01*
X0340100Y0112600D01*
X0342600Y0115100D01*
X0342600Y0120100D01*
X0340100Y0122600D01*
X0335100Y0122600D01*
X0332600Y0120100D01*
X0332600Y0115100D01*
X0335100Y0112600D01*
X0340100Y0112600D01*
X0335100Y0112600D02*
X0332600Y0110100D01*
X0332600Y0105100D01*
X0335100Y0102600D01*
X0340100Y0102600D01*
X0335100Y0102600D02*
X0332600Y0100100D01*
X0352600Y0100100D02*
X0352600Y0095100D01*
X0355100Y0092600D01*
X0360100Y0092600D01*
X0362600Y0095100D01*
X0362600Y0100100D01*
X0360100Y0102600D01*
X0362600Y0105100D01*
X0362600Y0110100D01*
X0360100Y0112600D01*
X0362600Y0115100D01*
X0362600Y0120100D01*
X0360100Y0122600D01*
X0355100Y0122600D01*
X0352600Y0120100D01*
X0352600Y0115100D01*
X0355100Y0112600D01*
X0360100Y0112600D01*
X0355100Y0112600D02*
X0352600Y0110100D01*
X0352600Y0105100D01*
X0355100Y0102600D01*
X0360100Y0102600D01*
X0355100Y0102600D02*
X0352600Y0100100D01*
X0355600Y0212600D02*
X0349600Y0212600D01*
X0349540Y0212602D01*
X0349479Y0212607D01*
X0349420Y0212616D01*
X0349361Y0212629D01*
X0349302Y0212645D01*
X0349245Y0212665D01*
X0349190Y0212688D01*
X0349135Y0212715D01*
X0349083Y0212744D01*
X0349032Y0212777D01*
X0348983Y0212813D01*
X0348937Y0212851D01*
X0348893Y0212893D01*
X0348851Y0212937D01*
X0348813Y0212983D01*
X0348777Y0213032D01*
X0348744Y0213083D01*
X0348715Y0213135D01*
X0348688Y0213190D01*
X0348665Y0213245D01*
X0348645Y0213302D01*
X0348629Y0213361D01*
X0348616Y0213420D01*
X0348607Y0213479D01*
X0348602Y0213540D01*
X0348600Y0213600D01*
X0348600Y0215100D01*
X0349100Y0215600D01*
X0349100Y0229600D01*
X0348600Y0230100D01*
X0348600Y0231600D01*
X0348602Y0231660D01*
X0348607Y0231721D01*
X0348616Y0231780D01*
X0348629Y0231839D01*
X0348645Y0231898D01*
X0348665Y0231955D01*
X0348688Y0232010D01*
X0348715Y0232065D01*
X0348744Y0232117D01*
X0348777Y0232168D01*
X0348813Y0232217D01*
X0348851Y0232263D01*
X0348893Y0232307D01*
X0348937Y0232349D01*
X0348983Y0232387D01*
X0349032Y0232423D01*
X0349083Y0232456D01*
X0349135Y0232485D01*
X0349190Y0232512D01*
X0349245Y0232535D01*
X0349302Y0232555D01*
X0349361Y0232571D01*
X0349420Y0232584D01*
X0349479Y0232593D01*
X0349540Y0232598D01*
X0349600Y0232600D01*
X0355600Y0232600D01*
X0355660Y0232598D01*
X0355721Y0232593D01*
X0355780Y0232584D01*
X0355839Y0232571D01*
X0355898Y0232555D01*
X0355955Y0232535D01*
X0356010Y0232512D01*
X0356065Y0232485D01*
X0356117Y0232456D01*
X0356168Y0232423D01*
X0356217Y0232387D01*
X0356263Y0232349D01*
X0356307Y0232307D01*
X0356349Y0232263D01*
X0356387Y0232217D01*
X0356423Y0232168D01*
X0356456Y0232117D01*
X0356485Y0232065D01*
X0356512Y0232010D01*
X0356535Y0231955D01*
X0356555Y0231898D01*
X0356571Y0231839D01*
X0356584Y0231780D01*
X0356593Y0231721D01*
X0356598Y0231660D01*
X0356600Y0231600D01*
X0356600Y0230100D01*
X0356100Y0229600D01*
X0356100Y0215600D01*
X0356600Y0215100D01*
X0356600Y0213600D01*
X0356598Y0213540D01*
X0356593Y0213479D01*
X0356584Y0213420D01*
X0356571Y0213361D01*
X0356555Y0213302D01*
X0356535Y0213245D01*
X0356512Y0213190D01*
X0356485Y0213135D01*
X0356456Y0213083D01*
X0356423Y0213032D01*
X0356387Y0212983D01*
X0356349Y0212937D01*
X0356307Y0212893D01*
X0356263Y0212851D01*
X0356217Y0212813D01*
X0356168Y0212777D01*
X0356117Y0212744D01*
X0356065Y0212715D01*
X0356010Y0212688D01*
X0355955Y0212665D01*
X0355898Y0212645D01*
X0355839Y0212629D01*
X0355780Y0212616D01*
X0355721Y0212607D01*
X0355660Y0212602D01*
X0355600Y0212600D01*
X0316600Y0213600D02*
X0316600Y0215100D01*
X0316100Y0215600D01*
X0316100Y0229600D01*
X0316600Y0230100D01*
X0316600Y0231600D01*
X0316598Y0231660D01*
X0316593Y0231721D01*
X0316584Y0231780D01*
X0316571Y0231839D01*
X0316555Y0231898D01*
X0316535Y0231955D01*
X0316512Y0232010D01*
X0316485Y0232065D01*
X0316456Y0232117D01*
X0316423Y0232168D01*
X0316387Y0232217D01*
X0316349Y0232263D01*
X0316307Y0232307D01*
X0316263Y0232349D01*
X0316217Y0232387D01*
X0316168Y0232423D01*
X0316117Y0232456D01*
X0316065Y0232485D01*
X0316010Y0232512D01*
X0315955Y0232535D01*
X0315898Y0232555D01*
X0315839Y0232571D01*
X0315780Y0232584D01*
X0315721Y0232593D01*
X0315660Y0232598D01*
X0315600Y0232600D01*
X0309600Y0232600D01*
X0309540Y0232598D01*
X0309479Y0232593D01*
X0309420Y0232584D01*
X0309361Y0232571D01*
X0309302Y0232555D01*
X0309245Y0232535D01*
X0309190Y0232512D01*
X0309135Y0232485D01*
X0309083Y0232456D01*
X0309032Y0232423D01*
X0308983Y0232387D01*
X0308937Y0232349D01*
X0308893Y0232307D01*
X0308851Y0232263D01*
X0308813Y0232217D01*
X0308777Y0232168D01*
X0308744Y0232117D01*
X0308715Y0232065D01*
X0308688Y0232010D01*
X0308665Y0231955D01*
X0308645Y0231898D01*
X0308629Y0231839D01*
X0308616Y0231780D01*
X0308607Y0231721D01*
X0308602Y0231660D01*
X0308600Y0231600D01*
X0308600Y0230100D01*
X0309100Y0229600D01*
X0309100Y0215600D01*
X0308600Y0215100D01*
X0308600Y0213600D01*
X0308602Y0213540D01*
X0308607Y0213479D01*
X0308616Y0213420D01*
X0308629Y0213361D01*
X0308645Y0213302D01*
X0308665Y0213245D01*
X0308688Y0213190D01*
X0308715Y0213135D01*
X0308744Y0213083D01*
X0308777Y0213032D01*
X0308813Y0212983D01*
X0308851Y0212937D01*
X0308893Y0212893D01*
X0308937Y0212851D01*
X0308983Y0212813D01*
X0309032Y0212777D01*
X0309083Y0212744D01*
X0309135Y0212715D01*
X0309190Y0212688D01*
X0309245Y0212665D01*
X0309302Y0212645D01*
X0309361Y0212629D01*
X0309420Y0212616D01*
X0309479Y0212607D01*
X0309540Y0212602D01*
X0309600Y0212600D01*
X0315600Y0212600D01*
X0315660Y0212602D01*
X0315721Y0212607D01*
X0315780Y0212616D01*
X0315839Y0212629D01*
X0315898Y0212645D01*
X0315955Y0212665D01*
X0316010Y0212688D01*
X0316065Y0212715D01*
X0316117Y0212744D01*
X0316168Y0212777D01*
X0316217Y0212813D01*
X0316263Y0212851D01*
X0316307Y0212893D01*
X0316349Y0212937D01*
X0316387Y0212983D01*
X0316423Y0213032D01*
X0316456Y0213083D01*
X0316485Y0213135D01*
X0316512Y0213190D01*
X0316535Y0213245D01*
X0316555Y0213302D01*
X0316571Y0213361D01*
X0316584Y0213420D01*
X0316593Y0213479D01*
X0316598Y0213540D01*
X0316600Y0213600D01*
X0276600Y0213600D02*
X0276600Y0215100D01*
X0276100Y0215600D01*
X0276100Y0229600D01*
X0276600Y0230100D01*
X0276600Y0231600D01*
X0276598Y0231660D01*
X0276593Y0231721D01*
X0276584Y0231780D01*
X0276571Y0231839D01*
X0276555Y0231898D01*
X0276535Y0231955D01*
X0276512Y0232010D01*
X0276485Y0232065D01*
X0276456Y0232117D01*
X0276423Y0232168D01*
X0276387Y0232217D01*
X0276349Y0232263D01*
X0276307Y0232307D01*
X0276263Y0232349D01*
X0276217Y0232387D01*
X0276168Y0232423D01*
X0276117Y0232456D01*
X0276065Y0232485D01*
X0276010Y0232512D01*
X0275955Y0232535D01*
X0275898Y0232555D01*
X0275839Y0232571D01*
X0275780Y0232584D01*
X0275721Y0232593D01*
X0275660Y0232598D01*
X0275600Y0232600D01*
X0269600Y0232600D01*
X0269540Y0232598D01*
X0269479Y0232593D01*
X0269420Y0232584D01*
X0269361Y0232571D01*
X0269302Y0232555D01*
X0269245Y0232535D01*
X0269190Y0232512D01*
X0269135Y0232485D01*
X0269083Y0232456D01*
X0269032Y0232423D01*
X0268983Y0232387D01*
X0268937Y0232349D01*
X0268893Y0232307D01*
X0268851Y0232263D01*
X0268813Y0232217D01*
X0268777Y0232168D01*
X0268744Y0232117D01*
X0268715Y0232065D01*
X0268688Y0232010D01*
X0268665Y0231955D01*
X0268645Y0231898D01*
X0268629Y0231839D01*
X0268616Y0231780D01*
X0268607Y0231721D01*
X0268602Y0231660D01*
X0268600Y0231600D01*
X0268600Y0230100D01*
X0269100Y0229600D01*
X0269100Y0215600D01*
X0268600Y0215100D01*
X0268600Y0213600D01*
X0268602Y0213540D01*
X0268607Y0213479D01*
X0268616Y0213420D01*
X0268629Y0213361D01*
X0268645Y0213302D01*
X0268665Y0213245D01*
X0268688Y0213190D01*
X0268715Y0213135D01*
X0268744Y0213083D01*
X0268777Y0213032D01*
X0268813Y0212983D01*
X0268851Y0212937D01*
X0268893Y0212893D01*
X0268937Y0212851D01*
X0268983Y0212813D01*
X0269032Y0212777D01*
X0269083Y0212744D01*
X0269135Y0212715D01*
X0269190Y0212688D01*
X0269245Y0212665D01*
X0269302Y0212645D01*
X0269361Y0212629D01*
X0269420Y0212616D01*
X0269479Y0212607D01*
X0269540Y0212602D01*
X0269600Y0212600D01*
X0275600Y0212600D01*
X0275660Y0212602D01*
X0275721Y0212607D01*
X0275780Y0212616D01*
X0275839Y0212629D01*
X0275898Y0212645D01*
X0275955Y0212665D01*
X0276010Y0212688D01*
X0276065Y0212715D01*
X0276117Y0212744D01*
X0276168Y0212777D01*
X0276217Y0212813D01*
X0276263Y0212851D01*
X0276307Y0212893D01*
X0276349Y0212937D01*
X0276387Y0212983D01*
X0276423Y0213032D01*
X0276456Y0213083D01*
X0276485Y0213135D01*
X0276512Y0213190D01*
X0276535Y0213245D01*
X0276555Y0213302D01*
X0276571Y0213361D01*
X0276584Y0213420D01*
X0276593Y0213479D01*
X0276598Y0213540D01*
X0276600Y0213600D01*
X0236600Y0213600D02*
X0236600Y0215100D01*
X0236100Y0215600D01*
X0236100Y0229600D01*
X0236600Y0230100D01*
X0236600Y0231600D01*
X0236598Y0231660D01*
X0236593Y0231721D01*
X0236584Y0231780D01*
X0236571Y0231839D01*
X0236555Y0231898D01*
X0236535Y0231955D01*
X0236512Y0232010D01*
X0236485Y0232065D01*
X0236456Y0232117D01*
X0236423Y0232168D01*
X0236387Y0232217D01*
X0236349Y0232263D01*
X0236307Y0232307D01*
X0236263Y0232349D01*
X0236217Y0232387D01*
X0236168Y0232423D01*
X0236117Y0232456D01*
X0236065Y0232485D01*
X0236010Y0232512D01*
X0235955Y0232535D01*
X0235898Y0232555D01*
X0235839Y0232571D01*
X0235780Y0232584D01*
X0235721Y0232593D01*
X0235660Y0232598D01*
X0235600Y0232600D01*
X0229600Y0232600D01*
X0229540Y0232598D01*
X0229479Y0232593D01*
X0229420Y0232584D01*
X0229361Y0232571D01*
X0229302Y0232555D01*
X0229245Y0232535D01*
X0229190Y0232512D01*
X0229135Y0232485D01*
X0229083Y0232456D01*
X0229032Y0232423D01*
X0228983Y0232387D01*
X0228937Y0232349D01*
X0228893Y0232307D01*
X0228851Y0232263D01*
X0228813Y0232217D01*
X0228777Y0232168D01*
X0228744Y0232117D01*
X0228715Y0232065D01*
X0228688Y0232010D01*
X0228665Y0231955D01*
X0228645Y0231898D01*
X0228629Y0231839D01*
X0228616Y0231780D01*
X0228607Y0231721D01*
X0228602Y0231660D01*
X0228600Y0231600D01*
X0228600Y0230100D01*
X0229100Y0229600D01*
X0229100Y0215600D01*
X0228600Y0215100D01*
X0228600Y0213600D01*
X0228602Y0213540D01*
X0228607Y0213479D01*
X0228616Y0213420D01*
X0228629Y0213361D01*
X0228645Y0213302D01*
X0228665Y0213245D01*
X0228688Y0213190D01*
X0228715Y0213135D01*
X0228744Y0213083D01*
X0228777Y0213032D01*
X0228813Y0212983D01*
X0228851Y0212937D01*
X0228893Y0212893D01*
X0228937Y0212851D01*
X0228983Y0212813D01*
X0229032Y0212777D01*
X0229083Y0212744D01*
X0229135Y0212715D01*
X0229190Y0212688D01*
X0229245Y0212665D01*
X0229302Y0212645D01*
X0229361Y0212629D01*
X0229420Y0212616D01*
X0229479Y0212607D01*
X0229540Y0212602D01*
X0229600Y0212600D01*
X0235600Y0212600D01*
X0235660Y0212602D01*
X0235721Y0212607D01*
X0235780Y0212616D01*
X0235839Y0212629D01*
X0235898Y0212645D01*
X0235955Y0212665D01*
X0236010Y0212688D01*
X0236065Y0212715D01*
X0236117Y0212744D01*
X0236168Y0212777D01*
X0236217Y0212813D01*
X0236263Y0212851D01*
X0236307Y0212893D01*
X0236349Y0212937D01*
X0236387Y0212983D01*
X0236423Y0213032D01*
X0236456Y0213083D01*
X0236485Y0213135D01*
X0236512Y0213190D01*
X0236535Y0213245D01*
X0236555Y0213302D01*
X0236571Y0213361D01*
X0236584Y0213420D01*
X0236593Y0213479D01*
X0236598Y0213540D01*
X0236600Y0213600D01*
X0196600Y0213600D02*
X0196600Y0215100D01*
X0196100Y0215600D01*
X0196100Y0229600D01*
X0196600Y0230100D01*
X0196600Y0231600D01*
X0196598Y0231660D01*
X0196593Y0231721D01*
X0196584Y0231780D01*
X0196571Y0231839D01*
X0196555Y0231898D01*
X0196535Y0231955D01*
X0196512Y0232010D01*
X0196485Y0232065D01*
X0196456Y0232117D01*
X0196423Y0232168D01*
X0196387Y0232217D01*
X0196349Y0232263D01*
X0196307Y0232307D01*
X0196263Y0232349D01*
X0196217Y0232387D01*
X0196168Y0232423D01*
X0196117Y0232456D01*
X0196065Y0232485D01*
X0196010Y0232512D01*
X0195955Y0232535D01*
X0195898Y0232555D01*
X0195839Y0232571D01*
X0195780Y0232584D01*
X0195721Y0232593D01*
X0195660Y0232598D01*
X0195600Y0232600D01*
X0189600Y0232600D01*
X0189540Y0232598D01*
X0189479Y0232593D01*
X0189420Y0232584D01*
X0189361Y0232571D01*
X0189302Y0232555D01*
X0189245Y0232535D01*
X0189190Y0232512D01*
X0189135Y0232485D01*
X0189083Y0232456D01*
X0189032Y0232423D01*
X0188983Y0232387D01*
X0188937Y0232349D01*
X0188893Y0232307D01*
X0188851Y0232263D01*
X0188813Y0232217D01*
X0188777Y0232168D01*
X0188744Y0232117D01*
X0188715Y0232065D01*
X0188688Y0232010D01*
X0188665Y0231955D01*
X0188645Y0231898D01*
X0188629Y0231839D01*
X0188616Y0231780D01*
X0188607Y0231721D01*
X0188602Y0231660D01*
X0188600Y0231600D01*
X0188600Y0230100D01*
X0189100Y0229600D01*
X0189100Y0215600D01*
X0188600Y0215100D01*
X0188600Y0213600D01*
X0188602Y0213540D01*
X0188607Y0213479D01*
X0188616Y0213420D01*
X0188629Y0213361D01*
X0188645Y0213302D01*
X0188665Y0213245D01*
X0188688Y0213190D01*
X0188715Y0213135D01*
X0188744Y0213083D01*
X0188777Y0213032D01*
X0188813Y0212983D01*
X0188851Y0212937D01*
X0188893Y0212893D01*
X0188937Y0212851D01*
X0188983Y0212813D01*
X0189032Y0212777D01*
X0189083Y0212744D01*
X0189135Y0212715D01*
X0189190Y0212688D01*
X0189245Y0212665D01*
X0189302Y0212645D01*
X0189361Y0212629D01*
X0189420Y0212616D01*
X0189479Y0212607D01*
X0189540Y0212602D01*
X0189600Y0212600D01*
X0195600Y0212600D01*
X0195660Y0212602D01*
X0195721Y0212607D01*
X0195780Y0212616D01*
X0195839Y0212629D01*
X0195898Y0212645D01*
X0195955Y0212665D01*
X0196010Y0212688D01*
X0196065Y0212715D01*
X0196117Y0212744D01*
X0196168Y0212777D01*
X0196217Y0212813D01*
X0196263Y0212851D01*
X0196307Y0212893D01*
X0196349Y0212937D01*
X0196387Y0212983D01*
X0196423Y0213032D01*
X0196456Y0213083D01*
X0196485Y0213135D01*
X0196512Y0213190D01*
X0196535Y0213245D01*
X0196555Y0213302D01*
X0196571Y0213361D01*
X0196584Y0213420D01*
X0196593Y0213479D01*
X0196598Y0213540D01*
X0196600Y0213600D01*
X0156600Y0213600D02*
X0156600Y0215100D01*
X0156100Y0215600D01*
X0156100Y0229600D01*
X0156600Y0230100D01*
X0156600Y0231600D01*
X0156598Y0231660D01*
X0156593Y0231721D01*
X0156584Y0231780D01*
X0156571Y0231839D01*
X0156555Y0231898D01*
X0156535Y0231955D01*
X0156512Y0232010D01*
X0156485Y0232065D01*
X0156456Y0232117D01*
X0156423Y0232168D01*
X0156387Y0232217D01*
X0156349Y0232263D01*
X0156307Y0232307D01*
X0156263Y0232349D01*
X0156217Y0232387D01*
X0156168Y0232423D01*
X0156117Y0232456D01*
X0156065Y0232485D01*
X0156010Y0232512D01*
X0155955Y0232535D01*
X0155898Y0232555D01*
X0155839Y0232571D01*
X0155780Y0232584D01*
X0155721Y0232593D01*
X0155660Y0232598D01*
X0155600Y0232600D01*
X0149600Y0232600D01*
X0149540Y0232598D01*
X0149479Y0232593D01*
X0149420Y0232584D01*
X0149361Y0232571D01*
X0149302Y0232555D01*
X0149245Y0232535D01*
X0149190Y0232512D01*
X0149135Y0232485D01*
X0149083Y0232456D01*
X0149032Y0232423D01*
X0148983Y0232387D01*
X0148937Y0232349D01*
X0148893Y0232307D01*
X0148851Y0232263D01*
X0148813Y0232217D01*
X0148777Y0232168D01*
X0148744Y0232117D01*
X0148715Y0232065D01*
X0148688Y0232010D01*
X0148665Y0231955D01*
X0148645Y0231898D01*
X0148629Y0231839D01*
X0148616Y0231780D01*
X0148607Y0231721D01*
X0148602Y0231660D01*
X0148600Y0231600D01*
X0148600Y0230100D01*
X0149100Y0229600D01*
X0149100Y0215600D01*
X0148600Y0215100D01*
X0148600Y0213600D01*
X0148602Y0213540D01*
X0148607Y0213479D01*
X0148616Y0213420D01*
X0148629Y0213361D01*
X0148645Y0213302D01*
X0148665Y0213245D01*
X0148688Y0213190D01*
X0148715Y0213135D01*
X0148744Y0213083D01*
X0148777Y0213032D01*
X0148813Y0212983D01*
X0148851Y0212937D01*
X0148893Y0212893D01*
X0148937Y0212851D01*
X0148983Y0212813D01*
X0149032Y0212777D01*
X0149083Y0212744D01*
X0149135Y0212715D01*
X0149190Y0212688D01*
X0149245Y0212665D01*
X0149302Y0212645D01*
X0149361Y0212629D01*
X0149420Y0212616D01*
X0149479Y0212607D01*
X0149540Y0212602D01*
X0149600Y0212600D01*
X0155600Y0212600D01*
X0155660Y0212602D01*
X0155721Y0212607D01*
X0155780Y0212616D01*
X0155839Y0212629D01*
X0155898Y0212645D01*
X0155955Y0212665D01*
X0156010Y0212688D01*
X0156065Y0212715D01*
X0156117Y0212744D01*
X0156168Y0212777D01*
X0156217Y0212813D01*
X0156263Y0212851D01*
X0156307Y0212893D01*
X0156349Y0212937D01*
X0156387Y0212983D01*
X0156423Y0213032D01*
X0156456Y0213083D01*
X0156485Y0213135D01*
X0156512Y0213190D01*
X0156535Y0213245D01*
X0156555Y0213302D01*
X0156571Y0213361D01*
X0156584Y0213420D01*
X0156593Y0213479D01*
X0156598Y0213540D01*
X0156600Y0213600D01*
X0116600Y0213600D02*
X0116600Y0215100D01*
X0116100Y0215600D01*
X0116100Y0229600D01*
X0116600Y0230100D01*
X0116600Y0231600D01*
X0116598Y0231660D01*
X0116593Y0231721D01*
X0116584Y0231780D01*
X0116571Y0231839D01*
X0116555Y0231898D01*
X0116535Y0231955D01*
X0116512Y0232010D01*
X0116485Y0232065D01*
X0116456Y0232117D01*
X0116423Y0232168D01*
X0116387Y0232217D01*
X0116349Y0232263D01*
X0116307Y0232307D01*
X0116263Y0232349D01*
X0116217Y0232387D01*
X0116168Y0232423D01*
X0116117Y0232456D01*
X0116065Y0232485D01*
X0116010Y0232512D01*
X0115955Y0232535D01*
X0115898Y0232555D01*
X0115839Y0232571D01*
X0115780Y0232584D01*
X0115721Y0232593D01*
X0115660Y0232598D01*
X0115600Y0232600D01*
X0109600Y0232600D01*
X0109540Y0232598D01*
X0109479Y0232593D01*
X0109420Y0232584D01*
X0109361Y0232571D01*
X0109302Y0232555D01*
X0109245Y0232535D01*
X0109190Y0232512D01*
X0109135Y0232485D01*
X0109083Y0232456D01*
X0109032Y0232423D01*
X0108983Y0232387D01*
X0108937Y0232349D01*
X0108893Y0232307D01*
X0108851Y0232263D01*
X0108813Y0232217D01*
X0108777Y0232168D01*
X0108744Y0232117D01*
X0108715Y0232065D01*
X0108688Y0232010D01*
X0108665Y0231955D01*
X0108645Y0231898D01*
X0108629Y0231839D01*
X0108616Y0231780D01*
X0108607Y0231721D01*
X0108602Y0231660D01*
X0108600Y0231600D01*
X0108600Y0230100D01*
X0109100Y0229600D01*
X0109100Y0215600D01*
X0108600Y0215100D01*
X0108600Y0213600D01*
X0108602Y0213540D01*
X0108607Y0213479D01*
X0108616Y0213420D01*
X0108629Y0213361D01*
X0108645Y0213302D01*
X0108665Y0213245D01*
X0108688Y0213190D01*
X0108715Y0213135D01*
X0108744Y0213083D01*
X0108777Y0213032D01*
X0108813Y0212983D01*
X0108851Y0212937D01*
X0108893Y0212893D01*
X0108937Y0212851D01*
X0108983Y0212813D01*
X0109032Y0212777D01*
X0109083Y0212744D01*
X0109135Y0212715D01*
X0109190Y0212688D01*
X0109245Y0212665D01*
X0109302Y0212645D01*
X0109361Y0212629D01*
X0109420Y0212616D01*
X0109479Y0212607D01*
X0109540Y0212602D01*
X0109600Y0212600D01*
X0115600Y0212600D01*
X0115660Y0212602D01*
X0115721Y0212607D01*
X0115780Y0212616D01*
X0115839Y0212629D01*
X0115898Y0212645D01*
X0115955Y0212665D01*
X0116010Y0212688D01*
X0116065Y0212715D01*
X0116117Y0212744D01*
X0116168Y0212777D01*
X0116217Y0212813D01*
X0116263Y0212851D01*
X0116307Y0212893D01*
X0116349Y0212937D01*
X0116387Y0212983D01*
X0116423Y0213032D01*
X0116456Y0213083D01*
X0116485Y0213135D01*
X0116512Y0213190D01*
X0116535Y0213245D01*
X0116555Y0213302D01*
X0116571Y0213361D01*
X0116584Y0213420D01*
X0116593Y0213479D01*
X0116598Y0213540D01*
X0116600Y0213600D01*
X0076600Y0213600D02*
X0076600Y0215100D01*
X0076100Y0215600D01*
X0076100Y0229600D01*
X0076600Y0230100D01*
X0076600Y0231600D01*
X0076598Y0231660D01*
X0076593Y0231721D01*
X0076584Y0231780D01*
X0076571Y0231839D01*
X0076555Y0231898D01*
X0076535Y0231955D01*
X0076512Y0232010D01*
X0076485Y0232065D01*
X0076456Y0232117D01*
X0076423Y0232168D01*
X0076387Y0232217D01*
X0076349Y0232263D01*
X0076307Y0232307D01*
X0076263Y0232349D01*
X0076217Y0232387D01*
X0076168Y0232423D01*
X0076117Y0232456D01*
X0076065Y0232485D01*
X0076010Y0232512D01*
X0075955Y0232535D01*
X0075898Y0232555D01*
X0075839Y0232571D01*
X0075780Y0232584D01*
X0075721Y0232593D01*
X0075660Y0232598D01*
X0075600Y0232600D01*
X0069600Y0232600D01*
X0069540Y0232598D01*
X0069479Y0232593D01*
X0069420Y0232584D01*
X0069361Y0232571D01*
X0069302Y0232555D01*
X0069245Y0232535D01*
X0069190Y0232512D01*
X0069135Y0232485D01*
X0069083Y0232456D01*
X0069032Y0232423D01*
X0068983Y0232387D01*
X0068937Y0232349D01*
X0068893Y0232307D01*
X0068851Y0232263D01*
X0068813Y0232217D01*
X0068777Y0232168D01*
X0068744Y0232117D01*
X0068715Y0232065D01*
X0068688Y0232010D01*
X0068665Y0231955D01*
X0068645Y0231898D01*
X0068629Y0231839D01*
X0068616Y0231780D01*
X0068607Y0231721D01*
X0068602Y0231660D01*
X0068600Y0231600D01*
X0068600Y0230100D01*
X0069100Y0229600D01*
X0069100Y0215600D01*
X0068600Y0215100D01*
X0068600Y0213600D01*
X0068602Y0213540D01*
X0068607Y0213479D01*
X0068616Y0213420D01*
X0068629Y0213361D01*
X0068645Y0213302D01*
X0068665Y0213245D01*
X0068688Y0213190D01*
X0068715Y0213135D01*
X0068744Y0213083D01*
X0068777Y0213032D01*
X0068813Y0212983D01*
X0068851Y0212937D01*
X0068893Y0212893D01*
X0068937Y0212851D01*
X0068983Y0212813D01*
X0069032Y0212777D01*
X0069083Y0212744D01*
X0069135Y0212715D01*
X0069190Y0212688D01*
X0069245Y0212665D01*
X0069302Y0212645D01*
X0069361Y0212629D01*
X0069420Y0212616D01*
X0069479Y0212607D01*
X0069540Y0212602D01*
X0069600Y0212600D01*
X0075600Y0212600D01*
X0075660Y0212602D01*
X0075721Y0212607D01*
X0075780Y0212616D01*
X0075839Y0212629D01*
X0075898Y0212645D01*
X0075955Y0212665D01*
X0076010Y0212688D01*
X0076065Y0212715D01*
X0076117Y0212744D01*
X0076168Y0212777D01*
X0076217Y0212813D01*
X0076263Y0212851D01*
X0076307Y0212893D01*
X0076349Y0212937D01*
X0076387Y0212983D01*
X0076423Y0213032D01*
X0076456Y0213083D01*
X0076485Y0213135D01*
X0076512Y0213190D01*
X0076535Y0213245D01*
X0076555Y0213302D01*
X0076571Y0213361D01*
X0076584Y0213420D01*
X0076593Y0213479D01*
X0076598Y0213540D01*
X0076600Y0213600D01*
X0066600Y0262600D02*
X0066602Y0262754D01*
X0066608Y0262908D01*
X0066618Y0263062D01*
X0066632Y0263216D01*
X0066649Y0263369D01*
X0066671Y0263521D01*
X0066697Y0263673D01*
X0066726Y0263825D01*
X0066760Y0263975D01*
X0066797Y0264125D01*
X0066838Y0264273D01*
X0066883Y0264421D01*
X0066932Y0264567D01*
X0066984Y0264712D01*
X0067040Y0264855D01*
X0067100Y0264998D01*
X0067163Y0265138D01*
X0067230Y0265277D01*
X0067301Y0265414D01*
X0067375Y0265549D01*
X0067452Y0265682D01*
X0067533Y0265814D01*
X0067617Y0265943D01*
X0067705Y0266070D01*
X0067796Y0266194D01*
X0067889Y0266316D01*
X0067987Y0266436D01*
X0068087Y0266553D01*
X0068190Y0266668D01*
X0068296Y0266780D01*
X0068404Y0266889D01*
X0068516Y0266995D01*
X0068630Y0267099D01*
X0068747Y0267199D01*
X0068866Y0267297D01*
X0068988Y0267391D01*
X0069113Y0267482D01*
X0078600Y0262600D02*
X0078598Y0262448D01*
X0078592Y0262297D01*
X0078583Y0262146D01*
X0078569Y0261994D01*
X0078552Y0261844D01*
X0078531Y0261694D01*
X0078506Y0261544D01*
X0078478Y0261395D01*
X0078445Y0261247D01*
X0078409Y0261100D01*
X0078370Y0260953D01*
X0078326Y0260808D01*
X0078279Y0260664D01*
X0078228Y0260521D01*
X0078174Y0260380D01*
X0078116Y0260239D01*
X0078055Y0260101D01*
X0077990Y0259964D01*
X0077921Y0259828D01*
X0077850Y0259695D01*
X0077775Y0259563D01*
X0077696Y0259433D01*
X0077615Y0259306D01*
X0077530Y0259180D01*
X0077442Y0259056D01*
X0077351Y0258935D01*
X0077257Y0258816D01*
X0077159Y0258700D01*
X0077059Y0258586D01*
X0076957Y0258474D01*
X0076851Y0258366D01*
X0076743Y0258260D01*
X0076632Y0258156D01*
X0076518Y0258056D01*
X0076402Y0257958D01*
X0076283Y0257864D01*
X0078600Y0262600D02*
X0078598Y0262752D01*
X0078592Y0262903D01*
X0078583Y0263054D01*
X0078569Y0263206D01*
X0078552Y0263356D01*
X0078531Y0263506D01*
X0078506Y0263656D01*
X0078478Y0263805D01*
X0078445Y0263953D01*
X0078409Y0264100D01*
X0078370Y0264247D01*
X0078326Y0264392D01*
X0078279Y0264536D01*
X0078228Y0264679D01*
X0078174Y0264820D01*
X0078116Y0264961D01*
X0078055Y0265099D01*
X0077990Y0265236D01*
X0077921Y0265372D01*
X0077850Y0265505D01*
X0077775Y0265637D01*
X0077696Y0265767D01*
X0077615Y0265894D01*
X0077530Y0266020D01*
X0077442Y0266144D01*
X0077351Y0266265D01*
X0077257Y0266384D01*
X0077159Y0266500D01*
X0077059Y0266614D01*
X0076957Y0266726D01*
X0076851Y0266834D01*
X0076743Y0266940D01*
X0076632Y0267044D01*
X0076518Y0267144D01*
X0076402Y0267242D01*
X0076283Y0267336D01*
X0066600Y0262600D02*
X0066602Y0262450D01*
X0066608Y0262299D01*
X0066617Y0262149D01*
X0066630Y0262000D01*
X0066647Y0261850D01*
X0066668Y0261701D01*
X0066692Y0261553D01*
X0066720Y0261405D01*
X0066752Y0261258D01*
X0066787Y0261112D01*
X0066827Y0260967D01*
X0066869Y0260823D01*
X0066916Y0260680D01*
X0066966Y0260538D01*
X0067019Y0260397D01*
X0067076Y0260258D01*
X0067136Y0260120D01*
X0067200Y0259984D01*
X0067267Y0259850D01*
X0067338Y0259717D01*
X0067412Y0259586D01*
X0067489Y0259457D01*
X0067570Y0259330D01*
X0067653Y0259205D01*
X0067740Y0259082D01*
X0067829Y0258961D01*
X0067922Y0258843D01*
X0068018Y0258727D01*
X0068116Y0258613D01*
X0068217Y0258502D01*
X0068322Y0258393D01*
X0068428Y0258288D01*
X0068538Y0258184D01*
X0068650Y0258084D01*
X0068764Y0257986D01*
X0068881Y0257892D01*
X0069000Y0257800D01*
X0116283Y0267336D02*
X0116402Y0267242D01*
X0116518Y0267144D01*
X0116632Y0267044D01*
X0116743Y0266940D01*
X0116851Y0266834D01*
X0116957Y0266726D01*
X0117059Y0266614D01*
X0117159Y0266500D01*
X0117257Y0266384D01*
X0117351Y0266265D01*
X0117442Y0266144D01*
X0117530Y0266020D01*
X0117615Y0265894D01*
X0117696Y0265767D01*
X0117775Y0265637D01*
X0117850Y0265505D01*
X0117921Y0265372D01*
X0117990Y0265236D01*
X0118055Y0265099D01*
X0118116Y0264961D01*
X0118174Y0264820D01*
X0118228Y0264679D01*
X0118279Y0264536D01*
X0118326Y0264392D01*
X0118370Y0264247D01*
X0118409Y0264100D01*
X0118445Y0263953D01*
X0118478Y0263805D01*
X0118506Y0263656D01*
X0118531Y0263506D01*
X0118552Y0263356D01*
X0118569Y0263206D01*
X0118583Y0263054D01*
X0118592Y0262903D01*
X0118598Y0262752D01*
X0118600Y0262600D01*
X0109000Y0257800D02*
X0108881Y0257892D01*
X0108764Y0257986D01*
X0108650Y0258084D01*
X0108538Y0258184D01*
X0108428Y0258288D01*
X0108322Y0258393D01*
X0108217Y0258502D01*
X0108116Y0258613D01*
X0108018Y0258727D01*
X0107922Y0258843D01*
X0107829Y0258961D01*
X0107740Y0259082D01*
X0107653Y0259205D01*
X0107570Y0259330D01*
X0107489Y0259457D01*
X0107412Y0259586D01*
X0107338Y0259717D01*
X0107267Y0259850D01*
X0107200Y0259984D01*
X0107136Y0260120D01*
X0107076Y0260258D01*
X0107019Y0260397D01*
X0106966Y0260538D01*
X0106916Y0260680D01*
X0106869Y0260823D01*
X0106827Y0260967D01*
X0106787Y0261112D01*
X0106752Y0261258D01*
X0106720Y0261405D01*
X0106692Y0261553D01*
X0106668Y0261701D01*
X0106647Y0261850D01*
X0106630Y0262000D01*
X0106617Y0262149D01*
X0106608Y0262299D01*
X0106602Y0262450D01*
X0106600Y0262600D01*
X0116283Y0257864D02*
X0116402Y0257958D01*
X0116518Y0258056D01*
X0116632Y0258156D01*
X0116743Y0258260D01*
X0116851Y0258366D01*
X0116957Y0258474D01*
X0117059Y0258586D01*
X0117159Y0258700D01*
X0117257Y0258816D01*
X0117351Y0258935D01*
X0117442Y0259056D01*
X0117530Y0259180D01*
X0117615Y0259306D01*
X0117696Y0259433D01*
X0117775Y0259563D01*
X0117850Y0259695D01*
X0117921Y0259828D01*
X0117990Y0259964D01*
X0118055Y0260101D01*
X0118116Y0260239D01*
X0118174Y0260380D01*
X0118228Y0260521D01*
X0118279Y0260664D01*
X0118326Y0260808D01*
X0118370Y0260953D01*
X0118409Y0261100D01*
X0118445Y0261247D01*
X0118478Y0261395D01*
X0118506Y0261544D01*
X0118531Y0261694D01*
X0118552Y0261844D01*
X0118569Y0261994D01*
X0118583Y0262146D01*
X0118592Y0262297D01*
X0118598Y0262448D01*
X0118600Y0262600D01*
X0109113Y0267482D02*
X0108988Y0267391D01*
X0108866Y0267297D01*
X0108747Y0267199D01*
X0108630Y0267099D01*
X0108516Y0266995D01*
X0108404Y0266889D01*
X0108296Y0266780D01*
X0108190Y0266668D01*
X0108087Y0266553D01*
X0107987Y0266436D01*
X0107889Y0266316D01*
X0107796Y0266194D01*
X0107705Y0266070D01*
X0107617Y0265943D01*
X0107533Y0265814D01*
X0107452Y0265682D01*
X0107375Y0265549D01*
X0107301Y0265414D01*
X0107230Y0265277D01*
X0107163Y0265138D01*
X0107100Y0264998D01*
X0107040Y0264855D01*
X0106984Y0264712D01*
X0106932Y0264567D01*
X0106883Y0264421D01*
X0106838Y0264273D01*
X0106797Y0264125D01*
X0106760Y0263975D01*
X0106726Y0263825D01*
X0106697Y0263673D01*
X0106671Y0263521D01*
X0106649Y0263369D01*
X0106632Y0263216D01*
X0106618Y0263062D01*
X0106608Y0262908D01*
X0106602Y0262754D01*
X0106600Y0262600D01*
X0156283Y0257864D02*
X0156402Y0257958D01*
X0156518Y0258056D01*
X0156632Y0258156D01*
X0156743Y0258260D01*
X0156851Y0258366D01*
X0156957Y0258474D01*
X0157059Y0258586D01*
X0157159Y0258700D01*
X0157257Y0258816D01*
X0157351Y0258935D01*
X0157442Y0259056D01*
X0157530Y0259180D01*
X0157615Y0259306D01*
X0157696Y0259433D01*
X0157775Y0259563D01*
X0157850Y0259695D01*
X0157921Y0259828D01*
X0157990Y0259964D01*
X0158055Y0260101D01*
X0158116Y0260239D01*
X0158174Y0260380D01*
X0158228Y0260521D01*
X0158279Y0260664D01*
X0158326Y0260808D01*
X0158370Y0260953D01*
X0158409Y0261100D01*
X0158445Y0261247D01*
X0158478Y0261395D01*
X0158506Y0261544D01*
X0158531Y0261694D01*
X0158552Y0261844D01*
X0158569Y0261994D01*
X0158583Y0262146D01*
X0158592Y0262297D01*
X0158598Y0262448D01*
X0158600Y0262600D01*
X0149000Y0257800D02*
X0148881Y0257892D01*
X0148764Y0257986D01*
X0148650Y0258084D01*
X0148538Y0258184D01*
X0148428Y0258288D01*
X0148322Y0258393D01*
X0148217Y0258502D01*
X0148116Y0258613D01*
X0148018Y0258727D01*
X0147922Y0258843D01*
X0147829Y0258961D01*
X0147740Y0259082D01*
X0147653Y0259205D01*
X0147570Y0259330D01*
X0147489Y0259457D01*
X0147412Y0259586D01*
X0147338Y0259717D01*
X0147267Y0259850D01*
X0147200Y0259984D01*
X0147136Y0260120D01*
X0147076Y0260258D01*
X0147019Y0260397D01*
X0146966Y0260538D01*
X0146916Y0260680D01*
X0146869Y0260823D01*
X0146827Y0260967D01*
X0146787Y0261112D01*
X0146752Y0261258D01*
X0146720Y0261405D01*
X0146692Y0261553D01*
X0146668Y0261701D01*
X0146647Y0261850D01*
X0146630Y0262000D01*
X0146617Y0262149D01*
X0146608Y0262299D01*
X0146602Y0262450D01*
X0146600Y0262600D01*
X0156283Y0267336D02*
X0156402Y0267242D01*
X0156518Y0267144D01*
X0156632Y0267044D01*
X0156743Y0266940D01*
X0156851Y0266834D01*
X0156957Y0266726D01*
X0157059Y0266614D01*
X0157159Y0266500D01*
X0157257Y0266384D01*
X0157351Y0266265D01*
X0157442Y0266144D01*
X0157530Y0266020D01*
X0157615Y0265894D01*
X0157696Y0265767D01*
X0157775Y0265637D01*
X0157850Y0265505D01*
X0157921Y0265372D01*
X0157990Y0265236D01*
X0158055Y0265099D01*
X0158116Y0264961D01*
X0158174Y0264820D01*
X0158228Y0264679D01*
X0158279Y0264536D01*
X0158326Y0264392D01*
X0158370Y0264247D01*
X0158409Y0264100D01*
X0158445Y0263953D01*
X0158478Y0263805D01*
X0158506Y0263656D01*
X0158531Y0263506D01*
X0158552Y0263356D01*
X0158569Y0263206D01*
X0158583Y0263054D01*
X0158592Y0262903D01*
X0158598Y0262752D01*
X0158600Y0262600D01*
X0149113Y0267482D02*
X0148988Y0267391D01*
X0148866Y0267297D01*
X0148747Y0267199D01*
X0148630Y0267099D01*
X0148516Y0266995D01*
X0148404Y0266889D01*
X0148296Y0266780D01*
X0148190Y0266668D01*
X0148087Y0266553D01*
X0147987Y0266436D01*
X0147889Y0266316D01*
X0147796Y0266194D01*
X0147705Y0266070D01*
X0147617Y0265943D01*
X0147533Y0265814D01*
X0147452Y0265682D01*
X0147375Y0265549D01*
X0147301Y0265414D01*
X0147230Y0265277D01*
X0147163Y0265138D01*
X0147100Y0264998D01*
X0147040Y0264855D01*
X0146984Y0264712D01*
X0146932Y0264567D01*
X0146883Y0264421D01*
X0146838Y0264273D01*
X0146797Y0264125D01*
X0146760Y0263975D01*
X0146726Y0263825D01*
X0146697Y0263673D01*
X0146671Y0263521D01*
X0146649Y0263369D01*
X0146632Y0263216D01*
X0146618Y0263062D01*
X0146608Y0262908D01*
X0146602Y0262754D01*
X0146600Y0262600D01*
X0196283Y0257864D02*
X0196402Y0257958D01*
X0196518Y0258056D01*
X0196632Y0258156D01*
X0196743Y0258260D01*
X0196851Y0258366D01*
X0196957Y0258474D01*
X0197059Y0258586D01*
X0197159Y0258700D01*
X0197257Y0258816D01*
X0197351Y0258935D01*
X0197442Y0259056D01*
X0197530Y0259180D01*
X0197615Y0259306D01*
X0197696Y0259433D01*
X0197775Y0259563D01*
X0197850Y0259695D01*
X0197921Y0259828D01*
X0197990Y0259964D01*
X0198055Y0260101D01*
X0198116Y0260239D01*
X0198174Y0260380D01*
X0198228Y0260521D01*
X0198279Y0260664D01*
X0198326Y0260808D01*
X0198370Y0260953D01*
X0198409Y0261100D01*
X0198445Y0261247D01*
X0198478Y0261395D01*
X0198506Y0261544D01*
X0198531Y0261694D01*
X0198552Y0261844D01*
X0198569Y0261994D01*
X0198583Y0262146D01*
X0198592Y0262297D01*
X0198598Y0262448D01*
X0198600Y0262600D01*
X0189000Y0257800D02*
X0188881Y0257892D01*
X0188764Y0257986D01*
X0188650Y0258084D01*
X0188538Y0258184D01*
X0188428Y0258288D01*
X0188322Y0258393D01*
X0188217Y0258502D01*
X0188116Y0258613D01*
X0188018Y0258727D01*
X0187922Y0258843D01*
X0187829Y0258961D01*
X0187740Y0259082D01*
X0187653Y0259205D01*
X0187570Y0259330D01*
X0187489Y0259457D01*
X0187412Y0259586D01*
X0187338Y0259717D01*
X0187267Y0259850D01*
X0187200Y0259984D01*
X0187136Y0260120D01*
X0187076Y0260258D01*
X0187019Y0260397D01*
X0186966Y0260538D01*
X0186916Y0260680D01*
X0186869Y0260823D01*
X0186827Y0260967D01*
X0186787Y0261112D01*
X0186752Y0261258D01*
X0186720Y0261405D01*
X0186692Y0261553D01*
X0186668Y0261701D01*
X0186647Y0261850D01*
X0186630Y0262000D01*
X0186617Y0262149D01*
X0186608Y0262299D01*
X0186602Y0262450D01*
X0186600Y0262600D01*
X0196283Y0267336D02*
X0196402Y0267242D01*
X0196518Y0267144D01*
X0196632Y0267044D01*
X0196743Y0266940D01*
X0196851Y0266834D01*
X0196957Y0266726D01*
X0197059Y0266614D01*
X0197159Y0266500D01*
X0197257Y0266384D01*
X0197351Y0266265D01*
X0197442Y0266144D01*
X0197530Y0266020D01*
X0197615Y0265894D01*
X0197696Y0265767D01*
X0197775Y0265637D01*
X0197850Y0265505D01*
X0197921Y0265372D01*
X0197990Y0265236D01*
X0198055Y0265099D01*
X0198116Y0264961D01*
X0198174Y0264820D01*
X0198228Y0264679D01*
X0198279Y0264536D01*
X0198326Y0264392D01*
X0198370Y0264247D01*
X0198409Y0264100D01*
X0198445Y0263953D01*
X0198478Y0263805D01*
X0198506Y0263656D01*
X0198531Y0263506D01*
X0198552Y0263356D01*
X0198569Y0263206D01*
X0198583Y0263054D01*
X0198592Y0262903D01*
X0198598Y0262752D01*
X0198600Y0262600D01*
X0189113Y0267482D02*
X0188988Y0267391D01*
X0188866Y0267297D01*
X0188747Y0267199D01*
X0188630Y0267099D01*
X0188516Y0266995D01*
X0188404Y0266889D01*
X0188296Y0266780D01*
X0188190Y0266668D01*
X0188087Y0266553D01*
X0187987Y0266436D01*
X0187889Y0266316D01*
X0187796Y0266194D01*
X0187705Y0266070D01*
X0187617Y0265943D01*
X0187533Y0265814D01*
X0187452Y0265682D01*
X0187375Y0265549D01*
X0187301Y0265414D01*
X0187230Y0265277D01*
X0187163Y0265138D01*
X0187100Y0264998D01*
X0187040Y0264855D01*
X0186984Y0264712D01*
X0186932Y0264567D01*
X0186883Y0264421D01*
X0186838Y0264273D01*
X0186797Y0264125D01*
X0186760Y0263975D01*
X0186726Y0263825D01*
X0186697Y0263673D01*
X0186671Y0263521D01*
X0186649Y0263369D01*
X0186632Y0263216D01*
X0186618Y0263062D01*
X0186608Y0262908D01*
X0186602Y0262754D01*
X0186600Y0262600D01*
X0236283Y0257864D02*
X0236402Y0257958D01*
X0236518Y0258056D01*
X0236632Y0258156D01*
X0236743Y0258260D01*
X0236851Y0258366D01*
X0236957Y0258474D01*
X0237059Y0258586D01*
X0237159Y0258700D01*
X0237257Y0258816D01*
X0237351Y0258935D01*
X0237442Y0259056D01*
X0237530Y0259180D01*
X0237615Y0259306D01*
X0237696Y0259433D01*
X0237775Y0259563D01*
X0237850Y0259695D01*
X0237921Y0259828D01*
X0237990Y0259964D01*
X0238055Y0260101D01*
X0238116Y0260239D01*
X0238174Y0260380D01*
X0238228Y0260521D01*
X0238279Y0260664D01*
X0238326Y0260808D01*
X0238370Y0260953D01*
X0238409Y0261100D01*
X0238445Y0261247D01*
X0238478Y0261395D01*
X0238506Y0261544D01*
X0238531Y0261694D01*
X0238552Y0261844D01*
X0238569Y0261994D01*
X0238583Y0262146D01*
X0238592Y0262297D01*
X0238598Y0262448D01*
X0238600Y0262600D01*
X0229000Y0257800D02*
X0228881Y0257892D01*
X0228764Y0257986D01*
X0228650Y0258084D01*
X0228538Y0258184D01*
X0228428Y0258288D01*
X0228322Y0258393D01*
X0228217Y0258502D01*
X0228116Y0258613D01*
X0228018Y0258727D01*
X0227922Y0258843D01*
X0227829Y0258961D01*
X0227740Y0259082D01*
X0227653Y0259205D01*
X0227570Y0259330D01*
X0227489Y0259457D01*
X0227412Y0259586D01*
X0227338Y0259717D01*
X0227267Y0259850D01*
X0227200Y0259984D01*
X0227136Y0260120D01*
X0227076Y0260258D01*
X0227019Y0260397D01*
X0226966Y0260538D01*
X0226916Y0260680D01*
X0226869Y0260823D01*
X0226827Y0260967D01*
X0226787Y0261112D01*
X0226752Y0261258D01*
X0226720Y0261405D01*
X0226692Y0261553D01*
X0226668Y0261701D01*
X0226647Y0261850D01*
X0226630Y0262000D01*
X0226617Y0262149D01*
X0226608Y0262299D01*
X0226602Y0262450D01*
X0226600Y0262600D01*
X0236283Y0267336D02*
X0236402Y0267242D01*
X0236518Y0267144D01*
X0236632Y0267044D01*
X0236743Y0266940D01*
X0236851Y0266834D01*
X0236957Y0266726D01*
X0237059Y0266614D01*
X0237159Y0266500D01*
X0237257Y0266384D01*
X0237351Y0266265D01*
X0237442Y0266144D01*
X0237530Y0266020D01*
X0237615Y0265894D01*
X0237696Y0265767D01*
X0237775Y0265637D01*
X0237850Y0265505D01*
X0237921Y0265372D01*
X0237990Y0265236D01*
X0238055Y0265099D01*
X0238116Y0264961D01*
X0238174Y0264820D01*
X0238228Y0264679D01*
X0238279Y0264536D01*
X0238326Y0264392D01*
X0238370Y0264247D01*
X0238409Y0264100D01*
X0238445Y0263953D01*
X0238478Y0263805D01*
X0238506Y0263656D01*
X0238531Y0263506D01*
X0238552Y0263356D01*
X0238569Y0263206D01*
X0238583Y0263054D01*
X0238592Y0262903D01*
X0238598Y0262752D01*
X0238600Y0262600D01*
X0229113Y0267482D02*
X0228988Y0267391D01*
X0228866Y0267297D01*
X0228747Y0267199D01*
X0228630Y0267099D01*
X0228516Y0266995D01*
X0228404Y0266889D01*
X0228296Y0266780D01*
X0228190Y0266668D01*
X0228087Y0266553D01*
X0227987Y0266436D01*
X0227889Y0266316D01*
X0227796Y0266194D01*
X0227705Y0266070D01*
X0227617Y0265943D01*
X0227533Y0265814D01*
X0227452Y0265682D01*
X0227375Y0265549D01*
X0227301Y0265414D01*
X0227230Y0265277D01*
X0227163Y0265138D01*
X0227100Y0264998D01*
X0227040Y0264855D01*
X0226984Y0264712D01*
X0226932Y0264567D01*
X0226883Y0264421D01*
X0226838Y0264273D01*
X0226797Y0264125D01*
X0226760Y0263975D01*
X0226726Y0263825D01*
X0226697Y0263673D01*
X0226671Y0263521D01*
X0226649Y0263369D01*
X0226632Y0263216D01*
X0226618Y0263062D01*
X0226608Y0262908D01*
X0226602Y0262754D01*
X0226600Y0262600D01*
X0276283Y0257864D02*
X0276402Y0257958D01*
X0276518Y0258056D01*
X0276632Y0258156D01*
X0276743Y0258260D01*
X0276851Y0258366D01*
X0276957Y0258474D01*
X0277059Y0258586D01*
X0277159Y0258700D01*
X0277257Y0258816D01*
X0277351Y0258935D01*
X0277442Y0259056D01*
X0277530Y0259180D01*
X0277615Y0259306D01*
X0277696Y0259433D01*
X0277775Y0259563D01*
X0277850Y0259695D01*
X0277921Y0259828D01*
X0277990Y0259964D01*
X0278055Y0260101D01*
X0278116Y0260239D01*
X0278174Y0260380D01*
X0278228Y0260521D01*
X0278279Y0260664D01*
X0278326Y0260808D01*
X0278370Y0260953D01*
X0278409Y0261100D01*
X0278445Y0261247D01*
X0278478Y0261395D01*
X0278506Y0261544D01*
X0278531Y0261694D01*
X0278552Y0261844D01*
X0278569Y0261994D01*
X0278583Y0262146D01*
X0278592Y0262297D01*
X0278598Y0262448D01*
X0278600Y0262600D01*
X0269000Y0257800D02*
X0268881Y0257892D01*
X0268764Y0257986D01*
X0268650Y0258084D01*
X0268538Y0258184D01*
X0268428Y0258288D01*
X0268322Y0258393D01*
X0268217Y0258502D01*
X0268116Y0258613D01*
X0268018Y0258727D01*
X0267922Y0258843D01*
X0267829Y0258961D01*
X0267740Y0259082D01*
X0267653Y0259205D01*
X0267570Y0259330D01*
X0267489Y0259457D01*
X0267412Y0259586D01*
X0267338Y0259717D01*
X0267267Y0259850D01*
X0267200Y0259984D01*
X0267136Y0260120D01*
X0267076Y0260258D01*
X0267019Y0260397D01*
X0266966Y0260538D01*
X0266916Y0260680D01*
X0266869Y0260823D01*
X0266827Y0260967D01*
X0266787Y0261112D01*
X0266752Y0261258D01*
X0266720Y0261405D01*
X0266692Y0261553D01*
X0266668Y0261701D01*
X0266647Y0261850D01*
X0266630Y0262000D01*
X0266617Y0262149D01*
X0266608Y0262299D01*
X0266602Y0262450D01*
X0266600Y0262600D01*
X0276283Y0267336D02*
X0276402Y0267242D01*
X0276518Y0267144D01*
X0276632Y0267044D01*
X0276743Y0266940D01*
X0276851Y0266834D01*
X0276957Y0266726D01*
X0277059Y0266614D01*
X0277159Y0266500D01*
X0277257Y0266384D01*
X0277351Y0266265D01*
X0277442Y0266144D01*
X0277530Y0266020D01*
X0277615Y0265894D01*
X0277696Y0265767D01*
X0277775Y0265637D01*
X0277850Y0265505D01*
X0277921Y0265372D01*
X0277990Y0265236D01*
X0278055Y0265099D01*
X0278116Y0264961D01*
X0278174Y0264820D01*
X0278228Y0264679D01*
X0278279Y0264536D01*
X0278326Y0264392D01*
X0278370Y0264247D01*
X0278409Y0264100D01*
X0278445Y0263953D01*
X0278478Y0263805D01*
X0278506Y0263656D01*
X0278531Y0263506D01*
X0278552Y0263356D01*
X0278569Y0263206D01*
X0278583Y0263054D01*
X0278592Y0262903D01*
X0278598Y0262752D01*
X0278600Y0262600D01*
X0269113Y0267482D02*
X0268988Y0267391D01*
X0268866Y0267297D01*
X0268747Y0267199D01*
X0268630Y0267099D01*
X0268516Y0266995D01*
X0268404Y0266889D01*
X0268296Y0266780D01*
X0268190Y0266668D01*
X0268087Y0266553D01*
X0267987Y0266436D01*
X0267889Y0266316D01*
X0267796Y0266194D01*
X0267705Y0266070D01*
X0267617Y0265943D01*
X0267533Y0265814D01*
X0267452Y0265682D01*
X0267375Y0265549D01*
X0267301Y0265414D01*
X0267230Y0265277D01*
X0267163Y0265138D01*
X0267100Y0264998D01*
X0267040Y0264855D01*
X0266984Y0264712D01*
X0266932Y0264567D01*
X0266883Y0264421D01*
X0266838Y0264273D01*
X0266797Y0264125D01*
X0266760Y0263975D01*
X0266726Y0263825D01*
X0266697Y0263673D01*
X0266671Y0263521D01*
X0266649Y0263369D01*
X0266632Y0263216D01*
X0266618Y0263062D01*
X0266608Y0262908D01*
X0266602Y0262754D01*
X0266600Y0262600D01*
X0316283Y0257864D02*
X0316402Y0257958D01*
X0316518Y0258056D01*
X0316632Y0258156D01*
X0316743Y0258260D01*
X0316851Y0258366D01*
X0316957Y0258474D01*
X0317059Y0258586D01*
X0317159Y0258700D01*
X0317257Y0258816D01*
X0317351Y0258935D01*
X0317442Y0259056D01*
X0317530Y0259180D01*
X0317615Y0259306D01*
X0317696Y0259433D01*
X0317775Y0259563D01*
X0317850Y0259695D01*
X0317921Y0259828D01*
X0317990Y0259964D01*
X0318055Y0260101D01*
X0318116Y0260239D01*
X0318174Y0260380D01*
X0318228Y0260521D01*
X0318279Y0260664D01*
X0318326Y0260808D01*
X0318370Y0260953D01*
X0318409Y0261100D01*
X0318445Y0261247D01*
X0318478Y0261395D01*
X0318506Y0261544D01*
X0318531Y0261694D01*
X0318552Y0261844D01*
X0318569Y0261994D01*
X0318583Y0262146D01*
X0318592Y0262297D01*
X0318598Y0262448D01*
X0318600Y0262600D01*
X0309000Y0257800D02*
X0308881Y0257892D01*
X0308764Y0257986D01*
X0308650Y0258084D01*
X0308538Y0258184D01*
X0308428Y0258288D01*
X0308322Y0258393D01*
X0308217Y0258502D01*
X0308116Y0258613D01*
X0308018Y0258727D01*
X0307922Y0258843D01*
X0307829Y0258961D01*
X0307740Y0259082D01*
X0307653Y0259205D01*
X0307570Y0259330D01*
X0307489Y0259457D01*
X0307412Y0259586D01*
X0307338Y0259717D01*
X0307267Y0259850D01*
X0307200Y0259984D01*
X0307136Y0260120D01*
X0307076Y0260258D01*
X0307019Y0260397D01*
X0306966Y0260538D01*
X0306916Y0260680D01*
X0306869Y0260823D01*
X0306827Y0260967D01*
X0306787Y0261112D01*
X0306752Y0261258D01*
X0306720Y0261405D01*
X0306692Y0261553D01*
X0306668Y0261701D01*
X0306647Y0261850D01*
X0306630Y0262000D01*
X0306617Y0262149D01*
X0306608Y0262299D01*
X0306602Y0262450D01*
X0306600Y0262600D01*
X0316283Y0267336D02*
X0316402Y0267242D01*
X0316518Y0267144D01*
X0316632Y0267044D01*
X0316743Y0266940D01*
X0316851Y0266834D01*
X0316957Y0266726D01*
X0317059Y0266614D01*
X0317159Y0266500D01*
X0317257Y0266384D01*
X0317351Y0266265D01*
X0317442Y0266144D01*
X0317530Y0266020D01*
X0317615Y0265894D01*
X0317696Y0265767D01*
X0317775Y0265637D01*
X0317850Y0265505D01*
X0317921Y0265372D01*
X0317990Y0265236D01*
X0318055Y0265099D01*
X0318116Y0264961D01*
X0318174Y0264820D01*
X0318228Y0264679D01*
X0318279Y0264536D01*
X0318326Y0264392D01*
X0318370Y0264247D01*
X0318409Y0264100D01*
X0318445Y0263953D01*
X0318478Y0263805D01*
X0318506Y0263656D01*
X0318531Y0263506D01*
X0318552Y0263356D01*
X0318569Y0263206D01*
X0318583Y0263054D01*
X0318592Y0262903D01*
X0318598Y0262752D01*
X0318600Y0262600D01*
X0309113Y0267482D02*
X0308988Y0267391D01*
X0308866Y0267297D01*
X0308747Y0267199D01*
X0308630Y0267099D01*
X0308516Y0266995D01*
X0308404Y0266889D01*
X0308296Y0266780D01*
X0308190Y0266668D01*
X0308087Y0266553D01*
X0307987Y0266436D01*
X0307889Y0266316D01*
X0307796Y0266194D01*
X0307705Y0266070D01*
X0307617Y0265943D01*
X0307533Y0265814D01*
X0307452Y0265682D01*
X0307375Y0265549D01*
X0307301Y0265414D01*
X0307230Y0265277D01*
X0307163Y0265138D01*
X0307100Y0264998D01*
X0307040Y0264855D01*
X0306984Y0264712D01*
X0306932Y0264567D01*
X0306883Y0264421D01*
X0306838Y0264273D01*
X0306797Y0264125D01*
X0306760Y0263975D01*
X0306726Y0263825D01*
X0306697Y0263673D01*
X0306671Y0263521D01*
X0306649Y0263369D01*
X0306632Y0263216D01*
X0306618Y0263062D01*
X0306608Y0262908D01*
X0306602Y0262754D01*
X0306600Y0262600D01*
X0356283Y0257864D02*
X0356402Y0257958D01*
X0356518Y0258056D01*
X0356632Y0258156D01*
X0356743Y0258260D01*
X0356851Y0258366D01*
X0356957Y0258474D01*
X0357059Y0258586D01*
X0357159Y0258700D01*
X0357257Y0258816D01*
X0357351Y0258935D01*
X0357442Y0259056D01*
X0357530Y0259180D01*
X0357615Y0259306D01*
X0357696Y0259433D01*
X0357775Y0259563D01*
X0357850Y0259695D01*
X0357921Y0259828D01*
X0357990Y0259964D01*
X0358055Y0260101D01*
X0358116Y0260239D01*
X0358174Y0260380D01*
X0358228Y0260521D01*
X0358279Y0260664D01*
X0358326Y0260808D01*
X0358370Y0260953D01*
X0358409Y0261100D01*
X0358445Y0261247D01*
X0358478Y0261395D01*
X0358506Y0261544D01*
X0358531Y0261694D01*
X0358552Y0261844D01*
X0358569Y0261994D01*
X0358583Y0262146D01*
X0358592Y0262297D01*
X0358598Y0262448D01*
X0358600Y0262600D01*
X0349000Y0257800D02*
X0348881Y0257892D01*
X0348764Y0257986D01*
X0348650Y0258084D01*
X0348538Y0258184D01*
X0348428Y0258288D01*
X0348322Y0258393D01*
X0348217Y0258502D01*
X0348116Y0258613D01*
X0348018Y0258727D01*
X0347922Y0258843D01*
X0347829Y0258961D01*
X0347740Y0259082D01*
X0347653Y0259205D01*
X0347570Y0259330D01*
X0347489Y0259457D01*
X0347412Y0259586D01*
X0347338Y0259717D01*
X0347267Y0259850D01*
X0347200Y0259984D01*
X0347136Y0260120D01*
X0347076Y0260258D01*
X0347019Y0260397D01*
X0346966Y0260538D01*
X0346916Y0260680D01*
X0346869Y0260823D01*
X0346827Y0260967D01*
X0346787Y0261112D01*
X0346752Y0261258D01*
X0346720Y0261405D01*
X0346692Y0261553D01*
X0346668Y0261701D01*
X0346647Y0261850D01*
X0346630Y0262000D01*
X0346617Y0262149D01*
X0346608Y0262299D01*
X0346602Y0262450D01*
X0346600Y0262600D01*
X0356283Y0267336D02*
X0356402Y0267242D01*
X0356518Y0267144D01*
X0356632Y0267044D01*
X0356743Y0266940D01*
X0356851Y0266834D01*
X0356957Y0266726D01*
X0357059Y0266614D01*
X0357159Y0266500D01*
X0357257Y0266384D01*
X0357351Y0266265D01*
X0357442Y0266144D01*
X0357530Y0266020D01*
X0357615Y0265894D01*
X0357696Y0265767D01*
X0357775Y0265637D01*
X0357850Y0265505D01*
X0357921Y0265372D01*
X0357990Y0265236D01*
X0358055Y0265099D01*
X0358116Y0264961D01*
X0358174Y0264820D01*
X0358228Y0264679D01*
X0358279Y0264536D01*
X0358326Y0264392D01*
X0358370Y0264247D01*
X0358409Y0264100D01*
X0358445Y0263953D01*
X0358478Y0263805D01*
X0358506Y0263656D01*
X0358531Y0263506D01*
X0358552Y0263356D01*
X0358569Y0263206D01*
X0358583Y0263054D01*
X0358592Y0262903D01*
X0358598Y0262752D01*
X0358600Y0262600D01*
X0349113Y0267482D02*
X0348988Y0267391D01*
X0348866Y0267297D01*
X0348747Y0267199D01*
X0348630Y0267099D01*
X0348516Y0266995D01*
X0348404Y0266889D01*
X0348296Y0266780D01*
X0348190Y0266668D01*
X0348087Y0266553D01*
X0347987Y0266436D01*
X0347889Y0266316D01*
X0347796Y0266194D01*
X0347705Y0266070D01*
X0347617Y0265943D01*
X0347533Y0265814D01*
X0347452Y0265682D01*
X0347375Y0265549D01*
X0347301Y0265414D01*
X0347230Y0265277D01*
X0347163Y0265138D01*
X0347100Y0264998D01*
X0347040Y0264855D01*
X0346984Y0264712D01*
X0346932Y0264567D01*
X0346883Y0264421D01*
X0346838Y0264273D01*
X0346797Y0264125D01*
X0346760Y0263975D01*
X0346726Y0263825D01*
X0346697Y0263673D01*
X0346671Y0263521D01*
X0346649Y0263369D01*
X0346632Y0263216D01*
X0346618Y0263062D01*
X0346608Y0262908D01*
X0346602Y0262754D01*
X0346600Y0262600D01*
D11*
X0056734Y0046301D02*
X0056734Y0008899D01*
X0198466Y0008899D01*
X0198466Y0046301D01*
X0056734Y0046301D01*
X0022600Y0055100D02*
X0020100Y0052600D01*
X0015100Y0052600D01*
X0012600Y0055100D01*
X0012600Y0060100D01*
X0015100Y0062600D01*
X0012600Y0065100D01*
X0012600Y0070100D01*
X0015100Y0072600D01*
X0012600Y0075100D01*
X0012600Y0080100D01*
X0015100Y0082600D01*
X0012600Y0085100D01*
X0012600Y0090100D01*
X0015100Y0092600D01*
X0012600Y0095100D01*
X0012600Y0100100D01*
X0015100Y0102600D01*
X0012600Y0105100D01*
X0012600Y0110100D01*
X0015100Y0112600D01*
X0012600Y0115100D01*
X0012600Y0120100D01*
X0015100Y0122600D01*
X0020100Y0122600D01*
X0022600Y0120100D01*
X0022600Y0115100D01*
X0020100Y0112600D01*
X0022600Y0110100D01*
X0022600Y0105100D01*
X0020100Y0102600D01*
X0022600Y0100100D01*
X0022600Y0095100D01*
X0020100Y0092600D01*
X0022600Y0090100D01*
X0022600Y0085100D01*
X0020100Y0082600D01*
X0022600Y0080100D01*
X0022600Y0075100D01*
X0020100Y0072600D01*
X0022600Y0070100D01*
X0022600Y0065100D01*
X0020100Y0062600D01*
X0022600Y0060100D01*
X0022600Y0055100D01*
X0117600Y0150100D02*
X0120100Y0147600D01*
X0125100Y0147600D01*
X0127600Y0150100D01*
X0130100Y0147600D01*
X0135100Y0147600D01*
X0137600Y0150100D01*
X0140100Y0147600D01*
X0145100Y0147600D01*
X0147600Y0150100D01*
X0150100Y0147600D01*
X0155100Y0147600D01*
X0157600Y0150100D01*
X0160100Y0147600D01*
X0165100Y0147600D01*
X0167600Y0150100D01*
X0170100Y0147600D01*
X0175100Y0147600D01*
X0177600Y0150100D01*
X0180100Y0147600D01*
X0185100Y0147600D01*
X0187600Y0150100D01*
X0190100Y0147600D01*
X0195100Y0147600D01*
X0197600Y0150100D01*
X0200100Y0147600D01*
X0205100Y0147600D01*
X0207600Y0150100D01*
X0207600Y0155100D01*
X0205100Y0157600D01*
X0200100Y0157600D01*
X0197600Y0155100D01*
X0195100Y0157600D01*
X0190100Y0157600D01*
X0187600Y0155100D01*
X0185100Y0157600D01*
X0180100Y0157600D01*
X0177600Y0155100D01*
X0175100Y0157600D01*
X0170100Y0157600D01*
X0167600Y0155100D01*
X0165100Y0157600D01*
X0160100Y0157600D01*
X0157600Y0155100D01*
X0155100Y0157600D01*
X0150100Y0157600D01*
X0147600Y0155100D01*
X0145100Y0157600D01*
X0140100Y0157600D01*
X0137600Y0155100D01*
X0135100Y0157600D01*
X0130100Y0157600D01*
X0127600Y0155100D01*
X0125100Y0157600D01*
X0120100Y0157600D01*
X0117600Y0155100D01*
X0117600Y0150100D01*
X0120100Y0172600D02*
X0125100Y0172600D01*
X0127600Y0175100D01*
X0130100Y0172600D01*
X0135100Y0172600D01*
X0137600Y0175100D01*
X0140100Y0172600D01*
X0145100Y0172600D01*
X0147600Y0175100D01*
X0150100Y0172600D01*
X0155100Y0172600D01*
X0157600Y0175100D01*
X0160100Y0172600D01*
X0165100Y0172600D01*
X0167600Y0175100D01*
X0170100Y0172600D01*
X0175100Y0172600D01*
X0177600Y0175100D01*
X0180100Y0172600D01*
X0185100Y0172600D01*
X0187600Y0175100D01*
X0190100Y0172600D01*
X0195100Y0172600D01*
X0197600Y0175100D01*
X0200100Y0172600D01*
X0205100Y0172600D01*
X0207600Y0175100D01*
X0207600Y0180100D01*
X0205100Y0182600D01*
X0200100Y0182600D01*
X0197600Y0180100D01*
X0195100Y0182600D01*
X0190100Y0182600D01*
X0187600Y0180100D01*
X0185100Y0182600D01*
X0180100Y0182600D01*
X0177600Y0180100D01*
X0175100Y0182600D01*
X0170100Y0182600D01*
X0167600Y0180100D01*
X0165100Y0182600D01*
X0160100Y0182600D01*
X0157600Y0180100D01*
X0155100Y0182600D01*
X0150100Y0182600D01*
X0147600Y0180100D01*
X0145100Y0182600D01*
X0140100Y0182600D01*
X0137600Y0180100D01*
X0135100Y0182600D01*
X0130100Y0182600D01*
X0127600Y0180100D01*
X0125100Y0182600D01*
X0120100Y0182600D01*
X0117600Y0180100D01*
X0117600Y0175100D01*
X0120100Y0172600D01*
X0217600Y0080100D02*
X0217600Y0075100D01*
X0382600Y0075100D02*
X0382600Y0070100D01*
X0385100Y0067600D01*
X0382600Y0065100D01*
X0382600Y0060100D01*
X0385100Y0057600D01*
X0382600Y0055100D01*
X0382600Y0050100D01*
X0385100Y0047600D01*
X0382600Y0045100D01*
X0382600Y0040100D01*
X0385100Y0037600D01*
X0382600Y0035100D01*
X0382600Y0030100D01*
X0385100Y0027600D01*
X0390100Y0027600D01*
X0392600Y0030100D01*
X0392600Y0035100D01*
X0390100Y0037600D01*
X0392600Y0040100D01*
X0392600Y0045100D01*
X0390100Y0047600D01*
X0392600Y0050100D01*
X0392600Y0055100D01*
X0390100Y0057600D01*
X0392600Y0060100D01*
X0392600Y0065100D01*
X0390100Y0067600D01*
X0392600Y0070100D01*
X0392600Y0075100D01*
X0390100Y0077600D01*
X0392600Y0080100D01*
X0392600Y0085100D01*
X0390100Y0087600D01*
X0392600Y0090100D01*
X0392600Y0095100D01*
X0390100Y0097600D01*
X0392600Y0100100D01*
X0392600Y0105100D01*
X0390100Y0107600D01*
X0392600Y0110100D01*
X0392600Y0115100D01*
X0390100Y0117600D01*
X0392600Y0120100D01*
X0392600Y0125100D01*
X0390100Y0127600D01*
X0392600Y0130100D01*
X0392600Y0135100D01*
X0390100Y0137600D01*
X0392600Y0140100D01*
X0392600Y0145100D01*
X0390100Y0147600D01*
X0385100Y0147600D01*
X0382600Y0145100D01*
X0382600Y0140100D01*
X0385100Y0137600D01*
X0382600Y0135100D01*
X0382600Y0130100D01*
X0385100Y0127600D01*
X0382600Y0125100D01*
X0382600Y0120100D01*
X0385100Y0117600D01*
X0382600Y0115100D01*
X0382600Y0110100D01*
X0385100Y0107600D01*
X0382600Y0105100D01*
X0382600Y0100100D01*
X0385100Y0097600D01*
X0382600Y0095100D01*
X0382600Y0090100D01*
X0385100Y0087600D01*
X0382600Y0085100D01*
X0382600Y0080100D01*
X0385100Y0077600D01*
X0382600Y0075100D01*
D12*
X0356569Y0255654D02*
X0356738Y0255753D01*
X0356904Y0255857D01*
X0357068Y0255964D01*
X0357229Y0256075D01*
X0357387Y0256190D01*
X0357542Y0256309D01*
X0357695Y0256432D01*
X0357844Y0256558D01*
X0357990Y0256688D01*
X0358133Y0256822D01*
X0358273Y0256959D01*
X0358409Y0257099D01*
X0358542Y0257243D01*
X0358671Y0257390D01*
X0358797Y0257540D01*
X0358918Y0257693D01*
X0359037Y0257849D01*
X0359151Y0258008D01*
X0359261Y0258169D01*
X0359367Y0258334D01*
X0359470Y0258500D01*
X0359568Y0258670D01*
X0359662Y0258841D01*
X0359752Y0259015D01*
X0359837Y0259191D01*
X0359919Y0259369D01*
X0359995Y0259549D01*
X0360068Y0259731D01*
X0360136Y0259914D01*
X0360199Y0260099D01*
X0360258Y0260286D01*
X0360312Y0260474D01*
X0360362Y0260663D01*
X0360407Y0260853D01*
X0360447Y0261045D01*
X0360483Y0261237D01*
X0360514Y0261430D01*
X0360540Y0261624D01*
X0360562Y0261819D01*
X0360578Y0262014D01*
X0360590Y0262209D01*
X0360598Y0262405D01*
X0360600Y0262600D01*
X0348835Y0255541D02*
X0348667Y0255634D01*
X0348501Y0255730D01*
X0348337Y0255830D01*
X0348176Y0255935D01*
X0348017Y0256043D01*
X0347861Y0256155D01*
X0347707Y0256271D01*
X0347557Y0256390D01*
X0347409Y0256513D01*
X0347264Y0256639D01*
X0347123Y0256769D01*
X0346984Y0256902D01*
X0346849Y0257039D01*
X0346717Y0257179D01*
X0346589Y0257321D01*
X0346464Y0257467D01*
X0346342Y0257616D01*
X0346224Y0257768D01*
X0346110Y0257922D01*
X0346000Y0258080D01*
X0345893Y0258239D01*
X0345790Y0258402D01*
X0345691Y0258567D01*
X0345596Y0258734D01*
X0345506Y0258903D01*
X0345419Y0259074D01*
X0345336Y0259248D01*
X0345258Y0259423D01*
X0345184Y0259601D01*
X0345114Y0259780D01*
X0345048Y0259960D01*
X0344987Y0260142D01*
X0344930Y0260326D01*
X0344878Y0260511D01*
X0344830Y0260697D01*
X0344786Y0260884D01*
X0344747Y0261072D01*
X0344713Y0261261D01*
X0344683Y0261451D01*
X0344658Y0261641D01*
X0344637Y0261832D01*
X0344621Y0262024D01*
X0344609Y0262216D01*
X0344602Y0262408D01*
X0344600Y0262600D01*
X0357768Y0268707D02*
X0357914Y0268580D01*
X0358056Y0268451D01*
X0358196Y0268317D01*
X0358332Y0268181D01*
X0358465Y0268041D01*
X0358595Y0267898D01*
X0358721Y0267751D01*
X0358843Y0267602D01*
X0358962Y0267450D01*
X0359077Y0267295D01*
X0359189Y0267138D01*
X0359296Y0266978D01*
X0359400Y0266815D01*
X0359499Y0266649D01*
X0359595Y0266482D01*
X0359687Y0266312D01*
X0359774Y0266140D01*
X0359858Y0265966D01*
X0359937Y0265790D01*
X0360011Y0265612D01*
X0360082Y0265432D01*
X0360148Y0265251D01*
X0360210Y0265068D01*
X0360267Y0264884D01*
X0360320Y0264698D01*
X0360368Y0264511D01*
X0360412Y0264323D01*
X0360451Y0264134D01*
X0360486Y0263944D01*
X0360516Y0263754D01*
X0360542Y0263563D01*
X0360563Y0263371D01*
X0360579Y0263178D01*
X0360591Y0262986D01*
X0360598Y0262793D01*
X0360600Y0262600D01*
X0347478Y0268746D02*
X0347330Y0268619D01*
X0347185Y0268489D01*
X0347044Y0268356D01*
X0346905Y0268219D01*
X0346770Y0268079D01*
X0346639Y0267935D01*
X0346511Y0267788D01*
X0346386Y0267639D01*
X0346265Y0267486D01*
X0346148Y0267331D01*
X0346035Y0267172D01*
X0345926Y0267011D01*
X0345821Y0266847D01*
X0345719Y0266681D01*
X0345622Y0266512D01*
X0345529Y0266342D01*
X0345440Y0266168D01*
X0345355Y0265993D01*
X0345275Y0265816D01*
X0345199Y0265637D01*
X0345127Y0265456D01*
X0345060Y0265273D01*
X0344997Y0265089D01*
X0344939Y0264903D01*
X0344885Y0264716D01*
X0344836Y0264528D01*
X0344791Y0264338D01*
X0344751Y0264148D01*
X0344716Y0263956D01*
X0344685Y0263764D01*
X0344659Y0263571D01*
X0344638Y0263377D01*
X0344621Y0263183D01*
X0344609Y0262989D01*
X0344602Y0262795D01*
X0344600Y0262600D01*
X0308835Y0255541D02*
X0308667Y0255634D01*
X0308501Y0255730D01*
X0308337Y0255830D01*
X0308176Y0255935D01*
X0308017Y0256043D01*
X0307861Y0256155D01*
X0307707Y0256271D01*
X0307557Y0256390D01*
X0307409Y0256513D01*
X0307264Y0256639D01*
X0307123Y0256769D01*
X0306984Y0256902D01*
X0306849Y0257039D01*
X0306717Y0257179D01*
X0306589Y0257321D01*
X0306464Y0257467D01*
X0306342Y0257616D01*
X0306224Y0257768D01*
X0306110Y0257922D01*
X0306000Y0258080D01*
X0305893Y0258239D01*
X0305790Y0258402D01*
X0305691Y0258567D01*
X0305596Y0258734D01*
X0305506Y0258903D01*
X0305419Y0259074D01*
X0305336Y0259248D01*
X0305258Y0259423D01*
X0305184Y0259601D01*
X0305114Y0259780D01*
X0305048Y0259960D01*
X0304987Y0260142D01*
X0304930Y0260326D01*
X0304878Y0260511D01*
X0304830Y0260697D01*
X0304786Y0260884D01*
X0304747Y0261072D01*
X0304713Y0261261D01*
X0304683Y0261451D01*
X0304658Y0261641D01*
X0304637Y0261832D01*
X0304621Y0262024D01*
X0304609Y0262216D01*
X0304602Y0262408D01*
X0304600Y0262600D01*
X0316569Y0255654D02*
X0316738Y0255753D01*
X0316904Y0255857D01*
X0317068Y0255964D01*
X0317229Y0256075D01*
X0317387Y0256190D01*
X0317542Y0256309D01*
X0317695Y0256432D01*
X0317844Y0256558D01*
X0317990Y0256688D01*
X0318133Y0256822D01*
X0318273Y0256959D01*
X0318409Y0257099D01*
X0318542Y0257243D01*
X0318671Y0257390D01*
X0318797Y0257540D01*
X0318918Y0257693D01*
X0319037Y0257849D01*
X0319151Y0258008D01*
X0319261Y0258169D01*
X0319367Y0258334D01*
X0319470Y0258500D01*
X0319568Y0258670D01*
X0319662Y0258841D01*
X0319752Y0259015D01*
X0319837Y0259191D01*
X0319919Y0259369D01*
X0319995Y0259549D01*
X0320068Y0259731D01*
X0320136Y0259914D01*
X0320199Y0260099D01*
X0320258Y0260286D01*
X0320312Y0260474D01*
X0320362Y0260663D01*
X0320407Y0260853D01*
X0320447Y0261045D01*
X0320483Y0261237D01*
X0320514Y0261430D01*
X0320540Y0261624D01*
X0320562Y0261819D01*
X0320578Y0262014D01*
X0320590Y0262209D01*
X0320598Y0262405D01*
X0320600Y0262600D01*
X0320598Y0262793D01*
X0320591Y0262986D01*
X0320579Y0263178D01*
X0320563Y0263371D01*
X0320542Y0263563D01*
X0320516Y0263754D01*
X0320486Y0263944D01*
X0320451Y0264134D01*
X0320412Y0264323D01*
X0320368Y0264511D01*
X0320320Y0264698D01*
X0320267Y0264884D01*
X0320210Y0265068D01*
X0320148Y0265251D01*
X0320082Y0265432D01*
X0320011Y0265612D01*
X0319937Y0265790D01*
X0319858Y0265966D01*
X0319774Y0266140D01*
X0319687Y0266312D01*
X0319595Y0266482D01*
X0319499Y0266649D01*
X0319400Y0266815D01*
X0319296Y0266978D01*
X0319189Y0267138D01*
X0319077Y0267295D01*
X0318962Y0267450D01*
X0318843Y0267602D01*
X0318721Y0267751D01*
X0318595Y0267898D01*
X0318465Y0268041D01*
X0318332Y0268181D01*
X0318196Y0268317D01*
X0318056Y0268451D01*
X0317914Y0268580D01*
X0317768Y0268707D01*
X0307478Y0268746D02*
X0307330Y0268619D01*
X0307185Y0268489D01*
X0307044Y0268356D01*
X0306905Y0268219D01*
X0306770Y0268079D01*
X0306639Y0267935D01*
X0306511Y0267788D01*
X0306386Y0267639D01*
X0306265Y0267486D01*
X0306148Y0267331D01*
X0306035Y0267172D01*
X0305926Y0267011D01*
X0305821Y0266847D01*
X0305719Y0266681D01*
X0305622Y0266512D01*
X0305529Y0266342D01*
X0305440Y0266168D01*
X0305355Y0265993D01*
X0305275Y0265816D01*
X0305199Y0265637D01*
X0305127Y0265456D01*
X0305060Y0265273D01*
X0304997Y0265089D01*
X0304939Y0264903D01*
X0304885Y0264716D01*
X0304836Y0264528D01*
X0304791Y0264338D01*
X0304751Y0264148D01*
X0304716Y0263956D01*
X0304685Y0263764D01*
X0304659Y0263571D01*
X0304638Y0263377D01*
X0304621Y0263183D01*
X0304609Y0262989D01*
X0304602Y0262795D01*
X0304600Y0262600D01*
X0268835Y0255541D02*
X0268667Y0255634D01*
X0268501Y0255730D01*
X0268337Y0255830D01*
X0268176Y0255935D01*
X0268017Y0256043D01*
X0267861Y0256155D01*
X0267707Y0256271D01*
X0267557Y0256390D01*
X0267409Y0256513D01*
X0267264Y0256639D01*
X0267123Y0256769D01*
X0266984Y0256902D01*
X0266849Y0257039D01*
X0266717Y0257179D01*
X0266589Y0257321D01*
X0266464Y0257467D01*
X0266342Y0257616D01*
X0266224Y0257768D01*
X0266110Y0257922D01*
X0266000Y0258080D01*
X0265893Y0258239D01*
X0265790Y0258402D01*
X0265691Y0258567D01*
X0265596Y0258734D01*
X0265506Y0258903D01*
X0265419Y0259074D01*
X0265336Y0259248D01*
X0265258Y0259423D01*
X0265184Y0259601D01*
X0265114Y0259780D01*
X0265048Y0259960D01*
X0264987Y0260142D01*
X0264930Y0260326D01*
X0264878Y0260511D01*
X0264830Y0260697D01*
X0264786Y0260884D01*
X0264747Y0261072D01*
X0264713Y0261261D01*
X0264683Y0261451D01*
X0264658Y0261641D01*
X0264637Y0261832D01*
X0264621Y0262024D01*
X0264609Y0262216D01*
X0264602Y0262408D01*
X0264600Y0262600D01*
X0276569Y0255654D02*
X0276738Y0255753D01*
X0276904Y0255857D01*
X0277068Y0255964D01*
X0277229Y0256075D01*
X0277387Y0256190D01*
X0277542Y0256309D01*
X0277695Y0256432D01*
X0277844Y0256558D01*
X0277990Y0256688D01*
X0278133Y0256822D01*
X0278273Y0256959D01*
X0278409Y0257099D01*
X0278542Y0257243D01*
X0278671Y0257390D01*
X0278797Y0257540D01*
X0278918Y0257693D01*
X0279037Y0257849D01*
X0279151Y0258008D01*
X0279261Y0258169D01*
X0279367Y0258334D01*
X0279470Y0258500D01*
X0279568Y0258670D01*
X0279662Y0258841D01*
X0279752Y0259015D01*
X0279837Y0259191D01*
X0279919Y0259369D01*
X0279995Y0259549D01*
X0280068Y0259731D01*
X0280136Y0259914D01*
X0280199Y0260099D01*
X0280258Y0260286D01*
X0280312Y0260474D01*
X0280362Y0260663D01*
X0280407Y0260853D01*
X0280447Y0261045D01*
X0280483Y0261237D01*
X0280514Y0261430D01*
X0280540Y0261624D01*
X0280562Y0261819D01*
X0280578Y0262014D01*
X0280590Y0262209D01*
X0280598Y0262405D01*
X0280600Y0262600D01*
X0280598Y0262793D01*
X0280591Y0262986D01*
X0280579Y0263178D01*
X0280563Y0263371D01*
X0280542Y0263563D01*
X0280516Y0263754D01*
X0280486Y0263944D01*
X0280451Y0264134D01*
X0280412Y0264323D01*
X0280368Y0264511D01*
X0280320Y0264698D01*
X0280267Y0264884D01*
X0280210Y0265068D01*
X0280148Y0265251D01*
X0280082Y0265432D01*
X0280011Y0265612D01*
X0279937Y0265790D01*
X0279858Y0265966D01*
X0279774Y0266140D01*
X0279687Y0266312D01*
X0279595Y0266482D01*
X0279499Y0266649D01*
X0279400Y0266815D01*
X0279296Y0266978D01*
X0279189Y0267138D01*
X0279077Y0267295D01*
X0278962Y0267450D01*
X0278843Y0267602D01*
X0278721Y0267751D01*
X0278595Y0267898D01*
X0278465Y0268041D01*
X0278332Y0268181D01*
X0278196Y0268317D01*
X0278056Y0268451D01*
X0277914Y0268580D01*
X0277768Y0268707D01*
X0267478Y0268746D02*
X0267330Y0268619D01*
X0267185Y0268489D01*
X0267044Y0268356D01*
X0266905Y0268219D01*
X0266770Y0268079D01*
X0266639Y0267935D01*
X0266511Y0267788D01*
X0266386Y0267639D01*
X0266265Y0267486D01*
X0266148Y0267331D01*
X0266035Y0267172D01*
X0265926Y0267011D01*
X0265821Y0266847D01*
X0265719Y0266681D01*
X0265622Y0266512D01*
X0265529Y0266342D01*
X0265440Y0266168D01*
X0265355Y0265993D01*
X0265275Y0265816D01*
X0265199Y0265637D01*
X0265127Y0265456D01*
X0265060Y0265273D01*
X0264997Y0265089D01*
X0264939Y0264903D01*
X0264885Y0264716D01*
X0264836Y0264528D01*
X0264791Y0264338D01*
X0264751Y0264148D01*
X0264716Y0263956D01*
X0264685Y0263764D01*
X0264659Y0263571D01*
X0264638Y0263377D01*
X0264621Y0263183D01*
X0264609Y0262989D01*
X0264602Y0262795D01*
X0264600Y0262600D01*
X0228835Y0255541D02*
X0228667Y0255634D01*
X0228501Y0255730D01*
X0228337Y0255830D01*
X0228176Y0255935D01*
X0228017Y0256043D01*
X0227861Y0256155D01*
X0227707Y0256271D01*
X0227557Y0256390D01*
X0227409Y0256513D01*
X0227264Y0256639D01*
X0227123Y0256769D01*
X0226984Y0256902D01*
X0226849Y0257039D01*
X0226717Y0257179D01*
X0226589Y0257321D01*
X0226464Y0257467D01*
X0226342Y0257616D01*
X0226224Y0257768D01*
X0226110Y0257922D01*
X0226000Y0258080D01*
X0225893Y0258239D01*
X0225790Y0258402D01*
X0225691Y0258567D01*
X0225596Y0258734D01*
X0225506Y0258903D01*
X0225419Y0259074D01*
X0225336Y0259248D01*
X0225258Y0259423D01*
X0225184Y0259601D01*
X0225114Y0259780D01*
X0225048Y0259960D01*
X0224987Y0260142D01*
X0224930Y0260326D01*
X0224878Y0260511D01*
X0224830Y0260697D01*
X0224786Y0260884D01*
X0224747Y0261072D01*
X0224713Y0261261D01*
X0224683Y0261451D01*
X0224658Y0261641D01*
X0224637Y0261832D01*
X0224621Y0262024D01*
X0224609Y0262216D01*
X0224602Y0262408D01*
X0224600Y0262600D01*
X0236569Y0255654D02*
X0236738Y0255753D01*
X0236904Y0255857D01*
X0237068Y0255964D01*
X0237229Y0256075D01*
X0237387Y0256190D01*
X0237542Y0256309D01*
X0237695Y0256432D01*
X0237844Y0256558D01*
X0237990Y0256688D01*
X0238133Y0256822D01*
X0238273Y0256959D01*
X0238409Y0257099D01*
X0238542Y0257243D01*
X0238671Y0257390D01*
X0238797Y0257540D01*
X0238918Y0257693D01*
X0239037Y0257849D01*
X0239151Y0258008D01*
X0239261Y0258169D01*
X0239367Y0258334D01*
X0239470Y0258500D01*
X0239568Y0258670D01*
X0239662Y0258841D01*
X0239752Y0259015D01*
X0239837Y0259191D01*
X0239919Y0259369D01*
X0239995Y0259549D01*
X0240068Y0259731D01*
X0240136Y0259914D01*
X0240199Y0260099D01*
X0240258Y0260286D01*
X0240312Y0260474D01*
X0240362Y0260663D01*
X0240407Y0260853D01*
X0240447Y0261045D01*
X0240483Y0261237D01*
X0240514Y0261430D01*
X0240540Y0261624D01*
X0240562Y0261819D01*
X0240578Y0262014D01*
X0240590Y0262209D01*
X0240598Y0262405D01*
X0240600Y0262600D01*
X0240598Y0262793D01*
X0240591Y0262986D01*
X0240579Y0263178D01*
X0240563Y0263371D01*
X0240542Y0263563D01*
X0240516Y0263754D01*
X0240486Y0263944D01*
X0240451Y0264134D01*
X0240412Y0264323D01*
X0240368Y0264511D01*
X0240320Y0264698D01*
X0240267Y0264884D01*
X0240210Y0265068D01*
X0240148Y0265251D01*
X0240082Y0265432D01*
X0240011Y0265612D01*
X0239937Y0265790D01*
X0239858Y0265966D01*
X0239774Y0266140D01*
X0239687Y0266312D01*
X0239595Y0266482D01*
X0239499Y0266649D01*
X0239400Y0266815D01*
X0239296Y0266978D01*
X0239189Y0267138D01*
X0239077Y0267295D01*
X0238962Y0267450D01*
X0238843Y0267602D01*
X0238721Y0267751D01*
X0238595Y0267898D01*
X0238465Y0268041D01*
X0238332Y0268181D01*
X0238196Y0268317D01*
X0238056Y0268451D01*
X0237914Y0268580D01*
X0237768Y0268707D01*
X0227478Y0268746D02*
X0227330Y0268619D01*
X0227185Y0268489D01*
X0227044Y0268356D01*
X0226905Y0268219D01*
X0226770Y0268079D01*
X0226639Y0267935D01*
X0226511Y0267788D01*
X0226386Y0267639D01*
X0226265Y0267486D01*
X0226148Y0267331D01*
X0226035Y0267172D01*
X0225926Y0267011D01*
X0225821Y0266847D01*
X0225719Y0266681D01*
X0225622Y0266512D01*
X0225529Y0266342D01*
X0225440Y0266168D01*
X0225355Y0265993D01*
X0225275Y0265816D01*
X0225199Y0265637D01*
X0225127Y0265456D01*
X0225060Y0265273D01*
X0224997Y0265089D01*
X0224939Y0264903D01*
X0224885Y0264716D01*
X0224836Y0264528D01*
X0224791Y0264338D01*
X0224751Y0264148D01*
X0224716Y0263956D01*
X0224685Y0263764D01*
X0224659Y0263571D01*
X0224638Y0263377D01*
X0224621Y0263183D01*
X0224609Y0262989D01*
X0224602Y0262795D01*
X0224600Y0262600D01*
X0188835Y0255541D02*
X0188667Y0255634D01*
X0188501Y0255730D01*
X0188337Y0255830D01*
X0188176Y0255935D01*
X0188017Y0256043D01*
X0187861Y0256155D01*
X0187707Y0256271D01*
X0187557Y0256390D01*
X0187409Y0256513D01*
X0187264Y0256639D01*
X0187123Y0256769D01*
X0186984Y0256902D01*
X0186849Y0257039D01*
X0186717Y0257179D01*
X0186589Y0257321D01*
X0186464Y0257467D01*
X0186342Y0257616D01*
X0186224Y0257768D01*
X0186110Y0257922D01*
X0186000Y0258080D01*
X0185893Y0258239D01*
X0185790Y0258402D01*
X0185691Y0258567D01*
X0185596Y0258734D01*
X0185506Y0258903D01*
X0185419Y0259074D01*
X0185336Y0259248D01*
X0185258Y0259423D01*
X0185184Y0259601D01*
X0185114Y0259780D01*
X0185048Y0259960D01*
X0184987Y0260142D01*
X0184930Y0260326D01*
X0184878Y0260511D01*
X0184830Y0260697D01*
X0184786Y0260884D01*
X0184747Y0261072D01*
X0184713Y0261261D01*
X0184683Y0261451D01*
X0184658Y0261641D01*
X0184637Y0261832D01*
X0184621Y0262024D01*
X0184609Y0262216D01*
X0184602Y0262408D01*
X0184600Y0262600D01*
X0196569Y0255654D02*
X0196738Y0255753D01*
X0196904Y0255857D01*
X0197068Y0255964D01*
X0197229Y0256075D01*
X0197387Y0256190D01*
X0197542Y0256309D01*
X0197695Y0256432D01*
X0197844Y0256558D01*
X0197990Y0256688D01*
X0198133Y0256822D01*
X0198273Y0256959D01*
X0198409Y0257099D01*
X0198542Y0257243D01*
X0198671Y0257390D01*
X0198797Y0257540D01*
X0198918Y0257693D01*
X0199037Y0257849D01*
X0199151Y0258008D01*
X0199261Y0258169D01*
X0199367Y0258334D01*
X0199470Y0258500D01*
X0199568Y0258670D01*
X0199662Y0258841D01*
X0199752Y0259015D01*
X0199837Y0259191D01*
X0199919Y0259369D01*
X0199995Y0259549D01*
X0200068Y0259731D01*
X0200136Y0259914D01*
X0200199Y0260099D01*
X0200258Y0260286D01*
X0200312Y0260474D01*
X0200362Y0260663D01*
X0200407Y0260853D01*
X0200447Y0261045D01*
X0200483Y0261237D01*
X0200514Y0261430D01*
X0200540Y0261624D01*
X0200562Y0261819D01*
X0200578Y0262014D01*
X0200590Y0262209D01*
X0200598Y0262405D01*
X0200600Y0262600D01*
X0200598Y0262793D01*
X0200591Y0262986D01*
X0200579Y0263178D01*
X0200563Y0263371D01*
X0200542Y0263563D01*
X0200516Y0263754D01*
X0200486Y0263944D01*
X0200451Y0264134D01*
X0200412Y0264323D01*
X0200368Y0264511D01*
X0200320Y0264698D01*
X0200267Y0264884D01*
X0200210Y0265068D01*
X0200148Y0265251D01*
X0200082Y0265432D01*
X0200011Y0265612D01*
X0199937Y0265790D01*
X0199858Y0265966D01*
X0199774Y0266140D01*
X0199687Y0266312D01*
X0199595Y0266482D01*
X0199499Y0266649D01*
X0199400Y0266815D01*
X0199296Y0266978D01*
X0199189Y0267138D01*
X0199077Y0267295D01*
X0198962Y0267450D01*
X0198843Y0267602D01*
X0198721Y0267751D01*
X0198595Y0267898D01*
X0198465Y0268041D01*
X0198332Y0268181D01*
X0198196Y0268317D01*
X0198056Y0268451D01*
X0197914Y0268580D01*
X0197768Y0268707D01*
X0187478Y0268746D02*
X0187330Y0268619D01*
X0187185Y0268489D01*
X0187044Y0268356D01*
X0186905Y0268219D01*
X0186770Y0268079D01*
X0186639Y0267935D01*
X0186511Y0267788D01*
X0186386Y0267639D01*
X0186265Y0267486D01*
X0186148Y0267331D01*
X0186035Y0267172D01*
X0185926Y0267011D01*
X0185821Y0266847D01*
X0185719Y0266681D01*
X0185622Y0266512D01*
X0185529Y0266342D01*
X0185440Y0266168D01*
X0185355Y0265993D01*
X0185275Y0265816D01*
X0185199Y0265637D01*
X0185127Y0265456D01*
X0185060Y0265273D01*
X0184997Y0265089D01*
X0184939Y0264903D01*
X0184885Y0264716D01*
X0184836Y0264528D01*
X0184791Y0264338D01*
X0184751Y0264148D01*
X0184716Y0263956D01*
X0184685Y0263764D01*
X0184659Y0263571D01*
X0184638Y0263377D01*
X0184621Y0263183D01*
X0184609Y0262989D01*
X0184602Y0262795D01*
X0184600Y0262600D01*
X0148835Y0255541D02*
X0148667Y0255634D01*
X0148501Y0255730D01*
X0148337Y0255830D01*
X0148176Y0255935D01*
X0148017Y0256043D01*
X0147861Y0256155D01*
X0147707Y0256271D01*
X0147557Y0256390D01*
X0147409Y0256513D01*
X0147264Y0256639D01*
X0147123Y0256769D01*
X0146984Y0256902D01*
X0146849Y0257039D01*
X0146717Y0257179D01*
X0146589Y0257321D01*
X0146464Y0257467D01*
X0146342Y0257616D01*
X0146224Y0257768D01*
X0146110Y0257922D01*
X0146000Y0258080D01*
X0145893Y0258239D01*
X0145790Y0258402D01*
X0145691Y0258567D01*
X0145596Y0258734D01*
X0145506Y0258903D01*
X0145419Y0259074D01*
X0145336Y0259248D01*
X0145258Y0259423D01*
X0145184Y0259601D01*
X0145114Y0259780D01*
X0145048Y0259960D01*
X0144987Y0260142D01*
X0144930Y0260326D01*
X0144878Y0260511D01*
X0144830Y0260697D01*
X0144786Y0260884D01*
X0144747Y0261072D01*
X0144713Y0261261D01*
X0144683Y0261451D01*
X0144658Y0261641D01*
X0144637Y0261832D01*
X0144621Y0262024D01*
X0144609Y0262216D01*
X0144602Y0262408D01*
X0144600Y0262600D01*
X0156569Y0255654D02*
X0156738Y0255753D01*
X0156904Y0255857D01*
X0157068Y0255964D01*
X0157229Y0256075D01*
X0157387Y0256190D01*
X0157542Y0256309D01*
X0157695Y0256432D01*
X0157844Y0256558D01*
X0157990Y0256688D01*
X0158133Y0256822D01*
X0158273Y0256959D01*
X0158409Y0257099D01*
X0158542Y0257243D01*
X0158671Y0257390D01*
X0158797Y0257540D01*
X0158918Y0257693D01*
X0159037Y0257849D01*
X0159151Y0258008D01*
X0159261Y0258169D01*
X0159367Y0258334D01*
X0159470Y0258500D01*
X0159568Y0258670D01*
X0159662Y0258841D01*
X0159752Y0259015D01*
X0159837Y0259191D01*
X0159919Y0259369D01*
X0159995Y0259549D01*
X0160068Y0259731D01*
X0160136Y0259914D01*
X0160199Y0260099D01*
X0160258Y0260286D01*
X0160312Y0260474D01*
X0160362Y0260663D01*
X0160407Y0260853D01*
X0160447Y0261045D01*
X0160483Y0261237D01*
X0160514Y0261430D01*
X0160540Y0261624D01*
X0160562Y0261819D01*
X0160578Y0262014D01*
X0160590Y0262209D01*
X0160598Y0262405D01*
X0160600Y0262600D01*
X0160598Y0262793D01*
X0160591Y0262986D01*
X0160579Y0263178D01*
X0160563Y0263371D01*
X0160542Y0263563D01*
X0160516Y0263754D01*
X0160486Y0263944D01*
X0160451Y0264134D01*
X0160412Y0264323D01*
X0160368Y0264511D01*
X0160320Y0264698D01*
X0160267Y0264884D01*
X0160210Y0265068D01*
X0160148Y0265251D01*
X0160082Y0265432D01*
X0160011Y0265612D01*
X0159937Y0265790D01*
X0159858Y0265966D01*
X0159774Y0266140D01*
X0159687Y0266312D01*
X0159595Y0266482D01*
X0159499Y0266649D01*
X0159400Y0266815D01*
X0159296Y0266978D01*
X0159189Y0267138D01*
X0159077Y0267295D01*
X0158962Y0267450D01*
X0158843Y0267602D01*
X0158721Y0267751D01*
X0158595Y0267898D01*
X0158465Y0268041D01*
X0158332Y0268181D01*
X0158196Y0268317D01*
X0158056Y0268451D01*
X0157914Y0268580D01*
X0157768Y0268707D01*
X0147478Y0268746D02*
X0147330Y0268619D01*
X0147185Y0268489D01*
X0147044Y0268356D01*
X0146905Y0268219D01*
X0146770Y0268079D01*
X0146639Y0267935D01*
X0146511Y0267788D01*
X0146386Y0267639D01*
X0146265Y0267486D01*
X0146148Y0267331D01*
X0146035Y0267172D01*
X0145926Y0267011D01*
X0145821Y0266847D01*
X0145719Y0266681D01*
X0145622Y0266512D01*
X0145529Y0266342D01*
X0145440Y0266168D01*
X0145355Y0265993D01*
X0145275Y0265816D01*
X0145199Y0265637D01*
X0145127Y0265456D01*
X0145060Y0265273D01*
X0144997Y0265089D01*
X0144939Y0264903D01*
X0144885Y0264716D01*
X0144836Y0264528D01*
X0144791Y0264338D01*
X0144751Y0264148D01*
X0144716Y0263956D01*
X0144685Y0263764D01*
X0144659Y0263571D01*
X0144638Y0263377D01*
X0144621Y0263183D01*
X0144609Y0262989D01*
X0144602Y0262795D01*
X0144600Y0262600D01*
X0108835Y0255541D02*
X0108667Y0255634D01*
X0108501Y0255730D01*
X0108337Y0255830D01*
X0108176Y0255935D01*
X0108017Y0256043D01*
X0107861Y0256155D01*
X0107707Y0256271D01*
X0107557Y0256390D01*
X0107409Y0256513D01*
X0107264Y0256639D01*
X0107123Y0256769D01*
X0106984Y0256902D01*
X0106849Y0257039D01*
X0106717Y0257179D01*
X0106589Y0257321D01*
X0106464Y0257467D01*
X0106342Y0257616D01*
X0106224Y0257768D01*
X0106110Y0257922D01*
X0106000Y0258080D01*
X0105893Y0258239D01*
X0105790Y0258402D01*
X0105691Y0258567D01*
X0105596Y0258734D01*
X0105506Y0258903D01*
X0105419Y0259074D01*
X0105336Y0259248D01*
X0105258Y0259423D01*
X0105184Y0259601D01*
X0105114Y0259780D01*
X0105048Y0259960D01*
X0104987Y0260142D01*
X0104930Y0260326D01*
X0104878Y0260511D01*
X0104830Y0260697D01*
X0104786Y0260884D01*
X0104747Y0261072D01*
X0104713Y0261261D01*
X0104683Y0261451D01*
X0104658Y0261641D01*
X0104637Y0261832D01*
X0104621Y0262024D01*
X0104609Y0262216D01*
X0104602Y0262408D01*
X0104600Y0262600D01*
X0116569Y0255654D02*
X0116738Y0255753D01*
X0116904Y0255857D01*
X0117068Y0255964D01*
X0117229Y0256075D01*
X0117387Y0256190D01*
X0117542Y0256309D01*
X0117695Y0256432D01*
X0117844Y0256558D01*
X0117990Y0256688D01*
X0118133Y0256822D01*
X0118273Y0256959D01*
X0118409Y0257099D01*
X0118542Y0257243D01*
X0118671Y0257390D01*
X0118797Y0257540D01*
X0118918Y0257693D01*
X0119037Y0257849D01*
X0119151Y0258008D01*
X0119261Y0258169D01*
X0119367Y0258334D01*
X0119470Y0258500D01*
X0119568Y0258670D01*
X0119662Y0258841D01*
X0119752Y0259015D01*
X0119837Y0259191D01*
X0119919Y0259369D01*
X0119995Y0259549D01*
X0120068Y0259731D01*
X0120136Y0259914D01*
X0120199Y0260099D01*
X0120258Y0260286D01*
X0120312Y0260474D01*
X0120362Y0260663D01*
X0120407Y0260853D01*
X0120447Y0261045D01*
X0120483Y0261237D01*
X0120514Y0261430D01*
X0120540Y0261624D01*
X0120562Y0261819D01*
X0120578Y0262014D01*
X0120590Y0262209D01*
X0120598Y0262405D01*
X0120600Y0262600D01*
X0120598Y0262793D01*
X0120591Y0262986D01*
X0120579Y0263178D01*
X0120563Y0263371D01*
X0120542Y0263563D01*
X0120516Y0263754D01*
X0120486Y0263944D01*
X0120451Y0264134D01*
X0120412Y0264323D01*
X0120368Y0264511D01*
X0120320Y0264698D01*
X0120267Y0264884D01*
X0120210Y0265068D01*
X0120148Y0265251D01*
X0120082Y0265432D01*
X0120011Y0265612D01*
X0119937Y0265790D01*
X0119858Y0265966D01*
X0119774Y0266140D01*
X0119687Y0266312D01*
X0119595Y0266482D01*
X0119499Y0266649D01*
X0119400Y0266815D01*
X0119296Y0266978D01*
X0119189Y0267138D01*
X0119077Y0267295D01*
X0118962Y0267450D01*
X0118843Y0267602D01*
X0118721Y0267751D01*
X0118595Y0267898D01*
X0118465Y0268041D01*
X0118332Y0268181D01*
X0118196Y0268317D01*
X0118056Y0268451D01*
X0117914Y0268580D01*
X0117768Y0268707D01*
X0107478Y0268746D02*
X0107330Y0268619D01*
X0107185Y0268489D01*
X0107044Y0268356D01*
X0106905Y0268219D01*
X0106770Y0268079D01*
X0106639Y0267935D01*
X0106511Y0267788D01*
X0106386Y0267639D01*
X0106265Y0267486D01*
X0106148Y0267331D01*
X0106035Y0267172D01*
X0105926Y0267011D01*
X0105821Y0266847D01*
X0105719Y0266681D01*
X0105622Y0266512D01*
X0105529Y0266342D01*
X0105440Y0266168D01*
X0105355Y0265993D01*
X0105275Y0265816D01*
X0105199Y0265637D01*
X0105127Y0265456D01*
X0105060Y0265273D01*
X0104997Y0265089D01*
X0104939Y0264903D01*
X0104885Y0264716D01*
X0104836Y0264528D01*
X0104791Y0264338D01*
X0104751Y0264148D01*
X0104716Y0263956D01*
X0104685Y0263764D01*
X0104659Y0263571D01*
X0104638Y0263377D01*
X0104621Y0263183D01*
X0104609Y0262989D01*
X0104602Y0262795D01*
X0104600Y0262600D01*
X0068835Y0255541D02*
X0068667Y0255634D01*
X0068501Y0255730D01*
X0068337Y0255830D01*
X0068176Y0255935D01*
X0068017Y0256043D01*
X0067861Y0256155D01*
X0067707Y0256271D01*
X0067557Y0256390D01*
X0067409Y0256513D01*
X0067264Y0256639D01*
X0067123Y0256769D01*
X0066984Y0256902D01*
X0066849Y0257039D01*
X0066717Y0257179D01*
X0066589Y0257321D01*
X0066464Y0257467D01*
X0066342Y0257616D01*
X0066224Y0257768D01*
X0066110Y0257922D01*
X0066000Y0258080D01*
X0065893Y0258239D01*
X0065790Y0258402D01*
X0065691Y0258567D01*
X0065596Y0258734D01*
X0065506Y0258903D01*
X0065419Y0259074D01*
X0065336Y0259248D01*
X0065258Y0259423D01*
X0065184Y0259601D01*
X0065114Y0259780D01*
X0065048Y0259960D01*
X0064987Y0260142D01*
X0064930Y0260326D01*
X0064878Y0260511D01*
X0064830Y0260697D01*
X0064786Y0260884D01*
X0064747Y0261072D01*
X0064713Y0261261D01*
X0064683Y0261451D01*
X0064658Y0261641D01*
X0064637Y0261832D01*
X0064621Y0262024D01*
X0064609Y0262216D01*
X0064602Y0262408D01*
X0064600Y0262600D01*
X0076569Y0255654D02*
X0076738Y0255753D01*
X0076904Y0255857D01*
X0077068Y0255964D01*
X0077229Y0256075D01*
X0077387Y0256190D01*
X0077542Y0256309D01*
X0077695Y0256432D01*
X0077844Y0256558D01*
X0077990Y0256688D01*
X0078133Y0256822D01*
X0078273Y0256959D01*
X0078409Y0257099D01*
X0078542Y0257243D01*
X0078671Y0257390D01*
X0078797Y0257540D01*
X0078918Y0257693D01*
X0079037Y0257849D01*
X0079151Y0258008D01*
X0079261Y0258169D01*
X0079367Y0258334D01*
X0079470Y0258500D01*
X0079568Y0258670D01*
X0079662Y0258841D01*
X0079752Y0259015D01*
X0079837Y0259191D01*
X0079919Y0259369D01*
X0079995Y0259549D01*
X0080068Y0259731D01*
X0080136Y0259914D01*
X0080199Y0260099D01*
X0080258Y0260286D01*
X0080312Y0260474D01*
X0080362Y0260663D01*
X0080407Y0260853D01*
X0080447Y0261045D01*
X0080483Y0261237D01*
X0080514Y0261430D01*
X0080540Y0261624D01*
X0080562Y0261819D01*
X0080578Y0262014D01*
X0080590Y0262209D01*
X0080598Y0262405D01*
X0080600Y0262600D01*
X0080598Y0262793D01*
X0080591Y0262986D01*
X0080579Y0263178D01*
X0080563Y0263371D01*
X0080542Y0263563D01*
X0080516Y0263754D01*
X0080486Y0263944D01*
X0080451Y0264134D01*
X0080412Y0264323D01*
X0080368Y0264511D01*
X0080320Y0264698D01*
X0080267Y0264884D01*
X0080210Y0265068D01*
X0080148Y0265251D01*
X0080082Y0265432D01*
X0080011Y0265612D01*
X0079937Y0265790D01*
X0079858Y0265966D01*
X0079774Y0266140D01*
X0079687Y0266312D01*
X0079595Y0266482D01*
X0079499Y0266649D01*
X0079400Y0266815D01*
X0079296Y0266978D01*
X0079189Y0267138D01*
X0079077Y0267295D01*
X0078962Y0267450D01*
X0078843Y0267602D01*
X0078721Y0267751D01*
X0078595Y0267898D01*
X0078465Y0268041D01*
X0078332Y0268181D01*
X0078196Y0268317D01*
X0078056Y0268451D01*
X0077914Y0268580D01*
X0077768Y0268707D01*
X0067478Y0268746D02*
X0067330Y0268619D01*
X0067185Y0268489D01*
X0067044Y0268356D01*
X0066905Y0268219D01*
X0066770Y0268079D01*
X0066639Y0267935D01*
X0066511Y0267788D01*
X0066386Y0267639D01*
X0066265Y0267486D01*
X0066148Y0267331D01*
X0066035Y0267172D01*
X0065926Y0267011D01*
X0065821Y0266847D01*
X0065719Y0266681D01*
X0065622Y0266512D01*
X0065529Y0266342D01*
X0065440Y0266168D01*
X0065355Y0265993D01*
X0065275Y0265816D01*
X0065199Y0265637D01*
X0065127Y0265456D01*
X0065060Y0265273D01*
X0064997Y0265089D01*
X0064939Y0264903D01*
X0064885Y0264716D01*
X0064836Y0264528D01*
X0064791Y0264338D01*
X0064751Y0264148D01*
X0064716Y0263956D01*
X0064685Y0263764D01*
X0064659Y0263571D01*
X0064638Y0263377D01*
X0064621Y0263183D01*
X0064609Y0262989D01*
X0064602Y0262795D01*
X0064600Y0262600D01*
D13*
X0072600Y0233350D03*
X0072600Y0211850D03*
X0112600Y0211850D03*
X0112600Y0233350D03*
X0152600Y0233350D03*
X0152600Y0211850D03*
X0192600Y0211850D03*
X0192600Y0233350D03*
X0232600Y0233350D03*
X0232600Y0211850D03*
X0272600Y0211850D03*
X0272600Y0233350D03*
X0312600Y0233350D03*
X0312600Y0211850D03*
X0352600Y0211850D03*
X0352600Y0233350D03*
D14*
X0319850Y0090853D02*
X0319850Y0087850D01*
X0319850Y0089351D02*
X0315346Y0089351D01*
X0316847Y0087850D01*
D15*
X0185868Y0027600D02*
X0185870Y0027705D01*
X0185876Y0027810D01*
X0185886Y0027914D01*
X0185900Y0028018D01*
X0185918Y0028122D01*
X0185940Y0028224D01*
X0185965Y0028326D01*
X0185995Y0028427D01*
X0186028Y0028526D01*
X0186065Y0028624D01*
X0186106Y0028721D01*
X0186151Y0028816D01*
X0186199Y0028909D01*
X0186250Y0029001D01*
X0186306Y0029090D01*
X0186364Y0029177D01*
X0186426Y0029262D01*
X0186490Y0029345D01*
X0186558Y0029425D01*
X0186629Y0029502D01*
X0186703Y0029576D01*
X0186780Y0029648D01*
X0186859Y0029717D01*
X0186941Y0029782D01*
X0187025Y0029845D01*
X0187112Y0029904D01*
X0187201Y0029960D01*
X0187292Y0030013D01*
X0187385Y0030062D01*
X0187479Y0030107D01*
X0187575Y0030149D01*
X0187673Y0030187D01*
X0187772Y0030221D01*
X0187873Y0030252D01*
X0187974Y0030278D01*
X0188077Y0030301D01*
X0188180Y0030320D01*
X0188284Y0030335D01*
X0188388Y0030346D01*
X0188493Y0030353D01*
X0188598Y0030356D01*
X0188703Y0030355D01*
X0188808Y0030350D01*
X0188912Y0030341D01*
X0189016Y0030328D01*
X0189120Y0030311D01*
X0189223Y0030290D01*
X0189325Y0030265D01*
X0189426Y0030237D01*
X0189525Y0030204D01*
X0189624Y0030168D01*
X0189721Y0030128D01*
X0189816Y0030085D01*
X0189910Y0030037D01*
X0190002Y0029987D01*
X0190092Y0029933D01*
X0190180Y0029875D01*
X0190265Y0029814D01*
X0190348Y0029750D01*
X0190429Y0029683D01*
X0190507Y0029613D01*
X0190582Y0029539D01*
X0190654Y0029464D01*
X0190724Y0029385D01*
X0190790Y0029304D01*
X0190854Y0029220D01*
X0190914Y0029134D01*
X0190970Y0029046D01*
X0191024Y0028955D01*
X0191074Y0028863D01*
X0191120Y0028769D01*
X0191163Y0028673D01*
X0191202Y0028575D01*
X0191237Y0028477D01*
X0191268Y0028376D01*
X0191296Y0028275D01*
X0191320Y0028173D01*
X0191340Y0028070D01*
X0191356Y0027966D01*
X0191368Y0027862D01*
X0191376Y0027757D01*
X0191380Y0027652D01*
X0191380Y0027548D01*
X0191376Y0027443D01*
X0191368Y0027338D01*
X0191356Y0027234D01*
X0191340Y0027130D01*
X0191320Y0027027D01*
X0191296Y0026925D01*
X0191268Y0026824D01*
X0191237Y0026723D01*
X0191202Y0026625D01*
X0191163Y0026527D01*
X0191120Y0026431D01*
X0191074Y0026337D01*
X0191024Y0026245D01*
X0190970Y0026154D01*
X0190914Y0026066D01*
X0190854Y0025980D01*
X0190790Y0025896D01*
X0190724Y0025815D01*
X0190654Y0025736D01*
X0190582Y0025661D01*
X0190507Y0025587D01*
X0190429Y0025517D01*
X0190348Y0025450D01*
X0190265Y0025386D01*
X0190180Y0025325D01*
X0190092Y0025267D01*
X0190002Y0025213D01*
X0189910Y0025163D01*
X0189816Y0025115D01*
X0189721Y0025072D01*
X0189624Y0025032D01*
X0189525Y0024996D01*
X0189426Y0024963D01*
X0189325Y0024935D01*
X0189223Y0024910D01*
X0189120Y0024889D01*
X0189016Y0024872D01*
X0188912Y0024859D01*
X0188808Y0024850D01*
X0188703Y0024845D01*
X0188598Y0024844D01*
X0188493Y0024847D01*
X0188388Y0024854D01*
X0188284Y0024865D01*
X0188180Y0024880D01*
X0188077Y0024899D01*
X0187974Y0024922D01*
X0187873Y0024948D01*
X0187772Y0024979D01*
X0187673Y0025013D01*
X0187575Y0025051D01*
X0187479Y0025093D01*
X0187385Y0025138D01*
X0187292Y0025187D01*
X0187201Y0025240D01*
X0187112Y0025296D01*
X0187025Y0025355D01*
X0186941Y0025418D01*
X0186859Y0025483D01*
X0186780Y0025552D01*
X0186703Y0025624D01*
X0186629Y0025698D01*
X0186558Y0025775D01*
X0186490Y0025855D01*
X0186426Y0025938D01*
X0186364Y0026023D01*
X0186306Y0026110D01*
X0186250Y0026199D01*
X0186199Y0026291D01*
X0186151Y0026384D01*
X0186106Y0026479D01*
X0186065Y0026576D01*
X0186028Y0026674D01*
X0185995Y0026773D01*
X0185965Y0026874D01*
X0185940Y0026976D01*
X0185918Y0027078D01*
X0185900Y0027182D01*
X0185886Y0027286D01*
X0185876Y0027390D01*
X0185870Y0027495D01*
X0185868Y0027600D01*
X0063820Y0027600D02*
X0063822Y0027705D01*
X0063828Y0027810D01*
X0063838Y0027914D01*
X0063852Y0028018D01*
X0063870Y0028122D01*
X0063892Y0028224D01*
X0063917Y0028326D01*
X0063947Y0028427D01*
X0063980Y0028526D01*
X0064017Y0028624D01*
X0064058Y0028721D01*
X0064103Y0028816D01*
X0064151Y0028909D01*
X0064202Y0029001D01*
X0064258Y0029090D01*
X0064316Y0029177D01*
X0064378Y0029262D01*
X0064442Y0029345D01*
X0064510Y0029425D01*
X0064581Y0029502D01*
X0064655Y0029576D01*
X0064732Y0029648D01*
X0064811Y0029717D01*
X0064893Y0029782D01*
X0064977Y0029845D01*
X0065064Y0029904D01*
X0065153Y0029960D01*
X0065244Y0030013D01*
X0065337Y0030062D01*
X0065431Y0030107D01*
X0065527Y0030149D01*
X0065625Y0030187D01*
X0065724Y0030221D01*
X0065825Y0030252D01*
X0065926Y0030278D01*
X0066029Y0030301D01*
X0066132Y0030320D01*
X0066236Y0030335D01*
X0066340Y0030346D01*
X0066445Y0030353D01*
X0066550Y0030356D01*
X0066655Y0030355D01*
X0066760Y0030350D01*
X0066864Y0030341D01*
X0066968Y0030328D01*
X0067072Y0030311D01*
X0067175Y0030290D01*
X0067277Y0030265D01*
X0067378Y0030237D01*
X0067477Y0030204D01*
X0067576Y0030168D01*
X0067673Y0030128D01*
X0067768Y0030085D01*
X0067862Y0030037D01*
X0067954Y0029987D01*
X0068044Y0029933D01*
X0068132Y0029875D01*
X0068217Y0029814D01*
X0068300Y0029750D01*
X0068381Y0029683D01*
X0068459Y0029613D01*
X0068534Y0029539D01*
X0068606Y0029464D01*
X0068676Y0029385D01*
X0068742Y0029304D01*
X0068806Y0029220D01*
X0068866Y0029134D01*
X0068922Y0029046D01*
X0068976Y0028955D01*
X0069026Y0028863D01*
X0069072Y0028769D01*
X0069115Y0028673D01*
X0069154Y0028575D01*
X0069189Y0028477D01*
X0069220Y0028376D01*
X0069248Y0028275D01*
X0069272Y0028173D01*
X0069292Y0028070D01*
X0069308Y0027966D01*
X0069320Y0027862D01*
X0069328Y0027757D01*
X0069332Y0027652D01*
X0069332Y0027548D01*
X0069328Y0027443D01*
X0069320Y0027338D01*
X0069308Y0027234D01*
X0069292Y0027130D01*
X0069272Y0027027D01*
X0069248Y0026925D01*
X0069220Y0026824D01*
X0069189Y0026723D01*
X0069154Y0026625D01*
X0069115Y0026527D01*
X0069072Y0026431D01*
X0069026Y0026337D01*
X0068976Y0026245D01*
X0068922Y0026154D01*
X0068866Y0026066D01*
X0068806Y0025980D01*
X0068742Y0025896D01*
X0068676Y0025815D01*
X0068606Y0025736D01*
X0068534Y0025661D01*
X0068459Y0025587D01*
X0068381Y0025517D01*
X0068300Y0025450D01*
X0068217Y0025386D01*
X0068132Y0025325D01*
X0068044Y0025267D01*
X0067954Y0025213D01*
X0067862Y0025163D01*
X0067768Y0025115D01*
X0067673Y0025072D01*
X0067576Y0025032D01*
X0067477Y0024996D01*
X0067378Y0024963D01*
X0067277Y0024935D01*
X0067175Y0024910D01*
X0067072Y0024889D01*
X0066968Y0024872D01*
X0066864Y0024859D01*
X0066760Y0024850D01*
X0066655Y0024845D01*
X0066550Y0024844D01*
X0066445Y0024847D01*
X0066340Y0024854D01*
X0066236Y0024865D01*
X0066132Y0024880D01*
X0066029Y0024899D01*
X0065926Y0024922D01*
X0065825Y0024948D01*
X0065724Y0024979D01*
X0065625Y0025013D01*
X0065527Y0025051D01*
X0065431Y0025093D01*
X0065337Y0025138D01*
X0065244Y0025187D01*
X0065153Y0025240D01*
X0065064Y0025296D01*
X0064977Y0025355D01*
X0064893Y0025418D01*
X0064811Y0025483D01*
X0064732Y0025552D01*
X0064655Y0025624D01*
X0064581Y0025698D01*
X0064510Y0025775D01*
X0064442Y0025855D01*
X0064378Y0025938D01*
X0064316Y0026023D01*
X0064258Y0026110D01*
X0064202Y0026199D01*
X0064151Y0026291D01*
X0064103Y0026384D01*
X0064058Y0026479D01*
X0064017Y0026576D01*
X0063980Y0026674D01*
X0063947Y0026773D01*
X0063917Y0026874D01*
X0063892Y0026976D01*
X0063870Y0027078D01*
X0063852Y0027182D01*
X0063838Y0027286D01*
X0063828Y0027390D01*
X0063822Y0027495D01*
X0063820Y0027600D01*
D16*
X0061850Y0087600D03*
X0066850Y0097600D03*
X0083350Y0087600D03*
X0088350Y0097600D03*
X0236850Y0142600D03*
X0258350Y0142600D03*
X0276850Y0117600D03*
X0276850Y0107600D03*
X0276850Y0097600D03*
X0298350Y0097600D03*
X0298350Y0107600D03*
X0298350Y0117600D03*
M02*
