%
M48
M72
T01C0.02362
T02C0.02756
T03C0.03200
T04C0.04000
T05C0.05906
T06C0.12598
%
T01
X122600Y52600
X127600Y62600
X117600Y127600
X107600Y127600
X232600Y67600
X272600Y67600
T02
X222600Y77600
X212600Y77600
T03
X212600Y87600
X222600Y87600
X232600Y87600
X242600Y87600
X252600Y87600
X262600Y87600
X272600Y97600
X272600Y107600
X272600Y117600
X262600Y117600
X252600Y117600
X242600Y117600
X232600Y117600
X222600Y117600
X212600Y117600
X202600Y117600
X192600Y117600
X182600Y117600
X172600Y117600
X162600Y117600
X152600Y117600
X142600Y117600
X132600Y117600
X132600Y87600
X142600Y87600
X152600Y87600
X162600Y87600
X172600Y87600
X182600Y87600
X192600Y87600
X202600Y87600
X232600Y142600
X262600Y142600
X302600Y117600
X302600Y107600
X302600Y97600
X312600Y207600
X312600Y237600
X312600Y257600
X312600Y267600
X272600Y267600
X272600Y257600
X272600Y237600
X272600Y207600
X232600Y207600
X232600Y237600
X232600Y257600
X232600Y267600
X192600Y267600
X192600Y257600
X192600Y237600
X192600Y207600
X152600Y207600
X152600Y237600
X152600Y257600
X152600Y267600
X112600Y267600
X112600Y257600
X112600Y237600
X112600Y207600
X72600Y207600
X72600Y237600
X72600Y257600
X72600Y267600
X62600Y97600
X57600Y87600
X87600Y87600
X92600Y97600
X352600Y207600
X352600Y237600
X352600Y257600
X352600Y267600
T04
X202600Y178100
X192600Y177100
X182600Y178100
X172600Y177100
X162600Y178100
X152600Y177100
X142600Y178100
X132600Y177100
X122600Y178100
X122600Y153100
X132600Y152100
X142600Y153100
X152600Y152100
X162600Y153100
X172600Y152100
X182600Y153100
X192600Y152100
X202600Y153100
X317600Y117600
X317600Y107600
X317600Y97600
X337600Y97600
X337600Y107600
X337600Y117600
X357600Y117600
X357600Y107600
X357600Y97600
X387100Y92600
X388100Y82600
X387100Y72600
X388100Y62600
X387100Y52600
X388100Y42600
X387100Y32600
X388100Y102600
X387100Y112600
X388100Y122600
X387100Y132600
X388100Y142600
X18100Y107600
X17100Y97600
X18100Y87600
X17100Y77600
X18100Y67600
X17100Y57600
X17100Y117600
T05
X61655Y35474
X61655Y19726
X193545Y19726
T06
X12600Y12600
X12600Y152600
X12600Y187600
X42600Y262600
X12600Y307600
X212600Y307600
X212600Y217600
X367600Y152600
X382600Y187600
X382600Y262600
X382600Y307600
X387600Y12600
M30
